<?xml version="1.0" standalone="no"?>
 <!DOCTYPE svg PUBLIC "-//W3C//DTD SVG 1.1//EN" 
 "http://www.w3.org/Graphics/SVG/1.1/DTD/svg11.dtd"> 
<svg
  xmlns:svg="http://www.w3.org/2000/svg"
  xmlns="http://www.w3.org/2000/svg"
  xmlns:xlink="http://www.w3.org/1999/xlink"
  version="1.1"
  width="61.9252mm" height="28.5242mm" viewBox="0.0000 0.0000 61.9252 28.5242">
<title>SVG Image created as dual_axis_i2c_analog_mouse_Mk1_rev0-Edge_Cuts.svg date 2024/12/20 09:37:59 </title>
  <desc>Image generated by PCBNEW </desc>
<g style="fill:#000000; fill-opacity:1.0000;stroke:#000000; stroke-opacity:1.0000;
stroke-linecap:round; stroke-linejoin:round;"
 transform="translate(0 0) scale(1 1)">
</g>
<g style="fill:none; 
stroke:#000000; stroke-width:0.0500; stroke-opacity:1; 
stroke-linecap:round; stroke-linejoin:round;">
<path d="M40.3679 24.9183 A2.5000 2.5000 0.0 0 0 42.8679 27.4183" />
<path d="M42.8679 27.4183
L50.1179 27.4183
" />
<path d="M11.3679 23.9183
L39.3679 23.9183
" />
<path d="M40.3679 24.9183 A1.0000 1.0000 0.0 0 0 39.3679 23.9183" />
<path d="M52.6179 3.4183 A2.5000 2.5000 0.0 0 0 50.1179 0.9183" />
<path d="M52.6179 24.9183
L52.6179 3.4183
" />
<path d="M8.8679 3.4183
L8.8679 21.4183
" />
<path d="M50.1179 27.4183 A2.5000 2.5000 0.0 0 0 52.6179 24.9183" />
<path d="M50.1179 0.9183
L11.3679 0.9183
" />
<path d="M8.8679 21.4183 A2.5000 2.5000 0.0 0 0 11.3679 23.9183" />
<path d="M11.3679 0.9183 A2.5000 2.5000 0.0 0 0 8.8679 3.4183" />
</g> 
</svg>
