<?xml version="1.0" encoding="UTF-8" standalone="no"?>
<svg
   version="1.1"
   width="61.9252mm"
   height="28.5242mm"
   viewBox="0.0000 0.0000 61.9252 28.5242"
   id="svg779"
   sodipodi:docname="dual_axis_i2c_analog_mouse_Mk1_rev0-Edge_Cuts_fill.svg"
   inkscape:version="1.2.2 (b0a8486541, 2022-12-01)"
   xmlns:inkscape="http://www.inkscape.org/namespaces/inkscape"
   xmlns:sodipodi="http://sodipodi.sourceforge.net/DTD/sodipodi-0.dtd"
   xmlns="http://www.w3.org/2000/svg"
   xmlns:svg="http://www.w3.org/2000/svg"
   xmlns:rdf="http://www.w3.org/1999/02/22-rdf-syntax-ns#"
   xmlns:cc="http://creativecommons.org/ns#"
   xmlns:dc="http://purl.org/dc/elements/1.1/">
  <defs
     id="defs783" />
  <sodipodi:namedview
     id="namedview781"
     pagecolor="#505050"
     bordercolor="#eeeeee"
     borderopacity="1"
     inkscape:showpageshadow="0"
     inkscape:pageopacity="0"
     inkscape:pagecheckerboard="0"
     inkscape:deskcolor="#505050"
     inkscape:document-units="mm"
     showgrid="false"
     inkscape:zoom="10.639284"
     inkscape:cx="117.01915"
     inkscape:cy="53.904001"
     inkscape:window-width="3396"
     inkscape:window-height="1350"
     inkscape:window-x="20"
     inkscape:window-y="20"
     inkscape:window-maximized="1"
     inkscape:current-layer="svg779" />
  <title
     id="title749">SVG Image created as dual_axis_i2c_analog_mouse_Mk1_rev0-Edge_Cuts.svg date 2024/12/20 09:37:59 </title>
  <desc
     id="desc751">Image generated by PCBNEW </desc>
  <g
     style="fill:#000000; fill-opacity:1.0000;stroke:#000000; stroke-opacity:1.0000; stroke-linecap:round; stroke-linejoin:round;"
     transform="translate(0 0) scale(1 1)"
     id="g753" />
  <g
     style="fill:none;  stroke:#000000; stroke-width:0.0500; stroke-opacity:1;  stroke-linecap:round; stroke-linejoin:round;"
     id="g777">
    <path
       d="M40.3679 24.9183 A2.5000 2.5000 0.0 0 0 42.8679 27.4183"
       id="path755" />
    <path
       d="M42.8679 27.4183 L50.1179 27.4183 "
       id="path757" />
    <path
       d="M11.3679 23.9183 L39.3679 23.9183 "
       id="path759" />
    <path
       d="M40.3679 24.9183 A1.0000 1.0000 0.0 0 0 39.3679 23.9183"
       id="path761" />
    <path
       d="M52.6179 3.4183 A2.5000 2.5000 0.0 0 0 50.1179 0.9183"
       id="path763" />
    <path
       d="M52.6179 24.9183 L52.6179 3.4183 "
       id="path765" />
    <path
       d="M8.8679 3.4183 L8.8679 21.4183 "
       id="path767" />
    <path
       d="M50.1179 27.4183 A2.5000 2.5000 0.0 0 0 52.6179 24.9183"
       id="path769" />
    <path
       d="M50.1179 0.9183 L11.3679 0.9183 "
       id="path771" />
    <path
       d="M8.8679 21.4183 A2.5000 2.5000 0.0 0 0 11.3679 23.9183"
       id="path773" />
    <path
       d="M11.3679 0.9183 A2.5000 2.5000 0.0 0 0 8.8679 3.4183"
       id="path775" />
  </g>
  <path
     style="fill:#000000;stroke-width:0.0939913"
     d="m 161.52402,103.46952 c -3.59411,-0.28937 -6.45893,-2.24515 -7.94713,-5.425446 -0.50109,-1.070811 -0.74122,-2.070488 -0.83918,-3.493557 -0.0978,-1.42084 -0.29336,-2.055409 -0.85061,-2.760377 -0.45126,-0.570891 -0.82973,-0.864087 -1.55201,-1.202299 L 149.77511,90.325623 95.683126,90.27771 41.591143,90.229797 40.839212,90.026144 C 37.36444,89.085036 34.886469,86.652201 33.951841,83.264227 l -0.255966,-0.927863 -0.02676,-34.917762 c -0.01896,-24.745512 0.003,-35.146795 0.07543,-35.703952 0.270023,-2.0774924 1.259404,-4.0127411 2.803753,-5.4841967 1.197977,-1.1414332 2.587523,-1.9267858 4.159941,-2.3511428 l 0.788915,-0.2129091 74.347106,-0.024514 c 65.50178,-0.021598 74.44383,-0.00786 75.1601,0.1154838 2.19505,0.3779904 4.25758,1.5988624 5.65794,3.3491011 1.00743,1.2591225 1.70187,2.8079115 1.93626,4.3184047 0.0813,0.523794 0.1015,11.228546 0.0803,42.52612 l -0.0283,41.826121 -0.21024,0.751931 c -0.27061,0.967833 -1.00907,2.462393 -1.60575,3.249852 -1.24493,1.642969 -3.12991,2.896179 -5.14608,3.421329 -1.17007,0.30477 -2.51632,0.33103 -16.15979,0.31529 -7.4958,-0.009 -13.79792,-0.0293 -14.0047,-0.046 z"
     id="path785"
     transform="scale(0.26458333)" />
  <metadata
     id="metadata803">
    <rdf:RDF>
      <cc:Work
         rdf:about="">
        <dc:title>SVG Image created as dual_axis_i2c_analog_mouse_Mk1_rev0-Edge_Cuts.svg date 2024/12/20 09:37:59 </dc:title>
      </cc:Work>
    </rdf:RDF>
  </metadata>
</svg>
