<?xml version="1.0" standalone="no"?>
 <!DOCTYPE svg PUBLIC "-//W3C//DTD SVG 1.1//EN" 
 "http://www.w3.org/Graphics/SVG/1.1/DTD/svg11.dtd"> 
<svg
  xmlns:svg="http://www.w3.org/2000/svg"
  xmlns="http://www.w3.org/2000/svg"
  xmlns:xlink="http://www.w3.org/1999/xlink"
  version="1.1"
  width="51.2826mm" height="68.0212mm" viewBox="0.0000 0.0000 51.2826 68.0212">
<title>SVG Image created as io_ctrl_board_secondary_Mk2_rev0-Edge_Cuts.svg date 2024/12/22 09:21:34 </title>
  <desc>Image generated by PCBNEW </desc>
<g style="fill:#000000; fill-opacity:1.0000;stroke:#000000; stroke-opacity:1.0000;
stroke-linecap:round; stroke-linejoin:round;"
 transform="translate(0 0) scale(1 1)">
</g>
<g style="fill:none; 
stroke:#000000; stroke-width:0.0500; stroke-opacity:1; 
stroke-linecap:round; stroke-linejoin:round;">
<path d="M9.0179 43.3250 A1.0000 1.0000 0.0 0 0 8.0179 42.3250" />
<path d="M8.0179 46.3250 A1.0000 1.0000 0.0 0 0 9.0179 45.3250" />
<path d="M5.2679 39.8250 A2.5000 2.5000 0.0 0 0 7.7679 42.3250" />
<path d="M8.0179 24.8250 A1.0000 1.0000 0.0 0 0 9.0179 23.8250" />
<path d="M9.0179 45.3250
L9.0179 43.3250
" />
<path d="M42.5179 59.5395
L42.5179 2.8250
" />
<path d="M7.7679 24.8250
L8.0179 24.8250
" />
<path d="M5.2679 27.3250
L5.2679 39.8250
" />
<path d="M5.2679 64.0750
L5.2679 48.8250
" />
<path d="M37.2501 65.8428
L41.7856 61.3072
" />
<path d="M42.5179 2.8250 A2.5000 2.5000 0.0 0 0 40.0179 0.3250" />
<path d="M7.7679 46.3250 A2.5000 2.5000 0.0 0 0 5.2679 48.8250" />
<path d="M9.0179 23.8250
L9.0179 2.8250
" />
<path d="M11.5179 0.3250 A2.5000 2.5000 0.0 0 0 9.0179 2.8250" />
<path d="M41.7856 61.3072 A2.5000 2.5000 0.0 0 0 42.5179 59.5395" />
<path d="M7.7679 24.8250 A2.5000 2.5000 0.0 0 0 5.2679 27.3250" />
<path d="M40.0179 0.3250
L11.5179 0.3250
" />
<path d="M8.0179 46.3250
L7.7679 46.3250
" />
<path d="M35.4823 66.5750 A2.5000 2.5000 0.0 0 0 37.2501 65.8428" />
<path d="M7.7679 66.5750
L35.4823 66.5750
" />
<path d="M8.0179 42.3250
L7.7679 42.3250
" />
<path d="M5.2679 64.0750 A2.5000 2.5000 0.0 0 0 7.7679 66.5750" />
</g> 
</svg>
