<?xml version="1.0" encoding="UTF-8" standalone="no"?>
<svg
   version="1.1"
   width="51.2826mm"
   height="68.0212mm"
   viewBox="0.0000 0.0000 51.2826 68.0212"
   id="svg738"
   sodipodi:docname="io_ctrl_board_secondary_Mk2_rev0-Edge_Cuts_fill.svg"
   inkscape:version="1.2.2 (b0a8486541, 2022-12-01)"
   xmlns:inkscape="http://www.inkscape.org/namespaces/inkscape"
   xmlns:sodipodi="http://sodipodi.sourceforge.net/DTD/sodipodi-0.dtd"
   xmlns="http://www.w3.org/2000/svg"
   xmlns:svg="http://www.w3.org/2000/svg"
   xmlns:rdf="http://www.w3.org/1999/02/22-rdf-syntax-ns#"
   xmlns:cc="http://creativecommons.org/ns#"
   xmlns:dc="http://purl.org/dc/elements/1.1/">
  <defs
     id="defs742" />
  <sodipodi:namedview
     id="namedview740"
     pagecolor="#505050"
     bordercolor="#eeeeee"
     borderopacity="1"
     inkscape:showpageshadow="0"
     inkscape:pageopacity="0"
     inkscape:pagecheckerboard="0"
     inkscape:deskcolor="#505050"
     inkscape:document-units="mm"
     showgrid="false"
     inkscape:zoom="3.994741"
     inkscape:cx="97.002535"
     inkscape:cy="128.79433"
     inkscape:window-width="1689"
     inkscape:window-height="1350"
     inkscape:window-x="1727"
     inkscape:window-y="20"
     inkscape:window-maximized="1"
     inkscape:current-layer="svg738" />
  <title
     id="title686">SVG Image created as io_ctrl_board_secondary_Mk2_rev0-Edge_Cuts.svg date 2024/12/22 09:21:34 </title>
  <desc
     id="desc688">Image generated by PCBNEW </desc>
  <g
     style="fill:#000000; fill-opacity:1.0000;stroke:#000000; stroke-opacity:1.0000; stroke-linecap:round; stroke-linejoin:round;"
     transform="translate(0 0) scale(1 1)"
     id="g690" />
  <g
     style="fill:none;  stroke:#000000; stroke-width:0.0500; stroke-opacity:1;  stroke-linecap:round; stroke-linejoin:round;"
     id="g736">
    <path
       d="M9.0179 43.3250 A1.0000 1.0000 0.0 0 0 8.0179 42.3250"
       id="path692" />
    <path
       d="M8.0179 46.3250 A1.0000 1.0000 0.0 0 0 9.0179 45.3250"
       id="path694" />
    <path
       d="M5.2679 39.8250 A2.5000 2.5000 0.0 0 0 7.7679 42.3250"
       id="path696" />
    <path
       d="M8.0179 24.8250 A1.0000 1.0000 0.0 0 0 9.0179 23.8250"
       id="path698" />
    <path
       d="M9.0179 45.3250 L9.0179 43.3250 "
       id="path700" />
    <path
       d="M42.5179 59.5395 L42.5179 2.8250 "
       id="path702" />
    <path
       d="M7.7679 24.8250 L8.0179 24.8250 "
       id="path704" />
    <path
       d="M5.2679 27.3250 L5.2679 39.8250 "
       id="path706" />
    <path
       d="M5.2679 64.0750 L5.2679 48.8250 "
       id="path708" />
    <path
       d="M37.2501 65.8428 L41.7856 61.3072 "
       id="path710" />
    <path
       d="M42.5179 2.8250 A2.5000 2.5000 0.0 0 0 40.0179 0.3250"
       id="path712" />
    <path
       d="M7.7679 46.3250 A2.5000 2.5000 0.0 0 0 5.2679 48.8250"
       id="path714" />
    <path
       d="M9.0179 23.8250 L9.0179 2.8250 "
       id="path716" />
    <path
       d="M11.5179 0.3250 A2.5000 2.5000 0.0 0 0 9.0179 2.8250"
       id="path718" />
    <path
       d="M41.7856 61.3072 A2.5000 2.5000 0.0 0 0 42.5179 59.5395"
       id="path720" />
    <path
       d="M7.7679 24.8250 A2.5000 2.5000 0.0 0 0 5.2679 27.3250"
       id="path722" />
    <path
       d="M40.0179 0.3250 L11.5179 0.3250 "
       id="path724" />
    <path
       d="M8.0179 46.3250 L7.7679 46.3250 "
       id="path726" />
    <path
       d="M35.4823 66.5750 A2.5000 2.5000 0.0 0 0 37.2501 65.8428"
       id="path728" />
    <path
       d="M7.7679 66.5750 L35.4823 66.5750 "
       id="path730" />
    <path
       d="M8.0179 42.3250 L7.7679 42.3250 "
       id="path732" />
    <path
       d="M5.2679 64.0750 A2.5000 2.5000 0.0 0 0 7.7679 66.5750"
       id="path734" />
  </g>
  <path
     style="fill:#000000;stroke-width:0.250329"
     d="m 27.041614,251.05575 c -3.575229,-0.96452 -6.170396,-3.84614 -6.771966,-7.51944 -0.324889,-1.98385 -0.321677,-58.29719 0.0034,-60.28259 0.502995,-3.07166 2.499893,-5.76442 5.23396,-7.05784 1.023412,-0.48415 1.988293,-0.70194 3.675081,-0.82951 2.493809,-0.18862 3.552671,-0.62613 4.460972,-1.84324 0.486116,-0.65139 0.532822,-1.08295 0.604429,-5.58492 0.07167,-4.50562 0.03814,-4.96051 -0.438098,-5.94429 -0.712702,-1.47224 -1.865073,-2.0565 -4.420273,-2.24111 -3.275429,-0.23664 -5.77073,-1.52258 -7.45319,-3.84098 -1.891203,-2.60604 -1.776155,-0.87039 -1.855565,-27.99365 -0.04443,-15.17409 0.02199,-24.88297 0.177056,-25.88434 0.335068,-2.163703 1.355983,-4.079106 2.951324,-5.537155 1.67607,-1.531834 3.54866,-2.257524 6.284377,-2.4354 2.252266,-0.146442 3.165727,-0.563436 4.15309,-1.895878 L 34.169925,91.458708 34.29509,49.98495 34.420254,8.5111901 35.139741,6.953549 c 1.224133,-2.6501628 3.777332,-4.6941117 6.614961,-5.2955673 1.889059,-0.4003992 109.359518,-0.4001161 111.246648,2.931e-4 2.94799,0.6254968 5.23832,2.4500674 6.5598,5.225776 l 0.77465,1.6271393 V 117.91028 227.30937 l -0.80146,1.62188 c -0.70468,1.42601 -1.98946,2.80463 -10.63899,11.41606 -9.09165,9.0516 -9.9514,9.83926 -11.3395,10.38866 l -1.50197,0.59447 -53.820764,0.0476 c -46.789941,0.0413 -53.999826,-7.5e-4 -55.191502,-0.32224 z"
     id="path744"
     transform="scale(0.26458333)" />
  <metadata
     id="metadata762">
    <rdf:RDF>
      <cc:Work
         rdf:about="">
        <dc:title>SVG Image created as io_ctrl_board_secondary_Mk2_rev0-Edge_Cuts.svg date 2024/12/22 09:21:34 </dc:title>
      </cc:Work>
    </rdf:RDF>
  </metadata>
</svg>
