<?xml version="1.0" encoding="UTF-8" standalone="no"?>
<svg
   version="1.1"
   width="147.0152mm"
   height="117.1956mm"
   viewBox="0.0000 0.0000 147.0152 117.1956"
   id="svg100"
   sodipodi:docname="lpk20_mx_keypad_L_Mk1_rev0-User_4.svg"
   inkscape:version="1.3.2 (091e20e, 2023-11-25, custom)"
   xmlns:inkscape="http://www.inkscape.org/namespaces/inkscape"
   xmlns:sodipodi="http://sodipodi.sourceforge.net/DTD/sodipodi-0.dtd"
   xmlns="http://www.w3.org/2000/svg"
   xmlns:svg="http://www.w3.org/2000/svg">
  <defs
     id="defs100" />
  <sodipodi:namedview
     id="namedview100"
     pagecolor="#505050"
     bordercolor="#eeeeee"
     borderopacity="1"
     inkscape:showpageshadow="0"
     inkscape:pageopacity="0"
     inkscape:pagecheckerboard="0"
     inkscape:deskcolor="#505050"
     inkscape:document-units="mm"
     inkscape:zoom="2.4811262"
     inkscape:cx="296.23644"
     inkscape:cy="247.06522"
     inkscape:window-width="3440"
     inkscape:window-height="1334"
     inkscape:window-x="-11"
     inkscape:window-y="-11"
     inkscape:window-maximized="1"
     inkscape:current-layer="svg100" />
  <title
     id="title1">SVG Image created as lpk20_mx_keypad_L_Mk1_rev0-User_4.svg date 2024/11/22 14:08:33 </title>
  <desc
     id="desc1">Image generated by PCBNEW </desc>
  <g
     style="fill:#000000; fill-opacity:1.0000;stroke:#000000; stroke-opacity:1.0000; stroke-linecap:round; stroke-linejoin:round;"
     transform="translate(0 0) scale(1 1)"
     id="g1" />
  <path
     d="m 124.5143,72.6 a 2.5,2.5 0 0 0 2.5,2.5"
     id="path1"
     style="fill:none;stroke:#000000;stroke-width:0.1;stroke-linecap:round;stroke-linejoin:round;stroke-opacity:1" />
  <path
     d="m 142.0143,75.1 h -15"
     id="path2"
     style="fill:none;stroke:#000000;stroke-width:0.1;stroke-linecap:round;stroke-linejoin:round;stroke-opacity:1" />
  <path
     d="M 94.5143,51.397804 V 67.542993"
     id="path3"
     style="fill:none;stroke:#000000;stroke-width:0.100453;stroke-linecap:round;stroke-linejoin:round;stroke-opacity:1" />
  <path
     d="m 111.5143,80.1 h -14.5"
     id="path4"
     style="fill:none;stroke:#000000;stroke-width:0.1;stroke-linecap:round;stroke-linejoin:round;stroke-opacity:1" />
  <path
     d="m 94.5143,77.6 a 2.5,2.5 0 0 0 2.5,2.5"
     id="path5"
     style="fill:none;stroke:#000000;stroke-width:0.1;stroke-linecap:round;stroke-linejoin:round;stroke-opacity:1" />
  <path
     d="m 5.0143,10.1 a 2.5,2.5 0 0 0 -2.5,2.5"
     id="path6"
     style="fill:none;stroke:#000000;stroke-width:0.1;stroke-linecap:round;stroke-linejoin:round;stroke-opacity:1" />
  <path
     d="m 105.0143,117.1 h 37"
     id="path7"
     style="fill:none;stroke:#000000;stroke-width:0.1;stroke-linecap:round;stroke-linejoin:round;stroke-opacity:1" />
  <path
     d="m 47.0143,67.1 h 13"
     id="path8"
     style="fill:none;stroke:#000000;stroke-width:0.1;stroke-linecap:round;stroke-linejoin:round;stroke-opacity:1" />
  <path
     d="m 84.5143,7.6 v -5"
     id="path9"
     style="fill:none;stroke:#000000;stroke-width:0.1;stroke-linecap:round;stroke-linejoin:round;stroke-opacity:1" />
  <path
     d="m 42.0143,82.1 a 2.5,2.5 0 0 0 2.5,-2.5"
     id="path10"
     style="fill:none;stroke:#000000;stroke-width:0.1;stroke-linecap:round;stroke-linejoin:round;stroke-opacity:1" />
  <path
     d="m 142.0143,117.1 a 2.5,2.5 0 0 0 2.5,-2.5"
     id="path11"
     style="fill:none;stroke:#000000;stroke-width:0.1;stroke-linecap:round;stroke-linejoin:round;stroke-opacity:1" />
  <path
     d="m 62.5143,69.6 a 2.5,2.5 0 0 0 -2.5,-2.5"
     id="path12"
     style="fill:none;stroke:#000000;stroke-width:0.1;stroke-linecap:round;stroke-linejoin:round;stroke-opacity:1" />
  <path
     d="m 102.5143,114.6 a 2.5,2.5 0 0 0 -2.5,-2.5"
     id="path13"
     style="fill:none;stroke:#000000;stroke-width:0.1;stroke-linecap:round;stroke-linejoin:round;stroke-opacity:1" />
  <path
     d="m 2.5143,12.6 v 67"
     id="path14"
     style="fill:none;stroke:#000000;stroke-width:0.1;stroke-linecap:round;stroke-linejoin:round;stroke-opacity:1" />
  <path
     d="m 84.5143,2.6 a 2.5,2.5 0 0 0 -2.5,-2.5"
     id="path15"
     style="fill:none;stroke:#000000;stroke-width:0.1;stroke-linecap:round;stroke-linejoin:round;stroke-opacity:1" />
  <path
     d="m 94.5143,77.6 v -10"
     id="path16"
     style="fill:none;stroke:#000000;stroke-width:0.1;stroke-linecap:round;stroke-linejoin:round;stroke-opacity:1" />
  <path
     d="m 82.5143,109.6 a 2.5,2.5 0 0 0 2.5,2.5"
     id="path17"
     style="fill:none;stroke:#000000;stroke-width:0.1;stroke-linecap:round;stroke-linejoin:round;stroke-opacity:1" />
  <path
     d="m 28.5143,10.1 a 2.5,2.5 0 0 0 2.5,-2.5"
     id="path18"
     style="fill:none;stroke:#000000;stroke-width:0.1;stroke-linecap:round;stroke-linejoin:round;stroke-opacity:1" />
  <path
     d="m 102.5143,114.6 a 2.5,2.5 0 0 0 2.5,2.5"
     id="path19"
     style="fill:none;stroke:#000000;stroke-width:0.1;stroke-linecap:round;stroke-linejoin:round;stroke-opacity:1" />
  <path
     d="m 82.0143,0.1 h -48.5"
     id="path20"
     style="fill:none;stroke:#000000;stroke-width:0.1;stroke-linecap:round;stroke-linejoin:round;stroke-opacity:1" />
  <path
     d="m 2.5143,79.6 a 2.5,2.5 0 0 0 2.5,2.5"
     id="path21"
     style="fill:none;stroke:#000000;stroke-width:0.1;stroke-linecap:round;stroke-linejoin:round;stroke-opacity:1" />
  <path
     d="m 62.5143,89.6 a 2.5,2.5 0 0 0 2.5,2.5"
     id="path22"
     style="fill:none;stroke:#000000;stroke-width:0.1;stroke-linecap:round;stroke-linejoin:round;stroke-opacity:1" />
  <path
     d="m 28.5143,10.1 h -23.5"
     id="path23"
     style="fill:none;stroke:#000000;stroke-width:0.1;stroke-linecap:round;stroke-linejoin:round;stroke-opacity:1" />
  <path
     d="m 44.5143,79.6 v -10"
     id="path24"
     style="fill:none;stroke:#000000;stroke-width:0.1;stroke-linecap:round;stroke-linejoin:round;stroke-opacity:1" />
  <path
     d="m 85.0143,112.1 h 15"
     id="path25"
     style="fill:none;stroke:#000000;stroke-width:0.1;stroke-linecap:round;stroke-linejoin:round;stroke-opacity:1" />
  <path
     d="m 65.0143,92.1 h 15"
     id="path26"
     style="fill:none;stroke:#000000;stroke-width:0.1;stroke-linecap:round;stroke-linejoin:round;stroke-opacity:1" />
  <path
     d="m 144.5143,114.6 v -37"
     id="path27"
     style="fill:none;stroke:#000000;stroke-width:0.1;stroke-linecap:round;stroke-linejoin:round;stroke-opacity:1" />
  <path
     d="m 82.5143,94.6 a 2.5,2.5 0 0 0 -2.5,-2.5"
     id="path28"
     style="fill:none;stroke:#000000;stroke-width:0.1;stroke-linecap:round;stroke-linejoin:round;stroke-opacity:1" />
  <path
     d="m 124.5143,72.6 a 2.5,2.5 0 0 0 -2.5,-2.5"
     id="path29"
     style="fill:none;stroke:#000000;stroke-width:0.1;stroke-linecap:round;stroke-linejoin:round;stroke-opacity:1" />
  <path
     d="m 104.5143,12.6 a 2.5,2.5 0 0 0 -2.5,-2.5"
     id="path30"
     style="fill:none;stroke:#000000;stroke-width:0.1;stroke-linecap:round;stroke-linejoin:round;stroke-opacity:1" />
  <path
     d="m 102.0143,10.1 h -15"
     id="path31"
     style="fill:none;stroke:#000000;stroke-width:0.1;stroke-linecap:round;stroke-linejoin:round;stroke-opacity:1" />
  <path
     d="m 47.0143,67.1 a 2.5,2.5 0 0 0 -2.5,2.5"
     id="path32"
     style="fill:none;stroke:#000000;stroke-width:0.1;stroke-linecap:round;stroke-linejoin:round;stroke-opacity:1" />
  <path
     d="m 104.5143,67.6 a 2.5,2.5 0 0 0 2.5,2.5"
     id="path33"
     style="fill:none;stroke:#000000;stroke-width:0.1;stroke-linecap:round;stroke-linejoin:round;stroke-opacity:1" />
  <path
     d="m 82.5143,94.6 v 15"
     id="path34"
     style="fill:none;stroke:#000000;stroke-width:0.1;stroke-linecap:round;stroke-linejoin:round;stroke-opacity:1" />
  <path
     d="m 144.5143,77.6 a 2.5,2.5 0 0 0 -2.5,-2.5"
     id="path35"
     style="fill:none;stroke:#000000;stroke-width:0.1;stroke-linecap:round;stroke-linejoin:round;stroke-opacity:1" />
  <path
     d="m 31.0143,2.6 v 5"
     id="path36"
     style="fill:none;stroke:#000000;stroke-width:0.1;stroke-linecap:round;stroke-linejoin:round;stroke-opacity:1" />
  <path
     d="m 104.5143,67.6 v -55"
     id="path37"
     style="fill:none;stroke:#000000;stroke-width:0.1;stroke-linecap:round;stroke-linejoin:round;stroke-opacity:1" />
  <path
     d="m 62.5143,69.6 v 20"
     id="path38"
     style="fill:none;stroke:#000000;stroke-width:0.1;stroke-linecap:round;stroke-linejoin:round;stroke-opacity:1" />
  <path
     d="m 122.0143,70.1 h -15"
     id="path39"
     style="fill:none;stroke:#000000;stroke-width:0.1;stroke-linecap:round;stroke-linejoin:round;stroke-opacity:1" />
  <path
     d="m 84.5143,7.6 a 2.5,2.5 0 0 0 2.5,2.5"
     id="path40"
     style="fill:none;stroke:#000000;stroke-width:0.1;stroke-linecap:round;stroke-linejoin:round;stroke-opacity:1" />
  <path
     d="m 33.5143,0.1 a 2.5,2.5 0 0 0 -2.5,2.5"
     id="path41"
     style="fill:none;stroke:#000000;stroke-width:0.1;stroke-linecap:round;stroke-linejoin:round;stroke-opacity:1" />
  <path
     d="m 5.0143,82.1 h 37"
     id="path42"
     style="fill:none;stroke:#000000;stroke-width:0.1;stroke-linecap:round;stroke-linejoin:round;stroke-opacity:1" />
  <path
     d="m 34.5143,59.6 v 10"
     id="path43"
     style="fill:none;stroke:#000000;stroke-width:0.05;stroke-linecap:round;stroke-linejoin:round;stroke-opacity:1" />
  <path
     d="m 55.0143,10.1 h 17"
     id="path44"
     style="fill:none;stroke:#000000;stroke-width:0.05;stroke-linecap:round;stroke-linejoin:round;stroke-opacity:1" />
  <path
     d="m 29.2465,44.6 a 2.5,2.5 0 0 0 -2.5,-2.5"
     id="path46"
     style="fill:none;stroke:#000000;stroke-width:0.05;stroke-linecap:round;stroke-linejoin:round;stroke-opacity:1" />
  <path
     d="m 29.2465,47.6 v -3"
     id="path47"
     style="fill:none;stroke:#000000;stroke-width:0.05;stroke-linecap:round;stroke-linejoin:round;stroke-opacity:1" />
  <path
     d="m 90.0143,82.1 h -15"
     id="path48"
     style="fill:none;stroke:#000000;stroke-width:0.05;stroke-linecap:round;stroke-linejoin:round;stroke-opacity:1" />
  <path
     d="m 34.5143,22.6 a 2.5,2.5 0 0 0 -2.5,-2.5"
     id="path50"
     style="fill:none;stroke:#000000;stroke-width:0.05;stroke-linecap:round;stroke-linejoin:round;stroke-opacity:1" />
  <path
     d="m 92.5143,99.6 a 2.5,2.5 0 0 0 2.5,2.5"
     id="path51"
     style="fill:none;stroke:#000000;stroke-width:0.05;stroke-linecap:round;stroke-linejoin:round;stroke-opacity:1" />
  <path
     d="m 134.5143,87.6 v 17"
     id="path52"
     style="fill:none;stroke:#000000;stroke-width:0.05;stroke-linecap:round;stroke-linejoin:round;stroke-opacity:1" />
  <path
     d="m 117.0143,85.1 h 15"
     id="path53"
     style="fill:none;stroke:#000000;stroke-width:0.05;stroke-linecap:round;stroke-linejoin:round;stroke-opacity:1" />
  <path
     d="M 26.7465,50.1 H 15.0143"
     id="path54"
     style="fill:none;stroke:#000000;stroke-width:0.05;stroke-linecap:round;stroke-linejoin:round;stroke-opacity:1" />
  <path
     d="M 94.5143,22.6 V 51.3678"
     id="path57"
     style="fill:none;stroke:#000000;stroke-width:0.05;stroke-linecap:round;stroke-linejoin:round;stroke-opacity:1" />
  <path
     d="m 52.0143,57.1 h -15"
     id="path58"
     style="fill:none;stroke:#000000;stroke-width:0.05;stroke-linecap:round;stroke-linejoin:round;stroke-opacity:1" />
  <path
     d="m 72.5143,54.6 a 2.5,2.5 0 0 0 -2.5,-2.5"
     id="path59"
     style="fill:none;stroke:#000000;stroke-width:0.05;stroke-linecap:round;stroke-linejoin:round;stroke-opacity:1" />
  <path
     d="m 37.0143,35.1 h 13"
     id="path60"
     style="fill:none;stroke:#000000;stroke-width:0.05;stroke-linecap:round;stroke-linejoin:round;stroke-opacity:1" />
  <path
     d="m 134.5143,87.6 a 2.5,2.5 0 0 0 -2.5,-2.5"
     id="path61"
     style="fill:none;stroke:#000000;stroke-width:0.05;stroke-linecap:round;stroke-linejoin:round;stroke-opacity:1" />
  <path
     d="m 15.0143,20.1 a 2.5,2.5 0 0 0 -2.5,2.5"
     id="path62"
     style="fill:none;stroke:#000000;stroke-width:0.05;stroke-linecap:round;stroke-linejoin:round;stroke-opacity:1" />
  <path
     d="m 12.5143,39.6 v -17"
     id="path63"
     style="fill:none;stroke:#000000;stroke-width:0.05;stroke-linecap:round;stroke-linejoin:round;stroke-opacity:1" />
  <path
     d="m 110.0143,102.1 h -15"
     id="path64"
     style="fill:none;stroke:#000000;stroke-width:0.05;stroke-linecap:round;stroke-linejoin:round;stroke-opacity:1" />
  <path
     d="m 34.5143,22.6 v 10"
     id="path65"
     style="fill:none;stroke:#000000;stroke-width:0.05;stroke-linecap:round;stroke-linejoin:round;stroke-opacity:1" />
  <path
     d="m 15.0143,50.1 a 2.5,2.5 0 0 0 -2.5,2.5"
     id="path66"
     style="fill:none;stroke:#000000;stroke-width:0.05;stroke-linecap:round;stroke-linejoin:round;stroke-opacity:1" />
  <path
     d="m 106.0143,80.1 h 6"
     id="path67"
     style="fill:none;stroke:#000000;stroke-width:0.05;stroke-linecap:round;stroke-linejoin:round;stroke-opacity:1" />
  <path
     d="m 52.0143,57.1 a 2.5,2.5 0 0 0 2.5,-2.5"
     id="path68"
     style="fill:none;stroke:#000000;stroke-width:0.05;stroke-linecap:round;stroke-linejoin:round;stroke-opacity:1" />
  <path
     d="m 70.0143,52.1 h -13"
     id="path69"
     style="fill:none;stroke:#000000;stroke-width:0.05;stroke-linecap:round;stroke-linejoin:round;stroke-opacity:1" />
  <path
     d="m 50.0143,35.1 a 2.5,2.5 0 0 0 2.5,-2.5"
     id="path70"
     style="fill:none;stroke:#000000;stroke-width:0.05;stroke-linecap:round;stroke-linejoin:round;stroke-opacity:1" />
  <path
     d="m 112.5143,104.6 a 2.5,2.5 0 0 0 2.5,2.5"
     id="path71"
     style="fill:none;stroke:#000000;stroke-width:0.05;stroke-linecap:round;stroke-linejoin:round;stroke-opacity:1" />
  <path
     d="m 26.7465,50.1 a 2.5,2.5 0 0 0 2.5,-2.5"
     id="path72"
     style="fill:none;stroke:#000000;stroke-width:0.05;stroke-linecap:round;stroke-linejoin:round;stroke-opacity:1" />
  <path
     d="m 74.5143,12.6 a 2.5,2.5 0 0 0 -2.5,-2.5"
     id="path73"
     style="fill:none;stroke:#000000;stroke-width:0.05;stroke-linecap:round;stroke-linejoin:round;stroke-opacity:1" />
  <path
     d="m 52.5143,32.6 v -20"
     id="path74"
     style="fill:none;stroke:#000000;stroke-width:0.05;stroke-linecap:round;stroke-linejoin:round;stroke-opacity:1" />
  <path
     d="m 32.0143,72.1 h -17"
     id="path75"
     style="fill:none;stroke:#000000;stroke-width:0.05;stroke-linecap:round;stroke-linejoin:round;stroke-opacity:1" />
  <path
     d="m 34.5143,32.6 a 2.5,2.5 0 0 0 2.5,2.5"
     id="path76"
     style="fill:none;stroke:#000000;stroke-width:0.05;stroke-linecap:round;stroke-linejoin:round;stroke-opacity:1" />
  <path
     d="m 32.0143,72.1 a 2.5,2.5 0 0 0 2.5,-2.5"
     id="path77"
     style="fill:none;stroke:#000000;stroke-width:0.05;stroke-linecap:round;stroke-linejoin:round;stroke-opacity:1" />
  <path
     d="m 74.5143,12.6 v 5"
     id="path78"
     style="fill:none;stroke:#000000;stroke-width:0.05;stroke-linecap:round;stroke-linejoin:round;stroke-opacity:1" />
  <path
     d="m 57.0143,52.1 a 2.5,2.5 0 0 0 -2.5,2.5"
     id="path79"
     style="fill:none;stroke:#000000;stroke-width:0.05;stroke-linecap:round;stroke-linejoin:round;stroke-opacity:1" />
  <path
     d="m 114.5143,82.6 a 2.5,2.5 0 0 0 2.5,2.5"
     id="path80"
     style="fill:none;stroke:#000000;stroke-width:0.05;stroke-linecap:round;stroke-linejoin:round;stroke-opacity:1" />
  <path
     d="m 94.5143,22.6 a 2.5,2.5 0 0 0 -2.5,-2.5"
     id="path81"
     style="fill:none;stroke:#000000;stroke-width:0.05;stroke-linecap:round;stroke-linejoin:round;stroke-opacity:1" />
  <path
     d="m 55.0143,10.1 a 2.5,2.5 0 0 0 -2.5,2.5"
     id="path82"
     style="fill:none;stroke:#000000;stroke-width:0.05;stroke-linecap:round;stroke-linejoin:round;stroke-opacity:1" />
  <path
     d="m 15.0143,20.1 h 17"
     id="path83"
     style="fill:none;stroke:#000000;stroke-width:0.05;stroke-linecap:round;stroke-linejoin:round;stroke-opacity:1" />
  <path
     d="m 114.5143,82.6 a 2.5,2.5 0 0 0 -2.5,-2.5"
     id="path84"
     style="fill:none;stroke:#000000;stroke-width:0.05;stroke-linecap:round;stroke-linejoin:round;stroke-opacity:1" />
  <path
     d="m 74.5143,17.6 a 2.5,2.5 0 0 0 2.5,2.5"
     id="path85"
     style="fill:none;stroke:#000000;stroke-width:0.05;stroke-linecap:round;stroke-linejoin:round;stroke-opacity:1" />
  <path
     d="m 92.5143,84.6 a 2.5,2.5 0 0 0 -2.5,-2.5"
     id="path86"
     style="fill:none;stroke:#000000;stroke-width:0.05;stroke-linecap:round;stroke-linejoin:round;stroke-opacity:1" />
  <path
     d="m 132.0143,107.1 a 2.5,2.5 0 0 0 2.5,-2.5"
     id="path87"
     style="fill:none;stroke:#000000;stroke-width:0.05;stroke-linecap:round;stroke-linejoin:round;stroke-opacity:1" />
  <path
     d="m 77.0143,20.1 h 15"
     id="path88"
     style="fill:none;stroke:#000000;stroke-width:0.05;stroke-linecap:round;stroke-linejoin:round;stroke-opacity:1" />
  <path
     d="m 12.5143,69.6 a 2.5,2.5 0 0 0 2.5,2.5"
     id="path89"
     style="fill:none;stroke:#000000;stroke-width:0.05;stroke-linecap:round;stroke-linejoin:round;stroke-opacity:1" />
  <path
     d="m 72.5143,79.6 a 2.5,2.5 0 0 0 2.5,2.5"
     id="path90"
     style="fill:none;stroke:#000000;stroke-width:0.05;stroke-linecap:round;stroke-linejoin:round;stroke-opacity:1" />
  <path
     d="m 12.5143,69.6 v -17"
     id="path91"
     style="fill:none;stroke:#000000;stroke-width:0.05;stroke-linecap:round;stroke-linejoin:round;stroke-opacity:1" />
  <path
     d="m 72.5143,79.6 v -25"
     id="path92"
     style="fill:none;stroke:#000000;stroke-width:0.05;stroke-linecap:round;stroke-linejoin:round;stroke-opacity:1" />
  <path
     d="m 132.0143,107.1 h -17"
     id="path94"
     style="fill:none;stroke:#000000;stroke-width:0.05;stroke-linecap:round;stroke-linejoin:round;stroke-opacity:1" />
  <path
     d="M 15.0143,42.1 H 26.7465"
     id="path95"
     style="fill:none;stroke:#000000;stroke-width:0.05;stroke-linecap:round;stroke-linejoin:round;stroke-opacity:1" />
  <path
     d="m 37.0143,57.1 a 2.5,2.5 0 0 0 -2.5,2.5"
     id="path97"
     style="fill:none;stroke:#000000;stroke-width:0.05;stroke-linecap:round;stroke-linejoin:round;stroke-opacity:1" />
  <path
     d="m 112.5143,104.6 a 2.5,2.5 0 0 0 -2.5,-2.5"
     id="path98"
     style="fill:none;stroke:#000000;stroke-width:0.05;stroke-linecap:round;stroke-linejoin:round;stroke-opacity:1" />
  <path
     d="m 92.5143,99.6 v -15"
     id="path99"
     style="fill:none;stroke:#000000;stroke-width:0.05;stroke-linecap:round;stroke-linejoin:round;stroke-opacity:1" />
  <path
     d="m 12.5143,39.6 a 2.5,2.5 0 0 0 2.5,2.5"
     id="path100"
     style="fill:none;stroke:#000000;stroke-width:0.05;stroke-linecap:round;stroke-linejoin:round;stroke-opacity:1" />
  <path
     style="fill:#020302;stroke-width:0;stroke-miterlimit:2.8"
     d="m 394.98192,441.96256 c -4.17853,-1.01724 -6.50557,-3.87469 -7.10815,-8.72829 -0.55226,-4.44835 -1.8955,-6.67012 -5.36797,-8.8788 -1.13182,-0.71991 -2.74377,-0.76751 -32.47706,-0.95904 l -31.28612,-0.20152 -1.97245,-1.21977 c -1.22167,-0.7555 -2.43675,-1.97059 -3.19224,-3.19226 l -1.21978,-1.97249 -0.20152,-31.28606 c -0.19152,-29.73321 -0.23912,-31.34518 -0.95902,-32.47702 -1.23202,-1.93702 -2.76407,-3.42443 -4.48206,-4.35146 -1.60196,-0.86443 -1.80865,-0.87121 -32.64646,-1.07146 l -31.0343,-0.20152 -1.91678,-1.12672 c -1.32976,-0.78166 -2.28521,-1.76913 -3.1198,-3.22434 l -1.20301,-2.09762 -0.004,-39.32428 c -0.004,-44.73877 0.1663,-42.28844 -3.16953,-45.52384 -1.08745,-1.0547 -2.57493,-2.03015 -3.534,-2.31749 -1.24006,-0.37153 -8.32757,-0.49397 -28.21021,-0.48735 -29.78853,0.01 -28.25051,-0.13744 -31.29648,2.99889 -2.70553,2.78579 -2.71387,2.86384 -2.71387,25.38048 0,11.93251 -0.16097,20.74501 -0.39375,21.55667 -0.63411,2.21103 -2.31753,4.27789 -4.41329,5.41855 l -1.95226,1.06255 H 88.870932 16.63384 l -1.95226,-1.06255 C 12.585822,307.53516 10.902409,305.4683 10.268293,303.25727 10.01562,302.37625 9.8777194,256.03535 9.8833996,173.91562 9.892249,45.979091 9.8924582,45.946421 10.714501,44.133184 c 1.022882,-2.256238 2.126595,-3.458643 4.198082,-4.573455 l 1.612171,-0.867623 47.187833,-0.201521 47.187833,-0.201521 1.97273,-1.219784 c 1.22107,-0.75501 2.4375,-1.97093 3.19251,-3.19115 l 1.21979,-1.971368 0.20448,-12.124475 c 0.23211,-13.7627742 0.2579,-13.8893204 3.39259,-16.6485859 1.31996,-1.1618742 2.50277,-1.7975364 3.90392,-2.0980278 1.39406,-0.29897217 30.15033,-0.43110914 93.82005,-0.43110914 99.7918,0 93.93077,-0.13330269 96.9979,2.20610844 0.76791,0.5857126 1.8026,1.8252443 2.29932,2.7545146 0.86273,1.6140142 0.91214,2.2303787 1.10465,13.7808658 0.19109,11.465612 0.24721,12.176681 1.08462,13.741615 0.95992,1.793888 3.21683,3.967779 4.90503,4.724591 0.77581,0.347792 9.46079,0.531332 32.09789,0.678326 l 31.03429,0.201521 1.88812,1.109923 c 1.03846,0.610457 2.28441,1.666466 2.76877,2.346685 2.09949,2.948463 1.99266,-2.940386 2.00217,110.366276 0.009,101.40571 0.0371,105.49396 0.7484,107.04456 0.9014,1.96499 2.52561,3.62313 4.67854,4.77627 1.60485,0.85957 1.85931,0.8679 32.65175,1.06785 34.09859,0.22142 31.99047,0.0585 34.6067,2.67473 1.68134,1.68133 2.32395,3.18399 2.72103,6.36291 0.64918,5.19728 3.3461,8.5499 7.61404,9.46521 1.37748,0.29541 11.72552,0.44016 31.4676,0.44016 32.14154,0 31.01007,-0.0789 33.55747,2.33887 0.62991,0.59785 1.53676,1.81247 2.01521,2.69916 l 0.86993,1.61217 0.10519,71.32101 c 0.11769,79.81637 0.32425,74.0562 -2.76665,77.14709 -3.09121,3.09122 2.61519,2.87934 -76.30732,2.83319 -38.80806,-0.0227 -71.1042,-0.17371 -71.76922,-0.33561 z m 104.90562,-36.96583 c 3.16554,-0.38019 5.96443,-2.23602 7.50579,-4.97678 l 1.24665,-2.21673 v -34.25864 c 0,-32.08392 -0.0463,-34.37853 -0.72886,-36.14746 -0.75297,-1.95119 -3.10778,-4.42181 -5.03558,-5.28317 -0.80463,-0.35953 -9.16309,-0.5382 -32.15362,-0.68734 l -31.06634,-0.20152 -1.97253,-1.21978 c -2.7558,-1.70417 -4.10459,-4.03555 -4.60134,-7.95348 -0.44471,-3.50765 -1.03114,-4.8825 -2.86454,-6.71593 -2.8205,-2.82048 -0.48539,-2.62927 -34.83221,-2.8523 -30.81011,-0.20006 -31.04594,-0.20779 -32.64646,-1.06914 -1.71537,-0.92316 -2.84921,-2.02176 -4.07785,-3.9511 -0.73662,-1.15673 -0.76452,-4.28945 -0.96019,-107.81394 l -0.20152,-106.622608 -1.17337,-2.11772 c -0.64536,-1.164745 -1.79736,-2.593661 -2.56002,-3.175365 -2.85223,-2.175504 -2.65422,-2.163207 -34.8342,-2.163207 -26.00589,0 -29.96369,-0.07922 -31.27252,-0.625945 -1.75981,-0.735114 -3.42431,-2.242228 -4.65027,-4.210568 -0.83979,-1.348307 -0.88753,-1.955366 -1.08014,-13.736419 l -0.20152,-12.32577 -1.21866,-1.969783 c -0.67027,-1.083383 -2.00075,-2.519501 -2.95663,-3.191378 l -1.73797,-1.221593 -35.26592,-0.107278 -35.26592,-0.107276 -2.02943,1.104556 c -1.11619,0.607506 -2.47634,1.690475 -3.02255,2.406601 -2.17764,2.855034 -2.13359,1.941768 -2.14315,44.42726 -0.008,37.339383 -0.0465,39.416243 -0.75134,40.968043 -0.91413,2.01256 -3.54543,4.32584 -5.63144,4.95083 -1.11531,0.33415 -8.97285,0.46663 -27.51072,0.46381 l -25.9495,-0.004 -2.03168,-0.94608 c -2.05176,-0.95542 -3.90666,-2.77407 -4.75893,-4.66593 -0.32291,-0.71678 -0.52549,-7.59223 -0.66568,-22.59311 -0.19837,-21.226065 -0.21531,-21.588562 -1.08462,-23.213122 -1.22846,-2.295728 -3.36727,-4.048339 -5.83458,-4.781051 -3.15134,-0.935849 -66.843157,-0.935849 -69.994496,0 -2.467315,0.732712 -4.606121,2.485323 -5.834578,4.781051 l -0.883101,1.650331 v 34.863201 34.8632 l 0.892945,1.66962 c 1.129392,2.11174 3.678604,4.31019 5.700206,4.91587 1.107448,0.3318 8.459251,0.4689 25.293989,0.4717 l 23.732765,0.004 2.04377,0.95168 c 2.34245,1.09075 4.28569,3.23227 4.95247,5.45781 0.27054,0.90296 0.46005,4.51369 0.46005,8.76513 0,6.94069 -0.0411,7.31203 -1.02731,9.29117 -0.56502,1.13385 -1.68768,2.56523 -2.4948,3.18086 -2.76731,2.11072 -3.56602,2.17064 -28.931532,2.17064 H 54.367524 l -2.10562,1.04928 c -2.454023,1.22289 -3.937744,2.99164 -4.736832,5.64681 -0.831754,2.76371 -0.848157,67.21947 -0.01781,69.9785 0.781428,2.59649 2.405949,4.53559 4.798721,5.72796 l 2.06154,1.02731 h 34.503408 34.503409 l 2.06154,-1.02731 c 1.13385,-0.56502 2.55303,-1.67169 3.15374,-2.45926 2.14485,-2.81204 2.19703,-3.4149 2.20661,-25.49581 0.01,-22.54095 -0.0367,-22.10568 2.64563,-24.7605 2.65441,-2.62716 0.51806,-2.46162 34.62698,-2.68311 30.88392,-0.20055 31.04221,-0.20576 32.66779,-1.07603 3.56127,-1.90658 4.93853,-4.19906 5.75508,-9.57948 0.55289,-3.64316 1.94484,-5.69165 4.87823,-7.17913 l 2.18575,-1.10837 h 26.5415 c 21.35691,0 26.79484,0.10616 27.83844,0.54349 1.91748,0.80353 3.83552,2.56437 4.84124,4.44448 l 0.88917,1.66223 0.20153,50.00912 0.20152,50.0091 1.21978,1.97276 c 0.75571,1.2222 1.97025,2.43682 3.19233,3.19253 l 1.97256,1.21979 31.0663,0.20152 c 22.66176,0.147 31.35404,0.33051 32.12989,0.67832 1.76694,0.79211 4.05658,3.04593 4.83495,4.7593 0.68825,1.51501 0.73451,3.45308 0.74281,31.11867 0.006,19.7728 0.15402,30.17993 0.44901,31.55543 0.57332,2.67331 2.48922,5.14016 4.99327,6.42918 l 2.00012,1.02962 31.04567,0.20152 c 34.75877,0.22562 32.21598,-0.008 34.97094,3.21072 1.52975,1.78717 2.31721,3.91829 2.33075,6.30755 0.0234,4.13409 3.47927,8.15866 7.72319,8.99405 2.01215,0.39603 63.95745,0.55096 67.14688,0.16791 z m -70.90272,-2.571 c -0.91474,-0.68319 -2.62183,-2.80882 -2.25575,-2.80882 0.0698,0 0.92793,0.81616 1.90692,1.81369 1.92179,1.95815 2.02231,2.24499 0.34883,0.99513 z m -75.51631,-18.85841 c -0.44334,-0.38893 -1.16421,-1.15371 -1.60193,-1.69952 -0.43772,-0.54581 -0.0296,-0.27543 0.90685,0.60083 1.53353,1.43492 1.90779,1.85995 1.60193,1.81925 -0.0554,-0.007 -0.4635,-0.33163 -0.90685,-0.72056 z m -4.8106,-68.47125 c -0.21872,-0.57441 -0.17243,-0.62071 0.22562,-0.22562 0.27545,0.2734 0.39929,0.59861 0.27519,0.72271 -0.12409,0.12409 -0.34945,-0.0996 -0.50081,-0.49709 z m -71.91771,-8.37151 c -0.91493,-0.99258 -1.66351,-2.03047 -1.66351,-2.30642 0,-0.27595 0.29947,-0.0533 0.66548,0.4948 0.36601,0.54809 1.21775,1.58598 1.89275,2.30641 0.67501,0.72044 1.12412,1.30989 0.99803,1.30989 -0.12609,0 -0.97783,-0.81211 -1.89275,-1.80468 z M 50.024202,269.02989 c -1.309789,-1.44978 -1.685599,-2.01405 -1.341375,-2.01405 0.06389,0 0.7984,0.81616 1.632231,1.81369 1.8793,2.24825 1.682047,2.38413 -0.290856,0.20036 z m 1.013987,-112.26327 c -1.389986,-1.1696 -3.088671,-3.73214 -2.71903,-4.10178 0.136123,-0.13612 0.247495,-0.025 0.247495,0.24684 0,0.27189 0.933157,1.48102 2.07368,2.68696 2.215502,2.34257 2.384949,2.84001 0.397855,1.16798 z M 48.175868,82.180438 c -0.02018,-0.73008 2.31172,-3.711278 3.300199,-4.219104 0.625047,-0.321117 0.387554,0.09164 -0.741647,1.288939 -0.91363,0.968729 -1.860304,2.124063 -2.103721,2.56741 -0.243416,0.443347 -0.448091,0.606588 -0.454831,0.362755 z M 199.93513,43.208954 c 0.15135,-0.397489 0.37672,-0.621177 0.50081,-0.497084 0.12409,0.124092 2.6e-4,0.449308 -0.27519,0.722708 -0.39805,0.395086 -0.44435,0.348793 -0.22562,-0.225624 z m 273.4081,237.208056 -0.9771,-1.10837 1.10837,0.9771 c 1.03594,0.91325 1.2932,1.23964 0.9771,1.23964 -0.0722,0 -0.57095,-0.49877 -1.10837,-1.10837 z M 170.68861,257.19064 c 0,-0.0837 0.3174,-0.40109 0.70533,-0.70533 0.63925,-0.50133 0.65351,-0.48707 0.15217,0.15218 -0.52652,0.67137 -0.8575,0.88487 -0.8575,0.55315 z"
     id="path101"
     transform="scale(0.26458333)" />
</svg>
