<?xml version="1.0" encoding="UTF-8" standalone="no"?>
<svg
   version="1.1"
   width="147.0152mm"
   height="117.1956mm"
   viewBox="0.0000 0.0000 147.0152 117.1956"
   id="svg961"
   sodipodi:docname="lpk20_mx_keypad_R_Mk1_rev0-User_2_fill.svg"
   inkscape:version="1.2.2 (b0a8486541, 2022-12-01)"
   xmlns:inkscape="http://www.inkscape.org/namespaces/inkscape"
   xmlns:sodipodi="http://sodipodi.sourceforge.net/DTD/sodipodi-0.dtd"
   xmlns="http://www.w3.org/2000/svg"
   xmlns:svg="http://www.w3.org/2000/svg"
   xmlns:rdf="http://www.w3.org/1999/02/22-rdf-syntax-ns#"
   xmlns:cc="http://creativecommons.org/ns#"
   xmlns:dc="http://purl.org/dc/elements/1.1/">
  <defs
     id="defs965" />
  <sodipodi:namedview
     id="namedview963"
     pagecolor="#505050"
     bordercolor="#eeeeee"
     borderopacity="1"
     inkscape:showpageshadow="0"
     inkscape:pageopacity="0"
     inkscape:pagecheckerboard="0"
     inkscape:deskcolor="#505050"
     inkscape:document-units="mm"
     showgrid="false"
     inkscape:zoom="2.3185775"
     inkscape:cx="277.97217"
     inkscape:cy="221.472"
     inkscape:window-width="1689"
     inkscape:window-height="1350"
     inkscape:window-x="1727"
     inkscape:window-y="20"
     inkscape:window-maximized="1"
     inkscape:current-layer="svg961" />
  <title
     id="title907">SVG Image created as lpk20_mx_keypad_R_Mk1_rev0-User_2.svg date 2024/12/22 09:22:53 </title>
  <desc
     id="desc909">Image generated by PCBNEW </desc>
  <g
     style="fill:#000000; fill-opacity:1.0000;stroke:#000000; stroke-opacity:1.0000; stroke-linecap:round; stroke-linejoin:round;"
     transform="translate(0 0) scale(1 1)"
     id="g911" />
  <g
     style="fill:none;  stroke:#000000; stroke-width:0.1000; stroke-opacity:1;  stroke-linecap:round; stroke-linejoin:round;"
     id="g959">
    <path
       d="M42.0143 117.1000 L5.0143 117.1000 "
       id="path913" />
    <path
       d="M2.5143 114.6000 L2.5143 2.6000 "
       id="path915" />
    <path
       d="M84.5143 69.6000 L84.5143 89.6000 "
       id="path917" />
    <path
       d="M87.0143 67.1000 A2.5000 2.5000 0.0 0 0 84.5143 69.6000"
       id="path919" />
    <path
       d="M142.0143 82.1000 A2.5000 2.5000 0.0 0 0 144.5143 79.6000"
       id="path921" />
    <path
       d="M82.0143 92.1000 L67.0143 92.1000 "
       id="path923" />
    <path
       d="M142.0143 82.1000 L105.0143 82.1000 "
       id="path925" />
    <path
       d="M62.0143 112.1000 L47.0143 112.1000 "
       id="path927" />
    <path
       d="M47.0143 112.1000 A2.5000 2.5000 0.0 0 0 44.5143 114.6000"
       id="path929" />
    <path
       d="M102.5143 79.6000 L102.5143 69.6000 "
       id="path931" />
    <path
       d="M64.5143 94.6000 L64.5143 109.6000 "
       id="path933" />
    <path
       d="M42.0143 117.1000 A2.5000 2.5000 0.0 0 0 44.5143 114.6000"
       id="path935" />
    <path
       d="M102.5143 69.6000 A2.5000 2.5000 0.0 0 0 100.0143 67.1000"
       id="path937" />
    <path
       d="M67.0143 92.1000 A2.5000 2.5000 0.0 0 0 64.5143 94.6000"
       id="path939" />
    <path
       d="M102.5143 79.6000 A2.5000 2.5000 0.0 0 0 105.0143 82.1000"
       id="path941" />
    <path
       d="M82.0143 92.1000 A2.5000 2.5000 0.0 0 0 84.5143 89.6000"
       id="path943" />
    <path
       d="M2.5143 114.6000 A2.5000 2.5000 0.0 0 0 5.0143 117.1000"
       id="path945" />
    <path
       d="M100.0143 67.1000 L87.0143 67.1000 "
       id="path947" />
    <path
       d="M5.0143 0.1000 L142.0143 0.1000 "
       id="path949" />
    <path
       d="M144.5143 2.6000 L144.5143 79.6000 "
       id="path951" />
    <path
       d="M5.0143 0.1000 A2.5000 2.5000 0.0 0 0 2.5143 2.6000"
       id="path953" />
    <path
       d="M62.0143 112.1000 A2.5000 2.5000 0.0 0 0 64.5143 109.6000"
       id="path955" />
    <path
       d="M144.5143 2.6000 A2.5000 2.5000 0.0 0 0 142.0143 0.1000"
       id="path957" />
  </g>
  <path
     style="fill:#000000;stroke-width:0.431299"
     d="m 16.285452,441.68595 c -2.42247,-0.8685 -3.654261,-1.80852 -4.964668,-3.7887 l -1.185259,-1.79101 V 221.71915 c 0,-209.390563 0.019,-214.4253299 0.815469,-216.0287842 C 11.887598,3.8047767 13.944156,2.0961207 16.280659,1.2623054 17.625562,0.78235712 61.741957,0.68161255 277.4577,0.66587932 463.16878,0.65233438 537.54689,0.78049663 538.88064,1.1163417 c 2.31974,0.5841223 4.74648,2.5432614 5.86428,4.7343591 0.84414,1.6546184 0.85095,3.0293419 0.74227,149.9793692 l -0.10968,148.30945 -1.23486,1.78186 c -0.77155,1.11339 -2.05729,2.19171 -3.42723,2.87438 l -2.19242,1.09253 h -71.44656 c -52.26454,0 -71.84021,-0.13179 -72.91268,-0.49086 -2.21716,-0.74234 -4.16869,-2.37468 -5.24392,-4.38624 -0.95548,-1.78753 -0.96889,-2.05544 -1.18209,-23.62097 l -0.21565,-21.81293 -1.18976,-1.797 c -0.65436,-0.98835 -1.99878,-2.3324 -2.98759,-2.98676 l -1.79784,-1.18975 h -28.09743 -28.09743 l -1.79784,1.18975 c -0.98881,0.65436 -2.33323,1.99864 -2.98759,2.98728 l -1.18976,1.79753 -0.21565,40.57391 c -0.17071,32.11932 -0.33334,40.84353 -0.78045,41.86781 -0.31064,0.71164 -1.27767,2.02759 -2.14897,2.92434 -2.86015,2.94371 -2.30184,2.89819 -35.54832,2.89819 -32.43813,0 -31.4114,-0.0753 -34.1278,2.50285 -0.67406,0.63976 -1.64449,1.93953 -2.1565,2.88839 -0.92301,1.71054 -0.93275,1.98908 -1.14657,32.77872 -0.23695,34.12104 -0.0739,32.14597 -2.87276,34.80451 -2.71488,2.57879 -1.67528,2.50285 -34.26288,2.50285 -21.10447,0 -30.31195,0.14401 -31.47441,0.4923 -2.17639,0.65206 -4.53323,2.64446 -5.59871,4.73296 -0.4746,0.93029 -1.03709,3.07867 -1.24999,4.77419 -0.46818,3.72862 -1.9358,6.08683 -4.782,7.6838 l -1.9217,1.07825 -71.59562,0.0915 c -58.959893,0.0754 -71.880378,-0.0104 -73.209078,-0.48698 z"
     id="path967"
     transform="scale(0.26458333)" />
  <metadata
     id="metadata985">
    <rdf:RDF>
      <cc:Work
         rdf:about="">
        <dc:title>SVG Image created as lpk20_mx_keypad_R_Mk1_rev0-User_2.svg date 2024/12/22 09:22:53 </dc:title>
      </cc:Work>
    </rdf:RDF>
  </metadata>
</svg>
