<?xml version="1.0" standalone="no"?>
 <!DOCTYPE svg PUBLIC "-//W3C//DTD SVG 1.1//EN" 
 "http://www.w3.org/Graphics/SVG/1.1/DTD/svg11.dtd"> 
<svg
  xmlns:svg="http://www.w3.org/2000/svg"
  xmlns="http://www.w3.org/2000/svg"
  xmlns:xlink="http://www.w3.org/1999/xlink"
  version="1.1"
  width="147.0152mm" height="117.1956mm" viewBox="0.0000 0.0000 147.0152 117.1956">
<title>SVG Image created as lpk20_mx_keypad_R_Mk1_rev0-User_1.svg date 2024/12/22 09:22:53 </title>
  <desc>Image generated by PCBNEW </desc>
<g style="fill:#000000; fill-opacity:1.0000;stroke:#000000; stroke-opacity:1.0000;
stroke-linecap:round; stroke-linejoin:round;"
 transform="translate(0 0) scale(1 1)">
<path style="fill:none; 
stroke:#000000; stroke-width:0.1000; stroke-opacity:1; 
stroke-linecap:round; stroke-linejoin:round;fill:none"
d="M 74.9143,10.9000
84.5143,10.9000
84.5143,13.9000
74.9143,13.9000
Z" /> 
<path style="fill:none; 
stroke:#000000; stroke-width:0.1000; stroke-opacity:1; 
stroke-linecap:round; stroke-linejoin:round;fill:none"
d="M 74.9143,30.9000
84.5143,30.9000
84.5143,33.9000
74.9143,33.9000
Z" /> 
</g>
<g style="fill:none; 
stroke:#000000; stroke-width:0.1000; stroke-opacity:1; 
stroke-linecap:round; stroke-linejoin:round;">
<circle cx="114.3143" cy="46.1000" r="1.6000" /> 
<path style="fill:none; 
stroke:#000000; stroke-width:0.1000; stroke-opacity:1; 
stroke-linecap:round; stroke-linejoin:round;fill:none"
d="M 114.9143,20.9000
124.5143,20.9000
124.5143,23.9000
114.9143,23.9000
Z" /> 
<path style="fill:none; 
stroke:#000000; stroke-width:0.1000; stroke-opacity:1; 
stroke-linecap:round; stroke-linejoin:round;fill:none"
d="M 76.3143,33.9000
90.7143,33.9000
90.7143,48.3000
76.3143,48.3000
Z" /> 
<circle cx="47.0143" cy="57.1000" r="1.6000" /> 
<path style="fill:none; 
stroke:#000000; stroke-width:0.1000; stroke-opacity:1; 
stroke-linecap:round; stroke-linejoin:round;fill:none"
d="M 76.3143,13.9000
90.7143,13.9000
90.7143,28.3000
76.3143,28.3000
Z" /> 
<path style="fill:none; 
stroke:#000000; stroke-width:0.1000; stroke-opacity:1; 
stroke-linecap:round; stroke-linejoin:round;fill:none"
d="M 114.9143,50.9000
124.5143,50.9000
124.5143,53.9000
114.9143,53.9000
Z" /> 
<path style="fill:none; 
stroke:#000000; stroke-width:0.1000; stroke-opacity:1; 
stroke-linecap:round; stroke-linejoin:round;fill:none"
d="M 94.9143,35.9000
104.5143,35.9000
104.5143,38.9000
94.9143,38.9000
Z" /> 
<path style="fill:none; 
stroke:#000000; stroke-width:0.1000; stroke-opacity:1; 
stroke-linecap:round; stroke-linejoin:round;fill:none"
d="M 54.9143,60.9000
64.5143,60.9000
64.5143,63.9000
54.9143,63.9000
Z" /> 
<path style="fill:none; 
stroke:#000000; stroke-width:0.1000; stroke-opacity:1; 
stroke-linecap:round; stroke-linejoin:round;fill:none"
d="M 56.3143,23.9000
70.7143,23.9000
70.7143,38.3000
56.3143,38.3000
Z" /> 
<path style="fill:none; 
stroke:#000000; stroke-width:0.1000; stroke-opacity:1; 
stroke-linecap:round; stroke-linejoin:round;fill:none"
d="M 56.3143,63.9000
70.7143,63.9000
70.7143,78.3000
56.3143,78.3000
Z" /> 
<path style="fill:none; 
stroke:#000000; stroke-width:0.1000; stroke-opacity:1; 
stroke-linecap:round; stroke-linejoin:round;fill:none"
d="M 116.3143,53.9000
130.7143,53.9000
130.7143,68.3000
116.3143,68.3000
Z" /> 
<path style="fill:none; 
stroke:#000000; stroke-width:0.1000; stroke-opacity:1; 
stroke-linecap:round; stroke-linejoin:round;fill:none"
d="M 14.9143,85.9000
24.5143,85.9000
24.5143,88.9000
14.9143,88.9000
Z" /> 
<path style="fill:none; 
stroke:#000000; stroke-width:0.1000; stroke-opacity:1; 
stroke-linecap:round; stroke-linejoin:round;fill:none"
d="M 34.9143,80.9000
44.5143,80.9000
44.5143,83.9000
34.9143,83.9000
Z" /> 
<path style="fill:none; 
stroke:#000000; stroke-width:0.1000; stroke-opacity:1; 
stroke-linecap:round; stroke-linejoin:round;fill:none"
d="M 36.3143,83.9000
50.7143,83.9000
50.7143,98.3000
36.3143,98.3000
Z" /> 
<path style="fill:none; 
stroke:#000000; stroke-width:0.1000; stroke-opacity:1; 
stroke-linecap:round; stroke-linejoin:round;fill:none"
d="M 54.7143,40.9000
64.3143,40.9000
64.3143,43.9000
54.7143,43.9000
Z" /> 
<path style="fill:none; 
stroke:#000000; stroke-width:0.1000; stroke-opacity:1; 
stroke-linecap:round; stroke-linejoin:round;fill:none"
d="M 54.9143,20.9000
64.5143,20.9000
64.5143,23.9000
54.9143,23.9000
Z" /> 
<path style="fill:none; 
stroke:#000000; stroke-width:0.1000; stroke-opacity:1; 
stroke-linecap:round; stroke-linejoin:round;fill:none"
d="M 96.3143,38.9000
110.7143,38.9000
110.7143,53.3000
96.3143,53.3000
Z" /> 
<path style="fill:none; 
stroke:#000000; stroke-width:0.1000; stroke-opacity:1; 
stroke-linecap:round; stroke-linejoin:round;fill:none"
d="M 16.3143,88.9000
30.7143,88.9000
30.7143,103.3000
16.3143,103.3000
Z" /> 
<circle cx="73.3143" cy="22.9000" r="1.6000" /> 
<path style="fill:none; 
stroke:#000000; stroke-width:0.1000; stroke-opacity:1; 
stroke-linecap:round; stroke-linejoin:round;fill:none"
d="M 116.3143,23.9000
130.7143,23.9000
130.7143,38.3000
116.3143,38.3000
Z" /> 
<circle cx="34.1143" cy="99.7000" r="1.6000" /> 
<path style="fill:none; 
stroke:#000000; stroke-width:0.1000; stroke-opacity:1; 
stroke-linecap:round; stroke-linejoin:round;fill:none"
d="M 56.3143,43.9000
70.7143,43.9000
70.7143,58.3000
56.3143,58.3000
Z" /> 
</g> 
</svg>
