<?xml version="1.0" encoding="UTF-8" standalone="no"?>
<svg
   version="1.1"
   width="147.0152mm"
   height="117.1956mm"
   viewBox="0.0000 0.0000 147.0152 117.1956"
   id="svg42"
   sodipodi:docname="lpk20_mx_keypad_L_Mk1_rev0-User_4_fill.svg"
   inkscape:version="1.3.2 (091e20e, 2023-11-25, custom)"
   xmlns:inkscape="http://www.inkscape.org/namespaces/inkscape"
   xmlns:sodipodi="http://sodipodi.sourceforge.net/DTD/sodipodi-0.dtd"
   xmlns="http://www.w3.org/2000/svg"
   xmlns:svg="http://www.w3.org/2000/svg">
  <defs
     id="defs42" />
  <sodipodi:namedview
     id="namedview42"
     pagecolor="#505050"
     bordercolor="#eeeeee"
     borderopacity="1"
     inkscape:showpageshadow="0"
     inkscape:pageopacity="0"
     inkscape:pagecheckerboard="0"
     inkscape:deskcolor="#505050"
     inkscape:document-units="mm"
     inkscape:zoom="1.7544212"
     inkscape:cx="145.34708"
     inkscape:cy="229.70539"
     inkscape:window-width="3440"
     inkscape:window-height="1334"
     inkscape:window-x="-11"
     inkscape:window-y="-11"
     inkscape:window-maximized="1"
     inkscape:current-layer="svg42" />
  <title
     id="title1">SVG Image created as lpk20_mx_keypad_L_Mk1_rev0-User_4.svg date 2024/11/22 14:21:42 </title>
  <desc
     id="desc1">Image generated by PCBNEW </desc>
  <g
     style="fill:#000000; fill-opacity:1.0000;stroke:#000000; stroke-opacity:1.0000; stroke-linecap:round; stroke-linejoin:round;"
     transform="translate(0 0) scale(1 1)"
     id="g1" />
  <path
     d="m 124.5143,72.6 a 2.5,2.5 0 0 0 2.5,2.5"
     id="path1"
     style="fill:none;stroke:#000000;stroke-width:0.1;stroke-linecap:round;stroke-linejoin:round;stroke-opacity:1" />
  <path
     d="m 142.0143,75.1 h -15"
     id="path2"
     style="fill:none;stroke:#000000;stroke-width:0.1;stroke-linecap:round;stroke-linejoin:round;stroke-opacity:1" />
  <path
     d="m 5.0143,10.1 a 2.5,2.5 0 0 0 -2.5,2.5"
     id="path6"
     style="fill:none;stroke:#000000;stroke-width:0.1;stroke-linecap:round;stroke-linejoin:round;stroke-opacity:1" />
  <path
     d="m 105.0143,117.1 h 37"
     id="path7"
     style="fill:none;stroke:#000000;stroke-width:0.1;stroke-linecap:round;stroke-linejoin:round;stroke-opacity:1" />
  <path
     d="m 47.0143,67.1 h 13"
     id="path8"
     style="fill:none;stroke:#000000;stroke-width:0.1;stroke-linecap:round;stroke-linejoin:round;stroke-opacity:1" />
  <path
     d="m 84.5143,7.6 v -5"
     id="path9"
     style="fill:none;stroke:#000000;stroke-width:0.1;stroke-linecap:round;stroke-linejoin:round;stroke-opacity:1" />
  <path
     d="m 42.0143,82.1 a 2.5,2.5 0 0 0 2.5,-2.5"
     id="path10"
     style="fill:none;stroke:#000000;stroke-width:0.1;stroke-linecap:round;stroke-linejoin:round;stroke-opacity:1" />
  <path
     d="m 142.0143,117.1 a 2.5,2.5 0 0 0 2.5,-2.5"
     id="path11"
     style="fill:none;stroke:#000000;stroke-width:0.1;stroke-linecap:round;stroke-linejoin:round;stroke-opacity:1" />
  <path
     d="m 62.5143,69.6 a 2.5,2.5 0 0 0 -2.5,-2.5"
     id="path12"
     style="fill:none;stroke:#000000;stroke-width:0.1;stroke-linecap:round;stroke-linejoin:round;stroke-opacity:1" />
  <path
     d="m 102.5143,114.6 a 2.5,2.5 0 0 0 -2.5,-2.5"
     id="path13"
     style="fill:none;stroke:#000000;stroke-width:0.1;stroke-linecap:round;stroke-linejoin:round;stroke-opacity:1" />
  <path
     d="m 2.5143,12.6 v 67"
     id="path14"
     style="fill:none;stroke:#000000;stroke-width:0.1;stroke-linecap:round;stroke-linejoin:round;stroke-opacity:1" />
  <path
     d="m 84.5143,2.6 a 2.5,2.5 0 0 0 -2.5,-2.5"
     id="path15"
     style="fill:none;stroke:#000000;stroke-width:0.1;stroke-linecap:round;stroke-linejoin:round;stroke-opacity:1" />
  <path
     d="m 82.5143,109.6 a 2.5,2.5 0 0 0 2.5,2.5"
     id="path17"
     style="fill:none;stroke:#000000;stroke-width:0.1;stroke-linecap:round;stroke-linejoin:round;stroke-opacity:1" />
  <path
     d="m 28.5143,10.1 a 2.5,2.5 0 0 0 2.5,-2.5"
     id="path18"
     style="fill:none;stroke:#000000;stroke-width:0.1;stroke-linecap:round;stroke-linejoin:round;stroke-opacity:1" />
  <path
     d="m 102.5143,114.6 a 2.5,2.5 0 0 0 2.5,2.5"
     id="path19"
     style="fill:none;stroke:#000000;stroke-width:0.1;stroke-linecap:round;stroke-linejoin:round;stroke-opacity:1" />
  <path
     d="m 82.0143,0.1 h -48.5"
     id="path20"
     style="fill:none;stroke:#000000;stroke-width:0.1;stroke-linecap:round;stroke-linejoin:round;stroke-opacity:1" />
  <path
     d="m 2.5143,79.6 a 2.5,2.5 0 0 0 2.5,2.5"
     id="path21"
     style="fill:none;stroke:#000000;stroke-width:0.1;stroke-linecap:round;stroke-linejoin:round;stroke-opacity:1" />
  <path
     d="m 62.5143,89.6 a 2.5,2.5 0 0 0 2.5,2.5"
     id="path22"
     style="fill:none;stroke:#000000;stroke-width:0.1;stroke-linecap:round;stroke-linejoin:round;stroke-opacity:1" />
  <path
     d="m 28.5143,10.1 h -23.5"
     id="path23"
     style="fill:none;stroke:#000000;stroke-width:0.1;stroke-linecap:round;stroke-linejoin:round;stroke-opacity:1" />
  <path
     d="m 44.5143,79.6 v -10"
     id="path24"
     style="fill:none;stroke:#000000;stroke-width:0.1;stroke-linecap:round;stroke-linejoin:round;stroke-opacity:1" />
  <path
     d="m 85.0143,112.1 h 15"
     id="path25"
     style="fill:none;stroke:#000000;stroke-width:0.1;stroke-linecap:round;stroke-linejoin:round;stroke-opacity:1" />
  <path
     d="m 65.0143,92.1 h 15"
     id="path26"
     style="fill:none;stroke:#000000;stroke-width:0.1;stroke-linecap:round;stroke-linejoin:round;stroke-opacity:1" />
  <path
     d="m 144.5143,114.6 v -37"
     id="path27"
     style="fill:none;stroke:#000000;stroke-width:0.1;stroke-linecap:round;stroke-linejoin:round;stroke-opacity:1" />
  <path
     d="m 82.5143,94.6 a 2.5,2.5 0 0 0 -2.5,-2.5"
     id="path28"
     style="fill:none;stroke:#000000;stroke-width:0.1;stroke-linecap:round;stroke-linejoin:round;stroke-opacity:1" />
  <path
     d="m 124.5143,72.6 a 2.5,2.5 0 0 0 -2.5,-2.5"
     id="path29"
     style="fill:none;stroke:#000000;stroke-width:0.1;stroke-linecap:round;stroke-linejoin:round;stroke-opacity:1" />
  <path
     d="m 104.5143,12.6 a 2.5,2.5 0 0 0 -2.5,-2.5"
     id="path30"
     style="fill:none;stroke:#000000;stroke-width:0.1;stroke-linecap:round;stroke-linejoin:round;stroke-opacity:1" />
  <path
     d="m 102.0143,10.1 h -15"
     id="path31"
     style="fill:none;stroke:#000000;stroke-width:0.1;stroke-linecap:round;stroke-linejoin:round;stroke-opacity:1" />
  <path
     d="m 47.0143,67.1 a 2.5,2.5 0 0 0 -2.5,2.5"
     id="path32"
     style="fill:none;stroke:#000000;stroke-width:0.1;stroke-linecap:round;stroke-linejoin:round;stroke-opacity:1" />
  <path
     d="m 104.5143,67.6 a 2.5,2.5 0 0 0 2.5,2.5"
     id="path33"
     style="fill:none;stroke:#000000;stroke-width:0.1;stroke-linecap:round;stroke-linejoin:round;stroke-opacity:1" />
  <path
     d="m 82.5143,94.6 v 15"
     id="path34"
     style="fill:none;stroke:#000000;stroke-width:0.1;stroke-linecap:round;stroke-linejoin:round;stroke-opacity:1" />
  <path
     d="m 144.5143,77.6 a 2.5,2.5 0 0 0 -2.5,-2.5"
     id="path35"
     style="fill:none;stroke:#000000;stroke-width:0.1;stroke-linecap:round;stroke-linejoin:round;stroke-opacity:1" />
  <path
     d="m 31.0143,2.6 v 5"
     id="path36"
     style="fill:none;stroke:#000000;stroke-width:0.1;stroke-linecap:round;stroke-linejoin:round;stroke-opacity:1" />
  <path
     d="m 104.5143,67.6 v -55"
     id="path37"
     style="fill:none;stroke:#000000;stroke-width:0.1;stroke-linecap:round;stroke-linejoin:round;stroke-opacity:1" />
  <path
     d="m 62.5143,69.6 v 20"
     id="path38"
     style="fill:none;stroke:#000000;stroke-width:0.1;stroke-linecap:round;stroke-linejoin:round;stroke-opacity:1" />
  <path
     d="m 122.0143,70.1 h -15"
     id="path39"
     style="fill:none;stroke:#000000;stroke-width:0.1;stroke-linecap:round;stroke-linejoin:round;stroke-opacity:1" />
  <path
     d="m 84.5143,7.6 a 2.5,2.5 0 0 0 2.5,2.5"
     id="path40"
     style="fill:none;stroke:#000000;stroke-width:0.1;stroke-linecap:round;stroke-linejoin:round;stroke-opacity:1" />
  <path
     d="m 33.5143,0.1 a 2.5,2.5 0 0 0 -2.5,2.5"
     id="path41"
     style="fill:none;stroke:#000000;stroke-width:0.1;stroke-linecap:round;stroke-linejoin:round;stroke-opacity:1" />
  <path
     d="m 5.0143,82.1 h 37"
     id="path42"
     style="fill:none;stroke:#000000;stroke-width:0.1;stroke-linecap:round;stroke-linejoin:round;stroke-opacity:1" />
  <path
     style="fill:#020302;stroke-width:0;stroke-miterlimit:2.8"
     d="m 392.67156,440.94831 c -2.42783,-1.48047 -4.13799,-3.80344 -4.49437,-6.10487 -0.16499,-1.06542 -0.44088,-2.84035 -0.61308,-3.94428 -0.37727,-2.41839 -3.25345,-5.85397 -5.78706,-6.91258 -1.4694,-0.61395 -7.97596,-0.77008 -32.09347,-0.77008 -28.96637,0 -30.34379,-0.0476 -32.45022,-1.12225 -1.20989,-0.61725 -2.80276,-2.09209 -3.53972,-3.27744 l -1.33991,-2.15517 -0.28499,-31.37549 c -0.27013,-29.73828 -0.34223,-31.46277 -1.38184,-33.04842 -1.57707,-2.40542 -3.13318,-3.52756 -5.85293,-4.22067 -1.544,-0.39348 -12.84446,-0.60903 -31.92825,-0.60903 -27.72421,0 -29.66037,-0.0652 -31.52446,-1.06195 -1.09234,-0.58407 -2.49906,-1.93066 -3.12604,-2.99244 -1.10376,-1.86916 -1.14903,-3.22519 -1.42497,-42.68468 l -0.285,-40.75418 -1.33991,-2.15518 c -0.73696,-1.18534 -2.32983,-2.66018 -3.53972,-3.27743 -2.09711,-1.06986 -3.46755,-1.12226 -29.35333,-1.12226 -30.23457,0 -29.61092,-0.0742 -32.63037,3.88199 l -1.5353,2.01159 -0.28499,22.32074 -0.28499,22.32076 -1.64261,2.15239 c -3.06455,4.01564 2.23407,3.77018 -77.82623,3.60536 -72.068097,-0.14837 -72.355841,-0.15353 -73.923664,-1.32415 -0.865673,-0.64636 -2.102788,-1.88352 -2.749146,-2.74924 L 10.259794,304.0053 V 174.2322 44.459108 l 1.368582,-1.918883 c 0.75272,-1.055385 2.419937,-2.39635 3.704926,-2.979922 2.216293,-1.006519 4.717178,-1.061682 48.670621,-1.073557 44.952437,-0.01214 46.399887,-0.04599 48.534087,-1.134777 1.20989,-0.617242 2.80277,-2.092088 3.53972,-3.277434 1.27437,-2.049754 1.35385,-2.773591 1.62491,-14.797662 0.31223,-13.8508618 0.3735,-14.0977696 4.20943,-16.9617 l 1.57405,-1.1751959 h 94.8195 94.8195 l 1.57404,1.1751959 c 3.83593,2.8639304 3.8972,3.1108382 4.20944,16.9617 0.31875,14.139842 0.59141,15.196397 4.55991,17.669256 1.97155,1.228518 2.36279,1.246448 33.34433,1.528099 30.98153,0.28165 31.37278,0.29958 33.34433,1.528098 1.09723,0.683708 2.50795,2.09443 3.13493,3.134938 1.12648,1.869431 1.14336,3.160686 1.42498,109.049676 l 0.28499,107.15785 1.33047,1.86537 c 0.73177,1.02595 2.32464,2.37255 3.53973,2.99244 2.11851,1.08078 3.44932,1.12707 32.40424,1.12707 19.94831,0 30.73951,0.20574 31.79957,0.60625 3.55668,1.34381 5.49287,4.23439 6.15189,9.1843 0.41949,3.15078 2.15094,5.92917 4.81285,7.72304 l 1.92319,1.29604 h 30.57432 c 30.57316,0 30.57441,5e-5 33.11754,1.28247 1.8619,0.9389 2.88852,1.96729 3.83211,3.83872 l 1.28889,2.55624 -0.14891,72.21306 -0.14891,72.21305 -1.19239,1.60917 c -0.65581,0.88504 -2.04034,2.18628 -3.07673,2.89164 l -1.88435,1.28248 -72.44674,-0.002 c -69.94748,-0.002 -72.50749,-0.0392 -74.20728,-1.07568 z M 473.5853,280.39379 c -1.05588,-1.11955 -1.91977,-2.31653 -1.91977,-2.65995 0,-0.34342 0.0641,-0.51359 0.1425,-0.37815 0.0784,0.13543 1.15641,1.33241 2.39563,2.65994 1.23923,1.32754 2.03899,2.4137 1.77727,2.4137 -0.26173,0 -1.33976,-0.91599 -2.39563,-2.03554 z m -77.40661,-21.16691 c -0.30932,-0.81235 -0.24385,-0.87782 0.31908,-0.31908 0.38954,0.38665 0.56467,0.84657 0.38918,1.02206 -0.1755,0.1755 -0.49421,-0.14085 -0.70826,-0.70298 z"
     id="path43"
     transform="scale(0.26458333)" />
</svg>
