<?xml version="1.0" encoding="UTF-8" standalone="no"?>
<svg
   version="1.1"
   width="147.0152mm"
   height="117.1956mm"
   viewBox="0.0000 0.0000 147.0152 117.1956"
   id="svg174"
   sodipodi:docname="lpk20_mx_keypad_L_Mk1_rev0-User_6.svg"
   inkscape:version="1.2.2 (b0a8486541, 2022-12-01)"
   xmlns:inkscape="http://www.inkscape.org/namespaces/inkscape"
   xmlns:sodipodi="http://sodipodi.sourceforge.net/DTD/sodipodi-0.dtd"
   xmlns="http://www.w3.org/2000/svg"
   xmlns:svg="http://www.w3.org/2000/svg">
  <defs
     id="defs178" />
  <sodipodi:namedview
     id="namedview176"
     pagecolor="#505050"
     bordercolor="#eeeeee"
     borderopacity="1"
     inkscape:showpageshadow="0"
     inkscape:pageopacity="0"
     inkscape:pagecheckerboard="0"
     inkscape:deskcolor="#505050"
     inkscape:document-units="mm"
     showgrid="false"
     inkscape:zoom="2.5894921"
     inkscape:cx="277.66063"
     inkscape:cy="221.472"
     inkscape:window-width="3396"
     inkscape:window-height="1350"
     inkscape:window-x="20"
     inkscape:window-y="44"
     inkscape:window-maximized="1"
     inkscape:current-layer="svg174" />
  <title
     id="title150">SVG Image created as lpk20_mx_keypad_L_Mk1_rev0-User_6.svg date 2024/12/19 18:51:27 </title>
  <desc
     id="desc152">Image generated by PCBNEW </desc>
  <g
     style="fill:#000000; fill-opacity:1.0000;stroke:#000000; stroke-opacity:1.0000; stroke-linecap:round; stroke-linejoin:round;"
     transform="translate(0 0) scale(1 1)"
     id="g154" />
  <g
     style="fill:none;  stroke:#000000; stroke-width:0.1000; stroke-opacity:1;  stroke-linecap:round; stroke-linejoin:round;"
     id="g172">
    <circle
       cx="113.0143"
       cy="99.8500"
       r="4.0000"
       id="circle156" />
    <circle
       cx="100.0143"
       cy="57.1000"
       r="4.0000"
       id="circle158" />
    <circle
       cx="73.7143"
       cy="22.6000"
       r="4.0000"
       id="circle160" />
    <circle
       cx="32.5143"
       cy="46.1000"
       r="2.0000"
       id="circle162" />
    <circle
       cx="100.0143"
       cy="57.1000"
       r="2.0000"
       id="circle164" />
    <circle
       cx="113.0143"
       cy="99.8500"
       r="2.0000"
       id="circle166" />
    <circle
       cx="32.5143"
       cy="46.1000"
       r="4.0000"
       id="circle168" />
    <circle
       cx="73.7143"
       cy="22.6000"
       r="2.0000"
       id="circle170" />
  </g>
  <path
     style="fill:#000000;stroke-width:0.386176"
     d="m 119.61648,188.61395 c -4.22772,-0.9964 -8.09517,-4.21801 -10.06628,-8.38528 -1.09381,-2.31251 -1.22351,-2.95721 -1.2198,-6.06324 0.004,-2.95422 0.15941,-3.80884 1.03916,-5.69712 1.35443,-2.90711 4.37283,-6.05611 7.15304,-7.46252 2.03825,-1.03108 2.56949,-1.12645 6.28141,-1.12761 3.5956,-10e-4 4.30571,0.11631 6.26987,1.03684 2.83003,1.32634 5.84728,4.34359 7.17362,7.17362 0.90982,1.94129 1.03811,2.69227 1.03811,6.07679 0,3.37466 -0.12959,4.1382 -1.02739,6.05337 -2.99409,6.38696 -10.0531,9.94798 -16.64174,8.39515 z m 7.71264,-7.80799 c 4.12815,-2.86081 4.65866,-8.5644 1.12525,-12.09781 -2.58642,-2.58642 -6.10759,-3.10956 -9.41847,-1.39931 -4.47661,2.31241 -5.33265,9.22151 -1.57664,12.72498 2.5066,2.33808 7.09251,2.69684 9.86986,0.77214 z"
     id="path299"
     transform="scale(0.26458333)" />
  <path
     style="fill:#000000;stroke-width:0.386176"
     d="m 275.1055,99.691251 c -7.27536,-1.853047 -12.27784,-9.338477 -11.01856,-16.487536 0.82755,-4.69804 3.59954,-8.519095 7.85342,-10.82555 2.33529,-1.266194 2.60823,-1.321759 6.49262,-1.321759 3.58373,0 4.30949,0.119369 6.24646,1.027386 7.53079,3.530301 10.70306,12.448519 7.06965,19.874946 -1.34141,2.741731 -4.94499,6.025294 -7.77426,7.083859 -2.78187,1.040833 -6.31506,1.299233 -8.86933,0.648654 z m 8.0158,-7.799131 c 4.15347,-2.934107 4.50028,-8.876968 0.71747,-12.29451 -5.31841,-4.804864 -13.64207,-0.634162 -13.04733,6.537575 0.2227,2.685418 1.73678,4.959802 4.16596,6.257892 2.47426,1.322183 5.87883,1.113271 8.1639,-0.500957 z"
     id="path301"
     transform="scale(0.26458333)" />
  <path
     style="fill:#000000;stroke-width:0.386176"
     d="m 375.88719,230.31415 c -4.57978,-0.58074 -8.99959,-3.85303 -11.16716,-8.26781 -1.02634,-2.09039 -1.13521,-2.68248 -1.13521,-6.17389 0,-3.36552 0.13076,-4.14065 1.01763,-6.03207 1.95534,-4.17014 5.54776,-7.14913 9.9953,-8.28854 9.43435,-2.41697 18.74111,5.43594 18.02161,15.20638 -0.62959,8.54966 -8.15183,14.64397 -16.73217,13.55593 z m 5.89992,-7.5605 c 4.52437,-2.33742 5.40045,-9.22705 1.62154,-12.75195 -2.12429,-1.98152 -6.10269,-2.6375 -8.65383,-1.4269 -1.86083,0.88302 -3.90971,3.30862 -4.43146,5.24624 -0.97887,3.63525 1.33827,8.13559 4.84674,9.4133 1.95524,0.71206 4.6933,0.51316 6.61701,-0.48069 z"
     id="path303"
     transform="scale(0.26458333)" />
  <path
     style="fill:#000000;stroke-width:0.386176"
     d="m 423.6352,391.6313 c -5.38798,-1.48331 -9.10987,-5.13907 -10.63549,-10.44652 -1.88621,-6.56185 1.55145,-13.99852 7.9175,-17.12789 1.91588,-0.94179 2.56124,-1.05134 6.19358,-1.05134 3.67567,0 4.26432,0.10286 6.29497,1.09998 2.85841,1.40359 5.68606,4.23126 7.08786,7.08794 0.98485,2.007 1.09862,2.63874 1.09869,6.1006 7e-5,3.36561 -0.13066,4.14059 -1.01756,6.03207 -3.05686,6.51938 -10.38161,10.11057 -16.93955,8.30516 z m 6.44331,-6.83048 c 1.35942,-0.51252 3.47026,-2.50488 4.27089,-4.03117 1.49782,-2.85538 0.36023,-7.5776 -2.3113,-9.59438 -3.98354,-3.00724 -9.71635,-1.788 -11.92206,2.53555 -0.64779,1.26978 -0.77935,2.10665 -0.66085,4.2038 0.12564,2.22356 0.32647,2.84007 1.3318,4.08834 2.29938,2.85504 6.10241,4.0002 9.29152,2.79786 z"
     id="path305"
     transform="scale(0.26458333)" />
</svg>
