<?xml version="1.0" standalone="no"?>
 <!DOCTYPE svg PUBLIC "-//W3C//DTD SVG 1.1//EN" 
 "http://www.w3.org/Graphics/SVG/1.1/DTD/svg11.dtd"> 
<svg
  xmlns:svg="http://www.w3.org/2000/svg"
  xmlns="http://www.w3.org/2000/svg"
  xmlns:xlink="http://www.w3.org/1999/xlink"
  version="1.1"
  width="147.0152mm" height="117.1956mm" viewBox="0.0000 0.0000 147.0152 117.1956">
<title>SVG Image created as lpk20_mx_keypad_R_Mk1_rev0-User_3.svg date 2024/12/22 09:42:39 </title>
  <desc>Image generated by PCBNEW </desc>
<g style="fill:#000000; fill-opacity:1.0000;stroke:#000000; stroke-opacity:1.0000;
stroke-linecap:round; stroke-linejoin:round;"
 transform="translate(0 0) scale(1 1)">
</g>
<g style="fill:none; 
stroke:#000000; stroke-width:0.1000; stroke-opacity:1; 
stroke-linecap:round; stroke-linejoin:round;">
<path d="M50.0143 80.1000 A2.5000 2.5000 0.0 0 0 52.5143 77.6000" />
<path d="M38.3643 80.1000
L50.0143 80.1000
" />
<path d="M52.5143 51.3500
L52.5143 77.6000
" />
<path d="M102.5143 79.6000 A2.5000 2.5000 0.0 0 0 105.0143 82.1000" />
<path d="M100.0143 67.1000
L87.0143 67.1000
" />
<path d="M144.5143 12.6000 A2.5000 2.5000 0.0 0 0 142.0143 10.1000" />
<path d="M42.0143 117.1000 A2.5000 2.5000 0.0 0 0 44.5143 114.6000" />
<path d="M64.5143 94.6000
L64.5143 109.6000
" />
<path d="M42.0143 117.1000
L5.0143 117.1000
" />
<path d="M84.5143 69.6000
L84.5143 89.6000
" />
<path d="M42.5143 67.6000
L42.5143 12.6000
" />
<path d="M116.0143 7.6000 A2.5000 2.5000 0.0 0 0 118.5143 10.1000" />
<path d="M142.0143 82.1000
L105.0143 82.1000
" />
<path d="M25.0143 70.1000 A2.5000 2.5000 0.0 0 0 22.5143 72.6000" />
<path d="M62.0143 112.1000
L47.0143 112.1000
" />
<path d="M67.0143 92.1000 A2.5000 2.5000 0.0 0 0 64.5143 94.6000" />
<path d="M116.0143 2.6000
L116.0143 7.6000
" />
<path d="M2.5143 114.6000
L2.5143 77.6000
" />
<path d="M45.0143 10.1000
L60.0143 10.1000
" />
<path d="M20.0143 75.1000 A2.5000 2.5000 0.0 0 0 22.5143 72.6000" />
<path d="M102.5143 79.6000
L102.5143 69.6000
" />
<path d="M45.0143 10.1000 A2.5000 2.5000 0.0 0 0 42.5143 12.6000" />
<path d="M5.0143 75.1000 A2.5000 2.5000 0.0 0 0 2.5143 77.6000" />
<path d="M144.5143 12.6000
L144.5143 79.6000
" />
<path d="M87.0143 67.1000 A2.5000 2.5000 0.0 0 0 84.5143 69.6000" />
<path d="M2.5143 114.6000 A2.5000 2.5000 0.0 0 0 5.0143 117.1000" />
<path d="M65.0143 0.1000
L113.5143 0.1000
" />
<path d="M116.0143 2.6000 A2.5000 2.5000 0.0 0 0 113.5143 0.1000" />
<path d="M82.0143 92.1000
L67.0143 92.1000
" />
<path d="M5.0143 75.1000
L20.0143 75.1000
" />
<path d="M118.5143 10.1000
L142.0143 10.1000
" />
<path d="M47.0143 112.1000 A2.5000 2.5000 0.0 0 0 44.5143 114.6000" />
<path d="M102.5143 69.6000 A2.5000 2.5000 0.0 0 0 100.0143 67.1000" />
<path d="M25.0143 70.1000
L40.0143 70.1000
" />
<path d="M82.0143 92.1000 A2.5000 2.5000 0.0 0 0 84.5143 89.6000" />
<path d="M142.0143 82.1000 A2.5000 2.5000 0.0 0 0 144.5143 79.6000" />
<path d="M40.0143 70.1000 A2.5000 2.5000 0.0 0 0 42.5143 67.6000" />
<path d="M62.5143 7.6000
L62.5143 2.6000
" />
<path d="M65.0143 0.1000 A2.5000 2.5000 0.0 0 0 62.5143 2.6000" />
<path d="M62.0143 112.1000 A2.5000 2.5000 0.0 0 0 64.5143 109.6000" />
<path d="M60.0143 10.1000 A2.5000 2.5000 0.0 0 0 62.5143 7.6000" />
</g>
<g style="fill:none; 
stroke:#000000; stroke-width:0.0500; stroke-opacity:1; 
stroke-linecap:round; stroke-linejoin:round;">
<path d="M72.0143 82.1000 A2.5000 2.5000 0.0 0 0 74.5143 79.6000" />
<path d="M54.5143 84.6000
L54.5143 99.6000
" />
<path d="M132.0143 42.1000 A2.5000 2.5000 0.0 0 0 134.5143 39.6000" />
<path d="M52.5143 22.6000
L52.5143 51.3500
" />
<path d="M75.0143 10.1000 A2.5000 2.5000 0.0 0 0 72.5143 12.6000" />
<path d="M97.0143 35.1000
L110.0143 35.1000
" />
<path d="M72.5143 17.6000
L72.5143 12.6000
" />
<path d="M115.0143 20.1000 A2.5000 2.5000 0.0 0 0 112.5143 22.6000" />
<path d="M70.0143 20.1000 A2.5000 2.5000 0.0 0 0 72.5143 17.6000" />
<path d="M132.0143 72.1000 A2.5000 2.5000 0.0 0 0 134.5143 69.6000" />
<path d="M115.0143 20.1000
L132.0143 20.1000
" />
<path d="M55.0143 20.1000 A2.5000 2.5000 0.0 0 0 52.5143 22.6000" />
<path d="M117.7643 47.6000 A2.5000 2.5000 0.0 0 0 120.2643 50.1000" />
<path d="M12.5143 104.6000
L12.5143 87.6000
" />
<path d="M32.0143 107.1000
L15.0143 107.1000
" />
<path d="M52.0143 102.1000
L37.0143 102.1000
" />
<path d="M112.5143 69.6000
L112.5143 59.6000
" />
<path d="M32.0143 107.1000 A2.5000 2.5000 0.0 0 0 34.5143 104.6000" />
<path d="M35.0143 80.1000 A2.5000 2.5000 0.0 0 0 32.5143 82.6000" />
<path d="M15.0143 85.1000
L30.0143 85.1000
" />
<path d="M134.5143 52.6000
L134.5143 69.6000
" />
<path d="M50.0143 53.8500 A2.5000 2.5000 0.0 0 0 52.5143 51.3500" />
<path d="M72.0143 82.1000
L57.0143 82.1000
" />
<path d="M55.0143 20.1000
L70.0143 20.1000
" />
<path d="M94.5143 12.6000 A2.5000 2.5000 0.0 0 0 92.0143 10.1000" />
<path d="M41.0143 80.1000
L35.0143 80.1000
" />
<path d="M75.0143 10.1000
L92.0143 10.1000
" />
<path d="M120.2643 42.1000 A2.5000 2.5000 0.0 0 0 117.7643 44.6000" />
<path d="M112.5143 32.6000
L112.5143 22.6000
" />
<path d="M117.7643 44.6000
L117.7643 47.6000
" />
<path d="M12.5143 104.6000 A2.5000 2.5000 0.0 0 0 15.0143 107.1000" />
<path d="M46.0143 53.8500 A2.5000 2.5000 0.0 0 0 43.5143 56.3500" />
<path d="M134.5143 22.6000 A2.5000 2.5000 0.0 0 0 132.0143 20.1000" />
<path d="M77.0143 52.1000 A2.5000 2.5000 0.0 0 0 74.5143 54.6000" />
<path d="M92.5143 54.6000 A2.5000 2.5000 0.0 0 0 95.0143 57.1000" />
<path d="M94.5143 32.6000 A2.5000 2.5000 0.0 0 0 97.0143 35.1000" />
<path d="M90.0143 52.1000
L77.0143 52.1000
" />
<path d="M134.5143 52.6000 A2.5000 2.5000 0.0 0 0 132.0143 50.1000" />
<path d="M132.0143 42.1000
L120.2643 42.1000
" />
<path d="M30.0143 85.1000 A2.5000 2.5000 0.0 0 0 32.5143 82.6000" />
<path d="M134.5143 22.6000
L134.5143 39.6000
" />
<path d="M132.0143 72.1000
L115.0143 72.1000
" />
<path d="M41.0143 80.1000 A2.5000 2.5000 0.0 0 0 43.5143 77.6000" />
<path d="M37.0143 102.1000 A2.5000 2.5000 0.0 0 0 34.5143 104.6000" />
<path d="M112.5143 69.6000 A2.5000 2.5000 0.0 0 0 115.0143 72.1000" />
<path d="M57.0143 82.1000 A2.5000 2.5000 0.0 0 0 54.5143 84.6000" />
<path d="M74.5143 54.6000
L74.5143 79.6000
" />
<path d="M46.0143 53.8500
L50.0143 53.8500
" />
<path d="M52.0143 102.1000 A2.5000 2.5000 0.0 0 0 54.5143 99.6000" />
<path d="M43.5143 77.6000
L43.5143 56.3500
" />
<path d="M15.0143 85.1000 A2.5000 2.5000 0.0 0 0 12.5143 87.6000" />
<path d="M112.5143 59.6000 A2.5000 2.5000 0.0 0 0 110.0143 57.1000" />
<path d="M94.5143 12.6000
L94.5143 32.6000
" />
<path d="M110.0143 35.1000 A2.5000 2.5000 0.0 0 0 112.5143 32.6000" />
<path d="M110.0143 57.1000
L95.0143 57.1000
" />
<path d="M120.2643 50.1000
L132.0143 50.1000
" />
<path d="M92.5143 54.6000 A2.5000 2.5000 0.0 0 0 90.0143 52.1000" />
</g> 
</svg>
