<?xml version="1.0" encoding="UTF-8" standalone="no"?>
<svg
   version="1.1"
   width="142.0876mm"
   height="117.0940mm"
   viewBox="0.0000 0.0000 142.0876 117.0940"
   id="svg23"
   sodipodi:docname="lpk20_mx_keypad_L_Mk1_rev0-User_2_fill.svg"
   inkscape:version="1.3.2 (091e20e, 2023-11-25, custom)"
   xmlns:inkscape="http://www.inkscape.org/namespaces/inkscape"
   xmlns:sodipodi="http://sodipodi.sourceforge.net/DTD/sodipodi-0.dtd"
   xmlns="http://www.w3.org/2000/svg"
   xmlns:svg="http://www.w3.org/2000/svg"
   xmlns:rdf="http://www.w3.org/1999/02/22-rdf-syntax-ns#"
   xmlns:cc="http://creativecommons.org/ns#"
   xmlns:dc="http://purl.org/dc/elements/1.1/">
  <defs
     id="defs23" />
  <sodipodi:namedview
     id="namedview23"
     pagecolor="#505050"
     bordercolor="#eeeeee"
     borderopacity="1"
     inkscape:showpageshadow="0"
     inkscape:pageopacity="0"
     inkscape:pagecheckerboard="0"
     inkscape:deskcolor="#505050"
     inkscape:document-units="mm"
     inkscape:zoom="2.4832791"
     inkscape:cx="268.59647"
     inkscape:cy="221.07866"
     inkscape:window-width="3440"
     inkscape:window-height="1334"
     inkscape:window-x="-11"
     inkscape:window-y="-11"
     inkscape:window-maximized="1"
     inkscape:current-layer="svg23" />
  <title
     id="title1">SVG Image created as lpk20_mx_keypad_L_Mk1_rev0-User_2.svg date 2024/11/22 12:05:51 </title>
  <desc
     id="desc1">Image generated by PCBNEW </desc>
  <g
     style="fill:#000000; fill-opacity:1.0000;stroke:#000000; stroke-opacity:1.0000; stroke-linecap:round; stroke-linejoin:round;"
     transform="translate(0 0) scale(1 1)"
     id="g1" />
  <g
     style="fill:none;  stroke:#000000; stroke-width:0.1000; stroke-opacity:1;  stroke-linecap:round; stroke-linejoin:round;"
     id="g23">
    <path
       d="M142.0500 2.5500 A2.5000 2.5000 0.0 0 0 139.5500 0.0500"
       id="path1" />
    <path
       d="M139.5500 117.0500 A2.5000 2.5000 0.0 0 0 142.0500 114.5500"
       id="path2" />
    <path
       d="M2.5500 0.0500 A2.5000 2.5000 0.0 0 0 0.0500 2.5500"
       id="path3" />
    <path
       d="M2.5500 0.0500 L139.5500 0.0500 "
       id="path4" />
    <path
       d="M0.0500 2.5500 L0.0500 79.5500 "
       id="path5" />
    <path
       d="M100.0500 114.5500 A2.5000 2.5000 0.0 0 0 102.5500 117.0500"
       id="path6" />
    <path
       d="M100.0500 114.5500 A2.5000 2.5000 0.0 0 0 97.5500 112.0500"
       id="path7" />
    <path
       d="M80.0500 109.5500 A2.5000 2.5000 0.0 0 0 82.5500 112.0500"
       id="path8" />
    <path
       d="M80.0500 94.5500 A2.5000 2.5000 0.0 0 0 77.5500 92.0500"
       id="path9" />
    <path
       d="M0.0500 79.5500 A2.5000 2.5000 0.0 0 0 2.5500 82.0500"
       id="path10" />
    <path
       d="M44.5500 67.0500 A2.5000 2.5000 0.0 0 0 42.0500 69.5500"
       id="path11" />
    <path
       d="M39.5500 82.0500 A2.5000 2.5000 0.0 0 0 42.0500 79.5500"
       id="path12" />
    <path
       d="M60.0500 89.5500 A2.5000 2.5000 0.0 0 0 62.5500 92.0500"
       id="path13" />
    <path
       d="M60.0500 69.5500 A2.5000 2.5000 0.0 0 0 57.5500 67.0500"
       id="path14" />
    <path
       d="M102.5500 117.0500 L139.5500 117.0500 "
       id="path15" />
    <path
       d="M82.5500 112.0500 L97.5500 112.0500 "
       id="path16" />
    <path
       d="M80.0500 94.5500 L80.0500 109.5500 "
       id="path17" />
    <path
       d="M62.5500 92.0500 L77.5500 92.0500 "
       id="path18" />
    <path
       d="M60.0500 69.5500 L60.0500 89.5500 "
       id="path19" />
    <path
       d="M44.5500 67.0500 L57.5500 67.0500 "
       id="path20" />
    <path
       d="M42.0500 79.5500 L42.0500 69.5500 "
       id="path21" />
    <path
       d="M2.5500 82.0500 L39.5500 82.0500 "
       id="path22" />
    <path
       d="M142.0500 2.5500 L142.0500 114.5500 "
       id="path23" />
  </g>
  <path
     style="fill:#020302;stroke-width:0;stroke-miterlimit:2.8"
     d="m 383.53946,440.84856 c -3.08064,-1.56217 -4.29173,-3.46151 -5.00102,-7.8431 -0.31001,-1.91509 -0.84077,-4.01787 -1.17947,-4.67281 -0.85604,-1.65539 -2.71543,-3.43308 -4.53722,-4.33785 -1.45934,-0.72477 -3.1333,-0.77442 -32.54586,-0.96542 l -31.00739,-0.20135 -1.90209,-1.11812 c -1.23343,-0.72505 -2.29514,-1.78675 -3.0202,-3.0202 l -1.11811,-1.90208 -0.20134,-31.00739 -0.20135,-31.00739 -0.94019,-1.7623 c -1.03993,-1.94926 -2.46015,-3.41065 -4.29482,-4.41931 -1.08358,-0.59573 -4.40356,-0.68492 -32.21547,-0.86552 l -31.00739,-0.20135 -2.09742,-1.1623 c -2.23204,-1.23691 -3.91298,-3.27136 -4.55631,-5.51453 -0.24396,-0.85062 -0.39341,-16.22263 -0.39341,-40.46457 0,-34.46263 -0.0749,-39.31256 -0.63204,-40.94779 -0.78338,-2.2991 -3.85502,-5.29165 -6.05988,-5.90385 -2.26957,-0.63016 -53.26895,-0.60365 -55.37986,0.0288 -2.01985,0.60516 -4.56685,2.8017 -5.69526,4.91161 -0.88171,1.64861 -0.89453,1.92342 -1.09352,23.43211 -0.18896,20.42464 -0.24799,21.83714 -0.95936,22.95352 -1.22829,1.92763 -2.36093,3.02487 -4.07431,3.94696 l -1.61077,0.86687 -70.874034,0.12377 c -50.939676,0.089 -71.4602999,-0.002 -72.958432,-0.32425 -2.9129883,-0.6261 -5.2096815,-2.40587 -6.3978724,-4.95786 L 0.61190779,302.42272 0.61021974,155.43964 C 0.60899942,49.185431 0.73209581,8.0102169 1.0544523,6.8457872 1.6461168,4.7085514 4.7085514,1.6461168 6.8457872,1.0544523 9.1897984,0.40554471 528.01097,0.41469942 530.1771,1.0636865 c 2.04194,0.6117808 4.21797,2.4587845 5.31608,4.5122986 l 0.89438,1.6724954 V 221.28 435.31153 l -0.89438,1.6725 c -1.09811,2.0535 -3.27414,3.90049 -5.31608,4.5123 -1.12448,0.3369 -20.61572,0.45964 -72.99397,0.45964 h -71.45982 z"
     id="path24"
     transform="scale(0.26458333)" />
  <metadata
     id="metadata24">
    <rdf:RDF>
      <cc:Work
         rdf:about="">
        <dc:title>SVG Image created as lpk20_mx_keypad_L_Mk1_rev0-User_2.svg date 2024/11/22 12:05:51 </dc:title>
      </cc:Work>
    </rdf:RDF>
  </metadata>
</svg>
