<?xml version="1.0" encoding="UTF-8" standalone="no"?>
<svg
   version="1.1"
   width="147.0152mm"
   height="117.1956mm"
   viewBox="0.0000 0.0000 147.0152 117.1956"
   id="svg2384"
   sodipodi:docname="lpk20_mx_keypad_R_Mk1_rev0-User_3_fill_backplate_hole.svg"
   inkscape:version="1.2.2 (b0a8486541, 2022-12-01)"
   xmlns:inkscape="http://www.inkscape.org/namespaces/inkscape"
   xmlns:sodipodi="http://sodipodi.sourceforge.net/DTD/sodipodi-0.dtd"
   xmlns="http://www.w3.org/2000/svg"
   xmlns:svg="http://www.w3.org/2000/svg"
   xmlns:rdf="http://www.w3.org/1999/02/22-rdf-syntax-ns#"
   xmlns:cc="http://creativecommons.org/ns#"
   xmlns:dc="http://purl.org/dc/elements/1.1/">
  <defs
     id="defs2388" />
  <sodipodi:namedview
     id="namedview2386"
     pagecolor="#505050"
     bordercolor="#eeeeee"
     borderopacity="1"
     inkscape:showpageshadow="0"
     inkscape:pageopacity="0"
     inkscape:pagecheckerboard="0"
     inkscape:deskcolor="#505050"
     inkscape:document-units="mm"
     showgrid="false"
     inkscape:zoom="1.6394819"
     inkscape:cx="330.28728"
     inkscape:cy="248.55414"
     inkscape:window-width="1689"
     inkscape:window-height="1350"
     inkscape:window-x="1727"
     inkscape:window-y="20"
     inkscape:window-maximized="1"
     inkscape:current-layer="svg2384" />
  <title
     id="title2178">SVG Image created as lpk20_mx_keypad_R_Mk1_rev0-User_3.svg date 2024/12/22 09:42:39 </title>
  <desc
     id="desc2180">Image generated by PCBNEW </desc>
  <g
     style="fill:#000000; fill-opacity:1.0000;stroke:#000000; stroke-opacity:1.0000; stroke-linecap:round; stroke-linejoin:round;"
     transform="translate(0 0) scale(1 1)"
     id="g2182" />
  <path
     style="color:#000000;fill:#000000;stroke-linecap:round;stroke-linejoin:round;-inkscape-stroke:none"
     d="m 52.513672,77.550781 a 0.05,0.05 0 0 0 -0.04883,0.04883 c 0,1.353689 -1.097484,2.451172 -2.451172,2.451172 a 0.05,0.05 0 0 0 -0.04883,0.04883 0.05,0.05 0 0 0 0.04883,0.05078 c 1.407732,0 2.550781,-1.143049 2.550781,-2.550782 a 0.05,0.05 0 0 0 -0.05078,-0.04883 z"
     id="path2184" />
  <path
     style="color:#000000;fill:#000000;stroke-linecap:round;stroke-linejoin:round;-inkscape-stroke:none"
     d="m 38.365234,80.050781 a 0.05,0.05 0 0 0 -0.05078,0.04883 0.05,0.05 0 0 0 0.05078,0.05078 h 11.648438 a 0.05,0.05 0 0 0 0.05078,-0.05078 0.05,0.05 0 0 0 -0.05078,-0.04883 z"
     id="path2186" />
  <path
     style="color:#000000;fill:#000000;stroke-linecap:round;stroke-linejoin:round;-inkscape-stroke:none"
     d="m 52.513672,51.300781 a 0.05,0.05 0 0 0 -0.04883,0.04883 v 26.25 a 0.05,0.05 0 0 0 0.04883,0.05078 0.05,0.05 0 0 0 0.05078,-0.05078 v -26.25 a 0.05,0.05 0 0 0 -0.05078,-0.04883 z"
     id="path2188" />
  <path
     style="color:#000000;fill:#000000;stroke-linecap:round;stroke-linejoin:round;-inkscape-stroke:none"
     d="m 102.51367,79.550781 a 0.05,0.05 0 0 0 -0.0488,0.04883 c 0,1.407733 1.1411,2.550782 2.54883,2.550782 a 0.05,0.05 0 0 0 0.0508,-0.05078 0.05,0.05 0 0 0 -0.0508,-0.04883 c -1.35369,0 -2.44922,-1.097483 -2.44922,-2.451172 a 0.05,0.05 0 0 0 -0.0508,-0.04883 z"
     id="path2190" />
  <path
     style="color:#000000;fill:#000000;stroke-linecap:round;stroke-linejoin:round;-inkscape-stroke:none"
     d="m 87.013672,67.050781 a 0.05,0.05 0 0 0 -0.04883,0.04883 0.05,0.05 0 0 0 0.04883,0.05078 h 12.999998 a 0.05,0.05 0 0 0 0.0508,-0.05078 0.05,0.05 0 0 0 -0.0508,-0.04883 z"
     id="path2192" />
  <path
     style="color:#000000;fill:#000000;stroke-linecap:round;stroke-linejoin:round;-inkscape-stroke:none"
     d="m 142.01367,10.050781 a 0.05,0.05 0 0 0 -0.0488,0.04883 0.05,0.05 0 0 0 0.0488,0.05078 c 1.35369,0 2.45117,1.09553 2.45117,2.449218 a 0.05,0.05 0 0 0 0.0488,0.05078 0.05,0.05 0 0 0 0.0508,-0.05078 c 0,-1.407732 -1.14305,-2.548828 -2.55078,-2.548828 z"
     id="path2194" />
  <path
     style="color:#000000;fill:#000000;stroke-linecap:round;stroke-linejoin:round;-inkscape-stroke:none"
     d="m 44.513672,114.55078 a 0.05,0.05 0 0 0 -0.04883,0.0488 c 0,1.35369 -1.097484,2.45117 -2.451172,2.45117 a 0.05,0.05 0 0 0 -0.04883,0.0488 0.05,0.05 0 0 0 0.04883,0.0508 c 1.407732,0 2.550781,-1.14305 2.550781,-2.55078 a 0.05,0.05 0 0 0 -0.05078,-0.0488 z"
     id="path2196" />
  <path
     style="color:#000000;fill:#000000;stroke-linecap:round;stroke-linejoin:round;-inkscape-stroke:none"
     d="m 64.513672,94.550781 a 0.05,0.05 0 0 0 -0.04883,0.04883 v 15.000001 a 0.05,0.05 0 0 0 0.04883,0.0508 0.05,0.05 0 0 0 0.05078,-0.0508 V 94.599609 a 0.05,0.05 0 0 0 -0.05078,-0.04883 z"
     id="path2198" />
  <path
     style="color:#000000;fill:#000000;stroke-linecap:round;stroke-linejoin:round;-inkscape-stroke:none"
     d="m 5.0136719,117.05078 a 0.05,0.05 0 0 0 -0.048828,0.0488 0.05,0.05 0 0 0 0.048828,0.0508 H 42.013672 a 0.05,0.05 0 0 0 0.05078,-0.0508 0.05,0.05 0 0 0 -0.05078,-0.0488 z"
     id="path2200" />
  <path
     style="color:#000000;fill:#000000;stroke-linecap:round;stroke-linejoin:round;-inkscape-stroke:none"
     d="m 84.513672,69.550781 a 0.05,0.05 0 0 0 -0.04883,0.04883 v 20 a 0.05,0.05 0 0 0 0.04883,0.05078 0.05,0.05 0 0 0 0.05078,-0.05078 v -20 a 0.05,0.05 0 0 0 -0.05078,-0.04883 z"
     id="path2202" />
  <path
     style="color:#000000;fill:#000000;stroke-linecap:round;stroke-linejoin:round;-inkscape-stroke:none"
     d="m 42.513672,12.550781 a 0.05,0.05 0 0 0 -0.04883,0.04883 v 55 a 0.05,0.05 0 0 0 0.04883,0.05078 0.05,0.05 0 0 0 0.05078,-0.05078 v -55 a 0.05,0.05 0 0 0 -0.05078,-0.04883 z"
     id="path2204" />
  <path
     style="color:#000000;fill:#000000;stroke-linecap:round;stroke-linejoin:round;-inkscape-stroke:none"
     d="m 116.01367,7.5507812 a 0.05,0.05 0 0 0 -0.0488,0.048828 c 0,1.4077324 1.1411,2.5507816 2.54883,2.5507816 a 0.05,0.05 0 0 0 0.0508,-0.05078 0.05,0.05 0 0 0 -0.0508,-0.04883 c -1.35369,0 -2.44922,-1.0974831 -2.44922,-2.4511716 a 0.05,0.05 0 0 0 -0.0508,-0.048828 z"
     id="path2206" />
  <path
     style="color:#000000;fill:#000000;stroke-linecap:round;stroke-linejoin:round;-inkscape-stroke:none"
     d="m 105.01367,82.050781 a 0.05,0.05 0 0 0 -0.0488,0.04883 0.05,0.05 0 0 0 0.0488,0.05078 h 37 a 0.05,0.05 0 0 0 0.0508,-0.05078 0.05,0.05 0 0 0 -0.0508,-0.04883 z"
     id="path2208" />
  <path
     style="color:#000000;fill:#000000;stroke-linecap:round;stroke-linejoin:round;-inkscape-stroke:none"
     d="m 25.013672,70.050781 c -1.407733,0 -2.548828,1.141096 -2.548828,2.548828 a 0.05,0.05 0 0 0 0.04883,0.05078 0.05,0.05 0 0 0 0.05078,-0.05078 c 0,-1.353688 1.09553,-2.449218 2.449219,-2.449218 a 0.05,0.05 0 0 0 0.05078,-0.05078 0.05,0.05 0 0 0 -0.05078,-0.04883 z"
     id="path2210" />
  <path
     style="color:#000000;fill:#000000;stroke-linecap:round;stroke-linejoin:round;-inkscape-stroke:none"
     d="m 47.013672,112.05078 a 0.05,0.05 0 0 0 -0.04883,0.0488 0.05,0.05 0 0 0 0.04883,0.0508 h 15 a 0.05,0.05 0 0 0 0.05078,-0.0508 0.05,0.05 0 0 0 -0.05078,-0.0488 z"
     id="path2212" />
  <path
     style="color:#000000;fill:#000000;stroke-linecap:round;stroke-linejoin:round;-inkscape-stroke:none"
     d="m 67.013672,92.050781 c -1.407733,0 -2.548828,1.141096 -2.548828,2.548828 a 0.05,0.05 0 0 0 0.04883,0.05078 0.05,0.05 0 0 0 0.05078,-0.05078 c 0,-1.353688 1.09553,-2.449218 2.449219,-2.449218 a 0.05,0.05 0 0 0 0.05078,-0.05078 0.05,0.05 0 0 0 -0.05078,-0.04883 z"
     id="path2214" />
  <path
     style="color:#000000;fill:#000000;stroke-linecap:round;stroke-linejoin:round;-inkscape-stroke:none"
     d="m 116.01367,2.5507813 a 0.05,0.05 0 0 0 -0.0488,0.048828 v 5 a 0.05,0.05 0 0 0 0.0488,0.050781 0.05,0.05 0 0 0 0.0508,-0.050781 v -5 a 0.05,0.05 0 0 0 -0.0508,-0.048828 z"
     id="path2216" />
  <path
     style="color:#000000;fill:#000000;stroke-linecap:round;stroke-linejoin:round;-inkscape-stroke:none"
     d="m 2.5136719,77.550781 a 0.05,0.05 0 0 0 -0.048828,0.04883 v 37.000001 a 0.05,0.05 0 0 0 0.048828,0.0508 0.05,0.05 0 0 0 0.050781,-0.0508 V 77.599609 a 0.05,0.05 0 0 0 -0.050781,-0.04883 z"
     id="path2218" />
  <path
     style="color:#000000;fill:#000000;stroke-linecap:round;stroke-linejoin:round;-inkscape-stroke:none"
     d="m 45.013672,10.050781 a 0.05,0.05 0 0 0 -0.04883,0.04883 0.05,0.05 0 0 0 0.04883,0.05078 h 15 a 0.05,0.05 0 0 0 0.05078,-0.05078 0.05,0.05 0 0 0 -0.05078,-0.04883 z"
     id="path2220" />
  <path
     style="color:#000000;fill:#000000;stroke-linecap:round;stroke-linejoin:round;-inkscape-stroke:none"
     d="m 22.513672,72.550781 a 0.05,0.05 0 0 0 -0.04883,0.04883 c 0,1.353689 -1.097484,2.451172 -2.451172,2.451172 a 0.05,0.05 0 0 0 -0.04883,0.04883 0.05,0.05 0 0 0 0.04883,0.05078 c 1.407732,0 2.550781,-1.143049 2.550781,-2.550782 a 0.05,0.05 0 0 0 -0.05078,-0.04883 z"
     id="path2222" />
  <path
     style="color:#000000;fill:#000000;stroke-linecap:round;stroke-linejoin:round;-inkscape-stroke:none"
     d="m 102.51367,69.550781 a 0.05,0.05 0 0 0 -0.0488,0.04883 v 10 a 0.05,0.05 0 0 0 0.0488,0.05078 0.05,0.05 0 0 0 0.0508,-0.05078 v -10 a 0.05,0.05 0 0 0 -0.0508,-0.04883 z"
     id="path2224" />
  <path
     style="color:#000000;fill:#000000;stroke-linecap:round;stroke-linejoin:round;-inkscape-stroke:none"
     d="m 45.013672,10.050781 c -1.407733,0 -2.548828,1.141096 -2.548828,2.548828 a 0.05,0.05 0 0 0 0.04883,0.05078 0.05,0.05 0 0 0 0.05078,-0.05078 c 0,-1.353688 1.09553,-2.449218 2.449219,-2.449218 a 0.05,0.05 0 0 0 0.05078,-0.05078 0.05,0.05 0 0 0 -0.05078,-0.04883 z"
     id="path2226" />
  <path
     style="color:#000000;fill:#000000;stroke-linecap:round;stroke-linejoin:round;-inkscape-stroke:none"
     d="m 5.0136719,75.050781 c -1.4077325,0 -2.5488281,1.141096 -2.5488281,2.548828 a 0.05,0.05 0 0 0 0.048828,0.05078 0.05,0.05 0 0 0 0.050781,-0.05078 c 0,-1.353688 1.0955303,-2.449218 2.4492188,-2.449218 a 0.05,0.05 0 0 0 0.050781,-0.05078 0.05,0.05 0 0 0 -0.050781,-0.04883 z"
     id="path2228" />
  <path
     style="color:#000000;fill:#000000;stroke-linecap:round;stroke-linejoin:round;-inkscape-stroke:none"
     d="m 144.51367,12.550781 a 0.05,0.05 0 0 0 -0.0488,0.04883 v 67 a 0.05,0.05 0 0 0 0.0488,0.05078 0.05,0.05 0 0 0 0.0508,-0.05078 v -67 a 0.05,0.05 0 0 0 -0.0508,-0.04883 z"
     id="path2230" />
  <path
     style="color:#000000;fill:#000000;stroke-linecap:round;stroke-linejoin:round;-inkscape-stroke:none"
     d="m 87.013672,67.050781 c -1.407733,0 -2.548828,1.141096 -2.548828,2.548828 a 0.05,0.05 0 0 0 0.04883,0.05078 0.05,0.05 0 0 0 0.05078,-0.05078 c 0,-1.353688 1.09553,-2.449218 2.449219,-2.449218 a 0.05,0.05 0 0 0 0.05078,-0.05078 0.05,0.05 0 0 0 -0.05078,-0.04883 z"
     id="path2232" />
  <path
     style="color:#000000;fill:#000000;stroke-linecap:round;stroke-linejoin:round;-inkscape-stroke:none"
     d="m 2.5136719,114.55078 a 0.05,0.05 0 0 0 -0.048828,0.0488 c 0,1.40773 1.1410956,2.55078 2.5488281,2.55078 a 0.05,0.05 0 0 0 0.050781,-0.0508 0.05,0.05 0 0 0 -0.050781,-0.0488 c -1.3536885,0 -2.4492188,-1.09748 -2.4492188,-2.45117 a 0.05,0.05 0 0 0 -0.050781,-0.0488 z"
     id="path2234" />
  <path
     style="color:#000000;fill:#000000;stroke-linecap:round;stroke-linejoin:round;-inkscape-stroke:none"
     d="m 65.013672,0.05078125 a 0.05,0.05 0 0 0 -0.04883,0.04882812 0.05,0.05 0 0 0 0.04883,0.05078125 h 48.499998 a 0.05,0.05 0 0 0 0.0508,-0.05078125 0.05,0.05 0 0 0 -0.0508,-0.04882812 z"
     id="path2236" />
  <path
     style="color:#000000;fill:#000000;stroke-linecap:round;stroke-linejoin:round;-inkscape-stroke:none"
     d="m 113.51367,0.05078125 a 0.05,0.05 0 0 0 -0.0488,0.04882812 0.05,0.05 0 0 0 0.0488,0.05078125 c 1.35369,10e-9 2.45117,1.09553028 2.45117,2.44921878 a 0.05,0.05 0 0 0 0.0488,0.050781 0.05,0.05 0 0 0 0.0508,-0.050781 c 0,-1.4077325 -1.14305,-2.54882815 -2.55078,-2.54882815 z"
     id="path2238" />
  <path
     style="color:#000000;fill:#000000;stroke-linecap:round;stroke-linejoin:round;-inkscape-stroke:none"
     d="m 67.013672,92.050781 a 0.05,0.05 0 0 0 -0.04883,0.04883 0.05,0.05 0 0 0 0.04883,0.05078 h 15 a 0.05,0.05 0 0 0 0.05078,-0.05078 0.05,0.05 0 0 0 -0.05078,-0.04883 z"
     id="path2240" />
  <path
     style="color:#000000;fill:#000000;stroke-linecap:round;stroke-linejoin:round;-inkscape-stroke:none"
     d="m 5.0136719,75.050781 a 0.05,0.05 0 0 0 -0.048828,0.04883 0.05,0.05 0 0 0 0.048828,0.05078 H 20.013672 a 0.05,0.05 0 0 0 0.05078,-0.05078 0.05,0.05 0 0 0 -0.05078,-0.04883 z"
     id="path2242" />
  <path
     style="color:#000000;fill:#000000;stroke-linecap:round;stroke-linejoin:round;-inkscape-stroke:none"
     d="m 118.51367,10.050781 a 0.05,0.05 0 0 0 -0.0488,0.04883 0.05,0.05 0 0 0 0.0488,0.05078 h 23.5 a 0.05,0.05 0 0 0 0.0508,-0.05078 0.05,0.05 0 0 0 -0.0508,-0.04883 z"
     id="path2244" />
  <path
     style="color:#000000;fill:#000000;stroke-linecap:round;stroke-linejoin:round;-inkscape-stroke:none"
     d="m 47.013672,112.05078 c -1.407733,0 -2.548828,1.1411 -2.548828,2.54883 a 0.05,0.05 0 0 0 0.04883,0.0508 0.05,0.05 0 0 0 0.05078,-0.0508 c 0,-1.35369 1.09553,-2.44922 2.449219,-2.44922 a 0.05,0.05 0 0 0 0.05078,-0.0508 0.05,0.05 0 0 0 -0.05078,-0.0488 z"
     id="path2246" />
  <path
     style="color:#000000;fill:#000000;stroke-linecap:round;stroke-linejoin:round;-inkscape-stroke:none"
     d="m 100.01367,67.050781 a 0.05,0.05 0 0 0 -0.04883,0.04883 0.05,0.05 0 0 0 0.04883,0.05078 c 1.35369,0 2.45117,1.09553 2.45117,2.449218 a 0.05,0.05 0 0 0 0.0488,0.05078 0.05,0.05 0 0 0 0.0508,-0.05078 c 0,-1.407732 -1.14305,-2.548828 -2.55078,-2.548828 z"
     id="path2248" />
  <path
     style="color:#000000;fill:#000000;stroke-linecap:round;stroke-linejoin:round;-inkscape-stroke:none"
     d="m 25.013672,70.050781 a 0.05,0.05 0 0 0 -0.04883,0.04883 0.05,0.05 0 0 0 0.04883,0.05078 h 15 a 0.05,0.05 0 0 0 0.05078,-0.05078 0.05,0.05 0 0 0 -0.05078,-0.04883 z"
     id="path2250" />
  <path
     style="color:#000000;fill:#000000;stroke-linecap:round;stroke-linejoin:round;-inkscape-stroke:none"
     d="m 84.513672,89.550781 a 0.05,0.05 0 0 0 -0.04883,0.04883 c 0,1.353689 -1.097484,2.451172 -2.451172,2.451172 a 0.05,0.05 0 0 0 -0.04883,0.04883 0.05,0.05 0 0 0 0.04883,0.05078 c 1.407732,0 2.550781,-1.143049 2.550781,-2.550782 a 0.05,0.05 0 0 0 -0.05078,-0.04883 z"
     id="path2252" />
  <path
     style="color:#000000;fill:#000000;stroke-linecap:round;stroke-linejoin:round;-inkscape-stroke:none"
     d="m 144.51367,79.550781 a 0.05,0.05 0 0 0 -0.0488,0.04883 c 0,1.353689 -1.09748,2.451172 -2.45117,2.451172 a 0.05,0.05 0 0 0 -0.0488,0.04883 0.05,0.05 0 0 0 0.0488,0.05078 c 1.40773,0 2.55078,-1.143049 2.55078,-2.550782 a 0.05,0.05 0 0 0 -0.0508,-0.04883 z"
     id="path2254" />
  <path
     style="color:#000000;fill:#000000;stroke-linecap:round;stroke-linejoin:round;-inkscape-stroke:none"
     d="m 42.513672,67.550781 a 0.05,0.05 0 0 0 -0.04883,0.04883 c 0,1.353689 -1.097484,2.451172 -2.451172,2.451172 a 0.05,0.05 0 0 0 -0.04883,0.04883 0.05,0.05 0 0 0 0.04883,0.05078 c 1.407732,0 2.550781,-1.143049 2.550781,-2.550782 a 0.05,0.05 0 0 0 -0.05078,-0.04883 z"
     id="path2256" />
  <path
     style="color:#000000;fill:#000000;stroke-linecap:round;stroke-linejoin:round;-inkscape-stroke:none"
     d="m 62.513672,2.5507813 a 0.05,0.05 0 0 0 -0.04883,0.048828 v 5 a 0.05,0.05 0 0 0 0.04883,0.050781 0.05,0.05 0 0 0 0.05078,-0.050781 v -5 a 0.05,0.05 0 0 0 -0.05078,-0.048828 z"
     id="path2258" />
  <path
     style="color:#000000;fill:#000000;stroke-linecap:round;stroke-linejoin:round;-inkscape-stroke:none"
     d="m 65.013672,0.05078125 c -1.407733,0 -2.548828,1.14109565 -2.548828,2.54882815 a 0.05,0.05 0 0 0 0.04883,0.050781 0.05,0.05 0 0 0 0.05078,-0.050781 c 0,-1.3536885 1.09553,-2.44921878 2.449219,-2.44921878 a 0.05,0.05 0 0 0 0.05078,-0.05078125 0.05,0.05 0 0 0 -0.05078,-0.04882812 z"
     id="path2260" />
  <path
     style="color:#000000;fill:#000000;stroke-linecap:round;stroke-linejoin:round;-inkscape-stroke:none"
     d="m 64.513672,109.55078 a 0.05,0.05 0 0 0 -0.04883,0.0488 c 0,1.35369 -1.097484,2.45117 -2.451172,2.45117 a 0.05,0.05 0 0 0 -0.04883,0.0488 0.05,0.05 0 0 0 0.04883,0.0508 c 1.407732,0 2.550781,-1.14305 2.550781,-2.55078 a 0.05,0.05 0 0 0 -0.05078,-0.0488 z"
     id="path2262" />
  <path
     style="color:#000000;fill:#000000;stroke-linecap:round;stroke-linejoin:round;-inkscape-stroke:none"
     d="m 62.513672,7.5507812 a 0.05,0.05 0 0 0 -0.04883,0.048828 c 0,1.3536885 -1.097484,2.4511716 -2.451172,2.4511716 a 0.05,0.05 0 0 0 -0.04883,0.04883 0.05,0.05 0 0 0 0.04883,0.05078 c 1.407732,0 2.550781,-1.1430492 2.550781,-2.5507816 a 0.05,0.05 0 0 0 -0.05078,-0.048828 z"
     id="path2264" />
  <path
     style="color:#000000;fill:#000000;stroke-linecap:round;stroke-linejoin:round;-inkscape-stroke:none"
     d="m 74.513672,79.574219 a 0.025,0.025 0 0 0 -0.02344,0.02539 c 0,1.3672 -1.109363,2.47461 -2.476562,2.47461 a 0.025,0.025 0 0 0 -0.02344,0.02539 0.025,0.025 0 0 0 0.02344,0.02539 c 1.394221,0 2.52539,-1.131169 2.52539,-2.525391 a 0.025,0.025 0 0 0 -0.02539,-0.02539 z"
     id="path2268" />
  <path
     style="color:#000000;fill:#000000;stroke-linecap:round;stroke-linejoin:round;-inkscape-stroke:none"
     d="m 54.513672,84.574219 a 0.025,0.025 0 0 0 -0.02344,0.02539 v 15 a 0.025,0.025 0 0 0 0.02344,0.02539 0.025,0.025 0 0 0 0.02539,-0.02539 v -15 a 0.025,0.025 0 0 0 -0.02539,-0.02539 z"
     id="path2270" />
  <path
     style="color:#000000;fill:#000000;stroke-linecap:round;stroke-linejoin:round;-inkscape-stroke:none"
     d="m 134.51367,39.574219 a 0.025,0.025 0 0 0 -0.0234,0.02539 c 0,1.3672 -1.10936,2.47461 -2.47656,2.47461 a 0.025,0.025 0 0 0 -0.0234,0.02539 0.025,0.025 0 0 0 0.0234,0.02539 c 1.39422,0 2.52539,-1.131169 2.52539,-2.525391 a 0.025,0.025 0 0 0 -0.0254,-0.02539 z"
     id="path2272" />
  <path
     style="color:#000000;fill:#000000;stroke-linecap:round;stroke-linejoin:round;-inkscape-stroke:none"
     d="m 52.513672,22.574219 a 0.025,0.025 0 0 0 -0.02344,0.02539 v 28.75 a 0.025,0.025 0 0 0 0.02344,0.02539 0.025,0.025 0 0 0 0.02539,-0.02539 v -28.75 a 0.025,0.025 0 0 0 -0.02539,-0.02539 z"
     id="path2274" />
  <path
     style="color:#000000;fill:#000000;stroke-linecap:round;stroke-linejoin:round;-inkscape-stroke:none"
     d="m 75.013672,10.074219 c -1.394222,0 -2.523438,1.131169 -2.523438,2.52539 a 0.025,0.025 0 0 0 0.02344,0.02539 0.025,0.025 0 0 0 0.02539,-0.02539 c 0,-1.367199 1.10741,-2.474609 2.47461,-2.474609 a 0.025,0.025 0 0 0 0.02539,-0.02539 0.025,0.025 0 0 0 -0.02539,-0.02539 z"
     id="path2276" />
  <path
     style="color:#000000;fill:#000000;stroke-linecap:round;stroke-linejoin:round;-inkscape-stroke:none"
     d="m 97.013672,35.074219 a 0.025,0.025 0 0 0 -0.02344,0.02539 0.025,0.025 0 0 0 0.02344,0.02539 h 12.999998 a 0.025,0.025 0 0 0 0.0254,-0.02539 0.025,0.025 0 0 0 -0.0254,-0.02539 z"
     id="path2278" />
  <path
     style="color:#000000;fill:#000000;stroke-linecap:round;stroke-linejoin:round;-inkscape-stroke:none"
     d="m 72.513672,12.574219 a 0.025,0.025 0 0 0 -0.02344,0.02539 v 5 a 0.025,0.025 0 0 0 0.02344,0.02539 0.025,0.025 0 0 0 0.02539,-0.02539 v -5 a 0.025,0.025 0 0 0 -0.02539,-0.02539 z"
     id="path2280" />
  <path
     style="color:#000000;fill:#000000;stroke-linecap:round;stroke-linejoin:round;-inkscape-stroke:none"
     d="m 115.01367,20.074219 c -1.39422,0 -2.52344,1.131169 -2.52344,2.52539 a 0.025,0.025 0 0 0 0.0234,0.02539 0.025,0.025 0 0 0 0.0254,-0.02539 c 0,-1.367199 1.10741,-2.474609 2.47461,-2.474609 a 0.025,0.025 0 0 0 0.0254,-0.02539 0.025,0.025 0 0 0 -0.0254,-0.02539 z"
     id="path2282" />
  <path
     style="color:#000000;fill:#000000;stroke-linecap:round;stroke-linejoin:round;-inkscape-stroke:none"
     d="m 72.513672,17.574219 a 0.025,0.025 0 0 0 -0.02344,0.02539 c 0,1.3672 -1.109363,2.47461 -2.476562,2.47461 a 0.025,0.025 0 0 0 -0.02344,0.02539 0.025,0.025 0 0 0 0.02344,0.02539 c 1.394221,0 2.52539,-1.131169 2.52539,-2.525391 a 0.025,0.025 0 0 0 -0.02539,-0.02539 z"
     id="path2284" />
  <path
     style="color:#000000;fill:#000000;stroke-linecap:round;stroke-linejoin:round;-inkscape-stroke:none"
     d="m 134.51367,69.574219 a 0.025,0.025 0 0 0 -0.0234,0.02539 c 0,1.3672 -1.10936,2.47461 -2.47656,2.47461 a 0.025,0.025 0 0 0 -0.0234,0.02539 0.025,0.025 0 0 0 0.0234,0.02539 c 1.39422,0 2.52539,-1.131169 2.52539,-2.525391 a 0.025,0.025 0 0 0 -0.0254,-0.02539 z"
     id="path2286" />
  <path
     style="color:#000000;fill:#000000;stroke-linecap:round;stroke-linejoin:round;-inkscape-stroke:none"
     d="m 115.01367,20.074219 a 0.025,0.025 0 0 0 -0.0234,0.02539 0.025,0.025 0 0 0 0.0234,0.02539 h 17 a 0.025,0.025 0 0 0 0.0254,-0.02539 0.025,0.025 0 0 0 -0.0254,-0.02539 z"
     id="path2288" />
  <path
     style="color:#000000;fill:#000000;stroke-linecap:round;stroke-linejoin:round;-inkscape-stroke:none"
     d="m 55.013672,20.074219 c -1.394222,0 -2.523438,1.131169 -2.523438,2.52539 a 0.025,0.025 0 0 0 0.02344,0.02539 0.025,0.025 0 0 0 0.02539,-0.02539 c 0,-1.367199 1.10741,-2.474609 2.47461,-2.474609 a 0.025,0.025 0 0 0 0.02539,-0.02539 0.025,0.025 0 0 0 -0.02539,-0.02539 z"
     id="path2290" />
  <path
     style="color:#000000;fill:#000000;stroke-linecap:round;stroke-linejoin:round;-inkscape-stroke:none"
     d="m 117.76367,47.574219 a 0.025,0.025 0 0 0 -0.0234,0.02539 c 0,1.394222 1.12922,2.525391 2.52344,2.525391 a 0.025,0.025 0 0 0 0.0254,-0.02539 0.025,0.025 0 0 0 -0.0254,-0.02539 c -1.3672,0 -2.47461,-1.10741 -2.47461,-2.47461 a 0.025,0.025 0 0 0 -0.0254,-0.02539 z"
     id="path2292" />
  <path
     style="color:#000000;fill:#000000;stroke-linecap:round;stroke-linejoin:round;-inkscape-stroke:none"
     d="m 12.513672,87.574219 a 0.025,0.025 0 0 0 -0.02344,0.02539 v 17.000001 a 0.025,0.025 0 0 0 0.02344,0.0254 0.025,0.025 0 0 0 0.02539,-0.0254 V 87.599609 a 0.025,0.025 0 0 0 -0.02539,-0.02539 z"
     id="path2294" />
  <path
     style="color:#000000;fill:#000000;stroke-linecap:round;stroke-linejoin:round;-inkscape-stroke:none"
     d="m 15.013672,107.07422 a 0.025,0.025 0 0 0 -0.02344,0.0254 0.025,0.025 0 0 0 0.02344,0.0254 h 17 a 0.025,0.025 0 0 0 0.02539,-0.0254 0.025,0.025 0 0 0 -0.02539,-0.0254 z"
     id="path2296" />
  <path
     style="color:#000000;fill:#000000;stroke-linecap:round;stroke-linejoin:round;-inkscape-stroke:none"
     d="m 37.013672,102.07422 a 0.025,0.025 0 0 0 -0.02344,0.0254 0.025,0.025 0 0 0 0.02344,0.0254 h 15 a 0.025,0.025 0 0 0 0.02539,-0.0254 0.025,0.025 0 0 0 -0.02539,-0.0254 z"
     id="path2298" />
  <path
     style="color:#000000;fill:#000000;stroke-linecap:round;stroke-linejoin:round;-inkscape-stroke:none"
     d="m 112.51367,59.574219 a 0.025,0.025 0 0 0 -0.0234,0.02539 v 10 a 0.025,0.025 0 0 0 0.0234,0.02539 0.025,0.025 0 0 0 0.0254,-0.02539 v -10 a 0.025,0.025 0 0 0 -0.0254,-0.02539 z"
     id="path2300" />
  <path
     style="color:#000000;fill:#000000;stroke-linecap:round;stroke-linejoin:round;-inkscape-stroke:none"
     d="m 34.513672,104.57422 a 0.025,0.025 0 0 0 -0.02344,0.0254 c 0,1.3672 -1.109363,2.47461 -2.476562,2.47461 a 0.025,0.025 0 0 0 -0.02344,0.0254 0.025,0.025 0 0 0 0.02344,0.0254 c 1.394221,0 2.52539,-1.13117 2.52539,-2.52539 a 0.025,0.025 0 0 0 -0.02539,-0.0254 z"
     id="path2302" />
  <path
     style="color:#000000;fill:#000000;stroke-linecap:round;stroke-linejoin:round;-inkscape-stroke:none"
     d="m 35.013672,80.074219 c -1.394222,0 -2.523438,1.131169 -2.523438,2.52539 a 0.025,0.025 0 0 0 0.02344,0.02539 0.025,0.025 0 0 0 0.02539,-0.02539 c 0,-1.367199 1.10741,-2.474609 2.47461,-2.474609 a 0.025,0.025 0 0 0 0.02539,-0.02539 0.025,0.025 0 0 0 -0.02539,-0.02539 z"
     id="path2304" />
  <path
     style="color:#000000;fill:#000000;stroke-linecap:round;stroke-linejoin:round;-inkscape-stroke:none"
     d="m 15.013672,85.074219 a 0.025,0.025 0 0 0 -0.02344,0.02539 0.025,0.025 0 0 0 0.02344,0.02539 h 15 a 0.025,0.025 0 0 0 0.02539,-0.02539 0.025,0.025 0 0 0 -0.02539,-0.02539 z"
     id="path2306" />
  <path
     style="color:#000000;fill:#000000;stroke-linecap:round;stroke-linejoin:round;-inkscape-stroke:none"
     d="m 134.51367,52.574219 a 0.025,0.025 0 0 0 -0.0234,0.02539 v 17 a 0.025,0.025 0 0 0 0.0234,0.02539 0.025,0.025 0 0 0 0.0254,-0.02539 v -17 a 0.025,0.025 0 0 0 -0.0254,-0.02539 z"
     id="path2308" />
  <path
     style="color:#000000;fill:#000000;stroke-linecap:round;stroke-linejoin:round;-inkscape-stroke:none"
     d="m 57.013672,82.074219 a 0.025,0.025 0 0 0 -0.02344,0.02539 0.025,0.025 0 0 0 0.02344,0.02539 h 15 a 0.025,0.025 0 0 0 0.02539,-0.02539 0.025,0.025 0 0 0 -0.02539,-0.02539 z"
     id="path2312" />
  <path
     style="color:#000000;fill:#000000;stroke-linecap:round;stroke-linejoin:round;-inkscape-stroke:none"
     d="m 55.013672,20.074219 a 0.025,0.025 0 0 0 -0.02344,0.02539 0.025,0.025 0 0 0 0.02344,0.02539 h 15 a 0.025,0.025 0 0 0 0.02539,-0.02539 0.025,0.025 0 0 0 -0.02539,-0.02539 z"
     id="path2314" />
  <path
     style="color:#000000;fill:#000000;stroke-linecap:round;stroke-linejoin:round;-inkscape-stroke:none"
     d="m 92.013672,10.074219 a 0.025,0.025 0 0 0 -0.02344,0.02539 0.025,0.025 0 0 0 0.02344,0.02539 c 1.367199,0 2.476562,1.10741 2.476562,2.474609 a 0.025,0.025 0 0 0 0.02344,0.02539 0.025,0.025 0 0 0 0.02539,-0.02539 c 0,-1.394221 -1.131169,-2.52539 -2.52539,-2.52539 z"
     id="path2316" />
  <path
     style="color:#000000;fill:#000000;stroke-linecap:round;stroke-linejoin:round;-inkscape-stroke:none"
     d="m 35.013672,80.074219 a 0.025,0.025 0 0 0 -0.02344,0.02539 0.025,0.025 0 0 0 0.02344,0.02539 h 6 a 0.025,0.025 0 0 0 0.02539,-0.02539 0.025,0.025 0 0 0 -0.02539,-0.02539 z"
     id="path2318" />
  <path
     style="color:#000000;fill:#000000;stroke-linecap:round;stroke-linejoin:round;-inkscape-stroke:none"
     d="m 75.013672,10.074219 a 0.025,0.025 0 0 0 -0.02344,0.02539 0.025,0.025 0 0 0 0.02344,0.02539 h 17 a 0.025,0.025 0 0 0 0.02539,-0.02539 0.025,0.025 0 0 0 -0.02539,-0.02539 z"
     id="path2320" />
  <path
     style="color:#000000;fill:#000000;stroke-linecap:round;stroke-linejoin:round;-inkscape-stroke:none"
     d="m 120.26367,42.074219 c -1.39422,0 -2.52344,1.131169 -2.52344,2.52539 a 0.025,0.025 0 0 0 0.0234,0.02539 0.025,0.025 0 0 0 0.0254,-0.02539 c 0,-1.367199 1.10741,-2.474609 2.47461,-2.474609 a 0.025,0.025 0 0 0 0.0254,-0.02539 0.025,0.025 0 0 0 -0.0254,-0.02539 z"
     id="path2322" />
  <path
     style="color:#000000;fill:#000000;stroke-linecap:round;stroke-linejoin:round;-inkscape-stroke:none"
     d="m 112.51367,22.574219 a 0.025,0.025 0 0 0 -0.0234,0.02539 v 10 a 0.025,0.025 0 0 0 0.0234,0.02539 0.025,0.025 0 0 0 0.0254,-0.02539 v -10 a 0.025,0.025 0 0 0 -0.0254,-0.02539 z"
     id="path2324" />
  <path
     style="color:#000000;fill:#000000;stroke-linecap:round;stroke-linejoin:round;-inkscape-stroke:none"
     d="m 117.76367,44.574219 a 0.025,0.025 0 0 0 -0.0234,0.02539 v 3 a 0.025,0.025 0 0 0 0.0234,0.02539 0.025,0.025 0 0 0 0.0254,-0.02539 v -3 a 0.025,0.025 0 0 0 -0.0254,-0.02539 z"
     id="path2326" />
  <path
     style="color:#000000;fill:#000000;stroke-linecap:round;stroke-linejoin:round;-inkscape-stroke:none"
     d="m 12.513672,104.57422 a 0.025,0.025 0 0 0 -0.02344,0.0254 c 0,1.39422 1.129216,2.52539 2.523438,2.52539 a 0.025,0.025 0 0 0 0.02539,-0.0254 0.025,0.025 0 0 0 -0.02539,-0.0254 c -1.3672,0 -2.47461,-1.10741 -2.474609,-2.47461 a 0.025,0.025 0 0 0 -0.02539,-0.0254 z"
     id="path2328" />
  <path
     style="color:#000000;fill:#000000;stroke-linecap:round;stroke-linejoin:round;-inkscape-stroke:none"
     d="m 132.01367,20.074219 a 0.025,0.025 0 0 0 -0.0234,0.02539 0.025,0.025 0 0 0 0.0234,0.02539 c 1.3672,0 2.47656,1.10741 2.47656,2.474609 a 0.025,0.025 0 0 0 0.0234,0.02539 0.025,0.025 0 0 0 0.0254,-0.02539 c 0,-1.394221 -1.13117,-2.52539 -2.52539,-2.52539 z"
     id="path2332" />
  <path
     style="color:#000000;fill:#000000;stroke-linecap:round;stroke-linejoin:round;-inkscape-stroke:none"
     d="m 77.013672,52.074219 c -1.394222,0 -2.523438,1.131169 -2.523438,2.52539 a 0.025,0.025 0 0 0 0.02344,0.02539 0.025,0.025 0 0 0 0.02539,-0.02539 c 0,-1.367199 1.10741,-2.474609 2.47461,-2.474609 a 0.025,0.025 0 0 0 0.02539,-0.02539 0.025,0.025 0 0 0 -0.02539,-0.02539 z"
     id="path2334" />
  <path
     style="color:#000000;fill:#000000;stroke-linecap:round;stroke-linejoin:round;-inkscape-stroke:none"
     d="m 92.513672,54.574219 a 0.025,0.025 0 0 0 -0.02344,0.02539 c 0,1.394222 1.129216,2.525391 2.523438,2.525391 a 0.025,0.025 0 0 0 0.02539,-0.02539 0.025,0.025 0 0 0 -0.02539,-0.02539 c -1.3672,0 -2.47461,-1.10741 -2.47461,-2.47461 a 0.025,0.025 0 0 0 -0.02539,-0.02539 z"
     id="path2336" />
  <path
     style="color:#000000;fill:#000000;stroke-linecap:round;stroke-linejoin:round;-inkscape-stroke:none"
     d="m 94.513672,32.574219 a 0.025,0.025 0 0 0 -0.02344,0.02539 c 0,1.394222 1.129216,2.525391 2.523438,2.525391 a 0.025,0.025 0 0 0 0.02539,-0.02539 0.025,0.025 0 0 0 -0.02539,-0.02539 c -1.3672,0 -2.47461,-1.10741 -2.47461,-2.47461 a 0.025,0.025 0 0 0 -0.02539,-0.02539 z"
     id="path2338" />
  <path
     style="color:#000000;fill:#000000;stroke-linecap:round;stroke-linejoin:round;-inkscape-stroke:none"
     d="m 77.013672,52.074219 a 0.025,0.025 0 0 0 -0.02344,0.02539 0.025,0.025 0 0 0 0.02344,0.02539 h 13 a 0.025,0.025 0 0 0 0.02539,-0.02539 0.025,0.025 0 0 0 -0.02539,-0.02539 z"
     id="path2340" />
  <path
     style="color:#000000;fill:#000000;stroke-linecap:round;stroke-linejoin:round;-inkscape-stroke:none"
     d="m 132.01367,50.074219 a 0.025,0.025 0 0 0 -0.0234,0.02539 0.025,0.025 0 0 0 0.0234,0.02539 c 1.3672,0 2.47656,1.10741 2.47656,2.474609 a 0.025,0.025 0 0 0 0.0234,0.02539 0.025,0.025 0 0 0 0.0254,-0.02539 c 0,-1.394221 -1.13117,-2.52539 -2.52539,-2.52539 z"
     id="path2342" />
  <path
     style="color:#000000;fill:#000000;stroke-linecap:round;stroke-linejoin:round;-inkscape-stroke:none"
     d="m 120.26367,42.074219 a 0.025,0.025 0 0 0 -0.0234,0.02539 0.025,0.025 0 0 0 0.0234,0.02539 h 11.75 a 0.025,0.025 0 0 0 0.0254,-0.02539 0.025,0.025 0 0 0 -0.0254,-0.02539 z"
     id="path2344" />
  <path
     style="color:#000000;fill:#000000;stroke-linecap:round;stroke-linejoin:round;-inkscape-stroke:none"
     d="m 32.513672,82.574219 a 0.025,0.025 0 0 0 -0.02344,0.02539 c 0,1.3672 -1.109363,2.47461 -2.476562,2.47461 a 0.025,0.025 0 0 0 -0.02344,0.02539 0.025,0.025 0 0 0 0.02344,0.02539 c 1.394221,0 2.52539,-1.131169 2.52539,-2.525391 a 0.025,0.025 0 0 0 -0.02539,-0.02539 z"
     id="path2346" />
  <path
     style="color:#000000;fill:#000000;stroke-linecap:round;stroke-linejoin:round;-inkscape-stroke:none"
     d="m 134.51367,22.574219 a 0.025,0.025 0 0 0 -0.0234,0.02539 v 17 a 0.025,0.025 0 0 0 0.0234,0.02539 0.025,0.025 0 0 0 0.0254,-0.02539 v -17 a 0.025,0.025 0 0 0 -0.0254,-0.02539 z"
     id="path2348" />
  <path
     style="color:#000000;fill:#000000;stroke-linecap:round;stroke-linejoin:round;-inkscape-stroke:none"
     d="m 115.01367,72.074219 a 0.025,0.025 0 0 0 -0.0234,0.02539 0.025,0.025 0 0 0 0.0234,0.02539 h 17 a 0.025,0.025 0 0 0 0.0254,-0.02539 0.025,0.025 0 0 0 -0.0254,-0.02539 z"
     id="path2350" />
  <path
     style="color:#000000;fill:#000000;stroke-linecap:round;stroke-linejoin:round;-inkscape-stroke:none"
     d="m 37.013672,102.07422 c -1.394222,0 -2.523438,1.13117 -2.523438,2.52539 a 0.025,0.025 0 0 0 0.02344,0.0254 0.025,0.025 0 0 0 0.02539,-0.0254 c 0,-1.3672 1.10741,-2.47461 2.47461,-2.47461 a 0.025,0.025 0 0 0 0.02539,-0.0254 0.025,0.025 0 0 0 -0.02539,-0.0254 z"
     id="path2354" />
  <path
     style="color:#000000;fill:#000000;stroke-linecap:round;stroke-linejoin:round;-inkscape-stroke:none"
     d="m 112.51367,69.574219 a 0.025,0.025 0 0 0 -0.0234,0.02539 c 0,1.394222 1.12922,2.525391 2.52344,2.525391 a 0.025,0.025 0 0 0 0.0254,-0.02539 0.025,0.025 0 0 0 -0.0254,-0.02539 c -1.3672,0 -2.47461,-1.10741 -2.47461,-2.47461 a 0.025,0.025 0 0 0 -0.0254,-0.02539 z"
     id="path2356" />
  <path
     style="color:#000000;fill:#000000;stroke-linecap:round;stroke-linejoin:round;-inkscape-stroke:none"
     d="m 57.013672,82.074219 c -1.394222,0 -2.523438,1.131169 -2.523438,2.52539 a 0.025,0.025 0 0 0 0.02344,0.02539 0.025,0.025 0 0 0 0.02539,-0.02539 c 0,-1.367199 1.10741,-2.474609 2.47461,-2.474609 a 0.025,0.025 0 0 0 0.02539,-0.02539 0.025,0.025 0 0 0 -0.02539,-0.02539 z"
     id="path2358" />
  <path
     style="color:#000000;fill:#000000;stroke-linecap:round;stroke-linejoin:round;-inkscape-stroke:none"
     d="m 74.513672,54.574219 a 0.025,0.025 0 0 0 -0.02344,0.02539 v 25 a 0.025,0.025 0 0 0 0.02344,0.02539 0.025,0.025 0 0 0 0.02539,-0.02539 v -25 a 0.025,0.025 0 0 0 -0.02539,-0.02539 z"
     id="path2360" />
  <path
     style="color:#000000;fill:#000000;stroke-linecap:round;stroke-linejoin:round;-inkscape-stroke:none"
     d="m 54.513672,99.574219 a 0.025,0.025 0 0 0 -0.02344,0.02539 c 0,1.367201 -1.109363,2.474611 -2.476562,2.474611 a 0.025,0.025 0 0 0 -0.02344,0.0254 0.025,0.025 0 0 0 0.02344,0.0254 c 1.394221,0 2.52539,-1.13117 2.52539,-2.525391 a 0.025,0.025 0 0 0 -0.02539,-0.02539 z"
     id="path2364" />
  <path
     style="color:#000000;fill:#000000;stroke-linecap:round;stroke-linejoin:round;-inkscape-stroke:none"
     d="m 15.013672,85.074219 c -1.394222,0 -2.523438,1.131169 -2.523438,2.52539 a 0.025,0.025 0 0 0 0.02344,0.02539 0.025,0.025 0 0 0 0.02539,-0.02539 c 0,-1.367199 1.107409,-2.474609 2.474609,-2.474609 a 0.025,0.025 0 0 0 0.02539,-0.02539 0.025,0.025 0 0 0 -0.02539,-0.02539 z"
     id="path2368" />
  <path
     style="color:#000000;fill:#000000;stroke-linecap:round;stroke-linejoin:round;-inkscape-stroke:none"
     d="m 110.01367,57.074219 a 0.025,0.025 0 0 0 -0.0234,0.02539 0.025,0.025 0 0 0 0.0234,0.02539 c 1.3672,0 2.47656,1.10741 2.47656,2.474609 a 0.025,0.025 0 0 0 0.0234,0.02539 0.025,0.025 0 0 0 0.0254,-0.02539 c 0,-1.394221 -1.13117,-2.52539 -2.52539,-2.52539 z"
     id="path2370" />
  <path
     style="color:#000000;fill:#000000;stroke-linecap:round;stroke-linejoin:round;-inkscape-stroke:none"
     d="m 94.513672,12.574219 a 0.025,0.025 0 0 0 -0.02344,0.02539 v 20 a 0.025,0.025 0 0 0 0.02344,0.02539 0.025,0.025 0 0 0 0.02539,-0.02539 v -20 a 0.025,0.025 0 0 0 -0.02539,-0.02539 z"
     id="path2372" />
  <path
     style="color:#000000;fill:#000000;stroke-linecap:round;stroke-linejoin:round;-inkscape-stroke:none"
     d="m 112.51367,32.574219 a 0.025,0.025 0 0 0 -0.0234,0.02539 c 0,1.3672 -1.10936,2.47461 -2.47656,2.47461 a 0.025,0.025 0 0 0 -0.0234,0.02539 0.025,0.025 0 0 0 0.0234,0.02539 c 1.39422,0 2.52539,-1.131169 2.52539,-2.525391 a 0.025,0.025 0 0 0 -0.0254,-0.02539 z"
     id="path2374" />
  <path
     style="color:#000000;fill:#000000;stroke-linecap:round;stroke-linejoin:round;-inkscape-stroke:none"
     d="m 95.013672,57.074219 a 0.025,0.025 0 0 0 -0.02344,0.02539 0.025,0.025 0 0 0 0.02344,0.02539 h 14.999998 a 0.025,0.025 0 0 0 0.0254,-0.02539 0.025,0.025 0 0 0 -0.0254,-0.02539 z"
     id="path2376" />
  <path
     style="color:#000000;fill:#000000;stroke-linecap:round;stroke-linejoin:round;-inkscape-stroke:none"
     d="m 120.26367,50.074219 a 0.025,0.025 0 0 0 -0.0234,0.02539 0.025,0.025 0 0 0 0.0234,0.02539 h 11.75 a 0.025,0.025 0 0 0 0.0254,-0.02539 0.025,0.025 0 0 0 -0.0254,-0.02539 z"
     id="path2378" />
  <path
     style="color:#000000;fill:#000000;stroke-linecap:round;stroke-linejoin:round;-inkscape-stroke:none"
     d="m 90.013672,52.074219 a 0.025,0.025 0 0 0 -0.02344,0.02539 0.025,0.025 0 0 0 0.02344,0.02539 c 1.367199,0 2.476562,1.10741 2.476562,2.474609 a 0.025,0.025 0 0 0 0.02344,0.02539 0.025,0.025 0 0 0 0.02539,-0.02539 c 0,-1.394221 -1.131169,-2.52539 -2.52539,-2.52539 z"
     id="path2380" />
  <path
     style="fill:#000000;stroke-width:0.609949"
     d="m 14.795059,440.90475 c -1.088194,-0.53645 -2.597817,-1.97121 -3.354719,-3.18834 l -1.376185,-2.21296 v -72.27894 -72.27893 l 1.337743,-2.13482 c 2.588453,-4.13075 0.945767,-3.93354 35.56416,-4.26964 30.298695,-0.29416 31.487979,-0.34939 33.545111,-1.55785 2.773925,-1.62953 4.881664,-4.80918 4.881664,-7.36427 0,-3.06475 1.73739,-6.78736 3.881556,-8.3168 1.906761,-1.3601 2.014673,-1.36551 33.325321,-1.66949 30.01815,-0.29144 31.50429,-0.35912 33.48343,-1.52488 1.13908,-0.67094 2.64871,-1.99479 3.35472,-2.94187 l 1.28365,-1.72198 0.30498,-107.15388 0.30497,-107.153888 1.33774,-2.134821 c 2.59012,-4.133415 0.90864,-3.933531 35.91751,-4.269642 l 31.7657,-0.304974 2.30366,-1.757764 c 3.6411,-2.778277 4.00407,-4.322482 4.00407,-17.035124 0,-10.4836058 0.0896,-11.3772363 1.38758,-13.831676 0.81835,-1.5475082 2.25324,-3.0882216 3.49769,-3.7556279 2.02903,-1.08818146 5.70763,-1.13162348 95.74677,-1.13071203 87.94088,8.9053e-4 93.76388,0.0658191 95.72812,1.06741043 4.34314,2.2146263 4.58271,3.0477244 4.92294,17.1201325 0.35199,14.558435 0.74081,15.853671 5.48025,18.25595 l 2.70757,1.372385 h 46.29631 46.29631 l 2.3703,1.332184 c 1.51064,0.849029 2.81275,2.246164 3.59025,3.852268 1.2082,2.495805 1.21982,3.750847 1.20656,130.264269 -0.0131,124.64997 -0.0418,127.80667 -1.18444,130.32387 -0.67613,1.48944 -2.02381,3.0996 -3.18883,3.8099 -1.99357,1.21544 -2.89027,1.23025 -74.664,1.2325 l -72.64619,0.002 -2.07253,-1.38454 c -4.12943,-2.75864 -4.20535,-3.23389 -4.20641,-26.32805 -6.1e-4,-19.51958 -0.0709,-20.83937 -1.22971,-23.17805 -0.67582,-1.36393 -1.97959,-3.02883 -2.89726,-3.69978 -1.60319,-1.17215 -2.77468,-1.22656 -29.93054,-1.39004 -27.25897,-0.16411 -28.33139,-0.1273 -30.2157,1.03727 -1.07451,0.66408 -2.56077,2.28764 -3.3028,3.60792 l -1.34915,2.40049 -10e-4,39.86859 c -10e-4,44.02625 0.13869,42.38356 -3.85504,45.31479 -1.67486,1.22927 -2.56904,1.27146 -33.24221,1.56823 -31.15689,0.30144 -31.54598,0.32047 -33.6791,1.64722 -1.18693,0.73824 -2.76518,2.42247 -3.50721,3.74274 -1.34206,2.38788 -1.34916,2.56021 -1.3501,32.81488 -0.001,33.53518 0.0577,32.98881 -3.85503,35.86058 -1.67486,1.22927 -2.56904,1.27146 -33.24221,1.56823 -31.07013,0.30061 -31.55159,0.324 -33.65587,1.63523 -2.75395,1.71604 -4.19451,4.21962 -4.89125,8.50058 -0.65863,4.04678 -1.77628,5.95317 -4.44361,7.57954 -1.90337,1.16056 -3.64848,1.18823 -74.228129,1.17689 -64.992497,-0.0104 -72.478389,-0.10994 -74.257467,-0.98699 z M 126.06273,403.73003 c 2.72409,-2.01904 4.35214,-4.91726 4.80692,-8.55711 0.43337,-3.46861 2.121,-6.2061 4.75726,-7.71669 0.96624,-0.55366 9.5175,-0.82813 32.82756,-1.05366 30.63869,-0.29644 31.56807,-0.34018 33.20452,-1.56256 0.92595,-0.69167 2.24948,-2.01515 2.94115,-2.94106 1.22255,-1.63657 1.26608,-2.56454 1.56256,-33.31311 0.29647,-30.74853 0.34001,-31.67654 1.56256,-33.31321 0.69167,-0.92596 2.0152,-2.24948 2.94117,-2.94115 1.63668,-1.22255 2.56471,-1.26608 33.31305,-1.56256 30.74832,-0.29648 31.67637,-0.34001 33.3131,-1.56256 0.92599,-0.69167 2.24954,-2.01538 2.94121,-2.94156 1.2405,-1.66109 1.26173,-2.37055 1.56256,-52.2211 0.30224,-50.0842 0.31641,-50.55255 1.58096,-52.25881 0.70178,-0.94692 2.18338,-2.33925 3.29243,-3.09407 2.01604,-1.3721 2.02195,-1.37238 28.97877,-1.37238 26.95682,0 26.96273,2.8e-4 28.97877,1.37238 3.00849,2.04757 4.2441,4.07855 4.67023,7.67653 0.41677,3.51898 1.97465,6.28109 4.66924,8.27855 1.68105,1.24613 2.45863,1.28311 33.24221,1.58095 23.80852,0.23036 31.85062,0.49353 32.86849,1.0756 0.74118,0.42385 2.11356,1.77432 3.04974,3.00106 l 1.70215,2.23043 0.30498,22.11629 c 0.29143,21.13375 0.36084,22.19106 1.56256,23.79901 0.69167,0.92549 2.01556,2.24862 2.94198,2.94029 1.65621,1.23654 2.28013,1.25759 37.27695,1.25759 34.99683,0 35.62074,-0.021 37.27695,-1.25759 0.92642,-0.69167 2.25031,-2.01556 2.94198,-2.94198 1.23683,-1.65659 1.25759,-2.27708 1.25759,-37.58193 0,-35.53971 -0.0128,-35.91468 -1.28365,-37.61961 -0.70601,-0.94714 -2.21564,-2.27104 -3.35472,-2.94198 -1.95653,-1.15243 -3.47094,-1.23676 -27.38394,-1.52487 -24.10779,-0.29046 -25.39028,-0.36306 -26.93876,-1.52488 -3.40213,-2.55262 -3.86366,-4.132 -3.86366,-13.22166 0,-9.10543 0.31013,-10.06339 4.19838,-12.96845 1.62085,-1.211 2.62884,-1.26888 27.21399,-1.56256 24.58515,-0.29368 25.59313,-0.35155 27.21399,-1.56256 0.92576,-0.69167 2.24911,-2.01556 2.94078,-2.94198 1.23672,-1.65646 1.25759,-2.27815 1.25759,-37.47416 V 81.73314 l -1.42047,-1.991538 c -3.04883,-4.274533 -1.42451,-4.10795 -40.05605,-4.10795 -33.67009,0 -34.83243,0.03849 -36.83814,1.219898 -1.13909,0.670943 -2.64871,1.99413 -3.35472,2.940417 -1.23511,1.655449 -1.29519,2.555142 -1.58863,23.788003 -0.33408,24.1738 -0.31592,24.05637 -4.16864,26.94707 -1.56178,1.17181 -2.716,1.22662 -29.27742,1.3904 -27.03976,0.16672 -27.69667,0.14259 -29.69172,-1.09042 -1.1251,-0.69534 -2.60677,-2.43129 -3.30337,-3.87027 -1.2382,-2.55779 -1.26317,-3.39949 -1.26317,-42.583214 V 44.401691 l -1.37446,-2.039558 c -0.75595,-1.121756 -2.33419,-2.60335 -3.5072,-3.292432 -2.08406,-1.22427 -2.92654,-1.252875 -36.89983,-1.252875 -33.97329,0 -34.81578,0.02861 -36.89983,1.252875 -1.17301,0.689082 -2.75125,2.170676 -3.50721,3.292432 -1.30512,1.936665 -1.37446,2.619035 -1.37446,13.526041 0,12.914972 -0.54004,15.387504 -3.88155,17.771013 -1.90676,1.3601 -2.01467,1.365504 -33.32532,1.669491 -30.01815,0.291439 -31.50429,0.359119 -33.48343,1.524872 -1.13908,0.670943 -2.64871,1.994782 -3.35472,2.941862 l -1.28365,1.721959 -0.30498,107.261789 c -0.30464,107.14684 -0.30632,107.26358 -1.56256,108.94605 -0.69167,0.92635 -2.01515,2.25019 -2.94106,2.94186 -1.63645,1.22247 -2.56517,1.2661 -33.25281,1.56256 l -31.56934,0.30498 -2.30374,1.75776 c -2.45239,1.8712 -4.00414,4.77161 -4.00414,7.48428 0,2.37797 -2.22259,6.6325 -4.14711,7.93849 -1.52997,1.03824 -3.91177,1.13967 -33.41311,1.42291 l -31.765705,0.30497 -2.303659,1.75776 c -4.163684,3.17703 -4.051662,1.99165 -3.866066,40.90944 0.163312,34.24499 0.194503,35.05044 1.422578,36.73434 0.690583,0.94691 2.474683,2.34626 3.964668,3.10967 l 2.709061,1.38801 34.570404,-0.16811 c 33.988629,-0.16529 34.599369,-0.18959 36.291959,-1.4441 z"
     id="path2909"
     transform="scale(0.26458333)" />
  <metadata
     id="metadata2927">
    <rdf:RDF>
      <cc:Work
         rdf:about="">
        <dc:title>SVG Image created as lpk20_mx_keypad_R_Mk1_rev0-User_3.svg date 2024/12/22 09:42:39 </dc:title>
      </cc:Work>
    </rdf:RDF>
  </metadata>
</svg>
