<?xml version="1.0" standalone="no"?>
 <!DOCTYPE svg PUBLIC "-//W3C//DTD SVG 1.1//EN" 
 "http://www.w3.org/Graphics/SVG/1.1/DTD/svg11.dtd"> 
<svg
  xmlns:svg="http://www.w3.org/2000/svg"
  xmlns="http://www.w3.org/2000/svg"
  xmlns:xlink="http://www.w3.org/1999/xlink"
  version="1.1"
  width="147.0152mm" height="117.1956mm" viewBox="0.0000 0.0000 147.0152 117.1956">
<title>SVG Image created as lpk20_mx_keypad_L_Mk1_rev0-User_2.svg date 2024/11/22 15:20:11 </title>
  <desc>Image generated by PCBNEW </desc>
<g style="fill:#000000; fill-opacity:1.0000;stroke:#000000; stroke-opacity:1.0000;
stroke-linecap:round; stroke-linejoin:round;"
 transform="translate(0 0) scale(1 1)">
</g>
<g style="fill:none; 
stroke:#000000; stroke-width:0.1000; stroke-opacity:1; 
stroke-linecap:round; stroke-linejoin:round;">
<path d="M105.0143 117.1000
L142.0143 117.1000
" />
<path d="M62.5143 69.6000
L62.5143 89.6000
" />
<path d="M102.5143 114.6000 A2.5000 2.5000 0.0 0 0 105.0143 117.1000" />
<path d="M5.0143 0.1000 A2.5000 2.5000 0.0 0 0 2.5143 2.6000" />
<path d="M82.5143 109.6000 A2.5000 2.5000 0.0 0 0 85.0143 112.1000" />
<path d="M102.5143 114.6000 A2.5000 2.5000 0.0 0 0 100.0143 112.1000" />
<path d="M82.5143 94.6000 A2.5000 2.5000 0.0 0 0 80.0143 92.1000" />
<path d="M5.0143 0.1000
L142.0143 0.1000
" />
<path d="M144.5143 2.6000 A2.5000 2.5000 0.0 0 0 142.0143 0.1000" />
<path d="M62.5143 69.6000 A2.5000 2.5000 0.0 0 0 60.0143 67.1000" />
<path d="M42.0143 82.1000 A2.5000 2.5000 0.0 0 0 44.5143 79.6000" />
<path d="M82.5143 94.6000
L82.5143 109.6000
" />
<path d="M65.0143 92.1000
L80.0143 92.1000
" />
<path d="M47.0143 67.1000
L60.0143 67.1000
" />
<path d="M2.5143 79.6000 A2.5000 2.5000 0.0 0 0 5.0143 82.1000" />
<path d="M85.0143 112.1000
L100.0143 112.1000
" />
<path d="M44.5143 79.6000
L44.5143 69.6000
" />
<path d="M142.0143 117.1000 A2.5000 2.5000 0.0 0 0 144.5143 114.6000" />
<path d="M2.5143 2.6000
L2.5143 79.6000
" />
<path d="M47.0143 67.1000 A2.5000 2.5000 0.0 0 0 44.5143 69.6000" />
<path d="M62.5143 89.6000 A2.5000 2.5000 0.0 0 0 65.0143 92.1000" />
<path d="M144.5143 2.6000
L144.5143 114.6000
" />
<path d="M5.0143 82.1000
L42.0143 82.1000
" />
</g> 
</svg>
