<?xml version="1.0" encoding="UTF-8" standalone="no"?>
<svg
   version="1.1"
   width="147.0152mm"
   height="117.1956mm"
   viewBox="0.0000 0.0000 147.0152 117.1956"
   id="svg58"
   sodipodi:docname="lpk20_mx_keypad_L_Mk1_rev0-Edge_Cuts_fill.svg"
   inkscape:version="1.3.2 (091e20e, 2023-11-25, custom)"
   xmlns:inkscape="http://www.inkscape.org/namespaces/inkscape"
   xmlns:sodipodi="http://sodipodi.sourceforge.net/DTD/sodipodi-0.dtd"
   xmlns="http://www.w3.org/2000/svg"
   xmlns:svg="http://www.w3.org/2000/svg"
   xmlns:rdf="http://www.w3.org/1999/02/22-rdf-syntax-ns#"
   xmlns:cc="http://creativecommons.org/ns#"
   xmlns:dc="http://purl.org/dc/elements/1.1/">
  <defs
     id="defs58" />
  <sodipodi:namedview
     id="namedview58"
     pagecolor="#505050"
     bordercolor="#eeeeee"
     borderopacity="1"
     inkscape:showpageshadow="0"
     inkscape:pageopacity="0"
     inkscape:pagecheckerboard="0"
     inkscape:deskcolor="#505050"
     inkscape:document-units="mm"
     inkscape:zoom="2.4811262"
     inkscape:cx="277.69647"
     inkscape:cy="221.27048"
     inkscape:window-width="3440"
     inkscape:window-height="1334"
     inkscape:window-x="-11"
     inkscape:window-y="-11"
     inkscape:window-maximized="1"
     inkscape:current-layer="svg58" />
  <title
     id="title1">SVG Image created as lpk20_mx_keypad_L_Mk1_rev0-Edge_Cuts.svg date 2024/11/22 14:55:32 </title>
  <desc
     id="desc1">Image generated by PCBNEW </desc>
  <g
     style="fill:#000000; fill-opacity:1.0000;stroke:#000000; stroke-opacity:1.0000; stroke-linecap:round; stroke-linejoin:round;"
     transform="translate(0 0) scale(1 1)"
     id="g1" />
  <g
     style="fill:none;  stroke:#000000; stroke-width:0.0500; stroke-opacity:1;  stroke-linecap:round; stroke-linejoin:round;"
     id="g58">
    <path
       d="M34.5143 59.6000 L34.5143 69.6000 "
       id="path1" />
    <path
       d="M55.0143 10.1000 L72.0143 10.1000 "
       id="path2" />
    <path
       d="M94.5143 51.3678 A2.5000 2.5000 0.0 0 0 97.0143 53.8678"
       id="path3" />
    <path
       d="M29.2465 44.6000 A2.5000 2.5000 0.0 0 0 26.7465 42.1000"
       id="path4" />
    <path
       d="M29.2465 47.6000 L29.2465 44.6000 "
       id="path5" />
    <path
       d="M90.0143 82.1000 L75.0143 82.1000 "
       id="path6" />
    <path
       d="M103.5143 56.3678 L103.5143 59.6000 "
       id="path7" />
    <path
       d="M34.5143 22.6000 A2.5000 2.5000 0.0 0 0 32.0143 20.1000"
       id="path8" />
    <path
       d="M92.5143 99.6000 A2.5000 2.5000 0.0 0 0 95.0143 102.1000"
       id="path9" />
    <path
       d="M134.5143 87.6000 L134.5143 104.6000 "
       id="path10" />
    <path
       d="M117.0143 85.1000 L132.0143 85.1000 "
       id="path11" />
    <path
       d="M26.7465 50.1000 L15.0143 50.1000 "
       id="path12" />
    <path
       d="M103.5143 77.6000 A2.5000 2.5000 0.0 0 0 106.0143 80.1000"
       id="path13" />
    <path
       d="M97.0143 53.8678 L101.0143 53.8678 "
       id="path14" />
    <path
       d="M94.5143 22.6000 L94.5143 51.3678 "
       id="path15" />
    <path
       d="M52.0143 57.1000 L37.0143 57.1000 "
       id="path16" />
    <path
       d="M72.5143 54.6000 A2.5000 2.5000 0.0 0 0 70.0143 52.1000"
       id="path17" />
    <path
       d="M37.0143 35.1000 L50.0143 35.1000 "
       id="path18" />
    <path
       d="M134.5143 87.6000 A2.5000 2.5000 0.0 0 0 132.0143 85.1000"
       id="path19" />
    <path
       d="M15.0143 20.1000 A2.5000 2.5000 0.0 0 0 12.5143 22.6000"
       id="path20" />
    <path
       d="M12.5143 39.6000 L12.5143 22.6000 "
       id="path21" />
    <path
       d="M110.0143 102.1000 L95.0143 102.1000 "
       id="path22" />
    <path
       d="M34.5143 22.6000 L34.5143 32.6000 "
       id="path23" />
    <path
       d="M15.0143 50.1000 A2.5000 2.5000 0.0 0 0 12.5143 52.6000"
       id="path24" />
    <path
       d="M106.0143 80.1000 L112.0143 80.1000 "
       id="path25" />
    <path
       d="M52.0143 57.1000 A2.5000 2.5000 0.0 0 0 54.5143 54.6000"
       id="path26" />
    <path
       d="M70.0143 52.1000 L57.0143 52.1000 "
       id="path27" />
    <path
       d="M50.0143 35.1000 A2.5000 2.5000 0.0 0 0 52.5143 32.6000"
       id="path28" />
    <path
       d="M112.5143 104.6000 A2.5000 2.5000 0.0 0 0 115.0143 107.1000"
       id="path29" />
    <path
       d="M26.7465 50.1000 A2.5000 2.5000 0.0 0 0 29.2465 47.6000"
       id="path30" />
    <path
       d="M74.5143 12.6000 A2.5000 2.5000 0.0 0 0 72.0143 10.1000"
       id="path31" />
    <path
       d="M52.5143 32.6000 L52.5143 12.6000 "
       id="path32" />
    <path
       d="M32.0143 72.1000 L15.0143 72.1000 "
       id="path33" />
    <path
       d="M34.5143 32.6000 A2.5000 2.5000 0.0 0 0 37.0143 35.1000"
       id="path34" />
    <path
       d="M32.0143 72.1000 A2.5000 2.5000 0.0 0 0 34.5143 69.6000"
       id="path35" />
    <path
       d="M74.5143 12.6000 L74.5143 17.6000 "
       id="path36" />
    <path
       d="M57.0143 52.1000 A2.5000 2.5000 0.0 0 0 54.5143 54.6000"
       id="path37" />
    <path
       d="M114.5143 82.6000 A2.5000 2.5000 0.0 0 0 117.0143 85.1000"
       id="path38" />
    <path
       d="M94.5143 22.6000 A2.5000 2.5000 0.0 0 0 92.0143 20.1000"
       id="path39" />
    <path
       d="M55.0143 10.1000 A2.5000 2.5000 0.0 0 0 52.5143 12.6000"
       id="path40" />
    <path
       d="M15.0143 20.1000 L32.0143 20.1000 "
       id="path41" />
    <path
       d="M114.5143 82.6000 A2.5000 2.5000 0.0 0 0 112.0143 80.1000"
       id="path42" />
    <path
       d="M74.5143 17.6000 A2.5000 2.5000 0.0 0 0 77.0143 20.1000"
       id="path43" />
    <path
       d="M92.5143 84.6000 A2.5000 2.5000 0.0 0 0 90.0143 82.1000"
       id="path44" />
    <path
       d="M132.0143 107.1000 A2.5000 2.5000 0.0 0 0 134.5143 104.6000"
       id="path45" />
    <path
       d="M77.0143 20.1000 L92.0143 20.1000 "
       id="path46" />
    <path
       d="M12.5143 69.6000 A2.5000 2.5000 0.0 0 0 15.0143 72.1000"
       id="path47" />
    <path
       d="M72.5143 79.6000 A2.5000 2.5000 0.0 0 0 75.0143 82.1000"
       id="path48" />
    <path
       d="M12.5143 69.6000 L12.5143 52.6000 "
       id="path49" />
    <path
       d="M72.5143 79.6000 L72.5143 54.6000 "
       id="path50" />
    <path
       d="M103.5143 59.6000 L103.5143 77.6000 "
       id="path51" />
    <path
       d="M132.0143 107.1000 L115.0143 107.1000 "
       id="path52" />
    <path
       d="M15.0143 42.1000 L26.7465 42.1000 "
       id="path53" />
    <path
       d="M103.5143 56.3678 A2.5000 2.5000 0.0 0 0 101.0143 53.8678"
       id="path54" />
    <path
       d="M37.0143 57.1000 A2.5000 2.5000 0.0 0 0 34.5143 59.6000"
       id="path55" />
    <path
       d="M112.5143 104.6000 A2.5000 2.5000 0.0 0 0 110.0143 102.1000"
       id="path56" />
    <path
       d="M92.5143 99.6000 L92.5143 84.6000 "
       id="path57" />
    <path
       d="M12.5143 39.6000 A2.5000 2.5000 0.0 0 0 15.0143 42.1000"
       id="path58" />
  </g>
  <path
     style="fill:#020302;stroke-width:0;stroke-miterlimit:2.8"
     d="m 430.60335,403.32758 c -3.45438,-1.80459 -4.46378,-3.7099 -5.39651,-10.18622 -0.4351,-3.02105 -3.52075,-6.25568 -6.84844,-7.17909 -1.11264,-0.30875 -10.85343,-0.4508 -31.43734,-0.45846 -28.06276,-0.0104 -29.92043,-0.0548 -31.43733,-0.75065 -1.83051,-0.83971 -3.5912,-2.48514 -4.57166,-4.27241 -0.60033,-1.09434 -0.68828,-4.35693 -0.86942,-32.25179 -0.19995,-30.79244 -0.20827,-31.0469 -1.06785,-32.65175 -1.15314,-2.15293 -2.81128,-3.77714 -4.77627,-4.67854 -1.51693,-0.69586 -3.3695,-0.74007 -31.35962,-0.7484 -20.7041,-0.006 -30.29588,-0.14695 -31.55147,-0.46311 -1.14729,-0.28889 -2.53052,-1.10744 -3.79969,-2.24854 -3.43974,-3.09262 -3.21684,0.66703 -3.21939,-54.30015 -10e-4,-30.70743 -0.14814,-48.91789 -0.40144,-49.82973 -0.52499,-1.88985 -2.89273,-4.61465 -4.97994,-5.73092 -1.66773,-0.89193 -1.69926,-0.89308 -27.81671,-1.00775 -28.98882,-0.12728 -29.03288,-0.12391 -31.95314,2.4401 -1.79535,1.57634 -3.35452,4.77738 -3.35986,6.89793 -0.009,3.66926 -2.2747,7.32829 -5.42252,8.75807 -1.54029,0.69962 -3.35811,0.743 -31.48744,0.75134 -32.75245,0.01 -32.36299,-0.0169 -35.3032,2.41505 -0.81137,0.67112 -1.89959,2.08193 -2.41826,3.13515 l -0.94303,1.91494 -0.20153,21.56279 c -0.22547,24.12566 -0.057,22.78863 -3.21071,25.48805 -0.89083,0.76252 -2.32224,1.59689 -3.18091,1.85415 -2.2204,0.66525 -67.217082,0.66525 -69.43747,0 -2.086009,-0.62498 -4.717306,-2.93826 -5.631441,-4.95083 -0.702476,-1.54658 -0.742964,-3.48727 -0.751339,-36.01408 -0.0098,-37.96524 -0.181249,-35.39486 2.555288,-38.30343 2.661914,-2.82926 1.02679,-2.66476 28.703948,-2.88767 l 25.020924,-0.20153 1.97048,-1.21866 c 1.08376,-0.67026 2.52019,-2.0002 3.19207,-2.95541 l 1.22159,-1.73675 0.12932,-8.32979 c 0.14607,-9.40797 -0.0596,-10.60397 -2.23869,-13.01592 -2.84403,-3.14801 -1.03434,-2.94808 -28.723402,-3.1732 -23.060831,-0.18748 -24.907069,-0.25394 -26.509268,-0.95429 -2.038328,-0.89098 -4.375949,-3.47385 -4.956193,-5.47616 -0.273343,-0.94326 -0.373172,-13.16302 -0.293733,-35.95523 l 0.120336,-34.526356 1.224205,-1.747496 c 0.703428,-1.004113 2.075063,-2.21499 3.224342,-2.84645 l 2.000138,-1.098953 h 34.460157 34.460158 l 2.00014,1.098953 c 1.14856,0.631065 2.52135,1.8427 3.22434,2.845837 l 1.2242,1.74688 0.20152,21.629605 c 0.2233,23.96636 0.14444,23.26387 2.94249,26.21304 2.83602,2.98919 1.35622,2.85514 31.51767,2.85514 25.3396,0 27.10323,-0.0456 28.61604,-0.73955 1.96499,-0.9014 3.62313,-2.52561 4.77627,-4.67854 0.86591,-1.61667 0.86642,-1.63701 1.06785,-42.123253 0.22345,-44.91323 -0.003,-41.440358 2.88767,-44.213518 2.78124,-2.667828 0.84332,-2.539444 38.33213,-2.539444 h 33.99093 l 2.06154,1.027308 c 2.07487,1.033954 3.73296,2.7883 4.62172,4.890031 0.31671,0.74895 0.55715,5.26625 0.70582,13.260416 l 0.22548,12.124506 1.20913,1.939236 c 0.84028,1.347673 1.88534,2.321123 3.42586,3.191119 l 2.21674,1.251883 31.03429,0.201522 c 34.36728,0.223164 31.99719,0.02617 34.74201,2.887672 2.72095,2.836611 2.53945,-1.475049 2.53945,60.326422 0,60.32927 -0.093,57.55931 2.03307,60.54511 0.4625,0.64952 1.69055,1.68041 2.72902,2.29087 l 1.88811,1.10992 10.27759,0.20789 c 11.1562,0.22566 11.60726,0.31308 14.24324,2.76018 2.65602,2.46571 2.46254,-0.86406 2.68456,46.20315 0.22423,47.53778 0.0193,44.24367 2.94249,47.29115 2.60908,2.71999 2.27398,2.66567 17.81421,2.88768 13.4817,0.19259 14.17791,0.24005 15.71867,1.07145 3.33456,1.79935 4.82066,4.21127 5.38235,8.73551 0.51822,4.17417 2.41181,6.99869 5.67861,8.47037 0.73553,0.33135 9.90987,0.52181 32.06462,0.66568 l 31.03429,0.20152 1.67396,0.89515 c 2.05528,1.09907 3.90387,3.27697 4.51621,5.32069 0.32917,1.09863 0.45754,11.15445 0.45117,35.34432 -0.008,31.83655 -0.0517,33.90289 -0.74309,35.42101 -0.94417,2.07317 -3.6001,4.46266 -5.56743,5.00896 -1.02885,0.28569 -12.72793,0.42837 -35.24875,0.42987 l -33.70881,0.002 z m 5.81125,-84.21846 c -0.69268,-0.60961 -1.58312,-1.65248 -1.97877,-2.3175 -0.83241,-1.39915 -0.8911,-1.44607 1.63837,1.30989 2.14371,2.33566 2.26823,2.70423 0.3404,1.00761 z m -41.36329,-18.65816 c -0.57581,-0.45293 -1.445,-1.40512 -1.93154,-2.11597 -0.68675,-1.00338 -0.41967,-0.84512 1.19409,0.7076 1.14329,1.10003 2.07871,2.05222 2.07871,2.11597 0,0.25814 -0.34473,0.0763 -1.34126,-0.7076 z m -34.88126,-100.1297 c -0.91493,-0.99257 -1.6635,-1.92965 -1.6635,-2.08238 0,-0.15274 0.0598,-0.20213 0.13282,-0.10977 0.0731,0.0924 0.91231,1.02944 1.86502,2.08239 0.95271,1.05295 1.64152,1.91445 1.53068,1.91445 -0.11083,0 -0.95009,-0.81211 -1.86502,-1.80469 z"
     id="path59"
     transform="scale(0.26458333)" />
  <metadata
     id="metadata59">
    <rdf:RDF>
      <cc:Work
         rdf:about="">
        <dc:title>SVG Image created as lpk20_mx_keypad_L_Mk1_rev0-Edge_Cuts.svg date 2024/11/22 14:55:32 </dc:title>
      </cc:Work>
    </rdf:RDF>
  </metadata>
</svg>
