<?xml version="1.0" encoding="UTF-8" standalone="no"?>
<svg
   version="1.1"
   width="147.0152mm"
   height="117.1956mm"
   viewBox="0.0000 0.0000 147.0152 117.1956"
   id="svg311"
   sodipodi:docname="lpk20_mx_keypad_R_Mk1_rev0-Edge_Cuts_fill.svg"
   inkscape:version="1.2.2 (b0a8486541, 2022-12-01)"
   xmlns:inkscape="http://www.inkscape.org/namespaces/inkscape"
   xmlns:sodipodi="http://sodipodi.sourceforge.net/DTD/sodipodi-0.dtd"
   xmlns="http://www.w3.org/2000/svg"
   xmlns:svg="http://www.w3.org/2000/svg"
   xmlns:rdf="http://www.w3.org/1999/02/22-rdf-syntax-ns#"
   xmlns:cc="http://creativecommons.org/ns#"
   xmlns:dc="http://purl.org/dc/elements/1.1/">
  <defs
     id="defs315" />
  <sodipodi:namedview
     id="namedview313"
     pagecolor="#505050"
     bordercolor="#eeeeee"
     borderopacity="1"
     inkscape:showpageshadow="0"
     inkscape:pageopacity="0"
     inkscape:pagecheckerboard="0"
     inkscape:deskcolor="#505050"
     inkscape:document-units="mm"
     showgrid="false"
     inkscape:zoom="2.5894921"
     inkscape:cx="277.66063"
     inkscape:cy="221.472"
     inkscape:window-width="3396"
     inkscape:window-height="1350"
     inkscape:window-x="20"
     inkscape:window-y="20"
     inkscape:window-maximized="1"
     inkscape:current-layer="svg311" />
  <title
     id="title189">SVG Image created as lpk20_mx_keypad_R_Mk1_rev0-Edge_Cuts.svg date 2024/12/22 09:22:53 </title>
  <desc
     id="desc191">Image generated by PCBNEW </desc>
  <g
     style="fill:#000000; fill-opacity:1.0000;stroke:#000000; stroke-opacity:1.0000; stroke-linecap:round; stroke-linejoin:round;"
     transform="translate(0 0) scale(1 1)"
     id="g193" />
  <g
     style="fill:none;  stroke:#000000; stroke-width:0.0500; stroke-opacity:1;  stroke-linecap:round; stroke-linejoin:round;"
     id="g309">
    <path
       d="M72.0143 82.1000 A2.5000 2.5000 0.0 0 0 74.5143 79.6000"
       id="path195" />
    <path
       d="M54.5143 84.6000 L54.5143 99.6000 "
       id="path197" />
    <path
       d="M132.0143 42.1000 A2.5000 2.5000 0.0 0 0 134.5143 39.6000"
       id="path199" />
    <path
       d="M52.5143 22.6000 L52.5143 51.3500 "
       id="path201" />
    <path
       d="M75.0143 10.1000 A2.5000 2.5000 0.0 0 0 72.5143 12.6000"
       id="path203" />
    <path
       d="M97.0143 35.1000 L110.0143 35.1000 "
       id="path205" />
    <path
       d="M72.5143 17.6000 L72.5143 12.6000 "
       id="path207" />
    <path
       d="M115.0143 20.1000 A2.5000 2.5000 0.0 0 0 112.5143 22.6000"
       id="path209" />
    <path
       d="M70.0143 20.1000 A2.5000 2.5000 0.0 0 0 72.5143 17.6000"
       id="path211" />
    <path
       d="M132.0143 72.1000 A2.5000 2.5000 0.0 0 0 134.5143 69.6000"
       id="path213" />
    <path
       d="M115.0143 20.1000 L132.0143 20.1000 "
       id="path215" />
    <path
       d="M55.0143 20.1000 A2.5000 2.5000 0.0 0 0 52.5143 22.6000"
       id="path217" />
    <path
       d="M117.7643 47.6000 A2.5000 2.5000 0.0 0 0 120.2643 50.1000"
       id="path219" />
    <path
       d="M12.5143 104.6000 L12.5143 87.6000 "
       id="path221" />
    <path
       d="M32.0143 107.1000 L15.0143 107.1000 "
       id="path223" />
    <path
       d="M52.0143 102.1000 L37.0143 102.1000 "
       id="path225" />
    <path
       d="M112.5143 69.6000 L112.5143 59.6000 "
       id="path227" />
    <path
       d="M32.0143 107.1000 A2.5000 2.5000 0.0 0 0 34.5143 104.6000"
       id="path229" />
    <path
       d="M35.0143 80.1000 A2.5000 2.5000 0.0 0 0 32.5143 82.6000"
       id="path231" />
    <path
       d="M15.0143 85.1000 L30.0143 85.1000 "
       id="path233" />
    <path
       d="M134.5143 52.6000 L134.5143 69.6000 "
       id="path235" />
    <path
       d="M50.0143 53.8500 A2.5000 2.5000 0.0 0 0 52.5143 51.3500"
       id="path237" />
    <path
       d="M72.0143 82.1000 L57.0143 82.1000 "
       id="path239" />
    <path
       d="M55.0143 20.1000 L70.0143 20.1000 "
       id="path241" />
    <path
       d="M94.5143 12.6000 A2.5000 2.5000 0.0 0 0 92.0143 10.1000"
       id="path243" />
    <path
       d="M41.0143 80.1000 L35.0143 80.1000 "
       id="path245" />
    <path
       d="M75.0143 10.1000 L92.0143 10.1000 "
       id="path247" />
    <path
       d="M120.2643 42.1000 A2.5000 2.5000 0.0 0 0 117.7643 44.6000"
       id="path249" />
    <path
       d="M112.5143 32.6000 L112.5143 22.6000 "
       id="path251" />
    <path
       d="M117.7643 44.6000 L117.7643 47.6000 "
       id="path253" />
    <path
       d="M12.5143 104.6000 A2.5000 2.5000 0.0 0 0 15.0143 107.1000"
       id="path255" />
    <path
       d="M46.0143 53.8500 A2.5000 2.5000 0.0 0 0 43.5143 56.3500"
       id="path257" />
    <path
       d="M134.5143 22.6000 A2.5000 2.5000 0.0 0 0 132.0143 20.1000"
       id="path259" />
    <path
       d="M77.0143 52.1000 A2.5000 2.5000 0.0 0 0 74.5143 54.6000"
       id="path261" />
    <path
       d="M92.5143 54.6000 A2.5000 2.5000 0.0 0 0 95.0143 57.1000"
       id="path263" />
    <path
       d="M94.5143 32.6000 A2.5000 2.5000 0.0 0 0 97.0143 35.1000"
       id="path265" />
    <path
       d="M90.0143 52.1000 L77.0143 52.1000 "
       id="path267" />
    <path
       d="M134.5143 52.6000 A2.5000 2.5000 0.0 0 0 132.0143 50.1000"
       id="path269" />
    <path
       d="M132.0143 42.1000 L120.2643 42.1000 "
       id="path271" />
    <path
       d="M30.0143 85.1000 A2.5000 2.5000 0.0 0 0 32.5143 82.6000"
       id="path273" />
    <path
       d="M134.5143 22.6000 L134.5143 39.6000 "
       id="path275" />
    <path
       d="M132.0143 72.1000 L115.0143 72.1000 "
       id="path277" />
    <path
       d="M41.0143 80.1000 A2.5000 2.5000 0.0 0 0 43.5143 77.6000"
       id="path279" />
    <path
       d="M37.0143 102.1000 A2.5000 2.5000 0.0 0 0 34.5143 104.6000"
       id="path281" />
    <path
       d="M112.5143 69.6000 A2.5000 2.5000 0.0 0 0 115.0143 72.1000"
       id="path283" />
    <path
       d="M57.0143 82.1000 A2.5000 2.5000 0.0 0 0 54.5143 84.6000"
       id="path285" />
    <path
       d="M74.5143 54.6000 L74.5143 79.6000 "
       id="path287" />
    <path
       d="M46.0143 53.8500 L50.0143 53.8500 "
       id="path289" />
    <path
       d="M52.0143 102.1000 A2.5000 2.5000 0.0 0 0 54.5143 99.6000"
       id="path291" />
    <path
       d="M43.5143 77.6000 L43.5143 56.3500 "
       id="path293" />
    <path
       d="M15.0143 85.1000 A2.5000 2.5000 0.0 0 0 12.5143 87.6000"
       id="path295" />
    <path
       d="M112.5143 59.6000 A2.5000 2.5000 0.0 0 0 110.0143 57.1000"
       id="path297" />
    <path
       d="M94.5143 12.6000 L94.5143 32.6000 "
       id="path299" />
    <path
       d="M110.0143 35.1000 A2.5000 2.5000 0.0 0 0 112.5143 32.6000"
       id="path301" />
    <path
       d="M110.0143 57.1000 L95.0143 57.1000 "
       id="path303" />
    <path
       d="M120.2643 50.1000 L132.0143 50.1000 "
       id="path305" />
    <path
       d="M92.5143 54.6000 A2.5000 2.5000 0.0 0 0 90.0143 52.1000"
       id="path307" />
  </g>
  <path
     style="fill:#000000;stroke-width:0.386176"
     d="m 53.292304,403.71589 c -2.142588,-0.96988 -3.674849,-2.38761 -4.766024,-4.40978 l -0.833529,-1.54471 v -34.56276 c 0,-32.98243 0.03292,-34.62456 0.719894,-35.91438 1.007579,-1.89175 2.492908,-3.40452 4.300395,-4.37985 1.537017,-0.82938 1.699414,-0.83449 32.631882,-1.02661 l 31.087178,-0.19309 1.82125,-1.0706 c 2.95106,-1.73473 4.93683,-5.07245 4.93683,-8.29792 0,-3.32069 2.07399,-6.6628 5.15833,-8.31236 1.54615,-0.82691 2.0721,-0.86205 15.69518,-1.04866 11.11607,-0.15228 14.2995,-0.30785 15.06087,-0.73601 2.24779,-1.26406 3.52019,-2.56019 4.52803,-4.61248 l 1.07152,-2.18195 0.19309,-42.67246 0.19309,-42.67246 1.03945,-1.76811 c 1.15058,-1.95712 3.25719,-3.5408 5.56081,-4.1804 0.88524,-0.24578 5.22747,-0.41998 10.50044,-0.42124 9.61457,-0.002 10.44618,-0.13601 13.01015,-2.09164 0.65406,-0.49888 1.70609,-1.84029 2.33784,-2.98091 l 1.14863,-2.07387 0.19309,-56.99142 0.19309,-56.991415 1.16874,-1.890228 c 0.72409,-1.171094 1.88778,-2.334875 3.05872,-3.058966 l 1.88999,-1.168739 31.11786,-0.193088 c 30.96391,-0.192133 31.12551,-0.197212 32.66257,-1.026618 1.64535,-0.887841 3.11301,-2.312398 4.29449,-4.168393 0.65914,-1.035439 0.74353,-2.260221 0.91888,-13.334822 0.19227,-12.142835 0.19729,-12.202802 1.17962,-14.110231 1.11064,-2.156573 3.53527,-4.204441 5.68477,-4.801407 0.93936,-0.260885 12.97741,-0.400229 34.69754,-0.401635 36.10882,-0.0023 34.96251,-0.06654 37.82737,2.118592 0.68292,0.520887 1.69408,1.854942 2.24703,2.964569 l 1.00536,2.017502 v 39.244048 c 0,44.594401 -0.17291,42.020821 3.03926,45.235601 3.15245,3.155 2.24943,3.07272 32.34258,2.94706 25.97884,-0.10849 26.22712,-0.11689 27.76302,-0.93954 1.96975,-1.05502 3.51631,-2.60158 4.57133,-4.57133 0.8138,-1.51938 0.83386,-1.97373 1.02316,-23.17563 0.2132,-23.877711 0.0758,-22.607705 2.73294,-25.264829 2.72282,-2.722821 -0.0453,-2.52771 37.62247,-2.65182 24.86638,-0.08193 34.41949,0.008 35.60856,0.335292 2.03079,0.558921 4.50795,2.645701 5.62906,4.741919 l 0.85558,1.599754 0.11693,32.824974 c 0.0643,18.05373 0.009,33.73618 -0.124,34.84988 -0.31489,2.64606 -2.10474,5.31198 -4.59623,6.84588 l -1.90003,1.16979 -24.93921,0.19308 c -24.63143,0.19071 -24.95826,0.20338 -26.48388,1.02662 -2.02218,1.09118 -3.43991,2.62343 -4.40979,4.76602 -0.70427,1.55583 -0.78753,2.52923 -0.79509,9.29598 -0.01,8.62482 0.31488,10.19297 2.59603,12.54179 0.76798,0.79077 2.1905,1.80516 3.16112,2.25418 1.72342,0.79728 2.34397,0.82094 26.48006,1.0095 l 24.71527,0.19309 1.7649,1.03757 c 1.99954,1.17552 3.57468,3.25508 4.18669,5.52742 0.58876,2.18617 0.57868,66.60868 -0.0108,68.73192 -0.69775,2.51333 -2.42372,4.64865 -4.65709,5.76158 l -2.01465,1.00394 h -34.30626 c -27.90914,0 -34.53796,-0.0971 -35.54891,-0.52075 -1.83724,-0.7699 -3.67501,-2.45705 -4.63864,-4.25849 -0.84216,-1.57441 -0.85414,-1.84061 -1.04502,-23.21853 -0.19112,-21.40612 -0.20178,-21.64212 -1.04866,-23.22562 -1.08213,-2.02336 -3.52466,-4.12981 -5.46166,-4.71015 -1.078,-0.32297 -9.6502,-0.44818 -30.68492,-0.44818 -19.30849,0 -29.84246,-0.14013 -31.11937,-0.41398 -4.17988,-0.89642 -6.79526,-4.08249 -7.34022,-8.94188 -0.17681,-1.57662 -0.6267,-3.5098 -0.99975,-4.29595 -0.89114,-1.87794 -3.789,-4.39674 -5.62817,-4.89198 -0.94819,-0.25532 -10.97469,-0.35749 -28.45706,-0.28998 l -26.99305,0.10423 -1.89013,1.16874 c -1.17114,0.72415 -2.33472,1.88776 -3.05887,3.05892 l -1.16874,1.89019 -0.19309,49.8472 c -0.19172,49.4935 -0.19879,49.85954 -0.99757,51.585 -0.89322,1.92947 -3.10132,4.06372 -5.04421,4.87551 -1.04018,0.43461 -6.61605,0.53173 -30.72909,0.53521 -16.20208,0.002 -30.11315,0.11247 -30.91349,0.24475 -2.37459,0.39246 -5.32263,2.41126 -6.64067,4.54748 l -1.1724,1.90017 -0.19309,31.11789 -0.19309,31.11789 -0.85557,1.59976 c -1.08213,2.02336 -3.52466,4.12981 -5.46167,4.71014 -1.07901,0.32329 -9.77785,0.44819 -31.21439,0.44819 -33.53789,0 -32.0715,-0.12198 -35.11438,2.9209 -1.70486,1.70485 -2.85142,4.49057 -2.85142,6.92788 0,3.51111 -3.06865,7.59451 -6.47392,8.61476 -1.13375,0.33968 -10.25924,0.45688 -35.084815,0.4506 -32.920037,-0.008 -33.585276,-0.0233 -35.290311,-0.79511 z"
     id="path490"
     transform="scale(0.26458333)" />
  <metadata
     id="metadata508">
    <rdf:RDF>
      <cc:Work
         rdf:about="">
        <dc:title>SVG Image created as lpk20_mx_keypad_R_Mk1_rev0-Edge_Cuts.svg date 2024/12/22 09:22:53 </dc:title>
      </cc:Work>
    </rdf:RDF>
  </metadata>
</svg>
