<?xml version="1.0" encoding="UTF-8" standalone="no"?>
<svg
   version="1.1"
   width="65.5320mm"
   height="76.7588mm"
   viewBox="0.0000 0.0000 65.5320 76.7588"
   id="svg203"
   sodipodi:docname="pico_ctrl_board_primary_Mk2_rev0-Edge_Cuts_fill.svg"
   inkscape:version="1.2.2 (b0a8486541, 2022-12-01)"
   xmlns:inkscape="http://www.inkscape.org/namespaces/inkscape"
   xmlns:sodipodi="http://sodipodi.sourceforge.net/DTD/sodipodi-0.dtd"
   xmlns="http://www.w3.org/2000/svg"
   xmlns:svg="http://www.w3.org/2000/svg"
   xmlns:rdf="http://www.w3.org/1999/02/22-rdf-syntax-ns#"
   xmlns:cc="http://creativecommons.org/ns#"
   xmlns:dc="http://purl.org/dc/elements/1.1/">
  <defs
     id="defs207" />
  <sodipodi:namedview
     id="namedview205"
     pagecolor="#505050"
     bordercolor="#eeeeee"
     borderopacity="1"
     inkscape:showpageshadow="0"
     inkscape:pageopacity="0"
     inkscape:pagecheckerboard="0"
     inkscape:deskcolor="#505050"
     inkscape:document-units="mm"
     showgrid="false"
     inkscape:zoom="3.9536457"
     inkscape:cx="123.93625"
     inkscape:cy="145.05599"
     inkscape:window-width="3396"
     inkscape:window-height="1350"
     inkscape:window-x="20"
     inkscape:window-y="20"
     inkscape:window-maximized="1"
     inkscape:current-layer="svg203" />
  <title
     id="title135">SVG Image created as pico_ctrl_board_primary_Mk2_rev0-Edge_Cuts.svg date 2024/12/19 19:13:06 </title>
  <desc
     id="desc137">Image generated by PCBNEW </desc>
  <g
     style="fill:#000000; fill-opacity:1.0000;stroke:#000000; stroke-opacity:1.0000; stroke-linecap:round; stroke-linejoin:round;"
     transform="translate(0 0) scale(1 1)"
     id="g139" />
  <g
     style="fill:none;  stroke:#000000; stroke-width:0.0500; stroke-opacity:1;  stroke-linecap:round; stroke-linejoin:round;"
     id="g201">
    <path
       d="M58.0179 75.7798 L11.7679 75.7798 "
       id="path141" />
    <path
       d="M56.7679 53.7798 A1.0000 1.0000 0.0 0 0 57.7679 54.7798"
       id="path143" />
    <path
       d="M43.0179 4.2798 L54.2679 4.2798 "
       id="path145" />
    <path
       d="M58.0179 50.7798 L57.7679 50.7798 "
       id="path147" />
    <path
       d="M60.5179 36.8227 L60.5179 48.2798 "
       id="path149" />
    <path
       d="M56.7679 6.7798 A2.5000 2.5000 0.0 0 0 54.2679 4.2798"
       id="path151" />
    <path
       d="M57.7679 54.7798 L58.0179 54.7798 "
       id="path153" />
    <path
       d="M19.0179 5.2798 A1.0000 1.0000 0.0 0 0 18.0179 4.2798"
       id="path155" />
    <path
       d="M58.0179 75.7798 A2.5000 2.5000 0.0 0 0 60.5179 73.2798"
       id="path157" />
    <path
       d="M60.5179 57.2798 L60.5179 73.2798 "
       id="path159" />
    <path
       d="M56.7679 33.3227 A1.0000 1.0000 0.0 0 0 57.7679 34.3227"
       id="path161" />
    <path
       d="M58.0179 34.3227 L57.7679 34.3227 "
       id="path163" />
    <path
       d="M56.7679 51.7798 L56.7679 53.7798 "
       id="path165" />
    <path
       d="M19.0179 5.5298 L19.0179 5.2798 "
       id="path167" />
    <path
       d="M9.2679 73.2798 L9.2679 6.7798 "
       id="path169" />
    <path
       d="M56.7679 6.7798 L56.7679 30.7798 "
       id="path171" />
    <path
       d="M19.0179 5.5298 A1.0000 1.0000 0.0 0 0 20.0179 6.5298"
       id="path173" />
    <path
       d="M60.5179 36.8227 A2.5000 2.5000 0.0 0 0 58.0179 34.3227"
       id="path175" />
    <path
       d="M40.0179 6.5298 A1.0000 1.0000 0.0 0 0 41.0179 5.5298"
       id="path177" />
    <path
       d="M41.0179 5.2798 L41.0179 5.5298 "
       id="path179" />
    <path
       d="M9.2679 73.2798 A2.5000 2.5000 0.0 0 0 11.7679 75.7798"
       id="path181" />
    <path
       d="M43.0179 4.2798 L42.0179 4.2798 "
       id="path183" />
    <path
       d="M11.7679 4.2798 A2.5000 2.5000 0.0 0 0 9.2679 6.7798"
       id="path185" />
    <path
       d="M58.0179 50.7798 A2.5000 2.5000 0.0 0 0 60.5179 48.2798"
       id="path187" />
    <path
       d="M42.0179 4.2798 A1.0000 1.0000 0.0 0 0 41.0179 5.2798"
       id="path189" />
    <path
       d="M40.0179 6.5298 L20.0179 6.5298 "
       id="path191" />
    <path
       d="M11.7679 4.2798 L18.0179 4.2798 "
       id="path193" />
    <path
       d="M60.5179 57.2798 A2.5000 2.5000 0.0 0 0 58.0179 54.7798"
       id="path195" />
    <path
       d="M57.7679 50.7798 A1.0000 1.0000 0.0 0 0 56.7679 51.7798"
       id="path197" />
    <path
       d="M56.7679 33.3227 L56.7679 30.7798 "
       id="path199" />
  </g>
  <path
     style="fill:#000000;stroke-width:0.252931"
     d="m 41.664558,285.69839 c -3.244585,-1.03864 -5.57746,-3.74085 -6.241493,-7.22966 -0.212599,-1.11699 -0.268004,-34.40588 -0.213209,-128.10118 l 0.07403,-126.592025 0.610194,-1.517587 c 0.834659,-2.075846 3.131376,-4.372563 5.207222,-5.207222 l 1.517587,-0.610194 h 13.289922 c 12.271041,0 13.34213,0.03421 13.97092,0.446153 1.070918,0.701604 1.536498,1.637968 1.734136,3.487668 0.218209,2.042186 0.681809,3.029476 1.795568,3.823871 l 0.825843,0.589035 38.908152,0.06562 c 43.26711,0.07297 39.92515,0.203806 41.31431,-1.617485 0.49678,-0.651305 0.67754,-1.245215 0.77825,-2.55695 0.15569,-2.027933 0.52753,-2.854884 1.64072,-3.648871 l 0.82584,-0.589036 24.00273,-0.06825 c 26.46758,-0.07526 25.77953,-0.111516 28.27537,1.490063 1.48311,0.951708 2.52303,2.114524 3.43045,3.835844 l 0.69509,1.318551 0.12646,51.977344 c 0.12508,51.406361 0.13203,51.986771 0.63233,52.836161 0.86093,1.46163 1.61148,1.8398 4.10878,2.07024 3.1977,0.29506 4.93028,1.00888 6.65011,2.73979 0.77229,0.77727 1.68368,1.98232 2.02531,2.67788 l 0.62115,1.26465 v 24.16019 24.1602 l -0.83265,1.69139 c -1.52133,3.09034 -4.09271,4.69432 -8.0626,5.02927 -2.64795,0.22342 -2.99272,0.35807 -4.07608,1.59195 -0.97503,1.11049 -1.14409,2.32532 -1.02713,7.3808 0.0746,3.22461 0.16147,3.90016 0.5989,4.657 0.7126,1.23296 2.35959,2.02345 4.21586,2.02345 0.81336,0 2.21632,0.24567 3.17127,0.55533 1.43932,0.46672 1.97864,0.81988 3.37978,2.21315 1.24614,1.23913 1.80507,2.02751 2.21315,3.12165 l 0.54597,1.46385 v 32.10327 c 0,31.91917 -0.003,32.11135 -0.52731,33.51264 -0.74023,1.97843 -2.80027,4.14278 -4.83938,5.08442 l -1.58892,0.73373 -89.15822,0.0504 c -86.09543,0.0486 -89.20838,0.0343 -90.618416,-0.41706 z"
     id="path382"
     transform="scale(0.26458333)" />
  <metadata
     id="metadata400">
    <rdf:RDF>
      <cc:Work
         rdf:about="">
        <dc:title>SVG Image created as pico_ctrl_board_primary_Mk2_rev0-Edge_Cuts.svg date 2024/12/19 19:13:06 </dc:title>
      </cc:Work>
    </rdf:RDF>
  </metadata>
</svg>
