<?xml version="1.0" standalone="no"?>
 <!DOCTYPE svg PUBLIC "-//W3C//DTD SVG 1.1//EN" 
 "http://www.w3.org/Graphics/SVG/1.1/DTD/svg11.dtd"> 
<svg
  xmlns:svg="http://www.w3.org/2000/svg"
  xmlns="http://www.w3.org/2000/svg"
  xmlns:xlink="http://www.w3.org/1999/xlink"
  version="1.1"
  width="65.5320mm" height="76.7588mm" viewBox="0.0000 0.0000 65.5320 76.7588">
<title>SVG Image created as pico_ctrl_board_primary_Mk2_rev0-Edge_Cuts.svg date 2024/12/19 19:13:06 </title>
  <desc>Image generated by PCBNEW </desc>
<g style="fill:#000000; fill-opacity:1.0000;stroke:#000000; stroke-opacity:1.0000;
stroke-linecap:round; stroke-linejoin:round;"
 transform="translate(0 0) scale(1 1)">
</g>
<g style="fill:none; 
stroke:#000000; stroke-width:0.0500; stroke-opacity:1; 
stroke-linecap:round; stroke-linejoin:round;">
<path d="M58.0179 75.7798
L11.7679 75.7798
" />
<path d="M56.7679 53.7798 A1.0000 1.0000 0.0 0 0 57.7679 54.7798" />
<path d="M43.0179 4.2798
L54.2679 4.2798
" />
<path d="M58.0179 50.7798
L57.7679 50.7798
" />
<path d="M60.5179 36.8227
L60.5179 48.2798
" />
<path d="M56.7679 6.7798 A2.5000 2.5000 0.0 0 0 54.2679 4.2798" />
<path d="M57.7679 54.7798
L58.0179 54.7798
" />
<path d="M19.0179 5.2798 A1.0000 1.0000 0.0 0 0 18.0179 4.2798" />
<path d="M58.0179 75.7798 A2.5000 2.5000 0.0 0 0 60.5179 73.2798" />
<path d="M60.5179 57.2798
L60.5179 73.2798
" />
<path d="M56.7679 33.3227 A1.0000 1.0000 0.0 0 0 57.7679 34.3227" />
<path d="M58.0179 34.3227
L57.7679 34.3227
" />
<path d="M56.7679 51.7798
L56.7679 53.7798
" />
<path d="M19.0179 5.5298
L19.0179 5.2798
" />
<path d="M9.2679 73.2798
L9.2679 6.7798
" />
<path d="M56.7679 6.7798
L56.7679 30.7798
" />
<path d="M19.0179 5.5298 A1.0000 1.0000 0.0 0 0 20.0179 6.5298" />
<path d="M60.5179 36.8227 A2.5000 2.5000 0.0 0 0 58.0179 34.3227" />
<path d="M40.0179 6.5298 A1.0000 1.0000 0.0 0 0 41.0179 5.5298" />
<path d="M41.0179 5.2798
L41.0179 5.5298
" />
<path d="M9.2679 73.2798 A2.5000 2.5000 0.0 0 0 11.7679 75.7798" />
<path d="M43.0179 4.2798
L42.0179 4.2798
" />
<path d="M11.7679 4.2798 A2.5000 2.5000 0.0 0 0 9.2679 6.7798" />
<path d="M58.0179 50.7798 A2.5000 2.5000 0.0 0 0 60.5179 48.2798" />
<path d="M42.0179 4.2798 A1.0000 1.0000 0.0 0 0 41.0179 5.2798" />
<path d="M40.0179 6.5298
L20.0179 6.5298
" />
<path d="M11.7679 4.2798
L18.0179 4.2798
" />
<path d="M60.5179 57.2798 A2.5000 2.5000 0.0 0 0 58.0179 54.7798" />
<path d="M57.7679 50.7798 A1.0000 1.0000 0.0 0 0 56.7679 51.7798" />
<path d="M56.7679 33.3227
L56.7679 30.7798
" />
</g> 
</svg>
