<?xml version="1.0" standalone="no"?>
 <!DOCTYPE svg PUBLIC "-//W3C//DTD SVG 1.1//EN" 
 "http://www.w3.org/Graphics/SVG/1.1/DTD/svg11.dtd"> 
<svg
  xmlns:svg="http://www.w3.org/2000/svg"
  xmlns="http://www.w3.org/2000/svg"
  xmlns:xlink="http://www.w3.org/1999/xlink"
  version="1.1"
  width="72.6186mm" height="39.9542mm" viewBox="0.0000 0.0000 72.6186 39.9542">
<title>SVG Image created as usbc_switch_board_Mk1_rev0-Edge_Cuts.svg date 2024/12/21 12:05:25 </title>
  <desc>Image generated by PCBNEW </desc>
<g style="fill:#000000; fill-opacity:1.0000;stroke:#000000; stroke-opacity:1.0000;
stroke-linecap:round; stroke-linejoin:round;"
 transform="translate(0 0) scale(1 1)">
</g>
<g style="fill:none; 
stroke:#000000; stroke-width:0.0500; stroke-opacity:1; 
stroke-linecap:round; stroke-linejoin:round;">
<path d="M16.3679 3.1532
L28.4679 3.1532
" />
<path d="M25.4679 35.9532
L11.5679 35.9532
" />
<path d="M58.9679 5.6532 A2.5000 2.5000 0.0 0 0 56.4679 3.1532" />
<path d="M60.9679 32.0532 A2.5000 2.5000 0.0 0 0 63.4679 29.5532" />
<path d="M9.0679 33.4532
L9.0679 9.4532
" />
<path d="M31.9679 6.9532
L40.8679 6.9532
" />
<path d="M44.3679 3.1532 A2.5000 2.5000 0.0 0 0 41.8679 5.6532" />
<path d="M9.0679 33.4532 A2.5000 2.5000 0.0 0 0 11.5679 35.9532" />
<path d="M30.9679 5.9532
L30.9679 5.6532
" />
<path d="M58.9679 5.9532 A1.0000 1.0000 0.0 0 0 59.9679 6.9532" />
<path d="M13.8679 5.9532
L13.8679 5.6532
" />
<path d="M44.3679 3.1532
L56.4679 3.1532
" />
<path d="M59.9679 6.9532
L60.9679 6.9532
" />
<path d="M11.5679 6.9532
L12.8679 6.9532
" />
<path d="M16.3679 3.1532 A2.5000 2.5000 0.0 0 0 13.8679 5.6532" />
<path d="M28.9679 32.0532 A1.0000 1.0000 0.0 0 0 27.9679 33.0532" />
<path d="M30.9679 5.6532 A2.5000 2.5000 0.0 0 0 28.4679 3.1532" />
<path d="M40.8679 6.9532 A1.0000 1.0000 0.0 0 0 41.8679 5.9532" />
<path d="M58.9679 5.6532
L58.9679 5.9532
" />
<path d="M25.4679 35.9532 A2.5000 2.5000 0.0 0 0 27.9679 33.4532" />
<path d="M41.8679 5.9532
L41.8679 5.6532
" />
<path d="M30.9679 5.9532 A1.0000 1.0000 0.0 0 0 31.9679 6.9532" />
<path d="M11.5679 6.9532 A2.5000 2.5000 0.0 0 0 9.0679 9.4532" />
<path d="M63.4679 9.4532 A2.5000 2.5000 0.0 0 0 60.9679 6.9532" />
<path d="M12.8679 6.9532 A1.0000 1.0000 0.0 0 0 13.8679 5.9532" />
<path d="M27.9679 33.0532
L27.9679 33.4532
" />
<path d="M60.9679 32.0532
L28.9679 32.0532
" />
<path d="M63.4679 9.4532
L63.4679 29.5532
" />
</g> 
</svg>
