<?xml version="1.0" encoding="UTF-8" standalone="no"?>
<svg
   version="1.1"
   width="72.6186mm"
   height="39.9542mm"
   viewBox="0.0000 0.0000 72.6186 39.9542"
   id="svg627"
   sodipodi:docname="usbc_switch_board_Mk1_rev0-Edge_Cuts_fill.svg"
   inkscape:version="1.2.2 (b0a8486541, 2022-12-01)"
   xmlns:inkscape="http://www.inkscape.org/namespaces/inkscape"
   xmlns:sodipodi="http://sodipodi.sourceforge.net/DTD/sodipodi-0.dtd"
   xmlns="http://www.w3.org/2000/svg"
   xmlns:svg="http://www.w3.org/2000/svg"
   xmlns:rdf="http://www.w3.org/1999/02/22-rdf-syntax-ns#"
   xmlns:cc="http://creativecommons.org/ns#"
   xmlns:dc="http://purl.org/dc/elements/1.1/">
  <defs
     id="defs631" />
  <sodipodi:namedview
     id="namedview629"
     pagecolor="#505050"
     bordercolor="#eeeeee"
     borderopacity="1"
     inkscape:showpageshadow="0"
     inkscape:pageopacity="0"
     inkscape:pagecheckerboard="0"
     inkscape:deskcolor="#505050"
     inkscape:document-units="mm"
     showgrid="false"
     inkscape:zoom="4.7620089"
     inkscape:cx="137.337"
     inkscape:cy="75.703344"
     inkscape:window-width="3396"
     inkscape:window-height="1350"
     inkscape:window-x="20"
     inkscape:window-y="20"
     inkscape:window-maximized="1"
     inkscape:current-layer="svg627" />
  <title
     id="title563">SVG Image created as usbc_switch_board_Mk1_rev0-Edge_Cuts.svg date 2024/12/20 09:37:28 </title>
  <desc
     id="desc565">Image generated by PCBNEW </desc>
  <g
     style="fill:#000000; fill-opacity:1.0000;stroke:#000000; stroke-opacity:1.0000; stroke-linecap:round; stroke-linejoin:round;"
     transform="translate(0 0) scale(1 1)"
     id="g567" />
  <g
     style="fill:none;  stroke:#000000; stroke-width:0.0500; stroke-opacity:1;  stroke-linecap:round; stroke-linejoin:round;"
     id="g625">
    <path
       d="M16.3679 3.1532 L28.4679 3.1532 "
       id="path569" />
    <path
       d="M25.4679 35.9532 L11.5679 35.9532 "
       id="path571" />
    <path
       d="M58.9679 5.6532 A2.5000 2.5000 0.0 0 0 56.4679 3.1532"
       id="path573" />
    <path
       d="M60.9679 32.0532 A2.5000 2.5000 0.0 0 0 63.4679 29.5532"
       id="path575" />
    <path
       d="M9.0679 33.4532 L9.0679 9.4532 "
       id="path577" />
    <path
       d="M31.9679 6.9532 L40.8679 6.9532 "
       id="path579" />
    <path
       d="M44.3679 3.1532 A2.5000 2.5000 0.0 0 0 41.8679 5.6532"
       id="path581" />
    <path
       d="M9.0679 33.4532 A2.5000 2.5000 0.0 0 0 11.5679 35.9532"
       id="path583" />
    <path
       d="M30.9679 5.9532 L30.9679 5.6532 "
       id="path585" />
    <path
       d="M58.9679 5.9532 A1.0000 1.0000 0.0 0 0 59.9679 6.9532"
       id="path587" />
    <path
       d="M13.8679 5.9532 L13.8679 5.6532 "
       id="path589" />
    <path
       d="M44.3679 3.1532 L56.4679 3.1532 "
       id="path591" />
    <path
       d="M59.9679 6.9532 L60.9679 6.9532 "
       id="path593" />
    <path
       d="M11.5679 6.9532 L12.8679 6.9532 "
       id="path595" />
    <path
       d="M16.3679 3.1532 A2.5000 2.5000 0.0 0 0 13.8679 5.6532"
       id="path597" />
    <path
       d="M28.9679 32.0532 A1.0000 1.0000 0.0 0 0 27.9679 33.0532"
       id="path599" />
    <path
       d="M30.9679 5.6532 A2.5000 2.5000 0.0 0 0 28.4679 3.1532"
       id="path601" />
    <path
       d="M40.8679 6.9532 A1.0000 1.0000 0.0 0 0 41.8679 5.9532"
       id="path603" />
    <path
       d="M58.9679 5.6532 L58.9679 5.9532 "
       id="path605" />
    <path
       d="M25.4679 35.9532 A2.5000 2.5000 0.0 0 0 27.9679 33.4532"
       id="path607" />
    <path
       d="M41.8679 5.9532 L41.8679 5.6532 "
       id="path609" />
    <path
       d="M30.9679 5.9532 A1.0000 1.0000 0.0 0 0 31.9679 6.9532"
       id="path611" />
    <path
       d="M11.5679 6.9532 A2.5000 2.5000 0.0 0 0 9.0679 9.4532"
       id="path613" />
    <path
       d="M63.4679 9.4532 A2.5000 2.5000 0.0 0 0 60.9679 6.9532"
       id="path615" />
    <path
       d="M12.8679 6.9532 A1.0000 1.0000 0.0 0 0 13.8679 5.9532"
       id="path617" />
    <path
       d="M27.9679 33.0532 L27.9679 33.4532 "
       id="path619" />
    <path
       d="M60.9679 32.0532 L28.9679 32.0532 "
       id="path621" />
    <path
       d="M63.4679 9.4532 L63.4679 29.5532 "
       id="path623" />
  </g>
  <path
     style="fill:#000000;stroke-width:0.209995"
     d="m 42.149237,135.54369 c -3.556421,-0.59793 -6.693533,-3.66262 -7.471835,-7.29933 -0.173445,-0.81045 -0.238155,-13.65098 -0.238155,-47.257347 0,-50.328953 -0.07485,-47.165749 1.174466,-49.631165 0.780794,-1.540823 2.454088,-3.125613 4.186196,-3.964778 l 1.464188,-0.709364 4.199908,-0.116645 c 3.964198,-0.110099 4.251153,-0.145674 5.112981,-0.633874 1.455493,-0.824495 1.896347,-1.798683 2.110116,-4.662885 0.154928,-2.075817 0.275395,-2.610136 0.868815,-3.853535 1.256157,-2.63204 3.793988,-4.576501 6.689837,-5.125688 1.54778,-0.29353 47.427006,-0.29353 48.974786,0 2.8942,0.548874 5.44349,2.514204 6.71379,5.175879 0.5776,1.210261 0.69409,1.738791 0.83467,3.787179 0.19456,2.834949 0.65099,3.843375 2.12031,4.684553 l 0.91307,0.522731 h 17.84961 17.84961 l 0.96195,-0.565516 c 1.36869,-0.804642 1.79201,-1.787733 2.04585,-4.751194 0.17319,-2.022023 0.30667,-2.586205 0.89427,-3.779918 1.28987,-2.620406 3.84364,-4.547899 6.73334,-5.082089 0.77115,-0.142556 9.36002,-0.196641 25.19168,-0.158636 l 24.0216,0.05767 1.13612,0.4651 c 2.64421,1.08247 4.60744,2.985023 5.51939,5.348794 0.27325,0.70828 0.48713,1.93154 0.58546,3.348512 0.19042,2.743827 0.67078,3.789878 2.10325,4.580073 0.86372,0.476456 1.22759,0.527603 4.53209,0.637047 l 3.59298,0.118998 1.5708,0.776333 c 1.94703,0.962275 3.50504,2.547788 4.43709,4.515419 l 0.67229,1.41926 v 40.319118 40.319118 l -0.67229,1.41926 c -0.93376,1.97124 -2.48957,3.55289 -4.44599,4.51983 l -1.57971,0.78076 -62.16957,0.105 -62.16957,0.10499 -0.91308,0.52274 c -1.48531,0.85033 -1.93125,1.8507 -2.13107,4.78057 -0.0925,1.35659 -0.31154,2.85734 -0.48671,3.33501 -1.1231,3.06255 -4.03251,5.43875 -7.283906,5.94899 -1.639249,0.25724 -53.968245,0.25633 -55.498627,-0.001 z"
     id="path633"
     transform="scale(0.26458333)" />
  <metadata
     id="metadata651">
    <rdf:RDF>
      <cc:Work
         rdf:about="">
        <dc:title>SVG Image created as usbc_switch_board_Mk1_rev0-Edge_Cuts.svg date 2024/12/20 09:37:28 </dc:title>
      </cc:Work>
    </rdf:RDF>
  </metadata>
</svg>
