<?xml version="1.0" standalone="no"?>
 <!DOCTYPE svg PUBLIC "-//W3C//DTD SVG 1.1//EN" 
 "http://www.w3.org/Graphics/SVG/1.1/DTD/svg11.dtd"> 
<svg
  xmlns:svg="http://www.w3.org/2000/svg"
  xmlns="http://www.w3.org/2000/svg"
  xmlns:xlink="http://www.w3.org/1999/xlink"
  version="1.1"
  width="55.5498mm" height="51.5874mm" viewBox="0.0000 0.0000 55.5498 51.5874">
<title>SVG Image created as io_ctrl_board_secondary_Mk1_rev0-User_1.svg date 2024/03/23 06:37:46 </title>
  <desc>Image generated by PCBNEW </desc>
<g style="fill:#000000; fill-opacity:1.0000;stroke:#000000; stroke-opacity:1.0000;
stroke-linecap:round; stroke-linejoin:round;"
 transform="translate(0 0) scale(1 1)">
</g>
<g style="fill:#000000; fill-opacity:0.0; 
stroke:#000000; stroke-width:0.0000; stroke-opacity:1; 
stroke-linecap:round; stroke-linejoin:round;">
</g>
<g style="fill:#000000; fill-opacity:0.0; 
stroke:#000000; stroke-width:0.1500; stroke-opacity:1; 
stroke-linecap:round; stroke-linejoin:round;">
<circle cx="12.7511" cy="47.5500" r="3.4000" /> 
<circle cx="42.8011" cy="3.5500" r="3.4000" /> 
<circle cx="42.8011" cy="47.5000" r="3.4500" /> 
<circle cx="12.8011" cy="3.5500" r="3.4500" /> 
<g >
</g>
<g >
</g>
<g >
</g>
<g >
</g>
<g >
</g>
<g >
</g>
<g >
</g>
<g >
</g>
<g >
</g>
<g >
</g>
<g >
</g>
<g >
</g>
<g >
</g>
<g >
</g>
<g >
</g>
<g >
</g>
<g >
</g>
<g >
</g>
<g >
</g>
<g >
</g>
<g >
</g>
<g >
</g>
<g >
</g>
</g>
<g style="fill:#000000; fill-opacity:0.0; 
stroke:#000000; stroke-width:0.1500; stroke-opacity:1; 
stroke-linecap:round; stroke-linejoin:round;">
</g>
<g style="fill:#000000; fill-opacity:0.0; 
stroke:#000000; stroke-width:0.1000; stroke-opacity:1; 
stroke-linecap:round; stroke-linejoin:round;">
<path d="M9.3011 48.5500 A2.5000 2.5000 0.0 0 0 11.8011 51.0500" />
<path d="M46.3011 2.5500
L46.3011 48.5500
" />
<path d="M46.3011 2.5500 A2.5000 2.5000 0.0 0 0 43.8011 0.0500" />
<path d="M9.3011 48.5500
L9.3011 2.5500
" />
<path d="M11.8011 0.0500
L43.8011 0.0500
" />
<path d="M43.8011 51.0500
L11.8011 51.0500
" />
<path d="M11.8011 0.0500 A2.5000 2.5000 0.0 0 0 9.3011 2.5500" />
<path d="M43.8011 51.0500 A2.5000 2.5000 0.0 0 0 46.3011 48.5500" />
<g >
</g>
<g >
</g>
<g >
</g>
<g >
</g>
<g >
</g>
<g >
</g>
<g >
</g>
<g >
</g>
<g >
</g>
<g >
</g>
<g >
</g>
<g >
</g>
<g >
</g>
<g >
</g>
<g >
</g>
<g >
</g>
<g >
</g>
<g >
</g>
<g >
</g>
<g >
</g>
<g >
</g>
<g >
</g>
<g >
</g>
</g> 
</svg>
