<?xml version="1.0" encoding="UTF-8" standalone="no"?>
<svg
   xmlns:dc="http://purl.org/dc/elements/1.1/"
   xmlns:cc="http://creativecommons.org/ns#"
   xmlns:rdf="http://www.w3.org/1999/02/22-rdf-syntax-ns#"
   xmlns:svg="http://www.w3.org/2000/svg"
   xmlns="http://www.w3.org/2000/svg"
   xmlns:sodipodi="http://sodipodi.sourceforge.net/DTD/sodipodi-0.dtd"
   xmlns:inkscape="http://www.inkscape.org/namespaces/inkscape"
   version="1.1"
   width="55.5498mm"
   height="51.5874mm"
   viewBox="0.0000 0.0000 55.5498 51.5874"
   id="svg905"
   sodipodi:docname="io_ctrl_board_secondary_Mk1_rev0-Edge_Cuts.svg"
   inkscape:version="1.0.2 (e86c870879, 2021-01-15)">
  <metadata
     id="metadata911">
    <rdf:RDF>
      <cc:Work
         rdf:about="">
        <dc:format>image/svg+xml</dc:format>
        <dc:type
           rdf:resource="http://purl.org/dc/dcmitype/StillImage" />
      </cc:Work>
    </rdf:RDF>
  </metadata>
  <defs
     id="defs909" />
  <sodipodi:namedview
     pagecolor="#ffffff"
     bordercolor="#666666"
     borderopacity="1"
     objecttolerance="10"
     gridtolerance="10"
     guidetolerance="10"
     inkscape:pageopacity="0"
     inkscape:pageshadow="2"
     inkscape:window-width="1914"
     inkscape:window-height="1221"
     id="namedview907"
     showgrid="false"
     inkscape:zoom="5.2416709"
     inkscape:cx="104.976"
     inkscape:cy="96.629492"
     inkscape:window-x="0"
     inkscape:window-y="26"
     inkscape:window-maximized="0"
     inkscape:current-layer="svg905" />
  <title
     id="title833">SVG Image created as io_ctrl_board_secondary_Mk1_rev0-Edge_Cuts.svg date 2024/03/23 06:37:46 </title>
  <desc
     id="desc835">Image generated by PCBNEW </desc>
  <g
     style="fill:#000000; fill-opacity:1.0000;stroke:#000000; stroke-opacity:1.0000; stroke-linecap:round; stroke-linejoin:round;"
     transform="translate(0 0) scale(1 1)"
     id="g837" />
  <g
     style="fill:#000000; fill-opacity:0.0;  stroke:#000000; stroke-width:0.0000; stroke-opacity:1;  stroke-linecap:round; stroke-linejoin:round;"
     id="g839" />
  <g
     style="fill:#000000; fill-opacity:0.0;  stroke:#000000; stroke-width:0.1000; stroke-opacity:1;  stroke-linecap:round; stroke-linejoin:round;"
     id="g903">
    <path
       d="M9.3011 48.5500 A2.5000 2.5000 0.0 0 0 11.8011 51.0500"
       id="path841" />
    <path
       d="M46.3011 2.5500 L46.3011 48.5500 "
       id="path843" />
    <path
       d="M46.3011 2.5500 A2.5000 2.5000 0.0 0 0 43.8011 0.0500"
       id="path845" />
    <path
       d="M9.3011 48.5500 L9.3011 2.5500 "
       id="path847" />
    <path
       d="M11.8011 0.0500 L43.8011 0.0500 "
       id="path849" />
    <path
       d="M43.8011 51.0500 L11.8011 51.0500 "
       id="path851" />
    <path
       d="M11.8011 0.0500 A2.5000 2.5000 0.0 0 0 9.3011 2.5500"
       id="path853" />
    <path
       d="M43.8011 51.0500 A2.5000 2.5000 0.0 0 0 46.3011 48.5500"
       id="path855" />
    <g
       id="g857" />
    <g
       id="g859" />
    <g
       id="g861" />
    <g
       id="g863" />
    <g
       id="g865" />
    <g
       id="g867" />
    <g
       id="g869" />
    <g
       id="g871" />
    <g
       id="g873" />
    <g
       id="g875" />
    <g
       id="g877" />
    <g
       id="g879" />
    <g
       id="g881" />
    <g
       id="g883" />
    <g
       id="g885" />
    <g
       id="g887" />
    <g
       id="g889" />
    <g
       id="g891" />
    <g
       id="g893" />
    <g
       id="g895" />
    <g
       id="g897" />
    <g
       id="g899" />
    <g
       id="g901" />
  </g>
  <path
     style="fill:#000000;fill-opacity:0.97278;stroke:#393939;stroke-width:0.360527;stroke-linecap:round;stroke-linejoin:round"
     d="m 42.782093,192.47841 c -1.332014,-0.25822 -3.445369,-1.39417 -4.473792,-2.40472 -1.239879,-1.21833 -1.939848,-2.35232 -2.44987,-3.96891 l -0.421324,-1.33545 V 96.629492 c 0,-85.489695 0.01072,-88.1787179 0.356539,-89.4330967 0.82101,-2.9780246 3.262109,-5.4383783 6.320721,-6.37057671 1.098842,-0.33490288 3.619595,-0.34887144 62.957023,-0.34887144 59.33743,0 61.85818,0.0139686 62.95702,0.34887144 3.05862,0.93219841 5.49972,3.39255211 6.32073,6.37057671 0.34582,1.2543882 0.35653,3.9456327 0.35653,89.5284867 V 184.9601 l -0.43582,1.26078 c -0.55061,1.5928 -1.30737,2.78904 -2.46803,3.90126 -1.07425,1.02943 -3.16489,2.10595 -4.61025,2.37396 -1.29598,0.2403 -123.167996,0.22298 -124.409477,-0.0177 z"
     id="path913"
     transform="scale(0.26458334)" />
</svg>
