<?xml version="1.0" standalone="no"?>
 <!DOCTYPE svg PUBLIC "-//W3C//DTD SVG 1.1//EN" 
 "http://www.w3.org/Graphics/SVG/1.1/DTD/svg11.dtd"> 
<svg
  xmlns:svg="http://www.w3.org/2000/svg"
  xmlns="http://www.w3.org/2000/svg"
  xmlns:xlink="http://www.w3.org/1999/xlink"
  version="1.1"
  width="60.6298mm" height="67.9704mm" viewBox="0.0000 0.0000 60.6298 67.9704">
<title>SVG Image created as pico_ctrl_board_primary_Mk1_rev0-User_1.svg date 2024/03/16 08:03:12 </title>
  <desc>Image generated by PCBNEW </desc>
<g style="fill:#000000; fill-opacity:1.0000;stroke:#000000; stroke-opacity:1.0000;
stroke-linecap:round; stroke-linejoin:round;"
 transform="translate(0 0) scale(1 1)">
</g>
<g style="fill:#000000; fill-opacity:0.0; 
stroke:#000000; stroke-width:0.0000; stroke-opacity:1; 
stroke-linecap:round; stroke-linejoin:round;">
</g>
<g style="fill:#000000; fill-opacity:0.0; 
stroke:#000000; stroke-width:0.1500; stroke-opacity:1; 
stroke-linecap:round; stroke-linejoin:round;">
<circle cx="12.9179" cy="3.4500" r="3.3500" /> 
<circle cx="47.7679" cy="58.2500" r="3.4500" /> 
<circle cx="12.7679" cy="58.2500" r="3.4500" /> 
<circle cx="47.8679" cy="3.4500" r="3.3000" /> 
<g >
</g>
<g >
</g>
<g >
</g>
<g >
</g>
<g >
</g>
<g >
</g>
<g >
</g>
<g >
</g>
<g >
</g>
<g >
</g>
<g >
</g>
<g >
</g>
<g >
</g>
<g >
</g>
<g >
</g>
<g >
</g>
<g >
</g>
<g >
</g>
<g >
</g>
<g >
</g>
</g>
<g style="fill:#000000; fill-opacity:0.0; 
stroke:#000000; stroke-width:0.1500; stroke-opacity:1; 
stroke-linecap:round; stroke-linejoin:round;">
</g>
<g style="fill:#000000; fill-opacity:0.0; 
stroke:#000000; stroke-width:0.1000; stroke-opacity:1; 
stroke-linecap:round; stroke-linejoin:round;">
<path d="M40.7679 1.1500
L41.2821 0.6358
" />
<path d="M51.2679 2.5500 A2.5000 2.5000 0.0 0 0 48.7679 0.0500" />
<path d="M11.7679 0.0500
L17.8394 0.0500
" />
<path d="M19.7679 1.1500
L40.7679 1.1500
" />
<path d="M48.7679 61.7500
L11.7679 61.7500
" />
<path d="M42.6963 0.0500 A2.0001 2.0001 0.0 0 0 41.2821 0.6358" />
<path d="M19.7679 1.1500
L19.2536 0.6358
" />
<path d="M19.2536 0.6358 A1.9999 1.9999 0.0 0 0 17.8394 0.0500" />
<path d="M9.2679 59.2500 A2.5000 2.5000 0.0 0 0 11.7679 61.7500" />
<path d="M9.2679 59.2500
L9.2679 2.5500
" />
<path d="M11.7679 0.0500 A2.5000 2.5000 0.0 0 0 9.2679 2.5500" />
<path d="M42.6963 0.0500
L48.7679 0.0500
" />
<path d="M51.2679 2.5500
L51.2679 59.2500
" />
<path d="M48.7679 61.7500 A2.5000 2.5000 0.0 0 0 51.2679 59.2500" />
<g >
</g>
<g >
</g>
<g >
</g>
<g >
</g>
<g >
</g>
<g >
</g>
<g >
</g>
<g >
</g>
<g >
</g>
<g >
</g>
<g >
</g>
<g >
</g>
<g >
</g>
<g >
</g>
<g >
</g>
<g >
</g>
<g >
</g>
<g >
</g>
<g >
</g>
<g >
</g>
</g> 
</svg>
