<?xml version="1.0" encoding="UTF-8" standalone="no"?>
<svg
   xmlns:dc="http://purl.org/dc/elements/1.1/"
   xmlns:cc="http://creativecommons.org/ns#"
   xmlns:rdf="http://www.w3.org/1999/02/22-rdf-syntax-ns#"
   xmlns:svg="http://www.w3.org/2000/svg"
   xmlns="http://www.w3.org/2000/svg"
   xmlns:sodipodi="http://sodipodi.sourceforge.net/DTD/sodipodi-0.dtd"
   xmlns:inkscape="http://www.inkscape.org/namespaces/inkscape"
   version="1.1"
   width="60.6298mm"
   height="67.9704mm"
   viewBox="0.0000 0.0000 60.6298 67.9704"
   id="svg3038"
   sodipodi:docname="pico_ctrl_board_primary_Mk1_rev0-Edge_Cuts.svg"
   inkscape:version="1.0.2 (e86c870879, 2021-01-15)">
  <metadata
     id="metadata3044">
    <rdf:RDF>
      <cc:Work
         rdf:about="">
        <dc:format>image/svg+xml</dc:format>
        <dc:type
           rdf:resource="http://purl.org/dc/dcmitype/StillImage" />
      </cc:Work>
    </rdf:RDF>
  </metadata>
  <defs
     id="defs3042" />
  <sodipodi:namedview
     pagecolor="#ffffff"
     bordercolor="#666666"
     borderopacity="1"
     objecttolerance="10"
     gridtolerance="10"
     guidetolerance="10"
     inkscape:pageopacity="0"
     inkscape:pageshadow="2"
     inkscape:window-width="1916"
     inkscape:window-height="1188"
     id="namedview3040"
     showgrid="false"
     inkscape:zoom="3.2659132"
     inkscape:cx="58.695761"
     inkscape:cy="127.83561"
     inkscape:window-x="0"
     inkscape:window-y="66"
     inkscape:window-maximized="0"
     inkscape:current-layer="svg3038" />
  <title
     id="title2960">SVG Image created as pico_ctrl_board_primary_Mk1_rev0-Edge_Cuts.svg date 2024/03/14 18:53:57 </title>
  <desc
     id="desc2962">Image generated by PCBNEW </desc>
  <g
     style="fill:#000000; fill-opacity:1.0000;stroke:#000000; stroke-opacity:1.0000; stroke-linecap:round; stroke-linejoin:round;"
     transform="translate(0 0) scale(1 1)"
     id="g2964" />
  <g
     style="fill:#000000; fill-opacity:0.0;  stroke:#000000; stroke-width:0.0000; stroke-opacity:1;  stroke-linecap:round; stroke-linejoin:round;"
     id="g2966" />
  <g
     style="fill:#000000; fill-opacity:0.0;  stroke:#000000; stroke-width:0.1000; stroke-opacity:1;  stroke-linecap:round; stroke-linejoin:round;"
     id="g3036">
    <path
       d="M40.7679 1.1500 L41.2821 0.6358 "
       id="path2968" />
    <path
       d="M51.2679 2.5500 A2.5000 2.5000 0.0 0 0 48.7679 0.0500"
       id="path2970" />
    <path
       d="M11.7679 0.0500 L17.8394 0.0500 "
       id="path2972" />
    <path
       d="M19.7679 1.1500 L40.7679 1.1500 "
       id="path2974" />
    <path
       d="M48.7679 61.7500 L11.7679 61.7500 "
       id="path2976" />
    <path
       d="M42.6963 0.0500 A2.0001 2.0001 0.0 0 0 41.2821 0.6358"
       id="path2978" />
    <path
       d="M19.7679 1.1500 L19.2536 0.6358 "
       id="path2980" />
    <path
       d="M19.2536 0.6358 A1.9999 1.9999 0.0 0 0 17.8394 0.0500"
       id="path2982" />
    <path
       d="M9.2679 59.2500 A2.5000 2.5000 0.0 0 0 11.7679 61.7500"
       id="path2984" />
    <path
       d="M9.2679 59.2500 L9.2679 2.5500 "
       id="path2986" />
    <path
       d="M11.7679 0.0500 A2.5000 2.5000 0.0 0 0 9.2679 2.5500"
       id="path2988" />
    <path
       d="M42.6963 0.0500 L48.7679 0.0500 "
       id="path2990" />
    <path
       d="M51.2679 2.5500 L51.2679 59.2500 "
       id="path2992" />
    <path
       d="M48.7679 61.7500 A2.5000 2.5000 0.0 0 0 51.2679 59.2500"
       id="path2994" />
    <g
       id="g2996" />
    <g
       id="g2998" />
    <g
       id="g3000" />
    <g
       id="g3002" />
    <g
       id="g3004" />
    <g
       id="g3006" />
    <g
       id="g3008" />
    <g
       id="g3010" />
    <g
       id="g3012" />
    <g
       id="g3014" />
    <g
       id="g3016" />
    <g
       id="g3018" />
    <g
       id="g3020" />
    <g
       id="g3022" />
    <g
       id="g3024" />
    <g
       id="g3026" />
    <g
       id="g3028" />
    <g
       id="g3030" />
    <g
       id="g3032" />
    <g
       id="g3034" />
  </g>
  <path
     style="fill:#000000;fill-opacity:0.97278;stroke:#393939;stroke-width:0.578633;stroke-linecap:round;stroke-linejoin:round"
     d="m 42.593173,232.82036 c -3.030898,-0.68579 -6.092578,-3.53356 -6.858988,-6.37979 -0.210448,-0.78154 -0.286931,-36.78977 -0.234239,-110.27929 L 35.578184,7.0424408 36.268998,5.7496336 C 37.352455,3.7220255 38.688652,2.3929107 40.574764,1.466691 l 1.739668,-0.85430484 h 13.472495 c 13.238656,0 13.493754,0.0115193 14.697268,0.66366684 0.673624,0.3650168 1.839054,1.2950782 2.589845,2.0668032 l 1.365073,1.4031365 h 39.774967 39.77496 l 1.62237,-1.4827553 c 3.05104,-2.78848038 2.14519,-2.65085124 17.44747,-2.65085124 h 13.47249 l 1.50736,0.74187864 c 1.92299,0.9464355 3.73132,2.7547734 4.57083,4.5708266 l 0.65806,1.4235425 V 116.81266 226.27668 l -0.69399,1.40845 c -0.9448,1.91745 -2.64623,3.56904 -4.66439,4.52778 l -1.68406,0.80002 -71.18989,0.0454 c -42.703995,0.0272 -71.690957,-0.068 -72.442117,-0.23795 z"
     id="path3607"
     transform="scale(0.26458334)" />
</svg>
