<?xml version="1.0" encoding="UTF-8" standalone="no"?>
<svg
   xmlns:dc="http://purl.org/dc/elements/1.1/"
   xmlns:cc="http://creativecommons.org/ns#"
   xmlns:rdf="http://www.w3.org/1999/02/22-rdf-syntax-ns#"
   xmlns:svg="http://www.w3.org/2000/svg"
   xmlns="http://www.w3.org/2000/svg"
   xmlns:sodipodi="http://sodipodi.sourceforge.net/DTD/sodipodi-0.dtd"
   xmlns:inkscape="http://www.inkscape.org/namespaces/inkscape"
   version="1.1"
   width="162.0774mm"
   height="112.6744mm"
   viewBox="0.0000 0.0000 162.0774 112.6744"
   id="svg3986"
   sodipodi:docname="qlp-22_mx_hs_keypad_L_Mk1_rev0-Edge_Cuts.svg"
   inkscape:version="1.0.2 (e86c870879, 2021-01-15)">
  <metadata
     id="metadata3992">
    <rdf:RDF>
      <cc:Work
         rdf:about="">
        <dc:format>image/svg+xml</dc:format>
        <dc:type
           rdf:resource="http://purl.org/dc/dcmitype/StillImage" />
      </cc:Work>
    </rdf:RDF>
  </metadata>
  <defs
     id="defs3990" />
  <sodipodi:namedview
     pagecolor="#ffffff"
     bordercolor="#666666"
     borderopacity="1"
     objecttolerance="10"
     gridtolerance="10"
     guidetolerance="10"
     inkscape:pageopacity="0"
     inkscape:pageshadow="2"
     inkscape:window-width="1914"
     inkscape:window-height="1221"
     id="namedview3988"
     showgrid="false"
     inkscape:zoom="1.3931061"
     inkscape:cx="200.9159"
     inkscape:cy="247.85723"
     inkscape:window-x="0"
     inkscape:window-y="26"
     inkscape:window-maximized="0"
     inkscape:current-layer="svg3986" />
  <title
     id="title3792">SVG Image created as qlp-22_mx_hs_keypad_L_Mk1_rev0-Edge_Cuts.svg date 2024/04/11 17:07:44 </title>
  <desc
     id="desc3794">Image generated by PCBNEW </desc>
  <g
     style="fill:#000000; fill-opacity:1.0000;stroke:#000000; stroke-opacity:1.0000; stroke-linecap:round; stroke-linejoin:round;"
     transform="translate(0 0) scale(1 1)"
     id="g3796" />
  <g
     style="fill:#000000; fill-opacity:0.0;  stroke:#000000; stroke-width:0.0000; stroke-opacity:1;  stroke-linecap:round; stroke-linejoin:round;"
     id="g3798" />
  <g
     style="fill:#000000; fill-opacity:0.0;  stroke:#000000; stroke-width:0.1000; stroke-opacity:1;  stroke-linecap:round; stroke-linejoin:round;"
     id="g3818">
    <path
       d="M2.5500 62.6482 L39.5500 62.6482 "
       id="path3800" />
    <path
       d="M2.5500 40.6482 L37.5500 40.6482 "
       id="path3802" />
    <path
       d="M80.0500 50.1482 L80.0500 45.1482 "
       id="path3804" />
    <path
       d="M0.0500 60.1483 A2.5000 2.5000 0.0 0 0 2.5500 62.6482"
       id="path3806" />
    <path
       d="M60.0500 23.1482 L60.0500 3.1482 "
       id="path3808" />
    <path
       d="M64.5500 42.6483 A2.4999 2.4999 0.0 0 0 62.0500 45.1483"
       id="path3810" />
    <path
       d="M142.0500 88.1482 A2.5000 2.5000 0.0 0 0 144.5500 90.6482"
       id="path3812" />
    <path
       d="M142.0500 78.1482 A2.5001 2.5001 0.0 0 0 139.5500 75.6483"
       id="path3814" />
    <path
       d="M37.5500 40.6482 A2.5000 2.5000 0.0 0 0 40.0500 38.1482"
       id="path3816" />
  </g>
  <g
     style="fill:#000000; fill-opacity:1.0000;  stroke:#000000; stroke-width:0.0000; stroke-opacity:1;  stroke-linecap:round; stroke-linejoin:round;"
     id="g3822">
    <circle
       cx="120.0500"
       cy="95.1482"
       r="0.0500"
       id="circle3820" />
  </g>
  <g
     style="fill:#000000; fill-opacity:1.0000;  stroke:#000000; stroke-width:0.1000; stroke-opacity:1;  stroke-linecap:round; stroke-linejoin:round;"
     id="g3824" />
  <g
     style="fill:#000000; fill-opacity:0.0;  stroke:#000000; stroke-width:0.1000; stroke-opacity:1;  stroke-linecap:round; stroke-linejoin:round;"
     id="g3836">
    <path
       d="M142.0500 78.1482 L142.0500 88.1482 "
       id="path3826" />
    <path
       d="M102.0500 23.1482 A2.5000 2.5000 0.0 0 0 104.5500 25.6482"
       id="path3828" />
    <path
       d="M100.0500 55.1482 A2.5000 2.5000 0.0 0 0 97.5500 52.6483"
       id="path3830" />
    <path
       d="M144.5500 90.6482 L159.5500 90.6482 "
       id="path3832" />
    <path
       d="M102.0500 13.1483 A2.5000 2.5000 0.0 0 0 99.5500 10.6482"
       id="path3834" />
  </g>
  <g
     style="fill:#000000; fill-opacity:1.0000;  stroke:#000000; stroke-width:0.0000; stroke-opacity:1;  stroke-linecap:round; stroke-linejoin:round;"
     id="g3840">
    <circle
       cx="62.0500"
       cy="45.1483"
       r="0.0500"
       id="circle3838" />
  </g>
  <g
     style="fill:#000000; fill-opacity:0.0;  stroke:#000000; stroke-width:0.1000; stroke-opacity:1;  stroke-linecap:round; stroke-linejoin:round;"
     id="g3984">
    <path
       d="M2.5500 40.6483 A2.5000 2.5000 0.0 0 0 0.0500 43.1482"
       id="path3842" />
    <path
       d="M62.5500 0.6482 L79.5500 0.6482 "
       id="path3844" />
    <path
       d="M100.0500 90.1483 A2.4999 2.4999 0.0 0 0 102.5500 92.6483"
       id="path3846" />
    <path
       d="M80.0500 50.1482 A2.5000 2.5000 0.0 0 0 82.5500 52.6482"
       id="path3848" />
    <path
       d="M124.5500 75.6482 L139.5500 75.6482 "
       id="path3850" />
    <path
       d="M44.5500 47.6483 A2.5000 2.5000 0.0 0 0 42.0500 50.1483"
       id="path3852" />
    <path
       d="M62.5500 0.6482 A2.5000 2.5000 0.0 0 0 60.0500 3.1482"
       id="path3854" />
    <path
       d="M42.5500 25.6483 A2.5000 2.5000 0.0 0 0 40.0500 28.1483"
       id="path3856" />
    <path
       d="M102.0500 13.1482 L102.0500 23.1482 "
       id="path3858" />
    <path
       d="M122.0500 73.1482 A2.4999 2.4999 0.0 0 0 124.5500 75.6482"
       id="path3860" />
    <path
       d="M39.5500 62.6483 A2.5000 2.5000 0.0 0 0 42.0500 60.1483"
       id="path3862" />
    <path
       d="M140.0500 100.1482 A2.5000 2.5000 0.0 0 0 137.5500 97.6483"
       id="path3864" />
    <path
       d="M120.0500 95.1482 A2.5001 2.5001 0.0 0 0 117.5500 92.6483"
       id="path3866" />
    <path
       d="M137.5500 97.6482 L122.5500 97.6482 "
       id="path3868" />
    <path
       d="M40.0500 38.1482 L40.0500 28.1482 "
       id="path3870" />
    <path
       d="M82.0500 8.1483 A2.4999 2.4999 0.0 0 0 84.5500 10.6482"
       id="path3872" />
    <path
       d="M82.0500 3.1482 L82.0500 8.1482 "
       id="path3874" />
    <path
       d="M122.0500 28.1482 A2.5001 2.5001 0.0 0 0 119.5500 25.6483"
       id="path3876" />
    <path
       d="M97.5500 52.6482 L82.5500 52.6482 "
       id="path3878" />
    <path
       d="M120.0500 95.1482 A2.5000 2.5000 0.0 0 0 122.5500 97.6482"
       id="path3880" />
    <path
       d="M42.0500 60.1482 L42.0500 50.1482 "
       id="path3882" />
    <path
       d="M162.0500 93.1483 A2.5000 2.5000 0.0 0 0 159.5500 90.6483"
       id="path3884" />
    <path
       d="M104.5500 25.6482 L119.5500 25.6482 "
       id="path3886" />
    <path
       d="M84.5500 10.6482 L99.5500 10.6482 "
       id="path3888" />
    <path
       d="M159.5500 112.6483 A2.5001 2.5001 0.0 0 0 162.0500 110.1482"
       id="path3890" />
    <path
       d="M42.5500 25.6482 L57.5500 25.6483 "
       id="path3892" />
    <path
       d="M0.0500 43.1482 L0.0500 60.1483 "
       id="path3894" />
    <path
       d="M100.0500 90.1483 L100.0500 55.1482 "
       id="path3896" />
    <path
       d="M44.5500 47.6482 L59.5500 47.6482 "
       id="path3898" />
    <path
       d="M159.5500 112.6483 L142.5500 112.6482 "
       id="path3900" />
    <path
       d="M122.0500 28.1482 L122.0500 73.1482 "
       id="path3902" />
    <path
       d="M140.0500 110.1483 A2.4999 2.4999 0.0 0 0 142.5500 112.6482"
       id="path3904" />
    <path
       d="M162.0500 93.1482 L162.0500 110.1482 "
       id="path3906" />
    <path
       d="M117.5500 92.6482 L102.5500 92.6483 "
       id="path3908" />
    <path
       d="M57.5500 25.6483 A2.5001 2.5001 0.0 0 0 60.0500 23.1482"
       id="path3910" />
    <path
       d="M140.0500 110.1482 L140.0500 100.1482 "
       id="path3912" />
    <path
       d="M64.5500 42.6483 L77.5500 42.6482 "
       id="path3914" />
    <path
       d="M82.0500 3.1482 A2.5001 2.5001 0.0 0 0 79.5500 0.6483"
       id="path3916" />
    <path
       d="M80.0500 45.1482 A2.5001 2.5001 0.0 0 0 77.5500 42.6483"
       id="path3918" />
    <path
       d="M59.5500 47.6482 A2.4999 2.4999 0.0 0 0 62.0500 45.1483"
       id="path3920" />
    <g
       id="g3922" />
    <g
       id="g3924" />
    <g
       id="g3926" />
    <g
       id="g3928" />
    <g
       id="g3930" />
    <g
       id="g3932" />
    <g
       id="g3934" />
    <g
       id="g3936" />
    <g
       id="g3938" />
    <g
       id="g3940" />
    <g
       id="g3942" />
    <g
       id="g3944" />
    <g
       id="g3946" />
    <g
       id="g3948" />
    <g
       id="g3950" />
    <g
       id="g3952" />
    <g
       id="g3954" />
    <g
       id="g3956" />
    <g
       id="g3958" />
    <g
       id="g3960" />
    <g
       id="g3962" />
    <g
       id="g3964" />
    <g
       id="g3966" />
    <g
       id="g3968" />
    <g
       id="g3970" />
    <g
       id="g3972" />
    <g
       id="g3974" />
    <g
       id="g3976" />
    <g
       id="g3978" />
    <g
       id="g3980" />
    <g
       id="g3982" />
  </g>
  <path
     style="fill:#000000;fill-opacity:0.97278;stroke:#393939;stroke-width:1.35651;stroke-linecap:round;stroke-linejoin:round"
     d="m 536.59927,424.79339 c -1.12813,-0.34559 -2.70704,-1.21228 -3.50872,-1.92598 -3.16053,-2.81373 -3.41275,-4.77631 -3.41558,-26.57775 -0.002,-19.19138 -0.10184,-20.82302 -1.39723,-22.9475 -2.57105,-4.2166 -1.97625,-4.14231 -36.28566,-4.53219 -27.88831,-0.31691 -31.78079,-0.4982 -33.26498,-1.54931 -2.56715,-1.81804 -3.6559,-3.75013 -4.43844,-7.87646 -0.82648,-4.35803 -2.09147,-6.55136 -4.80442,-8.33029 -1.74846,-1.14649 -4.91966,-1.30011 -33.5481,-1.62509 -23.81688,-0.27037 -32.01375,-0.58553 -33.22479,-1.27746 -3.91587,-2.23738 -3.77566,0.44997 -3.77999,-72.44294 -0.002,-42.13263 -0.26945,-68.28684 -0.71328,-69.88449 -0.3901,-1.40425 -1.70115,-3.50387 -2.91344,-4.66584 l -2.20416,-2.11265 -31.84551,-0.35891 c -30.78456,-0.34695 -31.91299,-0.40844 -33.87085,-1.84557 -3.94131,-2.89306 -4.5351,-5.23385 -4.53929,-17.89449 -0.004,-9.96931 -0.18173,-11.77693 -1.35201,-13.69604 -2.74429,-4.50032 -3.52558,-4.60867 -33.21028,-4.6057 -25.30767,0.003 -26.93831,0.081 -29.1037,1.40137 -3.11289,1.89805 -4.64531,4.44755 -5.33413,8.87446 -0.45634,2.93278 -1.11265,4.21217 -3.10461,6.0519 l -2.52594,2.33292 -29.97954,0.004 c -17.53089,0.002 -31.03973,0.29852 -32.53273,0.71328 -1.40424,0.3901 -3.50387,1.70091 -4.66583,2.91292 l -2.11265,2.20335 -0.35891,22.51505 c -0.34177,21.43961 -0.4308,22.61178 -1.86375,24.53971 -0.82767,1.11356 -2.28125,2.42366 -3.2302,2.91134 -1.33538,0.68628 -18.13078,0.88909 -74.307861,0.89728 -72.5264292,0.0106 -72.5839869,0.009 -74.4882114,-1.48844 -4.08033053,-3.20959 -4.03047496,-2.72662 -4.03047496,-39.04524 0,-36.93933 0.0221369,-37.13779 4.44318236,-39.83323 2.3390943,-1.4261 3.4384751,-1.44873 70.569052,-1.45247 63.501083,-0.004 68.362283,-0.0902 70.654293,-1.25887 1.35373,-0.69029 3.13034,-2.16627 3.94801,-3.27995 1.40883,-1.91889 1.50545,-3.20203 1.84557,-24.51177 0.33832,-21.19673 0.44118,-22.57768 1.79286,-24.06959 3.2484,-3.585424 3.2858,-3.5892 35.5338,-3.5892 32.65647,0 32.16025,0.05441 35.89102,-3.936965 l 1.79456,-1.919919 0.35891,-41.396967 c 0.32107,-37.033185 0.48439,-41.5741586 1.5493,-43.0778575 2.96143,-4.1816513 1.76499,-4.0426245 36.85409,-4.2824844 17.76605,-0.1214442 33.69524,-0.017823 35.3982,0.2302678 1.92211,0.2800191 3.9637,1.2253071 5.38365,2.4927233 l 2.28737,2.0416478 0.36097,13.290789 c 0.32528,11.976988 0.50771,13.490853 1.84557,15.314685 3.32265,4.529587 3.3575,4.533922 36.44728,4.535151 32.81393,0.0012 33.33367,0.06149 36.13693,4.190425 1.16228,1.711942 1.3358,4.245798 1.65713,24.198846 0.32223,20.009637 0.49296,22.490992 1.67093,24.286397 2.58136,3.934374 3.47344,4.033261 36.38614,4.033261 33.34575,0 33.13452,-0.02656 35.90749,4.52123 1.36938,2.24585 1.40128,4.27732 1.4039,89.40476 0.003,96.53518 -0.29384,90.5162 4.61106,93.5072 2.07091,1.26283 4.13299,1.34838 32.56189,1.3509 33.55852,0.003 34.07627,0.0656 36.74684,4.44586 1.36424,2.23763 1.44882,3.58021 1.45135,23.03651 0.003,22.34731 0.18913,23.63513 3.91514,27.07466 l 1.94401,1.79455 31.73964,0.35891 c 34.81491,0.39369 33.88542,0.27207 36.86777,4.82372 1.16535,1.77855 1.26618,4.68125 1.26618,36.45096 0,31.7697 -0.10083,34.6724 -1.26618,36.45095 -3.0109,4.59523 -1.80784,4.45175 -38.54027,4.59624 -18.37618,0.0723 -34.33424,-0.15132 -35.46237,-0.49691 z"
     id="path4555"
     transform="scale(0.26458334)" />
</svg>
