<?xml version="1.0" encoding="UTF-8" standalone="no"?>
<svg
   xmlns:dc="http://purl.org/dc/elements/1.1/"
   xmlns:cc="http://creativecommons.org/ns#"
   xmlns:rdf="http://www.w3.org/1999/02/22-rdf-syntax-ns#"
   xmlns:svg="http://www.w3.org/2000/svg"
   xmlns="http://www.w3.org/2000/svg"
   xmlns:sodipodi="http://sodipodi.sourceforge.net/DTD/sodipodi-0.dtd"
   xmlns:inkscape="http://www.inkscape.org/namespaces/inkscape"
   version="1.1"
   width="162.0774mm"
   height="113.0046mm"
   viewBox="0.0000 0.0000 162.0774 113.0046"
   id="svg2830"
   sodipodi:docname="qlp-22_mx_hs_keypad_L_Mk1_rev0-Edge_Cuts.svg"
   inkscape:version="1.0.2 (e86c870879, 2021-01-15)">
  <metadata
     id="metadata2836">
    <rdf:RDF>
      <cc:Work
         rdf:about="">
        <dc:format>image/svg+xml</dc:format>
        <dc:type
           rdf:resource="http://purl.org/dc/dcmitype/StillImage" />
      </cc:Work>
    </rdf:RDF>
  </metadata>
  <defs
     id="defs2834" />
  <sodipodi:namedview
     pagecolor="#ffffff"
     bordercolor="#666666"
     borderopacity="1"
     objecttolerance="10"
     gridtolerance="10"
     guidetolerance="10"
     inkscape:pageopacity="0"
     inkscape:pageshadow="2"
     inkscape:window-width="1916"
     inkscape:window-height="1210"
     id="namedview2832"
     showgrid="false"
     inkscape:zoom="2.2119705"
     inkscape:cx="306.28799"
     inkscape:cy="212.64783"
     inkscape:window-x="0"
     inkscape:window-y="44"
     inkscape:window-maximized="0"
     inkscape:current-layer="svg2830" />
  <title
     id="title2636">SVG Image created as qlp-22_mx_hs_keypad_L_Mk1_rev0-Edge_Cuts.svg date 2024/03/14 18:35:34 </title>
  <desc
     id="desc2638">Image generated by PCBNEW </desc>
  <g
     style="fill:#000000; fill-opacity:1.0000;stroke:#000000; stroke-opacity:1.0000; stroke-linecap:round; stroke-linejoin:round;"
     transform="translate(0 0) scale(1 1)"
     id="g2640" />
  <g
     style="fill:#000000; fill-opacity:0.0;  stroke:#000000; stroke-width:0.0000; stroke-opacity:1;  stroke-linecap:round; stroke-linejoin:round;"
     id="g2642" />
  <g
     style="fill:#000000; fill-opacity:0.0;  stroke:#000000; stroke-width:0.1000; stroke-opacity:1;  stroke-linecap:round; stroke-linejoin:round;"
     id="g2662">
    <path
       d="M2.5500 62.9682 L39.5500 62.9682 "
       id="path2644" />
    <path
       d="M2.5500 40.9682 L37.5500 40.9682 "
       id="path2646" />
    <path
       d="M80.0500 50.4682 L80.0500 45.4682 "
       id="path2648" />
    <path
       d="M0.0500 60.4682 A2.5000 2.5000 0.0 0 0 2.5500 62.9682"
       id="path2650" />
    <path
       d="M60.0500 23.4682 L60.0500 3.4682 "
       id="path2652" />
    <path
       d="M64.5500 42.9682 A2.5000 2.5000 0.0 0 0 62.0500 45.4682"
       id="path2654" />
    <path
       d="M142.0500 88.4682 A2.5000 2.5000 0.0 0 0 144.5500 90.9682"
       id="path2656" />
    <path
       d="M142.0500 78.4682 A2.5000 2.5000 0.0 0 0 139.5500 75.9682"
       id="path2658" />
    <path
       d="M37.5500 40.9682 A2.5000 2.5000 0.0 0 0 40.0500 38.4682"
       id="path2660" />
  </g>
  <g
     style="fill:#000000; fill-opacity:1.0000;  stroke:#000000; stroke-width:0.0000; stroke-opacity:1;  stroke-linecap:round; stroke-linejoin:round;"
     id="g2666">
    <circle
       cx="120.0500"
       cy="95.4682"
       r="0.0500"
       id="circle2664" />
  </g>
  <g
     style="fill:#000000; fill-opacity:1.0000;  stroke:#000000; stroke-width:0.1000; stroke-opacity:1;  stroke-linecap:round; stroke-linejoin:round;"
     id="g2668" />
  <g
     style="fill:#000000; fill-opacity:0.0;  stroke:#000000; stroke-width:0.1000; stroke-opacity:1;  stroke-linecap:round; stroke-linejoin:round;"
     id="g2680">
    <path
       d="M142.0500 78.4682 L142.0500 88.4682 "
       id="path2670" />
    <path
       d="M102.0500 23.4682 A2.5000 2.5000 0.0 0 0 104.5500 25.9682"
       id="path2672" />
    <path
       d="M100.0500 55.4682 A2.5000 2.5000 0.0 0 0 97.5500 52.9682"
       id="path2674" />
    <path
       d="M144.5500 90.9682 L159.5500 90.9682 "
       id="path2676" />
    <path
       d="M102.0500 13.4682 A2.5000 2.5000 0.0 0 0 99.5500 10.9682"
       id="path2678" />
  </g>
  <g
     style="fill:#000000; fill-opacity:1.0000;  stroke:#000000; stroke-width:0.0000; stroke-opacity:1;  stroke-linecap:round; stroke-linejoin:round;"
     id="g2684">
    <circle
       cx="62.0500"
       cy="45.4682"
       r="0.0500"
       id="circle2682" />
  </g>
  <g
     style="fill:#000000; fill-opacity:0.0;  stroke:#000000; stroke-width:0.1000; stroke-opacity:1;  stroke-linecap:round; stroke-linejoin:round;"
     id="g2828">
    <path
       d="M2.5500 40.9682 A2.5000 2.5000 0.0 0 0 0.0500 43.4682"
       id="path2686" />
    <path
       d="M62.5500 0.9682 L79.5500 0.9682 "
       id="path2688" />
    <path
       d="M100.0500 90.4682 A2.5000 2.5000 0.0 0 0 102.5500 92.9682"
       id="path2690" />
    <path
       d="M80.0500 50.4682 A2.5000 2.5000 0.0 0 0 82.5500 52.9682"
       id="path2692" />
    <path
       d="M124.5500 75.9682 L139.5500 75.9682 "
       id="path2694" />
    <path
       d="M44.5500 47.9682 A2.5000 2.5000 0.0 0 0 42.0500 50.4682"
       id="path2696" />
    <path
       d="M62.5500 0.9682 A2.5000 2.5000 0.0 0 0 60.0500 3.4682"
       id="path2698" />
    <path
       d="M42.5500 25.9682 A2.5000 2.5000 0.0 0 0 40.0500 28.4682"
       id="path2700" />
    <path
       d="M102.0500 13.4682 L102.0500 23.4682 "
       id="path2702" />
    <path
       d="M122.0500 73.4682 A2.5000 2.5000 0.0 0 0 124.5500 75.9682"
       id="path2704" />
    <path
       d="M39.5500 62.9682 A2.5000 2.5000 0.0 0 0 42.0500 60.4682"
       id="path2706" />
    <path
       d="M140.0500 100.4682 A2.5000 2.5000 0.0 0 0 137.5500 97.9682"
       id="path2708" />
    <path
       d="M120.0500 95.4682 A2.5000 2.5000 0.0 0 0 117.5500 92.9682"
       id="path2710" />
    <path
       d="M137.5500 97.9682 L122.5500 97.9682 "
       id="path2712" />
    <path
       d="M40.0500 38.4682 L40.0500 28.4682 "
       id="path2714" />
    <path
       d="M82.0500 8.4682 A2.5000 2.5000 0.0 0 0 84.5500 10.9682"
       id="path2716" />
    <path
       d="M82.0500 3.4682 L82.0500 8.4682 "
       id="path2718" />
    <path
       d="M122.0500 28.4682 A2.5000 2.5000 0.0 0 0 119.5500 25.9682"
       id="path2720" />
    <path
       d="M97.5500 52.9682 L82.5500 52.9682 "
       id="path2722" />
    <path
       d="M120.0500 95.4682 A2.5000 2.5000 0.0 0 0 122.5500 97.9682"
       id="path2724" />
    <path
       d="M42.0500 60.4682 L42.0500 50.4682 "
       id="path2726" />
    <path
       d="M162.0500 93.4682 A2.5000 2.5000 0.0 0 0 159.5500 90.9682"
       id="path2728" />
    <path
       d="M104.5500 25.9682 L119.5500 25.9682 "
       id="path2730" />
    <path
       d="M84.5500 10.9682 L99.5500 10.9682 "
       id="path2732" />
    <path
       d="M159.5500 112.9682 A2.5000 2.5000 0.0 0 0 162.0500 110.4682"
       id="path2734" />
    <path
       d="M42.5500 25.9682 L57.5500 25.9682 "
       id="path2736" />
    <path
       d="M0.0500 43.4682 L0.0500 60.4682 "
       id="path2738" />
    <path
       d="M100.0500 90.4682 L100.0500 55.4682 "
       id="path2740" />
    <path
       d="M44.5500 47.9682 L59.5500 47.9682 "
       id="path2742" />
    <path
       d="M159.5500 112.9682 L142.5500 112.9682 "
       id="path2744" />
    <path
       d="M122.0500 28.4682 L122.0500 73.4682 "
       id="path2746" />
    <path
       d="M140.0500 110.4682 A2.5000 2.5000 0.0 0 0 142.5500 112.9682"
       id="path2748" />
    <path
       d="M162.0500 93.4682 L162.0500 110.4682 "
       id="path2750" />
    <path
       d="M117.5500 92.9682 L102.5500 92.9682 "
       id="path2752" />
    <path
       d="M57.5500 25.9682 A2.5000 2.5000 0.0 0 0 60.0500 23.4682"
       id="path2754" />
    <path
       d="M140.0500 110.4682 L140.0500 100.4682 "
       id="path2756" />
    <path
       d="M64.5500 42.9682 L77.5500 42.9682 "
       id="path2758" />
    <path
       d="M82.0500 3.4682 A2.5000 2.5000 0.0 0 0 79.5500 0.9682"
       id="path2760" />
    <path
       d="M80.0500 45.4682 A2.5000 2.5000 0.0 0 0 77.5500 42.9682"
       id="path2762" />
    <path
       d="M59.5500 47.9682 A2.5000 2.5000 0.0 0 0 62.0500 45.4682"
       id="path2764" />
    <g
       id="g2766" />
    <g
       id="g2768" />
    <g
       id="g2770" />
    <g
       id="g2772" />
    <g
       id="g2774" />
    <g
       id="g2776" />
    <g
       id="g2778" />
    <g
       id="g2780" />
    <g
       id="g2782" />
    <g
       id="g2784" />
    <g
       id="g2786" />
    <g
       id="g2788" />
    <g
       id="g2790" />
    <g
       id="g2792" />
    <g
       id="g2794" />
    <g
       id="g2796" />
    <g
       id="g2798" />
    <g
       id="g2800" />
    <g
       id="g2802" />
    <g
       id="g2804" />
    <g
       id="g2806" />
    <g
       id="g2808" />
    <g
       id="g2810" />
    <g
       id="g2812" />
    <g
       id="g2814" />
    <g
       id="g2816" />
    <g
       id="g2818" />
    <g
       id="g2820" />
    <g
       id="g2822" />
    <g
       id="g2824" />
    <g
       id="g2826" />
  </g>
  <path
     style="fill:#000000;fill-opacity:0.97278;stroke:#393939;stroke-width:0.854335;stroke-linecap:round;stroke-linejoin:round"
     d="m 535.26934,425.85118 c -1.62991,-0.71835 -3.6505,-2.68734 -4.67588,-4.55646 -0.65851,-1.20042 -0.7765,-3.99111 -0.97519,-23.06576 -0.24748,-23.75603 -0.14838,-22.91253 -3.01121,-25.63187 -2.83648,-2.69427 -1.90649,-2.62324 -34.38436,-2.626 -19.35722,-0.002 -30.33531,-0.16807 -31.44681,-0.47675 -3.44837,-0.95761 -6.62337,-5.02312 -6.64597,-8.50999 -0.0244,-3.76298 -2.16436,-7.36114 -5.30627,-8.92219 -1.61027,-0.80005 -3.53414,-0.86341 -32.67887,-1.07614 -30.30376,-0.2212 -31.00664,-0.2463 -32.7762,-1.17048 -0.99459,-0.51943 -2.41866,-1.80839 -3.1646,-2.86434 l -1.35626,-1.91992 -0.22604,-69.01726 c -0.16595,-50.66775 -0.36446,-69.32452 -0.74668,-70.17296 -0.8575,-1.90348 -2.87414,-4.02702 -4.7172,-4.96728 -1.66688,-0.85038 -2.86724,-0.8851 -31.25006,-0.90403 -16.23413,-0.0109 -30.37904,-0.18656 -31.43313,-0.3905 -2.37384,-0.45929 -4.60705,-1.95228 -6.03574,-4.03512 -1.06891,-1.55834 -1.09383,-1.81899 -1.32214,-13.82937 -0.25326,-13.32223 -0.39662,-14.12584 -2.98163,-16.71364 -0.71859,-0.71937 -2.12028,-1.68123 -3.11487,-2.13748 -1.68914,-0.77486 -3.56665,-0.82954 -28.48139,-0.82954 -25.39003,0 -26.76556,0.042 -28.5963,0.87299 -3.61441,1.64061 -5.23053,4.15643 -5.95465,9.2696 -0.52496,3.70692 -1.78364,5.77434 -4.48078,7.35987 l -2.10806,1.23924 -31.26849,0.22604 -31.26849,0.22604 -1.9598,1.37633 c -1.07789,0.75699 -2.4684,2.28278 -3.09001,3.39064 l -1.13022,2.01432 -0.22604,21.77505 -0.22604,21.77505 -1.35626,1.92473 c -0.74594,1.05861 -2.25287,2.39809 -3.34873,2.97664 l -1.99247,1.0519 H 79.707481 c -63.806144,0 -72.0119874,-0.0781 -73.4996546,-0.69971 -2.2339639,-0.93341 -3.6651624,-2.31074 -4.6752367,-4.49928 -0.787814,-1.70696 -0.83516052,-3.72424 -0.84453261,-35.98272 l -0.009929,-34.17437 1.05190061,-1.99248 c 0.5785452,-1.09585 1.9183561,-2.60278 2.9773574,-3.34872 L 6.6328433,155.459 75.896196,155.23296 c 66.834844,-0.21812 69.310204,-0.25588 70.599574,-1.07703 2.01375,-1.28247 3.37379,-2.61574 4.2047,-4.12195 0.65742,-1.1917 0.77563,-3.98928 0.97424,-23.05637 0.22378,-21.48251 0.23634,-21.71937 1.25217,-23.62096 0.56437,-1.05648 1.87159,-2.48055 2.90494,-3.1646 l 1.87881,-1.243746 31.22752,-0.226042 31.22753,-0.226043 2.01431,-1.130214 c 1.10787,-0.621618 2.63366,-2.012188 3.39065,-3.090159 l 1.37633,-1.959945 0.22604,-40.762143 c 0.24872,-44.8515256 0.0435,-41.7969478 3.0096,-44.7905807 2.58965,-2.6136692 1.27106,-2.5268036 38.35623,-2.5268036 37.08517,0 35.76657,-0.086866 38.35623,2.5268036 2.69657,2.7215809 2.74085,2.964977 2.99838,16.4823997 0.20622,10.824384 0.34041,12.611156 1.02555,13.655306 1.19979,1.828494 2.64238,3.072626 4.63674,3.998879 1.70368,0.79125 3.53524,0.840579 31.64599,0.852308 19.39523,0.0081 30.43529,0.178417 31.54533,0.486676 0.93922,0.260825 2.42455,1.103643 3.30071,1.872931 3.23906,2.843927 3.10435,1.793497 3.35519,26.163135 l 0.22605,21.960098 1.23311,1.86243 c 0.67821,1.024336 2.204,2.433129 3.39064,3.130652 l 2.15753,1.268227 31.19391,0.226043 c 30.41152,0.220373 31.23341,0.249266 32.76996,1.1519 0.86679,0.509218 2.18914,1.798198 2.93856,2.864398 l 1.36249,1.93854 0.22605,88.0048 c 0.25122,97.8017 -0.0566,89.01279 3.22952,92.22554 2.84768,2.78416 2.87897,2.7866 35.75436,2.7866 32.26191,0 30.96153,-0.0935 33.73182,2.42633 2.59195,2.35764 2.53765,1.86228 2.78259,25.37693 l 0.22604,21.70011 1.25526,2.13539 c 0.81398,1.38472 2.00591,2.57666 3.39065,3.39064 l 2.13538,1.25525 31.26845,0.22605 31.2685,0.22604 1.95595,1.37506 c 1.07583,0.75628 2.4121,2.18035 2.96961,3.1646 l 1.01358,1.78954 0.007,34.48953 c 0.007,33.02048 -0.0289,34.56098 -0.85272,36.16685 -1.08758,2.12073 -2.5381,3.47769 -4.6695,4.36825 -1.46254,0.61108 -5.98534,0.69746 -35.70862,0.68201 -27.20266,-0.0141 -34.30619,-0.13768 -35.3902,-0.61544 z"
     id="path2838"
     transform="scale(0.26458333)" />
</svg>
