<?xml version="1.0" encoding="UTF-8" standalone="no"?>
<svg
   xmlns:dc="http://purl.org/dc/elements/1.1/"
   xmlns:cc="http://creativecommons.org/ns#"
   xmlns:rdf="http://www.w3.org/1999/02/22-rdf-syntax-ns#"
   xmlns:svg="http://www.w3.org/2000/svg"
   xmlns="http://www.w3.org/2000/svg"
   xmlns:sodipodi="http://sodipodi.sourceforge.net/DTD/sodipodi-0.dtd"
   xmlns:inkscape="http://www.inkscape.org/namespaces/inkscape"
   version="1.1"
   width="162.0774mm"
   height="112.6744mm"
   viewBox="0.0000 0.0000 162.0774 112.6744"
   id="svg5899"
   sodipodi:docname="qlp-22_mx_hs_keypad_R_Mk1_rev0-Edge_Cuts.svg"
   inkscape:version="1.0.2 (e86c870879, 2021-01-15)">
  <metadata
     id="metadata5905">
    <rdf:RDF>
      <cc:Work
         rdf:about="">
        <dc:format>image/svg+xml</dc:format>
        <dc:type
           rdf:resource="http://purl.org/dc/dcmitype/StillImage" />
      </cc:Work>
    </rdf:RDF>
  </metadata>
  <defs
     id="defs5903" />
  <sodipodi:namedview
     pagecolor="#ffffff"
     bordercolor="#666666"
     borderopacity="1"
     objecttolerance="10"
     gridtolerance="10"
     guidetolerance="10"
     inkscape:pageopacity="0"
     inkscape:pageshadow="2"
     inkscape:window-width="1914"
     inkscape:window-height="1221"
     id="namedview5901"
     showgrid="false"
     inkscape:zoom="1.3931061"
     inkscape:cx="194.39831"
     inkscape:cy="229.14545"
     inkscape:window-x="0"
     inkscape:window-y="26"
     inkscape:window-maximized="0"
     inkscape:current-layer="svg5899" />
  <title
     id="title5705">SVG Image created as qlp-22_mx_hs_keypad_R_Mk1_rev0-Edge_Cuts.svg date 2024/04/11 18:08:06 </title>
  <desc
     id="desc5707">Image generated by PCBNEW </desc>
  <g
     style="fill:#000000; fill-opacity:1.0000;stroke:#000000; stroke-opacity:1.0000; stroke-linecap:round; stroke-linejoin:round;"
     transform="translate(0 0) scale(1 1)"
     id="g5709" />
  <g
     style="fill:#000000; fill-opacity:0.0;  stroke:#000000; stroke-width:0.0000; stroke-opacity:1;  stroke-linecap:round; stroke-linejoin:round;"
     id="g5711" />
  <g
     style="fill:#000000; fill-opacity:0.0;  stroke:#000000; stroke-width:0.1000; stroke-opacity:1;  stroke-linecap:round; stroke-linejoin:round;"
     id="g5745">
    <path
       d="M119.5500 25.6482 L104.5500 25.6482 "
       id="path5713" />
    <path
       d="M20.0500 88.1482 L20.0500 78.1482 "
       id="path5715" />
    <path
       d="M99.5500 0.6482 L82.5500 0.6482 "
       id="path5717" />
    <path
       d="M62.0500 90.1482 L62.0500 55.1482 "
       id="path5719" />
    <path
       d="M59.5500 92.6482 A2.4999 2.4999 0.0 0 0 62.0500 90.1482"
       id="path5721" />
    <path
       d="M62.5500 10.6482 A2.5000 2.5000 0.0 0 0 60.0500 13.1482"
       id="path5723" />
    <path
       d="M100.0500 45.1482 A2.4999 2.4999 0.0 0 0 97.5500 42.6482"
       id="path5725" />
    <path
       d="M39.5500 97.6483 A2.5001 2.5001 0.0 0 0 42.0500 95.1482"
       id="path5727" />
    <path
       d="M162.0500 60.1482 L162.0500 43.1482 "
       id="path5729" />
    <path
       d="M19.5500 112.6482 A2.5000 2.5000 0.0 0 0 22.0500 110.1482"
       id="path5731" />
    <path
       d="M44.5500 92.6482 L59.5500 92.6482 "
       id="path5733" />
    <path
       d="M22.0500 110.1482 L22.0500 100.1482 "
       id="path5735" />
    <path
       d="M100.0500 45.1483 A2.5000 2.5000 0.0 0 0 102.5500 47.6482"
       id="path5737" />
    <path
       d="M79.5500 52.6482 A2.5000 2.5000 0.0 0 0 82.0500 50.1482"
       id="path5739" />
    <path
       d="M102.0500 3.1482 A2.5000 2.5000 0.0 0 0 99.5500 0.6483"
       id="path5741" />
    <path
       d="M2.5500 112.6482 L19.5500 112.6482 "
       id="path5743" />
  </g>
  <g
     style="fill:#000000; fill-opacity:1.0000;  stroke:#000000; stroke-width:0.0000; stroke-opacity:1;  stroke-linecap:round; stroke-linejoin:round;"
     id="g5749">
    <circle
       cx="42.0500"
       cy="95.1482"
       r="0.0500"
       id="circle5747" />
  </g>
  <g
     style="fill:#000000; fill-opacity:1.0000;  stroke:#000000; stroke-width:0.1000; stroke-opacity:1;  stroke-linecap:round; stroke-linejoin:round;"
     id="g5751" />
  <g
     style="fill:#000000; fill-opacity:0.0;  stroke:#000000; stroke-width:0.1000; stroke-opacity:1;  stroke-linecap:round; stroke-linejoin:round;"
     id="g5823">
    <path
       d="M120.0500 50.1482 L120.0500 60.1482 "
       id="path5753" />
    <path
       d="M84.5500 42.6482 L97.5500 42.6482 "
       id="path5755" />
    <path
       d="M44.5500 92.6482 A2.5000 2.5000 0.0 0 0 42.0500 95.1482"
       id="path5757" />
    <path
       d="M24.5500 97.6482 L39.5500 97.6482 "
       id="path5759" />
    <path
       d="M120.0500 60.1483 A2.5001 2.5001 0.0 0 0 122.5500 62.6482"
       id="path5761" />
    <path
       d="M40.0500 28.1482 L40.0500 73.1482 "
       id="path5763" />
    <path
       d="M79.5500 52.6482 L64.5500 52.6482 "
       id="path5765" />
    <path
       d="M122.0500 28.1482 A2.5001 2.5001 0.0 0 0 119.5500 25.6482"
       id="path5767" />
    <path
       d="M42.5500 25.6482 A2.5000 2.5000 0.0 0 0 40.0500 28.1482"
       id="path5769" />
    <path
       d="M102.0500 23.1482 L102.0500 3.1482 "
       id="path5771" />
    <path
       d="M122.5500 62.6482 L159.5500 62.6482 "
       id="path5773" />
    <path
       d="M80.0500 3.1482 L80.0500 8.1482 "
       id="path5775" />
    <path
       d="M17.5500 90.6482 L2.5500 90.6482 "
       id="path5777" />
    <path
       d="M159.5500 40.6482 L124.5500 40.6482 "
       id="path5779" />
    <path
       d="M57.5500 25.6482 A2.5000 2.5000 0.0 0 0 60.0500 23.1482"
       id="path5781" />
    <path
       d="M37.5500 75.6482 L22.5500 75.6482 "
       id="path5783" />
    <path
       d="M77.5500 10.6482 A2.5000 2.5000 0.0 0 0 80.0500 8.1482"
       id="path5785" />
    <path
       d="M120.0501 50.1482 A2.5001 2.5001 0.0 0 0 117.5500 47.6482"
       id="path5787" />
    <path
       d="M102.5500 47.6482 L117.5500 47.6482 "
       id="path5789" />
    <path
       d="M60.0500 13.1482 L60.0500 23.1482 "
       id="path5791" />
    <path
       d="M102.0500 23.1483 A2.5000 2.5000 0.0 0 0 104.5500 25.6482"
       id="path5793" />
    <path
       d="M0.0500 93.1482 L0.0500 110.1482 "
       id="path5795" />
    <path
       d="M24.5500 97.6482 A2.5000 2.5000 0.0 0 0 22.0500 100.1482"
       id="path5797" />
    <path
       d="M122.0501 38.1482 A2.5000 2.5000 0.0 0 0 124.5500 40.6482"
       id="path5799" />
    <path
       d="M82.5500 0.6482 A2.5001 2.5001 0.0 0 0 80.0500 3.1483"
       id="path5801" />
    <path
       d="M37.5500 75.6482 A2.5000 2.5000 0.0 0 0 40.0500 73.1482"
       id="path5803" />
    <path
       d="M57.5500 25.6482 L42.5500 25.6482 "
       id="path5805" />
    <path
       d="M122.0500 38.1482 L122.0500 28.1482 "
       id="path5807" />
    <path
       d="M77.5500 10.6482 L62.5500 10.6482 "
       id="path5809" />
    <path
       d="M162.0500 43.1482 A2.5001 2.5001 0.0 0 0 159.5500 40.6482"
       id="path5811" />
    <path
       d="M82.0500 50.1482 L82.0500 45.1482 "
       id="path5813" />
    <path
       d="M84.5500 42.6482 A2.5001 2.5001 0.0 0 0 82.0500 45.1483"
       id="path5815" />
    <path
       d="M0.0500 110.1482 A2.5000 2.5000 0.0 0 0 2.5500 112.6482"
       id="path5817" />
    <path
       d="M17.5500 90.6482 A2.5001 2.5001 0.0 0 0 20.0500 88.1482"
       id="path5819" />
    <path
       d="M22.5500 75.6482 A2.5001 2.5001 0.0 0 0 20.0500 78.1482"
       id="path5821" />
  </g>
  <g
     style="fill:#000000; fill-opacity:1.0000;  stroke:#000000; stroke-width:0.0000; stroke-opacity:1;  stroke-linecap:round; stroke-linejoin:round;"
     id="g5827">
    <circle
       cx="100.0500"
       cy="45.1482"
       r="0.0500"
       id="circle5825" />
  </g>
  <g
     style="fill:#000000; fill-opacity:0.0;  stroke:#000000; stroke-width:0.1000; stroke-opacity:1;  stroke-linecap:round; stroke-linejoin:round;"
     id="g5897">
    <path
       d="M64.5500 52.6482 A2.5000 2.5000 0.0 0 0 62.0500 55.1482"
       id="path5829" />
    <path
       d="M159.5500 62.6482 A2.5000 2.5000 0.0 0 0 162.0500 60.1482"
       id="path5831" />
    <path
       d="M2.5500 90.6482 A2.5000 2.5000 0.0 0 0 0.0500 93.1482"
       id="path5833" />
    <g
       id="g5835" />
    <g
       id="g5837" />
    <g
       id="g5839" />
    <g
       id="g5841" />
    <g
       id="g5843" />
    <g
       id="g5845" />
    <g
       id="g5847" />
    <g
       id="g5849" />
    <g
       id="g5851" />
    <g
       id="g5853" />
    <g
       id="g5855" />
    <g
       id="g5857" />
    <g
       id="g5859" />
    <g
       id="g5861" />
    <g
       id="g5863" />
    <g
       id="g5865" />
    <g
       id="g5867" />
    <g
       id="g5869" />
    <g
       id="g5871" />
    <g
       id="g5873" />
    <g
       id="g5875" />
    <g
       id="g5877" />
    <g
       id="g5879" />
    <g
       id="g5881" />
    <g
       id="g5883" />
    <g
       id="g5885" />
    <g
       id="g5887" />
    <g
       id="g5889" />
    <g
       id="g5891" />
    <g
       id="g5893" />
    <g
       id="g5895" />
  </g>
  <path
     style="fill:#000000;fill-opacity:0.97278;stroke:#393939;stroke-width:1.35651;stroke-linecap:round;stroke-linejoin:round"
     d="M 6.6882733,424.45603 C 5.5038696,423.92961 3.727264,422.62416 2.740261,421.55501 l -1.7945511,-1.9439 v -35.41645 -35.41645 l 1.7945511,-1.94489 c 3.5701097,-3.86921 3.9790185,-3.91334 36.262522,-3.91334 31.84765,0 31.91673,-0.007 35.162304,-3.58908 1.351677,-1.49179 1.454541,-2.87269 1.792857,-24.06939 0.340117,-21.30957 0.436743,-22.59282 1.845574,-24.51188 3.330248,-4.53635 3.320264,-4.53511 36.805972,-4.53635 34.24666,-10e-4 33.32885,0.13677 36.01702,-5.41626 1.39126,-2.87396 1.42046,-4.71473 1.42308,-89.74323 0.003,-84.83227 0.0346,-86.86143 1.4039,-89.10716 2.77429,-4.550001 2.54473,-4.521231 36.07509,-4.521231 28.04678,0 30.5622,-0.100523 32.82047,-1.311651 4.86334,-2.608237 5.06887,-3.703997 5.07012,-27.031056 0.001,-23.426681 0.24064,-24.718436 5.02363,-27.107804 2.27143,-1.13471 5.38859,-1.255178 32.50443,-1.256186 32.67632,-0.0012 33.59059,-0.103145 36.17104,-4.032562 1.10388,-1.680961 1.36895,-4.001668 1.67093,-14.629214 0.3891,-13.6938756 0.77213,-15.1040313 4.82371,-17.7587287 1.77874,-1.1654751 4.6855,-1.2661831 36.54621,-1.2661831 33.87887,0 34.65679,0.031564 36.64041,1.4866671 4.64568,3.4078931 4.53639,2.2946832 4.54058,46.2483907 0.004,38.691547 0.0455,39.90747 1.45247,42.215148 2.67058,4.380255 3.18832,4.442892 36.74685,4.445864 28.8364,0.0029 30.46564,0.07261 32.64903,1.403899 4.38462,2.673447 4.52095,3.479027 4.52391,26.732217 0.003,19.7204 0.0916,21.17778 1.42908,23.37138 0.78452,1.28671 2.47916,2.98135 3.76588,3.76587 2.29092,1.39679 3.75244,1.42645 70.42393,1.42908 74.6144,0.003 71.20659,-0.18964 74.18141,4.19199 1.19796,1.7645 1.3154,4.48985 1.5207,35.29082 0.14926,22.3923 -0.0322,34.24723 -0.55133,36.01757 -0.4256,1.45141 -1.76182,3.47028 -2.96939,4.48638 l -2.19557,1.84745 h -73.17314 -73.17315 l -2.68129,-2.45591 -2.68128,-2.45591 -0.35891,-22.52232 c -0.39204,-24.60086 -0.42015,-24.76202 -4.82226,-27.64858 -1.74845,-1.14649 -4.91965,-1.30011 -33.54811,-1.62509 -23.81688,-0.27037 -32.01375,-0.58553 -33.22479,-1.27746 -2.0755,-1.18587 -3.46634,-3.97673 -4.0781,-8.18314 -0.26869,-1.84752 -1.17241,-4.22855 -2.00828,-5.29119 -2.97536,-3.78255 -4.05347,-3.91164 -32.6603,-3.91043 -29.54074,0.001 -29.9572,0.065 -32.83892,5.02363 -1.27168,2.18822 -1.50637,4.14693 -1.81897,15.18125 -0.32181,11.35952 -0.50728,12.83498 -1.79455,14.27602 -3.09567,3.46548 -4.07406,3.56247 -35.93894,3.56247 -33.46158,0 -33.27745,-0.0253 -36.08445,4.96902 l -1.5532,2.76356 v 68.34336 c 0,61.64983 -0.11365,68.53575 -1.16035,70.30768 -2.39831,4.06002 -1.66389,3.9707 -35.84043,4.35867 -28.90382,0.32811 -31.78662,0.47005 -33.59237,1.65409 -2.56573,1.68236 -4.77193,5.34511 -4.77531,7.928 -0.004,3.07742 -1.90023,6.46312 -4.50067,8.03605 -2.18516,1.32174 -4.18366,1.42515 -34.07199,1.76301 l -31.750681,0.35891 -2.345794,2.34502 -2.345787,2.34502 -0.35891,22.54816 c -0.340182,21.37172 -0.436478,22.65382 -1.845574,24.57324 -3.359105,4.57565 -3.029769,4.53799 -39.4291,4.50825 -25.914739,-0.0212 -33.4831091,-0.23293 -35.1732007,-0.98409 z"
     id="path6468"
     transform="scale(0.26458334)" />
</svg>
