<?xml version="1.0" encoding="UTF-8" standalone="no"?>
<svg
   xmlns:dc="http://purl.org/dc/elements/1.1/"
   xmlns:cc="http://creativecommons.org/ns#"
   xmlns:rdf="http://www.w3.org/1999/02/22-rdf-syntax-ns#"
   xmlns:svg="http://www.w3.org/2000/svg"
   xmlns="http://www.w3.org/2000/svg"
   xmlns:sodipodi="http://sodipodi.sourceforge.net/DTD/sodipodi-0.dtd"
   xmlns:inkscape="http://www.inkscape.org/namespaces/inkscape"
   version="1.1"
   width="162.0774mm"
   height="112.6744mm"
   viewBox="0.0000 0.0000 162.0774 112.6744"
   id="svg2345"
   sodipodi:docname="qlp-22_mx_hs_keypad_R_Mk1_rev0-Edge_Cuts.svg"
   inkscape:version="1.0.2 (e86c870879, 2021-01-15)">
  <metadata
     id="metadata2351">
    <rdf:RDF>
      <cc:Work
         rdf:about="">
        <dc:format>image/svg+xml</dc:format>
        <dc:type
           rdf:resource="http://purl.org/dc/dcmitype/StillImage" />
      </cc:Work>
    </rdf:RDF>
  </metadata>
  <defs
     id="defs2349" />
  <sodipodi:namedview
     pagecolor="#ffffff"
     bordercolor="#666666"
     borderopacity="1"
     objecttolerance="10"
     gridtolerance="10"
     guidetolerance="10"
     inkscape:pageopacity="0"
     inkscape:pageshadow="2"
     inkscape:window-width="1914"
     inkscape:window-height="1221"
     id="namedview2347"
     showgrid="false"
     inkscape:zoom="1.3931061"
     inkscape:cx="223.62233"
     inkscape:cy="165.65154"
     inkscape:window-x="0"
     inkscape:window-y="26"
     inkscape:window-maximized="0"
     inkscape:current-layer="svg2345" />
  <title
     id="title2151">SVG Image created as qlp-22_mx_hs_keypad_R_Mk1_rev0-Edge_Cuts.svg date 2024/04/11 17:05:52 </title>
  <desc
     id="desc2153">Image generated by PCBNEW </desc>
  <g
     style="fill:#000000; fill-opacity:1.0000;stroke:#000000; stroke-opacity:1.0000; stroke-linecap:round; stroke-linejoin:round;"
     transform="translate(0 0) scale(1 1)"
     id="g2155" />
  <g
     style="fill:#000000; fill-opacity:0.0;  stroke:#000000; stroke-width:0.0000; stroke-opacity:1;  stroke-linecap:round; stroke-linejoin:round;"
     id="g2157" />
  <g
     style="fill:#000000; fill-opacity:0.0;  stroke:#000000; stroke-width:0.1000; stroke-opacity:1;  stroke-linecap:round; stroke-linejoin:round;"
     id="g2191">
    <path
       d="M119.5500 25.6482 L104.5500 25.6482 "
       id="path2159" />
    <path
       d="M20.0500 88.1482 L20.0500 78.1482 "
       id="path2161" />
    <path
       d="M99.5500 0.6482 L82.5500 0.6482 "
       id="path2163" />
    <path
       d="M62.0500 90.1482 L62.0500 55.1482 "
       id="path2165" />
    <path
       d="M59.5500 92.6482 A2.4999 2.4999 0.0 0 0 62.0500 90.1482"
       id="path2167" />
    <path
       d="M62.5500 10.6482 A2.5000 2.5000 0.0 0 0 60.0500 13.1482"
       id="path2169" />
    <path
       d="M100.0500 45.1482 A2.4999 2.4999 0.0 0 0 97.5500 42.6482"
       id="path2171" />
    <path
       d="M39.5500 97.6483 A2.5001 2.5001 0.0 0 0 42.0500 95.1482"
       id="path2173" />
    <path
       d="M162.0500 60.1482 L162.0500 43.1482 "
       id="path2175" />
    <path
       d="M19.5500 112.6482 A2.5000 2.5000 0.0 0 0 22.0500 110.1482"
       id="path2177" />
    <path
       d="M44.5500 92.6482 L59.5500 92.6482 "
       id="path2179" />
    <path
       d="M22.0500 110.1482 L22.0500 100.1482 "
       id="path2181" />
    <path
       d="M100.0500 45.1483 A2.5000 2.5000 0.0 0 0 102.5500 47.6482"
       id="path2183" />
    <path
       d="M79.5500 52.6482 A2.5000 2.5000 0.0 0 0 82.0500 50.1482"
       id="path2185" />
    <path
       d="M102.0500 3.1482 A2.5000 2.5000 0.0 0 0 99.5500 0.6483"
       id="path2187" />
    <path
       d="M2.5500 112.6482 L19.5500 112.6482 "
       id="path2189" />
  </g>
  <g
     style="fill:#000000; fill-opacity:1.0000;  stroke:#000000; stroke-width:0.0000; stroke-opacity:1;  stroke-linecap:round; stroke-linejoin:round;"
     id="g2195">
    <circle
       cx="42.0500"
       cy="95.1482"
       r="0.0500"
       id="circle2193" />
  </g>
  <g
     style="fill:#000000; fill-opacity:1.0000;  stroke:#000000; stroke-width:0.1000; stroke-opacity:1;  stroke-linecap:round; stroke-linejoin:round;"
     id="g2197" />
  <g
     style="fill:#000000; fill-opacity:0.0;  stroke:#000000; stroke-width:0.1000; stroke-opacity:1;  stroke-linecap:round; stroke-linejoin:round;"
     id="g2269">
    <path
       d="M120.0500 50.1482 L120.0500 60.1482 "
       id="path2199" />
    <path
       d="M84.5500 42.6482 L97.5500 42.6482 "
       id="path2201" />
    <path
       d="M44.5500 92.6482 A2.5000 2.5000 0.0 0 0 42.0500 95.1482"
       id="path2203" />
    <path
       d="M24.5500 97.6482 L39.5500 97.6482 "
       id="path2205" />
    <path
       d="M120.0500 60.1483 A2.5001 2.5001 0.0 0 0 122.5500 62.6482"
       id="path2207" />
    <path
       d="M40.0500 28.1482 L40.0500 73.1482 "
       id="path2209" />
    <path
       d="M79.5500 52.6482 L64.5500 52.6482 "
       id="path2211" />
    <path
       d="M122.0500 28.1482 A2.5001 2.5001 0.0 0 0 119.5500 25.6482"
       id="path2213" />
    <path
       d="M42.5500 25.6482 A2.5000 2.5000 0.0 0 0 40.0500 28.1482"
       id="path2215" />
    <path
       d="M102.0500 23.1482 L102.0500 3.1482 "
       id="path2217" />
    <path
       d="M122.5500 62.6482 L159.5500 62.6482 "
       id="path2219" />
    <path
       d="M80.0500 3.1482 L80.0500 8.1482 "
       id="path2221" />
    <path
       d="M17.5500 90.6482 L2.5500 90.6482 "
       id="path2223" />
    <path
       d="M159.5500 40.6482 L124.5500 40.6482 "
       id="path2225" />
    <path
       d="M57.5500 25.6482 A2.5000 2.5000 0.0 0 0 60.0500 23.1482"
       id="path2227" />
    <path
       d="M37.5500 75.6482 L22.5500 75.6482 "
       id="path2229" />
    <path
       d="M77.5500 10.6482 A2.5000 2.5000 0.0 0 0 80.0500 8.1482"
       id="path2231" />
    <path
       d="M120.0501 50.1482 A2.5001 2.5001 0.0 0 0 117.5500 47.6482"
       id="path2233" />
    <path
       d="M102.5500 47.6482 L117.5500 47.6482 "
       id="path2235" />
    <path
       d="M60.0500 13.1482 L60.0500 23.1482 "
       id="path2237" />
    <path
       d="M102.0500 23.1483 A2.5000 2.5000 0.0 0 0 104.5500 25.6482"
       id="path2239" />
    <path
       d="M0.0500 93.1482 L0.0500 110.1482 "
       id="path2241" />
    <path
       d="M24.5500 97.6482 A2.5000 2.5000 0.0 0 0 22.0500 100.1482"
       id="path2243" />
    <path
       d="M122.0501 38.1482 A2.5000 2.5000 0.0 0 0 124.5500 40.6482"
       id="path2245" />
    <path
       d="M82.5500 0.6482 A2.5001 2.5001 0.0 0 0 80.0500 3.1483"
       id="path2247" />
    <path
       d="M37.5500 75.6482 A2.5000 2.5000 0.0 0 0 40.0500 73.1482"
       id="path2249" />
    <path
       d="M57.5500 25.6482 L42.5500 25.6482 "
       id="path2251" />
    <path
       d="M122.0500 38.1482 L122.0500 28.1482 "
       id="path2253" />
    <path
       d="M77.5500 10.6482 L62.5500 10.6482 "
       id="path2255" />
    <path
       d="M162.0500 43.1482 A2.5001 2.5001 0.0 0 0 159.5500 40.6482"
       id="path2257" />
    <path
       d="M82.0500 50.1482 L82.0500 45.1482 "
       id="path2259" />
    <path
       d="M84.5500 42.6482 A2.5001 2.5001 0.0 0 0 82.0500 45.1483"
       id="path2261" />
    <path
       d="M0.0500 110.1482 A2.5000 2.5000 0.0 0 0 2.5500 112.6482"
       id="path2263" />
    <path
       d="M17.5500 90.6482 A2.5001 2.5001 0.0 0 0 20.0500 88.1482"
       id="path2265" />
    <path
       d="M22.5500 75.6482 A2.5001 2.5001 0.0 0 0 20.0500 78.1482"
       id="path2267" />
  </g>
  <g
     style="fill:#000000; fill-opacity:1.0000;  stroke:#000000; stroke-width:0.0000; stroke-opacity:1;  stroke-linecap:round; stroke-linejoin:round;"
     id="g2273">
    <circle
       cx="100.0500"
       cy="45.1482"
       r="0.0500"
       id="circle2271" />
  </g>
  <g
     style="fill:#000000; fill-opacity:0.0;  stroke:#000000; stroke-width:0.1000; stroke-opacity:1;  stroke-linecap:round; stroke-linejoin:round;"
     id="g2343">
    <path
       d="M64.5500 52.6482 A2.5000 2.5000 0.0 0 0 62.0500 55.1482"
       id="path2275" />
    <path
       d="M159.5500 62.6482 A2.5000 2.5000 0.0 0 0 162.0500 60.1482"
       id="path2277" />
    <path
       d="M2.5500 90.6482 A2.5000 2.5000 0.0 0 0 0.0500 93.1482"
       id="path2279" />
    <g
       id="g2281" />
    <g
       id="g2283" />
    <g
       id="g2285" />
    <g
       id="g2287" />
    <g
       id="g2289" />
    <g
       id="g2291" />
    <g
       id="g2293" />
    <g
       id="g2295" />
    <g
       id="g2297" />
    <g
       id="g2299" />
    <g
       id="g2301" />
    <g
       id="g2303" />
    <g
       id="g2305" />
    <g
       id="g2307" />
    <g
       id="g2309" />
    <g
       id="g2311" />
    <g
       id="g2313" />
    <g
       id="g2315" />
    <g
       id="g2317" />
    <g
       id="g2319" />
    <g
       id="g2321" />
    <g
       id="g2323" />
    <g
       id="g2325" />
    <g
       id="g2327" />
    <g
       id="g2329" />
    <g
       id="g2331" />
    <g
       id="g2333" />
    <g
       id="g2335" />
    <g
       id="g2337" />
    <g
       id="g2339" />
    <g
       id="g2341" />
  </g>
  <path
     style="fill:#000000;fill-opacity:0.97278;stroke:#393939;stroke-width:0.959198;stroke-linecap:round;stroke-linejoin:round"
     d="m 5.7780153,424.38068 c -2.0263939,-0.88264 -4.1189111,-3.41296 -4.7744684,-5.77339 -0.74759658,-2.69184 -0.7142048,-66.17312 0.03623,-68.8762 0.7183099,-2.58736 3.7102101,-5.57926 6.2975736,-6.29757 1.3674983,-0.37965 11.6897705,-0.5614 31.9933445,-0.56331 l 29.974487,-0.003 2.310317,-1.46516 c 1.535726,-0.97393 2.675193,-2.2189 3.398615,-3.71329 1.057727,-2.18496 1.088613,-2.83181 1.099444,-23.02536 0.01254,-23.40238 0.0299,-23.52226 3.827197,-26.4195 l 1.918535,-1.46381 31.25602,-0.25378 c 17.19082,-0.13959 31.71285,-0.45888 32.27118,-0.70953 2.27836,-1.02285 4.479,-3.0986 5.37365,-5.06867 0.91457,-2.01394 0.94926,-5.20787 0.96273,-88.63088 0.009,-56.90471 0.19028,-87.17638 0.52879,-88.39509 0.63919,-2.30129 3.80945,-5.251708 6.42277,-5.977384 1.26481,-0.351217 12.25535,-0.539507 31.59915,-0.54135 29.18416,-0.0025 29.69549,-0.0201 31.88387,-1.079476 1.33872,-0.648063 2.76635,-1.895679 3.58639,-3.134158 l 1.36234,-2.057519 0.25379,-21.863945 c 0.19991,-17.222467 0.40194,-22.133321 0.95168,-23.132878 0.90777,-1.650531 2.59351,-3.494743 3.87029,-4.234106 0.72562,-0.420201 9.91813,-0.660245 32.23105,-0.841651 30.4178,-0.247299 31.26782,-0.280898 33.24621,-1.314144 1.11667,-0.583195 2.71553,-2.029587 3.55303,-3.214203 l 1.52273,-2.153849 0.25378,-12.520643 c 0.24233,-11.9550379 0.30654,-12.6054697 1.42142,-14.3984651 0.6422,-1.0328033 2.01265,-2.4032576 3.04546,-3.0454544 l 1.87782,-1.1676304 h 34.80589 34.80589 l 2.16009,1.4294041 c 1.3592,0.8994319 2.51756,2.2167689 3.12424,3.5530299 0.92037,2.0271839 0.96467,3.9165679 0.97531,41.6039379 0.01,34.527487 0.11004,39.717052 0.79944,41.367419 0.83325,1.994757 2.8482,4.371613 4.54125,5.356924 0.72872,0.424094 9.82283,0.662396 32.23106,0.844575 35.19207,0.286115 33.74203,0.117956 36.46385,4.228636 l 1.35053,2.03969 0.25379,21.86394 c 0.27464,23.66017 0.23398,23.32223 3.13105,26.02721 3.03323,2.83211 -0.84278,2.689 72.82877,2.689 h 67.87119 l 2.22405,1.07665 c 1.33944,0.64841 2.76588,1.89531 3.58638,3.13494 l 1.36233,2.05831 0.15273,33.79118 c 0.10192,22.55358 -0.0244,34.40132 -0.38048,35.62587 -0.72304,2.48805 -2.26962,4.33923 -4.63203,5.54445 -1.9427,0.99108 -3.05642,1.00415 -74.51861,0.87409 l -72.54643,-0.13202 -1.95046,-1.55881 c -3.79795,-3.03534 -3.7253,-2.53529 -3.72618,-25.64764 -5.1e-4,-14.43678 -0.17898,-21.12463 -0.59584,-22.33333 -0.8782,-2.54639 -2.28096,-4.23202 -4.65269,-5.59094 l -2.11211,-1.21018 -30.45454,-0.12734 c -16.75,-0.07 -30.96427,-0.24464 -31.58728,-0.38801 -1.31469,-0.30255 -4.49917,-2.97476 -5.27698,-4.42812 -0.2936,-0.54858 -0.74877,-2.5153 -1.01149,-4.37048 -0.56095,-3.96098 -2.07149,-6.53236 -4.85333,-8.26179 l -1.93758,-1.20456 h -27.40909 c -26.81228,0 -27.45329,0.0231 -29.43939,1.06036 -1.11666,0.58319 -2.71553,2.02974 -3.55303,3.21454 l -1.52272,2.15419 -0.25379,12.5203 c -0.28693,14.15509 -0.42973,14.74558 -4.16389,17.21755 l -2.10528,1.39366 -31.50746,0.25379 c -23.34592,0.18805 -31.78525,0.41312 -32.57989,0.86886 -1.81353,1.04012 -4.17423,4.08011 -4.73416,6.09644 -0.35923,1.29358 -0.53336,23.96903 -0.53527,69.70615 l -0.003,67.78888 -1.45427,2.29314 c -2.80439,4.42206 -1.1258,4.21556 -36.61391,4.50409 -22.40822,0.18218 -31.50233,0.42048 -32.23105,0.84457 -1.29309,0.75254 -3.51523,3.1436 -4.24876,4.57174 -0.31129,0.60605 -0.78104,2.62054 -1.0439,4.47664 -0.53554,3.78165 -2.06653,6.27394 -4.7582,7.74583 -1.48073,0.80972 -4.36641,0.91003 -32.83929,1.14152 -34.625517,0.2815 -33.018755,0.11594 -35.708003,3.67939 -2.202406,2.91835 -2.353887,4.58407 -2.365688,26.01378 -0.01107,20.11958 -0.02152,20.32128 -1.155222,22.32299 -0.641459,1.13257 -2.031425,2.52254 -3.163999,3.164 l -2.019958,1.14404 -34.515147,-0.0115 c -27.562215,-0.009 -34.8269622,-0.14734 -36.0630374,-0.68574 z"
     id="path2918"
     transform="scale(0.26458334)" />
</svg>
