<?xml version="1.0" standalone="no"?>
 <!DOCTYPE svg PUBLIC "-//W3C//DTD SVG 1.1//EN" 
 "http://www.w3.org/Graphics/SVG/1.1/DTD/svg11.dtd"> 
<svg
  xmlns:svg="http://www.w3.org/2000/svg"
  xmlns="http://www.w3.org/2000/svg"
  xmlns:xlink="http://www.w3.org/1999/xlink"
  version="1.1"
  width="162.0774mm" height="113.0046mm" viewBox="0.0000 0.0000 162.0774 113.0046">
<title>SVG Image created as qlp-22_mx_hs_keypad_L_Mk1_rev0-User_1.svg date 2024/03/14 18:35:34 </title>
  <desc>Image generated by PCBNEW </desc>
<g style="fill:#000000; fill-opacity:1.0000;stroke:#000000; stroke-opacity:1.0000;
stroke-linecap:round; stroke-linejoin:round;"
 transform="translate(0 0) scale(1 1)">
</g>
<g style="fill:#000000; fill-opacity:0.0; 
stroke:#000000; stroke-width:0.0000; stroke-opacity:1; 
stroke-linecap:round; stroke-linejoin:round;">
</g>
<g style="fill:#000000; fill-opacity:0.0; 
stroke:#000000; stroke-width:0.1500; stroke-opacity:1; 
stroke-linecap:round; stroke-linejoin:round;">
<circle cx="21.0500" cy="60.1683" r="2.7500" /> 
<circle cx="79.7500" cy="21.9682" r="3.0406" /> 
<circle cx="140.6500" cy="95.7682" r="3.0000" /> 
<circle cx="103.8500" cy="69.0682" r="3.0000" /> 
<g >
</g>
<g >
</g>
<g >
</g>
<g >
</g>
<g >
</g>
<g >
</g>
<g >
</g>
<g >
</g>
<g >
</g>
<g >
</g>
<g >
</g>
<g >
</g>
<g >
</g>
<g >
</g>
<g >
</g>
<g >
</g>
<g >
</g>
<g >
</g>
<g >
</g>
<g >
</g>
<g >
</g>
<g >
</g>
<g >
</g>
<g >
</g>
<g >
</g>
<g >
</g>
<g >
</g>
<g >
</g>
<g >
</g>
<g >
</g>
<g >
</g>
</g>
<g style="fill:#000000; fill-opacity:0.0; 
stroke:#000000; stroke-width:0.1500; stroke-opacity:1; 
stroke-linecap:round; stroke-linejoin:round;">
</g>
<g style="fill:#000000; fill-opacity:0.0; 
stroke:#000000; stroke-width:0.1000; stroke-opacity:1; 
stroke-linecap:round; stroke-linejoin:round;">
<path d="M2.5500 62.9682
L39.5500 62.9682
" />
<path d="M2.5500 40.9682
L37.5500 40.9682
" />
<path d="M80.0500 50.4682
L80.0500 45.4682
" />
<path d="M0.0500 60.4682 A2.5000 2.5000 0.0 0 0 2.5500 62.9682" />
<path d="M60.0500 23.4682
L60.0500 3.4682
" />
<path d="M64.5500 42.9682 A2.5000 2.5000 0.0 0 0 62.0500 45.4682" />
<path d="M142.0500 88.4682 A2.5000 2.5000 0.0 0 0 144.5500 90.9682" />
<path d="M142.0500 78.4682 A2.5000 2.5000 0.0 0 0 139.5500 75.9682" />
<path d="M37.5500 40.9682 A2.5000 2.5000 0.0 0 0 40.0500 38.4682" />
</g>
<g style="fill:#000000; fill-opacity:1.0000; 
stroke:#000000; stroke-width:0.0000; stroke-opacity:1; 
stroke-linecap:round; stroke-linejoin:round;">
<circle cx="120.0500" cy="95.4682" r="0.0500" /> 
</g>
<g style="fill:#000000; fill-opacity:1.0000; 
stroke:#000000; stroke-width:0.1000; stroke-opacity:1; 
stroke-linecap:round; stroke-linejoin:round;">
</g>
<g style="fill:#000000; fill-opacity:0.0; 
stroke:#000000; stroke-width:0.1000; stroke-opacity:1; 
stroke-linecap:round; stroke-linejoin:round;">
<path d="M142.0500 78.4682
L142.0500 88.4682
" />
<path d="M102.0500 23.4682 A2.5000 2.5000 0.0 0 0 104.5500 25.9682" />
<path d="M100.0500 55.4682 A2.5000 2.5000 0.0 0 0 97.5500 52.9682" />
<path d="M144.5500 90.9682
L159.5500 90.9682
" />
<path d="M102.0500 13.4682 A2.5000 2.5000 0.0 0 0 99.5500 10.9682" />
</g>
<g style="fill:#000000; fill-opacity:1.0000; 
stroke:#000000; stroke-width:0.0000; stroke-opacity:1; 
stroke-linecap:round; stroke-linejoin:round;">
<circle cx="62.0500" cy="45.4682" r="0.0500" /> 
</g>
<g style="fill:#000000; fill-opacity:0.0; 
stroke:#000000; stroke-width:0.1000; stroke-opacity:1; 
stroke-linecap:round; stroke-linejoin:round;">
<path d="M2.5500 40.9682 A2.5000 2.5000 0.0 0 0 0.0500 43.4682" />
<path d="M62.5500 0.9682
L79.5500 0.9682
" />
<path d="M100.0500 90.4682 A2.5000 2.5000 0.0 0 0 102.5500 92.9682" />
<path d="M80.0500 50.4682 A2.5000 2.5000 0.0 0 0 82.5500 52.9682" />
<path d="M124.5500 75.9682
L139.5500 75.9682
" />
<path d="M44.5500 47.9682 A2.5000 2.5000 0.0 0 0 42.0500 50.4682" />
<path d="M62.5500 0.9682 A2.5000 2.5000 0.0 0 0 60.0500 3.4682" />
<path d="M42.5500 25.9682 A2.5000 2.5000 0.0 0 0 40.0500 28.4682" />
<path d="M102.0500 13.4682
L102.0500 23.4682
" />
<path d="M122.0500 73.4682 A2.5000 2.5000 0.0 0 0 124.5500 75.9682" />
<path d="M39.5500 62.9682 A2.5000 2.5000 0.0 0 0 42.0500 60.4682" />
<path d="M140.0500 100.4682 A2.5000 2.5000 0.0 0 0 137.5500 97.9682" />
<path d="M120.0500 95.4682 A2.5000 2.5000 0.0 0 0 117.5500 92.9682" />
<path d="M137.5500 97.9682
L122.5500 97.9682
" />
<path d="M40.0500 38.4682
L40.0500 28.4682
" />
<path d="M82.0500 8.4682 A2.5000 2.5000 0.0 0 0 84.5500 10.9682" />
<path d="M82.0500 3.4682
L82.0500 8.4682
" />
<path d="M122.0500 28.4682 A2.5000 2.5000 0.0 0 0 119.5500 25.9682" />
<path d="M97.5500 52.9682
L82.5500 52.9682
" />
<path d="M120.0500 95.4682 A2.5000 2.5000 0.0 0 0 122.5500 97.9682" />
<path d="M42.0500 60.4682
L42.0500 50.4682
" />
<path d="M162.0500 93.4682 A2.5000 2.5000 0.0 0 0 159.5500 90.9682" />
<path d="M104.5500 25.9682
L119.5500 25.9682
" />
<path d="M84.5500 10.9682
L99.5500 10.9682
" />
<path d="M159.5500 112.9682 A2.5000 2.5000 0.0 0 0 162.0500 110.4682" />
<path d="M42.5500 25.9682
L57.5500 25.9682
" />
<path d="M0.0500 43.4682
L0.0500 60.4682
" />
<path d="M100.0500 90.4682
L100.0500 55.4682
" />
<path d="M44.5500 47.9682
L59.5500 47.9682
" />
<path d="M159.5500 112.9682
L142.5500 112.9682
" />
<path d="M122.0500 28.4682
L122.0500 73.4682
" />
<path d="M140.0500 110.4682 A2.5000 2.5000 0.0 0 0 142.5500 112.9682" />
<path d="M162.0500 93.4682
L162.0500 110.4682
" />
<path d="M117.5500 92.9682
L102.5500 92.9682
" />
<path d="M57.5500 25.9682 A2.5000 2.5000 0.0 0 0 60.0500 23.4682" />
<path d="M140.0500 110.4682
L140.0500 100.4682
" />
<path d="M64.5500 42.9682
L77.5500 42.9682
" />
<path d="M82.0500 3.4682 A2.5000 2.5000 0.0 0 0 79.5500 0.9682" />
<path d="M80.0500 45.4682 A2.5000 2.5000 0.0 0 0 77.5500 42.9682" />
<path d="M59.5500 47.9682 A2.5000 2.5000 0.0 0 0 62.0500 45.4682" />
<g >
</g>
<g >
</g>
<g >
</g>
<g >
</g>
<g >
</g>
<g >
</g>
<g >
</g>
<g >
</g>
<g >
</g>
<g >
</g>
<g >
</g>
<g >
</g>
<g >
</g>
<g >
</g>
<g >
</g>
<g >
</g>
<g >
</g>
<g >
</g>
<g >
</g>
<g >
</g>
<g >
</g>
<g >
</g>
<g >
</g>
<g >
</g>
<g >
</g>
<g >
</g>
<g >
</g>
<g >
</g>
<g >
</g>
<g >
</g>
<g >
</g>
</g> 
</svg>
