<?xml version="1.0" encoding="UTF-8" standalone="no"?>
<svg
   xmlns:dc="http://purl.org/dc/elements/1.1/"
   xmlns:cc="http://creativecommons.org/ns#"
   xmlns:rdf="http://www.w3.org/1999/02/22-rdf-syntax-ns#"
   xmlns:svg="http://www.w3.org/2000/svg"
   xmlns="http://www.w3.org/2000/svg"
   xmlns:sodipodi="http://sodipodi.sourceforge.net/DTD/sodipodi-0.dtd"
   xmlns:inkscape="http://www.inkscape.org/namespaces/inkscape"
   version="1.1"
   width="162.0774mm"
   height="112.6744mm"
   viewBox="0.0000 0.0000 162.0774 112.6744"
   id="svg1823"
   sodipodi:docname="qlp-22_mx_hs_keypad_R_Mk1_rev0-Edge_Cuts.svg"
   inkscape:version="1.0.2 (e86c870879, 2021-01-15)">
  <metadata
     id="metadata1829">
    <rdf:RDF>
      <cc:Work
         rdf:about="">
        <dc:format>image/svg+xml</dc:format>
        <dc:type
           rdf:resource="http://purl.org/dc/dcmitype/StillImage" />
      </cc:Work>
    </rdf:RDF>
  </metadata>
  <defs
     id="defs1827" />
  <sodipodi:namedview
     pagecolor="#ffffff"
     bordercolor="#666666"
     borderopacity="1"
     objecttolerance="10"
     gridtolerance="10"
     guidetolerance="10"
     inkscape:pageopacity="0"
     inkscape:pageshadow="2"
     inkscape:window-width="1914"
     inkscape:window-height="1221"
     id="namedview1825"
     showgrid="false"
     inkscape:zoom="2.1336129"
     inkscape:cx="306.28799"
     inkscape:cy="210.8189"
     inkscape:window-x="0"
     inkscape:window-y="26"
     inkscape:window-maximized="0"
     inkscape:current-layer="svg1823" />
  <title
     id="title1629">SVG Image created as qlp-22_mx_hs_keypad_R_Mk1_rev0-Edge_Cuts.svg date 2024/03/23 06:22:09 </title>
  <desc
     id="desc1631">Image generated by PCBNEW </desc>
  <g
     style="fill:#000000; fill-opacity:1.0000;stroke:#000000; stroke-opacity:1.0000; stroke-linecap:round; stroke-linejoin:round;"
     transform="translate(0 0) scale(1 1)"
     id="g1633" />
  <g
     style="fill:#000000; fill-opacity:0.0;  stroke:#000000; stroke-width:0.0000; stroke-opacity:1;  stroke-linecap:round; stroke-linejoin:round;"
     id="g1635" />
  <g
     style="fill:#000000; fill-opacity:0.0;  stroke:#000000; stroke-width:0.1000; stroke-opacity:1;  stroke-linecap:round; stroke-linejoin:round;"
     id="g1669">
    <path
       d="M119.5500 25.6482 L104.5500 25.6482 "
       id="path1637" />
    <path
       d="M20.0500 88.1482 L20.0500 78.1482 "
       id="path1639" />
    <path
       d="M99.5500 0.6482 L82.5500 0.6482 "
       id="path1641" />
    <path
       d="M62.0500 90.1482 L62.0500 55.1482 "
       id="path1643" />
    <path
       d="M59.5500 92.6483 A2.5000 2.5000 0.0 0 0 62.0500 90.1482"
       id="path1645" />
    <path
       d="M62.5500 10.6482 A2.5000 2.5000 0.0 0 0 60.0500 13.1482"
       id="path1647" />
    <path
       d="M100.0501 45.1482 A2.5000 2.5000 0.0 0 0 97.5500 42.6482"
       id="path1649" />
    <path
       d="M39.5500 97.6482 A2.5000 2.5000 0.0 0 0 42.0500 95.1482"
       id="path1651" />
    <path
       d="M162.0500 60.1482 L162.0500 43.1482 "
       id="path1653" />
    <path
       d="M19.5500 112.6483 A2.5000 2.5000 0.0 0 0 22.0500 110.1482"
       id="path1655" />
    <path
       d="M44.5500 92.6482 L59.5500 92.6482 "
       id="path1657" />
    <path
       d="M22.0500 110.1482 L22.0500 100.1482 "
       id="path1659" />
    <path
       d="M100.0500 45.1483 A2.5000 2.5000 0.0 0 0 102.5500 47.6482"
       id="path1661" />
    <path
       d="M79.5500 52.6483 A2.5000 2.5000 0.0 0 0 82.0500 50.1482"
       id="path1663" />
    <path
       d="M102.0500 3.1482 A2.5000 2.5000 0.0 0 0 99.5500 0.6483"
       id="path1665" />
    <path
       d="M2.5500 112.6482 L19.5500 112.6482 "
       id="path1667" />
  </g>
  <g
     style="fill:#000000; fill-opacity:1.0000;  stroke:#000000; stroke-width:0.0000; stroke-opacity:1;  stroke-linecap:round; stroke-linejoin:round;"
     id="g1673">
    <circle
       cx="42.0500"
       cy="95.1482"
       r="0.0500"
       id="circle1671" />
  </g>
  <g
     style="fill:#000000; fill-opacity:1.0000;  stroke:#000000; stroke-width:0.1000; stroke-opacity:1;  stroke-linecap:round; stroke-linejoin:round;"
     id="g1675" />
  <g
     style="fill:#000000; fill-opacity:0.0;  stroke:#000000; stroke-width:0.1000; stroke-opacity:1;  stroke-linecap:round; stroke-linejoin:round;"
     id="g1747">
    <path
       d="M120.0500 50.1482 L120.0500 60.1482 "
       id="path1677" />
    <path
       d="M84.5500 42.6482 L97.5500 42.6482 "
       id="path1679" />
    <path
       d="M44.5500 92.6483 A2.5000 2.5000 0.0 0 0 42.0500 95.1482"
       id="path1681" />
    <path
       d="M24.5500 97.6482 L39.5500 97.6482 "
       id="path1683" />
    <path
       d="M120.0501 60.1483 A2.5000 2.5000 0.0 0 0 122.5500 62.6482"
       id="path1685" />
    <path
       d="M40.0500 28.1482 L40.0500 73.1482 "
       id="path1687" />
    <path
       d="M79.5500 52.6482 L64.5500 52.6482 "
       id="path1689" />
    <path
       d="M122.0499 28.1482 A2.5000 2.5000 0.0 0 0 119.5500 25.6482"
       id="path1691" />
    <path
       d="M42.5500 25.6483 A2.5000 2.5000 0.0 0 0 40.0500 28.1482"
       id="path1693" />
    <path
       d="M102.0500 23.1482 L102.0500 3.1482 "
       id="path1695" />
    <path
       d="M122.5500 62.6482 L159.5500 62.6482 "
       id="path1697" />
    <path
       d="M80.0500 3.1482 L80.0500 8.1482 "
       id="path1699" />
    <path
       d="M17.5500 90.6482 L2.5500 90.6482 "
       id="path1701" />
    <path
       d="M159.5500 40.6482 L124.5500 40.6482 "
       id="path1703" />
    <path
       d="M57.5500 25.6482 A2.5000 2.5000 0.0 0 0 60.0500 23.1482"
       id="path1705" />
    <path
       d="M37.5500 75.6482 L22.5500 75.6482 "
       id="path1707" />
    <path
       d="M77.5500 10.6483 A2.5001 2.5001 0.0 0 0 80.0500 8.1482"
       id="path1709" />
    <path
       d="M120.0500 50.1482 A2.5000 2.5000 0.0 0 0 117.5500 47.6482"
       id="path1711" />
    <path
       d="M102.5500 47.6482 L117.5500 47.6482 "
       id="path1713" />
    <path
       d="M60.0500 13.1482 L60.0500 23.1482 "
       id="path1715" />
    <path
       d="M102.0500 23.1483 A2.4999 2.4999 0.0 0 0 104.5500 25.6482"
       id="path1717" />
    <path
       d="M0.0500 93.1482 L0.0500 110.1482 "
       id="path1719" />
    <path
       d="M24.5500 97.6482 A2.5000 2.5000 0.0 0 0 22.0500 100.1482"
       id="path1721" />
    <path
       d="M122.0501 38.1483 A2.5000 2.5000 0.0 0 0 124.5500 40.6482"
       id="path1723" />
    <path
       d="M82.5500 0.6483 A2.5000 2.5000 0.0 0 0 80.0500 3.1483"
       id="path1725" />
    <path
       d="M37.5500 75.6483 A2.5000 2.5000 0.0 0 0 40.0500 73.1482"
       id="path1727" />
    <path
       d="M57.5500 25.6482 L42.5500 25.6482 "
       id="path1729" />
    <path
       d="M122.0500 38.1482 L122.0500 28.1482 "
       id="path1731" />
    <path
       d="M77.5500 10.6482 L62.5500 10.6482 "
       id="path1733" />
    <path
       d="M162.0499 43.1482 A2.5000 2.5000 0.0 0 0 159.5500 40.6482"
       id="path1735" />
    <path
       d="M82.0500 50.1482 L82.0500 45.1482 "
       id="path1737" />
    <path
       d="M84.5500 42.6483 A2.5000 2.5000 0.0 0 0 82.0500 45.1482"
       id="path1739" />
    <path
       d="M0.0500 110.1482 A2.5000 2.5000 0.0 0 0 2.5500 112.6482"
       id="path1741" />
    <path
       d="M17.5500 90.6482 A2.5000 2.5000 0.0 0 0 20.0500 88.1482"
       id="path1743" />
    <path
       d="M22.5500 75.6483 A2.5000 2.5000 0.0 0 0 20.0500 78.1482"
       id="path1745" />
  </g>
  <g
     style="fill:#000000; fill-opacity:1.0000;  stroke:#000000; stroke-width:0.0000; stroke-opacity:1;  stroke-linecap:round; stroke-linejoin:round;"
     id="g1751">
    <circle
       cx="100.0500"
       cy="45.1482"
       r="0.0500"
       id="circle1749" />
  </g>
  <g
     style="fill:#000000; fill-opacity:0.0;  stroke:#000000; stroke-width:0.1000; stroke-opacity:1;  stroke-linecap:round; stroke-linejoin:round;"
     id="g1821">
    <path
       d="M64.5500 52.6482 A2.5000 2.5000 0.0 0 0 62.0500 55.1482"
       id="path1753" />
    <path
       d="M159.5500 62.6482 A2.5000 2.5000 0.0 0 0 162.0500 60.1482"
       id="path1755" />
    <path
       d="M2.5500 90.6482 A2.5000 2.5000 0.0 0 0 0.0500 93.1482"
       id="path1757" />
    <g
       id="g1759" />
    <g
       id="g1761" />
    <g
       id="g1763" />
    <g
       id="g1765" />
    <g
       id="g1767" />
    <g
       id="g1769" />
    <g
       id="g1771" />
    <g
       id="g1773" />
    <g
       id="g1775" />
    <g
       id="g1777" />
    <g
       id="g1779" />
    <g
       id="g1781" />
    <g
       id="g1783" />
    <g
       id="g1785" />
    <g
       id="g1787" />
    <g
       id="g1789" />
    <g
       id="g1791" />
    <g
       id="g1793" />
    <g
       id="g1795" />
    <g
       id="g1797" />
    <g
       id="g1799" />
    <g
       id="g1801" />
    <g
       id="g1803" />
    <g
       id="g1805" />
    <g
       id="g1807" />
    <g
       id="g1809" />
    <g
       id="g1811" />
    <g
       id="g1813" />
    <g
       id="g1815" />
    <g
       id="g1817" />
    <g
       id="g1819" />
  </g>
  <path
     style="fill:#000000;fill-opacity:0.97278;stroke:#393939;stroke-width:0.885711;stroke-linecap:round;stroke-linejoin:round"
     d="m 6.0929515,424.57779 c -1.7645622,-0.78993 -4.2388522,-3.37211 -4.8924836,-5.10581 -0.3341085,-0.8862 -0.49743503,-12.49462 -0.49743503,-35.35519 0,-33.72584 0.009053,-34.05447 0.99415803,-36.08943 0.5985675,-1.23647 1.7502882,-2.55422 2.8943875,-3.31162 l 1.9002294,-1.25797 31.2027062,-0.23434 31.202707,-0.23435 2.088289,-1.17172 c 1.148554,-0.64445 2.730378,-2.08586 3.515164,-3.20314 l 1.426876,-2.03143 0.234344,-21.87169 c 0.205918,-19.21885 0.328752,-22.04224 1.012705,-23.27776 1.028565,-1.85804 3.123233,-3.8046 4.759242,-4.42273 0.880797,-0.33278 11.039401,-0.4985 30.558859,-0.4985 18.58005,0 30.07278,-0.17872 31.52531,-0.49023 2.56924,-0.551 5.33139,-2.58312 6.55797,-4.8247 0.75756,-1.38444 0.82572,-7.21416 1.04478,-89.36017 0.19538,-73.26783 0.34127,-88.07392 0.87747,-89.05083 0.94091,-1.71426 2.90549,-3.721983 4.51244,-4.611553 1.25814,-0.696472 4.68516,-0.803014 32.57386,-1.012705 33.85053,-0.254517 32.01125,-0.09851 35.04731,-2.972761 2.79092,-2.642171 2.91646,-3.779654 2.91646,-26.424015 0,-19.365218 0.0439,-20.407627 0.93306,-22.150487 1.18833,-2.329328 3.43304,-4.04128 6.10667,-4.657332 1.32206,-0.304626 13.05149,-0.488052 31.67054,-0.495266 l 29.57083,-0.01146 2.06565,-1.090938 c 1.35524,-0.715751 2.5492,-1.871036 3.47171,-3.359242 l 1.40606,-2.268305 0.23435,-12.224653 C 303.26996,7.79862 303.32845,7.5464079 306.91735,4.6456192 l 1.80109,-1.4557574 h 35.25954 35.25954 l 1.94843,1.2894163 c 1.07165,0.709179 2.42716,2.1855481 3.01226,3.2808199 l 1.0638,1.9914039 0.23435,40.5415621 c 0.24994,43.241157 0.14227,41.36112 2.51918,43.984084 2.48983,2.747575 1.06167,2.629779 34.9759,2.884774 34.22695,0.257347 32.41146,0.09639 35.21155,3.121808 2.57527,2.7825 2.50093,2.09256 2.75223,25.54585 l 0.23434,21.87166 1.40607,1.99547 c 0.77333,1.09751 2.3356,2.4862 3.4717,3.086 l 2.06565,1.09053 67.53462,0.003 c 47.37579,0.002 68.09421,0.15548 69.40935,0.51472 2.5328,0.69184 4.73624,2.43821 5.86292,4.64672 0.90645,1.77671 0.93307,2.8068 0.93307,36.07692 0,27.7042 -0.12097,34.53757 -0.6332,35.7635 -0.83108,1.98898 -3.59226,4.37584 -5.80349,5.01667 -1.25088,0.36252 -22.67459,0.47112 -73.51488,0.37266 l -71.74949,-0.13915 -1.86909,-1.29534 c -1.028,-0.71243 -2.38084,-2.1888 -3.00632,-3.28082 l -1.13724,-1.98548 -0.23434,-21.82941 -0.23435,-21.82941 -1.31906,-1.99208 c -0.91288,-1.37865 -2.06747,-2.34053 -3.74951,-3.12368 l -2.43044,-1.1316 -30.27387,-0.005 -30.27387,-0.005 -2.06565,-1.09053 c -3.05719,-1.61402 -4.55666,-4.04759 -5.0795,-8.24388 -0.52305,-4.19793 -2.069,-6.69881 -5.14473,-8.32261 l -2.06565,-1.09031 h -26.89092 c -29.62857,0 -28.79476,-0.0768 -31.91207,2.94027 -2.53426,2.45279 -2.91646,4.66964 -2.91646,16.91609 0,10.02847 -0.0694,10.9245 -0.99416,12.83479 -0.5986,1.23653 -1.75026,2.55418 -2.89445,3.31162 l -1.90029,1.25797 -31.20265,0.23434 -31.20264,0.23435 -2.08829,1.17172 c -1.14856,0.64445 -2.73038,2.08619 -3.51517,3.20388 l -1.42687,2.03216 -0.23435,69.2085 c -0.23259,68.69225 -0.2415,69.2207 -1.1942,70.84243 -0.52792,0.89866 -1.86405,2.26957 -2.96918,3.04648 l -2.00932,1.41255 -31.24509,0.23435 c -29.6004,0.222 -31.34046,0.28169 -33.05713,1.1338 -2.2116,1.09777 -4.40426,4.00772 -4.74963,6.30337 -0.94242,6.26411 -2.11827,8.64625 -5.06259,10.25631 -1.37186,0.75018 -4.14271,0.83959 -32.6668,1.05406 l -31.167793,0.23434 -2.213813,1.30135 c -1.435579,0.84388 -2.671286,2.07959 -3.515164,3.51517 l -1.301352,2.21381 -0.234344,21.82942 -0.234344,21.82942 -1.25797,1.89974 c -0.757129,1.1434 -2.075592,2.29556 -3.311622,2.89391 -2.03633,0.98577 -2.34206,0.994 -36.237119,0.97581 -27.568017,-0.0148 -34.4555744,-0.14016 -35.5895275,-0.64779 z"
     id="path1831"
     transform="scale(0.26458334)" />
</svg>
