<?xml version="1.0" standalone="no"?>
 <!DOCTYPE svg PUBLIC "-//W3C//DTD SVG 1.1//EN" 
 "http://www.w3.org/Graphics/SVG/1.1/DTD/svg11.dtd"> 
<svg
  xmlns:svg="http://www.w3.org/2000/svg"
  xmlns="http://www.w3.org/2000/svg"
  xmlns:xlink="http://www.w3.org/1999/xlink"
  version="1.1"
  width="162.0774mm" height="112.6744mm" viewBox="0.0000 0.0000 162.0774 112.6744">
<title>SVG Image created as qlp-22_mx_hs_keypad_L_Mk1_rev0-User_1.svg date 2024/04/11 18:04:56 </title>
  <desc>Image generated by PCBNEW </desc>
<g style="fill:#000000; fill-opacity:1.0000;stroke:#000000; stroke-opacity:1.0000;
stroke-linecap:round; stroke-linejoin:round;"
 transform="translate(0 0) scale(1 1)">
</g>
<g style="fill:#000000; fill-opacity:0.0; 
stroke:#000000; stroke-width:0.0000; stroke-opacity:1; 
stroke-linecap:round; stroke-linejoin:round;">
</g>
<g style="fill:#000000; fill-opacity:0.0; 
stroke:#000000; stroke-width:0.1500; stroke-opacity:1; 
stroke-linecap:round; stroke-linejoin:round;">
<circle cx="21.0699" cy="59.8727" r="2.7500" /> 
<circle cx="103.8502" cy="68.8251" r="3.0000" /> 
<circle cx="140.6566" cy="95.4706" r="3.0000" /> 
<circle cx="79.7841" cy="21.6489" r="3.0000" /> 
<g >
</g>
<g >
</g>
<g >
</g>
<g >
</g>
<g >
</g>
<g >
</g>
<g >
</g>
<g >
</g>
<g >
</g>
<g >
</g>
<g >
</g>
<g >
</g>
<g >
</g>
<g >
</g>
<g >
</g>
<g >
</g>
<g >
</g>
<g >
</g>
<g >
</g>
<g >
</g>
<g >
</g>
<g >
</g>
<g >
</g>
<g >
</g>
<g >
</g>
<g >
</g>
<g >
</g>
<g >
</g>
<g >
</g>
<g >
</g>
<g >
</g>
</g>
<g style="fill:#000000; fill-opacity:0.0; 
stroke:#000000; stroke-width:0.1500; stroke-opacity:1; 
stroke-linecap:round; stroke-linejoin:round;">
</g>
<g style="fill:#000000; fill-opacity:0.0; 
stroke:#000000; stroke-width:0.1000; stroke-opacity:1; 
stroke-linecap:round; stroke-linejoin:round;">
<path d="M2.5500 62.6482
L39.5500 62.6482
" />
<path d="M2.5500 40.6482
L37.5500 40.6482
" />
<path d="M80.0500 50.1482
L80.0500 45.1482
" />
<path d="M0.0500 60.1483 A2.5000 2.5000 0.0 0 0 2.5500 62.6482" />
<path d="M60.0500 23.1482
L60.0500 3.1482
" />
<path d="M64.5500 42.6483 A2.4999 2.4999 0.0 0 0 62.0500 45.1483" />
<path d="M142.0500 88.1482 A2.5000 2.5000 0.0 0 0 144.5500 90.6482" />
<path d="M142.0500 78.1482 A2.5001 2.5001 0.0 0 0 139.5500 75.6483" />
<path d="M37.5500 40.6482 A2.5000 2.5000 0.0 0 0 40.0500 38.1482" />
</g>
<g style="fill:#000000; fill-opacity:1.0000; 
stroke:#000000; stroke-width:0.0000; stroke-opacity:1; 
stroke-linecap:round; stroke-linejoin:round;">
<circle cx="120.0500" cy="95.1482" r="0.0500" /> 
</g>
<g style="fill:#000000; fill-opacity:1.0000; 
stroke:#000000; stroke-width:0.1000; stroke-opacity:1; 
stroke-linecap:round; stroke-linejoin:round;">
</g>
<g style="fill:#000000; fill-opacity:0.0; 
stroke:#000000; stroke-width:0.1000; stroke-opacity:1; 
stroke-linecap:round; stroke-linejoin:round;">
<path d="M142.0500 78.1482
L142.0500 88.1482
" />
<path d="M102.0500 23.1482 A2.5000 2.5000 0.0 0 0 104.5500 25.6482" />
<path d="M100.0500 55.1482 A2.5000 2.5000 0.0 0 0 97.5500 52.6483" />
<path d="M144.5500 90.6482
L159.5500 90.6482
" />
<path d="M102.0500 13.1483 A2.5000 2.5000 0.0 0 0 99.5500 10.6482" />
</g>
<g style="fill:#000000; fill-opacity:1.0000; 
stroke:#000000; stroke-width:0.0000; stroke-opacity:1; 
stroke-linecap:round; stroke-linejoin:round;">
<circle cx="62.0500" cy="45.1483" r="0.0500" /> 
</g>
<g style="fill:#000000; fill-opacity:0.0; 
stroke:#000000; stroke-width:0.1000; stroke-opacity:1; 
stroke-linecap:round; stroke-linejoin:round;">
<path d="M2.5500 40.6483 A2.5000 2.5000 0.0 0 0 0.0500 43.1482" />
<path d="M62.5500 0.6482
L79.5500 0.6482
" />
<path d="M100.0500 90.1483 A2.4999 2.4999 0.0 0 0 102.5500 92.6483" />
<path d="M80.0500 50.1482 A2.5000 2.5000 0.0 0 0 82.5500 52.6482" />
<path d="M124.5500 75.6482
L139.5500 75.6482
" />
<path d="M44.5500 47.6483 A2.5000 2.5000 0.0 0 0 42.0500 50.1483" />
<path d="M62.5500 0.6482 A2.5000 2.5000 0.0 0 0 60.0500 3.1482" />
<path d="M42.5500 25.6483 A2.5000 2.5000 0.0 0 0 40.0500 28.1483" />
<path d="M102.0500 13.1482
L102.0500 23.1482
" />
<path d="M122.0500 73.1482 A2.4999 2.4999 0.0 0 0 124.5500 75.6482" />
<path d="M39.5500 62.6483 A2.5000 2.5000 0.0 0 0 42.0500 60.1483" />
<path d="M140.0500 100.1482 A2.5000 2.5000 0.0 0 0 137.5500 97.6483" />
<path d="M120.0500 95.1482 A2.5001 2.5001 0.0 0 0 117.5500 92.6483" />
<path d="M137.5500 97.6482
L122.5500 97.6482
" />
<path d="M40.0500 38.1482
L40.0500 28.1482
" />
<path d="M82.0500 8.1483 A2.4999 2.4999 0.0 0 0 84.5500 10.6482" />
<path d="M82.0500 3.1482
L82.0500 8.1482
" />
<path d="M122.0500 28.1482 A2.5001 2.5001 0.0 0 0 119.5500 25.6483" />
<path d="M97.5500 52.6482
L82.5500 52.6482
" />
<path d="M120.0500 95.1482 A2.5000 2.5000 0.0 0 0 122.5500 97.6482" />
<path d="M42.0500 60.1482
L42.0500 50.1482
" />
<path d="M162.0500 93.1483 A2.5000 2.5000 0.0 0 0 159.5500 90.6483" />
<path d="M104.5500 25.6482
L119.5500 25.6482
" />
<path d="M84.5500 10.6482
L99.5500 10.6482
" />
<path d="M159.5500 112.6483 A2.5001 2.5001 0.0 0 0 162.0500 110.1482" />
<path d="M42.5500 25.6482
L57.5500 25.6483
" />
<path d="M0.0500 43.1482
L0.0500 60.1483
" />
<path d="M100.0500 90.1483
L100.0500 55.1482
" />
<path d="M44.5500 47.6482
L59.5500 47.6482
" />
<path d="M159.5500 112.6483
L142.5500 112.6482
" />
<path d="M122.0500 28.1482
L122.0500 73.1482
" />
<path d="M140.0500 110.1483 A2.4999 2.4999 0.0 0 0 142.5500 112.6482" />
<path d="M162.0500 93.1482
L162.0500 110.1482
" />
<path d="M117.5500 92.6482
L102.5500 92.6483
" />
<path d="M57.5500 25.6483 A2.5001 2.5001 0.0 0 0 60.0500 23.1482" />
<path d="M140.0500 110.1482
L140.0500 100.1482
" />
<path d="M64.5500 42.6483
L77.5500 42.6482
" />
<path d="M82.0500 3.1482 A2.5001 2.5001 0.0 0 0 79.5500 0.6483" />
<path d="M80.0500 45.1482 A2.5001 2.5001 0.0 0 0 77.5500 42.6483" />
<path d="M59.5500 47.6482 A2.4999 2.4999 0.0 0 0 62.0500 45.1483" />
<g >
</g>
<g >
</g>
<g >
</g>
<g >
</g>
<g >
</g>
<g >
</g>
<g >
</g>
<g >
</g>
<g >
</g>
<g >
</g>
<g >
</g>
<g >
</g>
<g >
</g>
<g >
</g>
<g >
</g>
<g >
</g>
<g >
</g>
<g >
</g>
<g >
</g>
<g >
</g>
<g >
</g>
<g >
</g>
<g >
</g>
<g >
</g>
<g >
</g>
<g >
</g>
<g >
</g>
<g >
</g>
<g >
</g>
<g >
</g>
<g >
</g>
</g> 
</svg>
