<?xml version="1.0" standalone="no"?>
 <!DOCTYPE svg PUBLIC "-//W3C//DTD SVG 1.1//EN" 
 "http://www.w3.org/Graphics/SVG/1.1/DTD/svg11.dtd"> 
<svg
  xmlns:svg="http://www.w3.org/2000/svg"
  xmlns="http://www.w3.org/2000/svg"
  xmlns:xlink="http://www.w3.org/1999/xlink"
  version="1.1"
  width="228.5492mm" height="88.5444mm" viewBox="0.0000 0.0000 228.5492 88.5444">
<title>SVG Image created as qlp-22_Mk1_rev1-User_1.svg date 2024/02/10 12:10:20 </title>
  <desc>Image generated by PCBNEW </desc>
<g style="fill:#000000; fill-opacity:1.0000;stroke:#000000; stroke-opacity:1.0000;
stroke-linecap:round; stroke-linejoin:round;"
 transform="translate(0 0) scale(1 1)">
</g>
<g style="fill:#000000; fill-opacity:0.0; 
stroke:#000000; stroke-width:0.0000; stroke-opacity:1; 
stroke-linecap:round; stroke-linejoin:round;">
</g>
<g style="fill:#FFFFFF; fill-opacity:1.0000; 
stroke:#FFFFFF; stroke-width:0.0212; stroke-opacity:1; 
stroke-linecap:round; stroke-linejoin:round;">
</g>
<g style="fill:#FFFFFF; fill-opacity:0.0; 
stroke:#FFFFFF; stroke-width:0.1500; stroke-opacity:1; 
stroke-linecap:round; stroke-linejoin:round;">
<circle cx="127.7750" cy="85.4750" r="3.0000" /> 
<circle cx="225.4750" cy="3.0750" r="3.0000" /> 
<circle cx="3.0750" cy="3.1250" r="3.0000" /> 
<circle cx="100.8250" cy="85.4750" r="3.0000" /> 
<circle cx="83.3750" cy="16.3750" r="3.0000" /> 
<circle cx="145.2250" cy="16.4250" r="3.0000" /> 
<g >
</g>
<g >
</g>
<g >
</g>
<g >
</g>
<g >
</g>
<g >
</g>
<g >
</g>
<g >
</g>
<g >
</g>
<g >
</g>
<g >
</g>
<g >
</g>
<g >
</g>
<g >
</g>
<g >
</g>
<g >
</g>
<g >
</g>
<g >
</g>
<g >
</g>
<g >
</g>
<g >
</g>
<g >
</g>
<g >
</g>
<g >
</g>
<g >
</g>
<g >
</g>
<g >
</g>
<g >
</g>
<g >
</g>
<g >
</g>
<g >
</g>
<g >
</g>
<g >
</g>
<g >
</g>
<g >
</g>
<g >
</g>
<g >
</g>
<g >
</g>
<g >
</g>
<g >
</g>
<g >
</g>
<g >
</g>
<g >
</g>
<g >
</g>
<g >
</g>
<g >
</g>
<g >
</g>
<g >
</g>
<g >
</g>
<g >
</g>
<g >
</g>
<g >
</g>
<g >
</g>
<g >
</g>
<g >
</g>
<g >
</g>
<g >
</g>
<g >
</g>
<g >
</g>
</g>
<g style="fill:#FFFFFF; fill-opacity:0.0; 
stroke:#FFFFFF; stroke-width:0.1500; stroke-opacity:1; 
stroke-linecap:round; stroke-linejoin:round;">
</g>
<g style="fill:#FFFFFF; fill-opacity:0.0; 
stroke:#FFFFFF; stroke-width:0.1000; stroke-opacity:1; 
stroke-linecap:round; stroke-linejoin:round;">
<path d="M80.3218 99.3336
L66.2264 94.2033
" />
<path d="M150.1542 111.9348
L146.7340 102.5379
" />
<path d="M107.5727 106.7527
L120.7918 106.7527
" />
<path d="M161.4375 -13.4882 A2.4997 2.4997 0.0 0 0 162.9317 -16.6925" />
<path d="M82.9370 -5.0682 A2.5002 2.5002 0.0 0 0 81.4428 -8.2724" />
<path d="M133.5428 -2.0796 A2.4992 2.4992 0.0 0 0 135.3105 -1.3473" />
<path d="M223.2637 32.1162 A2.4998 2.4998 0.0 0 0 226.4680 33.6104" />
<path d="M11.9108 21.2251
L26.0062 26.3554
" />
<path d="M135.3105 -1.3473
L143.6651 -1.3473
" />
<path d="M-36.0602 17.0674
L-26.1416 -10.1837
" />
<path d="M161.4375 -13.4882
L147.3437 -8.3585
" />
<path d="M264.6102 17.0674
L254.6916 -10.1837
" />
</g>
<g style="fill:#FFFFFF; fill-opacity:1.0000; 
stroke:#FFFFFF; stroke-width:0.0000; stroke-opacity:1; 
stroke-linecap:round; stroke-linejoin:round;">
<circle cx="29.2105" cy="24.8613" r="0.0500" /> 
</g>
<g style="fill:#FFFFFF; fill-opacity:1.0000; 
stroke:#FFFFFF; stroke-width:0.1000; stroke-opacity:1; 
stroke-linecap:round; stroke-linejoin:round;">
</g>
<g style="fill:#FFFFFF; fill-opacity:0.0; 
stroke:#FFFFFF; stroke-width:0.1000; stroke-opacity:1; 
stroke-linecap:round; stroke-linejoin:round;">
<path d="M95.0079 -2.0456
L102.5428 -9.6151
" />
<path d="M183.7741 -29.5994 A2.5001 2.5001 0.0 0 0 180.5699 -31.0936" />
<path d="M143.6651 -1.3473 A2.4999 2.4999 0.0 0 0 146.0138 -4.7040" />
<path d="M5.2863 32.1162
L8.7065 22.7193
" />
<path d="M93.2361 -1.3094 A2.4998 2.4998 0.0 0 0 95.0079 -2.0457" />
<path d="M165.3119 87.7947 A2.5002 2.5002 0.0 0 0 163.8178 90.9990" />
<path d="M78.3958 111.9348
L81.8160 102.5379
" />
<path d="M161.2216 -21.3910
L162.9317 -16.6925
" />
<path d="M97.7441 121.6375 A2.4996 2.4996 0.0 0 0 100.9484 120.1433" />
<path d="M263.1160 20.2716 A2.4996 2.4996 0.0 0 0 264.6102 17.0674" />
<path d="M215.3937 -1.2014 A2.4999 2.4999 0.0 0 0 218.5981 0.2928" />
<path d="M-22.9373 -11.6779 A2.5000 2.5000 0.0 0 0 -26.1416 -10.1837" />
<path d="M133.5428 -2.0796
L126.0072 -9.6151
" />
<path d="M145.8501 -5.1526
L146.0138 -4.7040
" />
<path d="M82.9370 -5.0681
L82.7901 -4.6644
" />
<path d="M64.7322 90.9990 A2.4999 2.4999 0.0 0 0 66.2264 94.2033" />
<path d="M179.4073 82.6644 A2.4996 2.4996 0.0 0 0 180.9015 79.4602" />
<path d="M126.0072 -9.6151 A2.5001 2.5001 0.0 0 0 124.2395 -10.3473" />
<path d="M104.3105 -10.3473
L124.2395 -10.3473
" />
<path d="M47.9801 -31.0936
L65.8343 -24.5953
" />
<path d="M219.8435 22.7193
L223.2637 32.1162
" />
<path d="M180.9015 79.4602
L168.9308 46.5709
" />
<path d="M100.9484 120.1433
L105.2235 108.3976
" />
<path d="M97.7441 121.6375
L79.8900 115.1391
" />
<path d="M85.1393 -1.3094
L93.2361 -1.3094
" />
<path d="M165.3119 87.7947
L179.4073 82.6644
" />
<path d="M148.2282 99.3336
L162.3236 94.2033
" />
<path d="M162.3236 94.2033 A2.4999 2.4999 0.0 0 0 163.8178 90.9990" />
<path d="M55.2593 55.6258
L46.7088 79.1181
" />
<path d="M64.7323 90.9990 A2.5004 2.5004 0.0 0 0 63.2381 87.7947" />
<path d="M191.4696 -8.4564
L183.7742 -29.5995
" />
<path d="M32.4147 23.3671
L42.7514 27.1293
" />
<path d="M254.6916 -10.1837 A2.5002 2.5002 0.0 0 0 251.4873 -11.6779" />
<path d="M58.6795 46.2289 A2.4998 2.4998 0.0 0 0 57.1853 43.0246" />
<path d="M67.3284 -21.3910 A2.4999 2.4999 0.0 0 0 65.8343 -24.5953" />
<path d="M78.3958 111.9348 A2.5000 2.5000 0.0 0 0 79.8900 115.1391" />
<path d="M37.0804 -8.4564
L44.7758 -29.5995
" />
<path d="M9.9519 0.2928 A2.4998 2.4998 0.0 0 0 13.1562 -1.2014" />
<path d="M65.6183 -16.6925 A2.5000 2.5000 0.0 0 0 67.1125 -13.4882" />
<path d="M170.4250 43.3666 A2.5003 2.5003 0.0 0 0 168.9308 46.5709" />
<path d="M19.7807 -12.0925
L33.8761 -6.9622
" />
<path d="M170.4250 43.3666
L184.5204 38.2363
" />
<path d="M208.7693 -12.0925
L194.6739 -6.9622
" />
<path d="M185.7986 27.1293 A2.5003 2.5003 0.0 0 0 184.3045 30.3336" />
<path d="M26.0062 26.3555 A2.5004 2.5004 0.0 0 0 29.2105 24.8613" />
<path d="M82.7901 -4.6644 A2.5000 2.5000 0.0 0 0 85.1393 -1.3094" />
<path d="M123.1290 108.3652 A2.5004 2.5004 0.0 0 0 120.7918 106.7527" />
<path d="M148.6600 115.1391 A2.4998 2.4998 0.0 0 0 150.1542 111.9348" />
<path d="M130.8059 121.6375
L148.6600 115.1391
" />
<path d="M202.5438 26.3554
L216.6392 21.2251
" />
<path d="M-22.9373 -11.6779
L9.9519 0.2928
" />
<path d="M162.7157 -24.5953 A2.5003 2.5003 0.0 0 0 161.2216 -21.3910" />
<path d="M47.9801 -31.0936 A2.4999 2.4999 0.0 0 0 44.7758 -29.5995" />
<path d="M46.7087 79.1181 A2.5002 2.5002 0.0 0 0 48.2030 82.3224" />
<path d="M48.2030 82.3224
L63.2381 87.7947
" />
<path d="M147.3437 -8.3585 A2.5002 2.5002 0.0 0 0 145.8501 -5.1526" />
<path d="M44.2455 30.3336
L42.5354 35.0320
" />
<path d="M13.1562 -1.2014
L16.5764 -10.5983
" />
<path d="M104.3105 -10.3474 A2.5006 2.5006 0.0 0 0 102.5428 -9.6151" />
<path d="M162.7157 -24.5953
L180.5699 -31.0936
" />
<path d="M58.6795 46.2289
L55.2593 55.6258
" />
<path d="M-34.5660 20.2716
L2.0820 33.6104
" />
<path d="M81.8160 102.5379 A2.5001 2.5001 0.0 0 0 80.3218 99.3336" />
<path d="M199.3395 24.8613 A2.4998 2.4998 0.0 0 0 202.5438 26.3554" />
<path d="M251.4873 -11.6779
L218.5981 0.2928
" />
<path d="M215.3938 -1.2014
L211.9736 -10.5983
" />
<path d="M33.8761 -6.9622 A2.5002 2.5002 0.0 0 0 37.0804 -8.4564" />
<path d="M67.1125 -13.4882
L81.4428 -8.2724
" />
<path d="M67.3284 -21.3910
L65.6183 -16.6925
" />
</g>
<g style="fill:#FFFFFF; fill-opacity:1.0000; 
stroke:#FFFFFF; stroke-width:0.0000; stroke-opacity:1; 
stroke-linecap:round; stroke-linejoin:round;">
<circle cx="199.3395" cy="24.8612" r="0.0500" /> 
</g>
<g style="fill:#FFFFFF; fill-opacity:1.0000; 
stroke:#FFFFFF; stroke-width:0.1000; stroke-opacity:1; 
stroke-linecap:round; stroke-linejoin:round;">
</g>
<g style="fill:#FFFFFF; fill-opacity:0.0; 
stroke:#FFFFFF; stroke-width:0.1000; stroke-opacity:1; 
stroke-linecap:round; stroke-linejoin:round;">
<path d="M185.7986 27.1293
L196.1353 23.3671
" />
<path d="M211.9735 -10.5983 A2.5002 2.5002 0.0 0 0 208.7693 -12.0925" />
<path d="M42.5354 35.0320 A2.5003 2.5003 0.0 0 0 44.0296 38.2363" />
<path d="M186.0146 35.0320
L184.3045 30.3336
" />
</g>
<g style="fill:#FFFFFF; fill-opacity:1.0000; 
stroke:#FFFFFF; stroke-width:0.0000; stroke-opacity:1; 
stroke-linecap:round; stroke-linejoin:round;">
<circle cx="163.8178" cy="90.9990" r="0.0500" /> 
</g>
<g style="fill:#FFFFFF; fill-opacity:0.0; 
stroke:#FFFFFF; stroke-width:0.1000; stroke-opacity:1; 
stroke-linecap:round; stroke-linejoin:round;">
<path d="M219.8434 22.7193 A2.5002 2.5002 0.0 0 0 216.6392 21.2251" />
<path d="M123.1289 108.3652
L127.6016 120.1433
" />
<path d="M107.5727 106.7527 A2.4997 2.4997 0.0 0 0 105.2235 108.3976" />
<path d="M44.0296 38.2363
L57.1853 43.0246
" />
<path d="M11.9108 21.2252 A2.4998 2.4998 0.0 0 0 8.7065 22.7193" />
<path d="M184.5204 38.2363 A2.4996 2.4996 0.0 0 0 186.0146 35.0320" />
<path d="M-36.0602 17.0673 A2.5000 2.5000 0.0 0 0 -34.5660 20.2716" />
<path d="M44.2455 30.3336 A2.4998 2.4998 0.0 0 0 42.7514 27.1293" />
<path d="M127.6015 120.1433 A2.4999 2.4999 0.0 0 0 130.8059 121.6375" />
<path d="M199.3395 24.8613 A2.5002 2.5002 0.0 0 0 196.1353 23.3671" />
<path d="M32.4148 23.3670 A2.4998 2.4998 0.0 0 0 29.2105 24.8613" />
<path d="M148.2282 99.3336 A2.5003 2.5003 0.0 0 0 146.7340 102.5379" />
<path d="M64.7322 90.9990
L64.7322 90.9990
" />
<path d="M226.4680 33.6104
L263.1160 20.2716
" />
<path d="M19.7807 -12.0926 A2.5000 2.5000 0.0 0 0 16.5764 -10.5983" />
<path d="M191.4696 -8.4564 A2.4997 2.4997 0.0 0 0 194.6739 -6.9622" />
<path d="M2.0820 33.6105 A2.5001 2.5001 0.0 0 0 5.2863 32.1162" />
<g >
</g>
<g >
</g>
<g >
</g>
<g >
</g>
<g >
</g>
<g >
</g>
<g >
</g>
<g >
</g>
<g >
</g>
<g >
</g>
<g >
</g>
<g >
</g>
<g >
</g>
<g >
</g>
<g >
</g>
<g >
</g>
<g >
</g>
<g >
</g>
<g >
</g>
<g >
</g>
<g >
</g>
<g >
</g>
<g >
</g>
<g >
</g>
<g >
</g>
<g >
</g>
<g >
</g>
<g >
</g>
<g >
</g>
<g >
</g>
<g >
</g>
<g >
</g>
<g >
</g>
<g >
</g>
<g >
</g>
<g >
</g>
<g >
</g>
<g >
</g>
<g >
</g>
<g >
</g>
<g >
</g>
<g >
</g>
<g >
</g>
<g >
</g>
<g >
</g>
<g >
</g>
<g >
</g>
<g >
</g>
<g >
</g>
<g >
</g>
<g >
</g>
<g >
</g>
<g >
</g>
<g >
</g>
<g >
</g>
<g >
</g>
<g >
</g>
<g >
</g>
<g >
</g>
</g> 
</svg>
