<?xml version="1.0" standalone="no"?>
 <!DOCTYPE svg PUBLIC "-//W3C//DTD SVG 1.1//EN" 
 "http://www.w3.org/Graphics/SVG/1.1/DTD/svg11.dtd"> 
<svg
  xmlns:svg="http://www.w3.org/2000/svg"
  xmlns="http://www.w3.org/2000/svg"
  xmlns:xlink="http://www.w3.org/1999/xlink"
  version="1.1"
  width="294.2082mm" height="158.0896mm" viewBox="0.0000 0.0000 294.2082 158.0896">
<title>SVG Image created as seok-38_Mk1_rev0-User_1.svg date 2024/02/17 18:30:19 </title>
  <desc>Image generated by PCBNEW </desc>
<g style="fill:#000000; fill-opacity:1.0000;stroke:#000000; stroke-opacity:1.0000;
stroke-linecap:round; stroke-linejoin:round;"
 transform="translate(0 0) scale(1 1)">
</g>
<g style="fill:#000000; fill-opacity:0.0; 
stroke:#000000; stroke-width:0.0000; stroke-opacity:1; 
stroke-linecap:round; stroke-linejoin:round;">
</g>
<g style="fill:#000000; fill-opacity:0.0; 
stroke:#000000; stroke-width:0.1500; stroke-opacity:1; 
stroke-linecap:round; stroke-linejoin:round;">
<circle cx="26.1758" cy="27.5174" r="3.0406" /> 
<circle cx="268.0758" cy="27.5174" r="3.0406" /> 
<circle cx="172.1258" cy="98.2674" r="3.0406" /> 
<circle cx="122.1258" cy="98.2674" r="3.0406" /> 
<circle cx="147.1258" cy="138.2674" r="3.0406" /> 
<g >
</g>
<g >
</g>
<g >
</g>
<g >
</g>
<g >
</g>
<g >
</g>
<g >
</g>
<g >
</g>
<g >
</g>
<g >
</g>
<g >
</g>
<g >
</g>
<g >
</g>
<g >
</g>
<g >
</g>
<g >
</g>
<g >
</g>
<g >
</g>
<g >
</g>
<g >
</g>
<g >
</g>
<g >
</g>
<g >
</g>
<g >
</g>
<g >
</g>
<g >
</g>
<g >
</g>
<g >
</g>
<g >
</g>
<g >
</g>
<g >
</g>
<g >
</g>
<g >
</g>
<g >
</g>
<g >
</g>
<g >
</g>
<g >
</g>
<g >
</g>
<g >
</g>
<g >
</g>
<g >
</g>
<g >
</g>
<g >
</g>
<g >
</g>
<g >
</g>
<g >
</g>
<g >
</g>
<g >
</g>
<g >
</g>
<g >
</g>
<g >
</g>
<g >
</g>
<g >
</g>
<g >
</g>
<g >
</g>
<g >
</g>
<g >
</g>
<g >
</g>
<g >
</g>
<g >
</g>
<g >
</g>
<g >
</g>
<g >
</g>
<g >
</g>
<g >
</g>
<g >
</g>
<g >
</g>
<g >
</g>
<g >
</g>
<g >
</g>
<g >
</g>
<g >
</g>
<g >
</g>
<g >
</g>
<g >
</g>
<g >
</g>
<g >
</g>
<g >
</g>
<g >
</g>
<g >
</g>
<g >
</g>
<g >
</g>
<g >
</g>
<g >
</g>
<g >
</g>
<g >
</g>
<g >
</g>
</g>
<g style="fill:#000000; fill-opacity:0.0; 
stroke:#000000; stroke-width:0.1500; stroke-opacity:1; 
stroke-linecap:round; stroke-linejoin:round;">
</g>
<g style="fill:#000000; fill-opacity:0.0; 
stroke:#000000; stroke-width:0.1000; stroke-opacity:1; 
stroke-linecap:round; stroke-linejoin:round;">
<path d="M192.3971 19.9482
L178.3017 25.0785
" />
<path d="M98.7700 126.3148 A2.5001 2.5001 0.0 0 0 100.2643 129.5191" />
<path d="M255.4205 68.8416 A2.5000 2.5000 0.0 0 0 252.2161 67.3474" />
<path d="M102.0503 12.0455
L100.3402 16.7439
" />
<path d="M162.7916 157.8930
L180.6457 151.3946
" />
<path d="M102.0504 12.0455 A2.5000 2.5000 0.0 0 0 100.5561 8.8412" />
</g>
<g style="fill:#000000; fill-opacity:1.0000; 
stroke:#000000; stroke-width:0.0000; stroke-opacity:1; 
stroke-linecap:round; stroke-linejoin:round;">
<circle cx="117.4240" cy="28.2828" r="0.0500" /> 
</g>
<g style="fill:#000000; fill-opacity:0.0; 
stroke:#000000; stroke-width:0.1000; stroke-opacity:1; 
stroke-linecap:round; stroke-linejoin:round;">
<path d="M234.9166 70.9835 A2.4999 2.4999 0.0 0 0 231.7122 69.4894" />
<path d="M55.5736 11.0920
L58.9938 1.6950
" />
<path d="M278.4412 54.6098
L292.5366 49.4795
" />
<path d="M196.9556 123.1106
L211.0510 117.9803
" />
<path d="M72.8560 73.2516
L62.5194 69.4894
" />
<path d="M238.1207 72.4777
L252.2161 67.3474
" />
<path d="M133.2320 33.2274 A2.4998 2.4998 0.0 0 0 131.4784 33.9457" />
<path d="M155.4746 145.1518
L159.5873 156.3988
" />
<path d="M280.9079 17.5299
L266.8125 22.6602
" />
<path d="M255.4204 68.8416
L258.8406 78.2385
" />
<path d="M220.0973 84.3586 A2.4997 2.4997 0.0 0 0 221.5915 81.1543" />
</g>
<g style="fill:#000000; fill-opacity:1.0000; 
stroke:#000000; stroke-width:0.0000; stroke-opacity:1; 
stroke-linecap:round; stroke-linejoin:round;">
<circle cx="214.7338" cy="3.8370" r="0.0500" /> 
</g>
<g style="fill:#000000; fill-opacity:0.0; 
stroke:#000000; stroke-width:0.1000; stroke-opacity:1; 
stroke-linecap:round; stroke-linejoin:round;">
<path d="M259.1620 8.9500 A2.4998 2.4998 0.0 0 0 255.9577 7.4559" />
<path d="M131.4784 33.9457
L131.0363 34.3808
" />
<path d="M163.3170 34.3272 A2.5003 2.5003 0.0 0 0 165.9325 34.9014" />
<path d="M262.0449 79.7327
L279.8991 73.2343
" />
<path d="M178.3017 25.0785 A2.5000 2.5000 0.0 0 0 176.8076 28.2828" />
<path d="M114.3597 134.6494
L100.2643 129.5191
" />
<path d="M38.8111 68.8416
L35.3909 78.2385
" />
<path d="M263.6083 21.1660 A2.5005 2.5005 0.0 0 0 266.8125 22.6602" />
<path d="M72.6401 81.1544 A2.4998 2.4998 0.0 0 0 74.1342 84.3586" />
<path d="M281.3932 70.0301
L276.9470 57.8141
" />
<path d="M175.3134 31.4871
L165.9325 34.9014
" />
<path d="M193.6754 8.8412 A2.5002 2.5002 0.0 0 0 192.1812 12.0455" />
<path d="M81.6863 114.7760
L89.7238 92.6932
" />
<path d="M76.2935 5.3311 A2.5000 2.5000 0.0 0 0 79.4977 3.8370" />
<path d="M131.4400 157.8930
L113.5858 151.3946
" />
<path d="M38.2739 7.4558 A2.4999 2.4999 0.0 0 0 35.0696 8.9500" />
<path d="M0.2008 46.2752
L10.1194 19.0241
" />
<path d="M214.7339 3.8370 A2.4999 2.4999 0.0 0 0 211.5295 2.3428" />
<path d="M211.0510 117.9803 A2.4999 2.4999 0.0 0 0 212.5452 114.7760" />
<path d="M232.0335 0.2009
L217.9381 5.3312
" />
<path d="M82.7020 2.3428 A2.5000 2.5000 0.0 0 0 79.4977 3.8370" />
<path d="M134.6442 156.3988
L138.7365 145.1554
" />
<path d="M193.9673 129.5192 A2.4998 2.4998 0.0 0 0 195.4615 126.3148" />
<path d="M101.8344 19.9482
L115.9298 25.0785
" />
<path d="M221.3756 73.2516 A2.5001 2.5001 0.0 0 0 219.8814 76.4559" />
<path d="M100.3402 16.7439 A2.4999 2.4999 0.0 0 0 101.8344 19.9482" />
<path d="M235.2378 1.6950 A2.4997 2.4997 0.0 0 0 232.0335 0.2009" />
<path d="M82.7020 2.3428
L100.5561 8.8412
" />
<path d="M159.5874 156.3988 A2.5003 2.5003 0.0 0 0 162.7916 157.8930" />
<path d="M278.4412 54.6098 A2.5002 2.5002 0.0 0 0 276.9470 57.8141" />
<path d="M13.3237 17.5299
L27.4191 22.6602
" />
<path d="M180.6458 151.3946 A2.4998 2.4998 0.0 0 0 182.1399 148.1903" />
<path d="M17.2845 57.8140 A2.5001 2.5001 0.0 0 0 15.7904 54.6098" />
<path d="M56.1108 72.4777
L42.0154 67.3474
" />
<path d="M117.4239 28.2828 A2.5000 2.5000 0.0 0 0 118.9182 31.4871" />
<path d="M62.1980 0.2009
L76.2934 5.3312
" />
<path d="M42.0154 67.3475 A2.5001 2.5001 0.0 0 0 38.8111 68.8416" />
<path d="M211.5295 2.3428
L193.6754 8.8412
" />
<path d="M30.6233 21.1660
L35.0696 8.9500
" />
<path d="M192.3971 19.9482 A2.4998 2.4998 0.0 0 0 193.8913 16.7439" />
<path d="M112.0916 148.1903
L115.8538 137.8537
" />
<path d="M292.5366 49.4795 A2.5000 2.5000 0.0 0 0 294.0307 46.2752" />
<path d="M12.8383 70.0301
L17.2846 57.8141
" />
<path d="M97.2759 123.1106
L83.1805 117.9803
" />
<path d="M212.5452 114.7760
L204.5077 92.6932
" />
<path d="M162.9391 33.9525 A2.4997 2.4997 0.0 0 0 161.1786 33.2274" />
<path d="M12.8384 70.0301 A2.5000 2.5000 0.0 0 0 14.3325 73.2343" />
</g>
<g style="fill:#000000; fill-opacity:1.0000; 
stroke:#000000; stroke-width:0.0000; stroke-opacity:1; 
stroke-linecap:round; stroke-linejoin:round;">
<circle cx="98.7701" cy="126.3148" r="0.0500" /> 
</g>
<g style="fill:#000000; fill-opacity:1.0000; 
stroke:#000000; stroke-width:0.1000; stroke-opacity:1; 
stroke-linecap:round; stroke-linejoin:round;">
</g>
<g style="fill:#000000; fill-opacity:0.0; 
stroke:#000000; stroke-width:0.1000; stroke-opacity:1; 
stroke-linecap:round; stroke-linejoin:round;">
<path d="M141.0857 143.5104
L153.1267 143.5104
" />
<path d="M98.7701 126.3149 A2.5000 2.5000 0.0 0 0 97.2759 123.1106" />
<path d="M155.4746 145.1518 A2.4999 2.4999 0.0 0 0 153.1267 143.5104" />
<path d="M141.0857 143.5105 A2.5001 2.5001 0.0 0 0 138.7365 145.1554" />
<path d="M117.4240 28.2828 A2.5001 2.5001 0.0 0 0 115.9298 25.0785" />
<path d="M62.1980 0.2009 A2.4998 2.4998 0.0 0 0 58.9938 1.6950" />
<path d="M118.9182 31.4871
L128.4276 34.9482
" />
<path d="M72.6400 81.1543
L74.3502 76.4559
" />
<path d="M52.3693 12.5861 A2.4999 2.4999 0.0 0 0 55.5736 11.0920" />
<path d="M133.2320 33.2274
L161.1786 33.2274
" />
<path d="M179.8719 134.6494
L193.9673 129.5191
" />
<path d="M0.2008 46.2752 A2.5000 2.5000 0.0 0 0 1.6950 49.4795" />
<path d="M192.1812 12.0455
L193.8913 16.7439
" />
<path d="M279.8991 73.2343 A2.4998 2.4998 0.0 0 0 281.3932 70.0301" />
<path d="M206.0019 89.4889 A2.4999 2.4999 0.0 0 0 204.5077 92.6932" />
<path d="M81.6864 114.7760 A2.5002 2.5002 0.0 0 0 83.1805 117.9803" />
<path d="M255.9577 7.4559
L241.8623 12.5861
" />
<path d="M131.4400 157.8930 A2.5002 2.5002 0.0 0 0 134.6442 156.3988" />
<path d="M206.0019 89.4889
L220.0973 84.3586
" />
<path d="M13.3237 17.5299 A2.5001 2.5001 0.0 0 0 10.1194 19.0241" />
<path d="M258.8407 78.2385 A2.5001 2.5001 0.0 0 0 262.0449 79.7327" />
<path d="M56.1108 72.4777 A2.5000 2.5000 0.0 0 0 59.3151 70.9836" />
<path d="M294.0307 46.2752
L284.1122 19.0241
" />
<path d="M115.8539 137.8537 A2.5001 2.5001 0.0 0 0 114.3597 134.6494" />
<path d="M89.7238 92.6932 A2.4999 2.4999 0.0 0 0 88.2296 89.4889" />
<path d="M38.2739 7.4559
L52.3693 12.5861
" />
<path d="M221.5915 81.1543
L219.8814 76.4559
" />
<path d="M182.1399 148.1903
L178.3777 137.8537
" />
<path d="M15.7904 54.6098
L1.6950 49.4795
" />
<path d="M32.1866 79.7327 A2.4999 2.4999 0.0 0 0 35.3909 78.2385" />
</g>
<g style="fill:#000000; fill-opacity:1.0000; 
stroke:#000000; stroke-width:0.0000; stroke-opacity:1; 
stroke-linecap:round; stroke-linejoin:round;">
<circle cx="234.9165" cy="70.9835" r="0.0500" /> 
</g>
<g style="fill:#000000; fill-opacity:0.0; 
stroke:#000000; stroke-width:0.1000; stroke-opacity:1; 
stroke-linecap:round; stroke-linejoin:round;">
<path d="M179.8719 134.6494 A2.5001 2.5001 0.0 0 0 178.3777 137.8537" />
<path d="M112.0916 148.1903 A2.5000 2.5000 0.0 0 0 113.5858 151.3946" />
</g>
<g style="fill:#000000; fill-opacity:1.0000; 
stroke:#000000; stroke-width:0.0000; stroke-opacity:1; 
stroke-linecap:round; stroke-linejoin:round;">
<circle cx="195.4615" cy="126.3148" r="0.0500" /> 
</g>
<g style="fill:#000000; fill-opacity:1.0000; 
stroke:#000000; stroke-width:0.1000; stroke-opacity:1; 
stroke-linecap:round; stroke-linejoin:round;">
</g>
<g style="fill:#000000; fill-opacity:0.0; 
stroke:#000000; stroke-width:0.1000; stroke-opacity:1; 
stroke-linecap:round; stroke-linejoin:round;">
<path d="M88.2296 89.4889
L74.1342 84.3586
" />
<path d="M32.1866 79.7327
L14.3325 73.2343
" />
<path d="M175.3134 31.4871 A2.4999 2.4999 0.0 0 0 176.8076 28.2828" />
<path d="M74.3502 76.4559 A2.5003 2.5003 0.0 0 0 72.8560 73.2516" />
<path d="M221.3756 73.2516
L231.7122 69.4894
" />
</g>
<g style="fill:#000000; fill-opacity:1.0000; 
stroke:#000000; stroke-width:0.0000; stroke-opacity:1; 
stroke-linecap:round; stroke-linejoin:round;">
<circle cx="79.4977" cy="3.8370" r="0.0500" /> 
</g>
<g style="fill:#000000; fill-opacity:0.0; 
stroke:#000000; stroke-width:0.1000; stroke-opacity:1; 
stroke-linecap:round; stroke-linejoin:round;">
<path d="M234.9165 70.9835 A2.5000 2.5000 0.0 0 0 238.1207 72.4777" />
<path d="M214.7339 3.8370 A2.5003 2.5003 0.0 0 0 217.9381 5.3312" />
<path d="M27.4191 22.6602 A2.5001 2.5001 0.0 0 0 30.6233 21.1660" />
<path d="M238.6580 11.0920 A2.5002 2.5002 0.0 0 0 241.8623 12.5861" />
<path d="M238.6580 11.0920
L235.2378 1.6950
" />
<path d="M128.4276 34.9483 A2.5002 2.5002 0.0 0 0 131.0363 34.3808" />
</g>
<g style="fill:#000000; fill-opacity:1.0000; 
stroke:#000000; stroke-width:0.0000; stroke-opacity:1; 
stroke-linecap:round; stroke-linejoin:round;">
<circle cx="176.8076" cy="28.2828" r="0.0500" /> 
<circle cx="59.3151" cy="70.9836" r="0.0500" /> 
</g>
<g style="fill:#000000; fill-opacity:0.0; 
stroke:#000000; stroke-width:0.1000; stroke-opacity:1; 
stroke-linecap:round; stroke-linejoin:round;">
<path d="M196.9556 123.1106 A2.5002 2.5002 0.0 0 0 195.4615 126.3148" />
<path d="M284.1122 19.0241 A2.5000 2.5000 0.0 0 0 280.9079 17.5299" />
<path d="M162.9391 33.9524
L163.3169 34.3272
" />
<path d="M62.5194 69.4893 A2.4998 2.4998 0.0 0 0 59.3151 70.9836" />
<path d="M263.6082 21.1660
L259.1619 8.9500
" />
<g >
</g>
<g >
</g>
<g >
</g>
<g >
</g>
<g >
</g>
<g >
</g>
<g >
</g>
<g >
</g>
<g >
</g>
<g >
</g>
<g >
</g>
<g >
</g>
<g >
</g>
<g >
</g>
<g >
</g>
<g >
</g>
<g >
</g>
<g >
</g>
<g >
</g>
<g >
</g>
<g >
</g>
<g >
</g>
<g >
</g>
<g >
</g>
<g >
</g>
<g >
</g>
<g >
</g>
<g >
</g>
<g >
</g>
<g >
</g>
<g >
</g>
<g >
</g>
<g >
</g>
<g >
</g>
<g >
</g>
<g >
</g>
<g >
</g>
<g >
</g>
<g >
</g>
<g >
</g>
<g >
</g>
<g >
</g>
<g >
</g>
<g >
</g>
<g >
</g>
<g >
</g>
<g >
</g>
<g >
</g>
<g >
</g>
<g >
</g>
<g >
</g>
<g >
</g>
<g >
</g>
<g >
</g>
<g >
</g>
<g >
</g>
<g >
</g>
<g >
</g>
<g >
</g>
<g >
</g>
<g >
</g>
<g >
</g>
<g >
</g>
<g >
</g>
<g >
</g>
<g >
</g>
<g >
</g>
<g >
</g>
<g >
</g>
<g >
</g>
<g >
</g>
<g >
</g>
<g >
</g>
<g >
</g>
<g >
</g>
<g >
</g>
<g >
</g>
<g >
</g>
<g >
</g>
<g >
</g>
<g >
</g>
<g >
</g>
<g >
</g>
<g >
</g>
<g >
</g>
<g >
</g>
<g >
</g>
</g> 
</svg>
