<?xml version="1.0" encoding="UTF-8" standalone="no"?>
<svg
   xmlns:dc="http://purl.org/dc/elements/1.1/"
   xmlns:cc="http://creativecommons.org/ns#"
   xmlns:rdf="http://www.w3.org/1999/02/22-rdf-syntax-ns#"
   xmlns:svg="http://www.w3.org/2000/svg"
   xmlns="http://www.w3.org/2000/svg"
   xmlns:sodipodi="http://sodipodi.sourceforge.net/DTD/sodipodi-0.dtd"
   xmlns:inkscape="http://www.inkscape.org/namespaces/inkscape"
   version="1.1"
   width="294.2082mm"
   height="158.0896mm"
   viewBox="0.0000 0.0000 294.2082 158.0896"
   id="svg3098"
   sodipodi:docname="seok-38_Mk1_rev0-Edge_Cuts.svg"
   inkscape:version="1.0.2 (e86c870879, 2021-01-15)">
  <metadata
     id="metadata3104">
    <rdf:RDF>
      <cc:Work
         rdf:about="">
        <dc:format>image/svg+xml</dc:format>
        <dc:type
           rdf:resource="http://purl.org/dc/dcmitype/StillImage" />
      </cc:Work>
    </rdf:RDF>
  </metadata>
  <defs
     id="defs3102" />
  <sodipodi:namedview
     pagecolor="#ffffff"
     bordercolor="#666666"
     borderopacity="1"
     objecttolerance="10"
     gridtolerance="10"
     guidetolerance="10"
     inkscape:pageopacity="0"
     inkscape:pageshadow="2"
     inkscape:window-width="1916"
     inkscape:window-height="1232"
     id="namedview3100"
     showgrid="false"
     inkscape:zoom="1.2185603"
     inkscape:cx="592.20379"
     inkscape:cy="218.23948"
     inkscape:window-x="0"
     inkscape:window-y="22"
     inkscape:window-maximized="0"
     inkscape:current-layer="svg3098" />
  <title
     id="title2642">SVG Image created as seok-38_Mk1_rev0-Edge_Cuts.svg date 2024/02/17 18:30:19 </title>
  <desc
     id="desc2644">Image generated by PCBNEW </desc>
  <g
     style="fill:#000000; fill-opacity:1.0000;stroke:#000000; stroke-opacity:1.0000; stroke-linecap:round; stroke-linejoin:round;"
     transform="translate(0 0) scale(1 1)"
     id="g2646" />
  <g
     style="fill:#000000; fill-opacity:0.0;  stroke:#000000; stroke-width:0.0000; stroke-opacity:1;  stroke-linecap:round; stroke-linejoin:round;"
     id="g2648" />
  <g
     style="fill:#000000; fill-opacity:0.0;  stroke:#000000; stroke-width:0.1000; stroke-opacity:1;  stroke-linecap:round; stroke-linejoin:round;"
     id="g2662">
    <path
       d="M192.3971 19.9482 L178.3017 25.0785 "
       id="path2650" />
    <path
       d="M98.7700 126.3148 A2.5001 2.5001 0.0 0 0 100.2643 129.5191"
       id="path2652" />
    <path
       d="M255.4205 68.8416 A2.5000 2.5000 0.0 0 0 252.2161 67.3474"
       id="path2654" />
    <path
       d="M102.0503 12.0455 L100.3402 16.7439 "
       id="path2656" />
    <path
       d="M162.7916 157.8930 L180.6457 151.3946 "
       id="path2658" />
    <path
       d="M102.0504 12.0455 A2.5000 2.5000 0.0 0 0 100.5561 8.8412"
       id="path2660" />
  </g>
  <g
     style="fill:#000000; fill-opacity:1.0000;  stroke:#000000; stroke-width:0.0000; stroke-opacity:1;  stroke-linecap:round; stroke-linejoin:round;"
     id="g2666">
    <circle
       cx="117.4240"
       cy="28.2828"
       r="0.0500"
       id="circle2664" />
  </g>
  <g
     style="fill:#000000; fill-opacity:0.0;  stroke:#000000; stroke-width:0.1000; stroke-opacity:1;  stroke-linecap:round; stroke-linejoin:round;"
     id="g2690">
    <path
       d="M234.9166 70.9835 A2.4999 2.4999 0.0 0 0 231.7122 69.4894"
       id="path2668" />
    <path
       d="M55.5736 11.0920 L58.9938 1.6950 "
       id="path2670" />
    <path
       d="M278.4412 54.6098 L292.5366 49.4795 "
       id="path2672" />
    <path
       d="M196.9556 123.1106 L211.0510 117.9803 "
       id="path2674" />
    <path
       d="M72.8560 73.2516 L62.5194 69.4894 "
       id="path2676" />
    <path
       d="M238.1207 72.4777 L252.2161 67.3474 "
       id="path2678" />
    <path
       d="M133.2320 33.2274 A2.4998 2.4998 0.0 0 0 131.4784 33.9457"
       id="path2680" />
    <path
       d="M155.4746 145.1518 L159.5873 156.3988 "
       id="path2682" />
    <path
       d="M280.9079 17.5299 L266.8125 22.6602 "
       id="path2684" />
    <path
       d="M255.4204 68.8416 L258.8406 78.2385 "
       id="path2686" />
    <path
       d="M220.0973 84.3586 A2.4997 2.4997 0.0 0 0 221.5915 81.1543"
       id="path2688" />
  </g>
  <g
     style="fill:#000000; fill-opacity:1.0000;  stroke:#000000; stroke-width:0.0000; stroke-opacity:1;  stroke-linecap:round; stroke-linejoin:round;"
     id="g2694">
    <circle
       cx="214.7338"
       cy="3.8370"
       r="0.0500"
       id="circle2692" />
  </g>
  <g
     style="fill:#000000; fill-opacity:0.0;  stroke:#000000; stroke-width:0.1000; stroke-opacity:1;  stroke-linecap:round; stroke-linejoin:round;"
     id="g2790">
    <path
       d="M259.1620 8.9500 A2.4998 2.4998 0.0 0 0 255.9577 7.4559"
       id="path2696" />
    <path
       d="M131.4784 33.9457 L131.0363 34.3808 "
       id="path2698" />
    <path
       d="M163.3170 34.3272 A2.5003 2.5003 0.0 0 0 165.9325 34.9014"
       id="path2700" />
    <path
       d="M262.0449 79.7327 L279.8991 73.2343 "
       id="path2702" />
    <path
       d="M178.3017 25.0785 A2.5000 2.5000 0.0 0 0 176.8076 28.2828"
       id="path2704" />
    <path
       d="M114.3597 134.6494 L100.2643 129.5191 "
       id="path2706" />
    <path
       d="M38.8111 68.8416 L35.3909 78.2385 "
       id="path2708" />
    <path
       d="M263.6083 21.1660 A2.5005 2.5005 0.0 0 0 266.8125 22.6602"
       id="path2710" />
    <path
       d="M72.6401 81.1544 A2.4998 2.4998 0.0 0 0 74.1342 84.3586"
       id="path2712" />
    <path
       d="M281.3932 70.0301 L276.9470 57.8141 "
       id="path2714" />
    <path
       d="M175.3134 31.4871 L165.9325 34.9014 "
       id="path2716" />
    <path
       d="M193.6754 8.8412 A2.5002 2.5002 0.0 0 0 192.1812 12.0455"
       id="path2718" />
    <path
       d="M81.6863 114.7760 L89.7238 92.6932 "
       id="path2720" />
    <path
       d="M76.2935 5.3311 A2.5000 2.5000 0.0 0 0 79.4977 3.8370"
       id="path2722" />
    <path
       d="M131.4400 157.8930 L113.5858 151.3946 "
       id="path2724" />
    <path
       d="M38.2739 7.4558 A2.4999 2.4999 0.0 0 0 35.0696 8.9500"
       id="path2726" />
    <path
       d="M0.2008 46.2752 L10.1194 19.0241 "
       id="path2728" />
    <path
       d="M214.7339 3.8370 A2.4999 2.4999 0.0 0 0 211.5295 2.3428"
       id="path2730" />
    <path
       d="M211.0510 117.9803 A2.4999 2.4999 0.0 0 0 212.5452 114.7760"
       id="path2732" />
    <path
       d="M232.0335 0.2009 L217.9381 5.3312 "
       id="path2734" />
    <path
       d="M82.7020 2.3428 A2.5000 2.5000 0.0 0 0 79.4977 3.8370"
       id="path2736" />
    <path
       d="M134.6442 156.3988 L138.7365 145.1554 "
       id="path2738" />
    <path
       d="M193.9673 129.5192 A2.4998 2.4998 0.0 0 0 195.4615 126.3148"
       id="path2740" />
    <path
       d="M101.8344 19.9482 L115.9298 25.0785 "
       id="path2742" />
    <path
       d="M221.3756 73.2516 A2.5001 2.5001 0.0 0 0 219.8814 76.4559"
       id="path2744" />
    <path
       d="M100.3402 16.7439 A2.4999 2.4999 0.0 0 0 101.8344 19.9482"
       id="path2746" />
    <path
       d="M235.2378 1.6950 A2.4997 2.4997 0.0 0 0 232.0335 0.2009"
       id="path2748" />
    <path
       d="M82.7020 2.3428 L100.5561 8.8412 "
       id="path2750" />
    <path
       d="M159.5874 156.3988 A2.5003 2.5003 0.0 0 0 162.7916 157.8930"
       id="path2752" />
    <path
       d="M278.4412 54.6098 A2.5002 2.5002 0.0 0 0 276.9470 57.8141"
       id="path2754" />
    <path
       d="M13.3237 17.5299 L27.4191 22.6602 "
       id="path2756" />
    <path
       d="M180.6458 151.3946 A2.4998 2.4998 0.0 0 0 182.1399 148.1903"
       id="path2758" />
    <path
       d="M17.2845 57.8140 A2.5001 2.5001 0.0 0 0 15.7904 54.6098"
       id="path2760" />
    <path
       d="M56.1108 72.4777 L42.0154 67.3474 "
       id="path2762" />
    <path
       d="M117.4239 28.2828 A2.5000 2.5000 0.0 0 0 118.9182 31.4871"
       id="path2764" />
    <path
       d="M62.1980 0.2009 L76.2934 5.3312 "
       id="path2766" />
    <path
       d="M42.0154 67.3475 A2.5001 2.5001 0.0 0 0 38.8111 68.8416"
       id="path2768" />
    <path
       d="M211.5295 2.3428 L193.6754 8.8412 "
       id="path2770" />
    <path
       d="M30.6233 21.1660 L35.0696 8.9500 "
       id="path2772" />
    <path
       d="M192.3971 19.9482 A2.4998 2.4998 0.0 0 0 193.8913 16.7439"
       id="path2774" />
    <path
       d="M112.0916 148.1903 L115.8538 137.8537 "
       id="path2776" />
    <path
       d="M292.5366 49.4795 A2.5000 2.5000 0.0 0 0 294.0307 46.2752"
       id="path2778" />
    <path
       d="M12.8383 70.0301 L17.2846 57.8141 "
       id="path2780" />
    <path
       d="M97.2759 123.1106 L83.1805 117.9803 "
       id="path2782" />
    <path
       d="M212.5452 114.7760 L204.5077 92.6932 "
       id="path2784" />
    <path
       d="M162.9391 33.9525 A2.4997 2.4997 0.0 0 0 161.1786 33.2274"
       id="path2786" />
    <path
       d="M12.8384 70.0301 A2.5000 2.5000 0.0 0 0 14.3325 73.2343"
       id="path2788" />
  </g>
  <g
     style="fill:#000000; fill-opacity:1.0000;  stroke:#000000; stroke-width:0.0000; stroke-opacity:1;  stroke-linecap:round; stroke-linejoin:round;"
     id="g2794">
    <circle
       cx="98.7701"
       cy="126.3148"
       r="0.0500"
       id="circle2792" />
  </g>
  <g
     style="fill:#000000; fill-opacity:1.0000;  stroke:#000000; stroke-width:0.1000; stroke-opacity:1;  stroke-linecap:round; stroke-linejoin:round;"
     id="g2796" />
  <g
     style="fill:#000000; fill-opacity:0.0;  stroke:#000000; stroke-width:0.1000; stroke-opacity:1;  stroke-linecap:round; stroke-linejoin:round;"
     id="g2858">
    <path
       d="M141.0857 143.5104 L153.1267 143.5104 "
       id="path2798" />
    <path
       d="M98.7701 126.3149 A2.5000 2.5000 0.0 0 0 97.2759 123.1106"
       id="path2800" />
    <path
       d="M155.4746 145.1518 A2.4999 2.4999 0.0 0 0 153.1267 143.5104"
       id="path2802" />
    <path
       d="M141.0857 143.5105 A2.5001 2.5001 0.0 0 0 138.7365 145.1554"
       id="path2804" />
    <path
       d="M117.4240 28.2828 A2.5001 2.5001 0.0 0 0 115.9298 25.0785"
       id="path2806" />
    <path
       d="M62.1980 0.2009 A2.4998 2.4998 0.0 0 0 58.9938 1.6950"
       id="path2808" />
    <path
       d="M118.9182 31.4871 L128.4276 34.9482 "
       id="path2810" />
    <path
       d="M72.6400 81.1543 L74.3502 76.4559 "
       id="path2812" />
    <path
       d="M52.3693 12.5861 A2.4999 2.4999 0.0 0 0 55.5736 11.0920"
       id="path2814" />
    <path
       d="M133.2320 33.2274 L161.1786 33.2274 "
       id="path2816" />
    <path
       d="M179.8719 134.6494 L193.9673 129.5191 "
       id="path2818" />
    <path
       d="M0.2008 46.2752 A2.5000 2.5000 0.0 0 0 1.6950 49.4795"
       id="path2820" />
    <path
       d="M192.1812 12.0455 L193.8913 16.7439 "
       id="path2822" />
    <path
       d="M279.8991 73.2343 A2.4998 2.4998 0.0 0 0 281.3932 70.0301"
       id="path2824" />
    <path
       d="M206.0019 89.4889 A2.4999 2.4999 0.0 0 0 204.5077 92.6932"
       id="path2826" />
    <path
       d="M81.6864 114.7760 A2.5002 2.5002 0.0 0 0 83.1805 117.9803"
       id="path2828" />
    <path
       d="M255.9577 7.4559 L241.8623 12.5861 "
       id="path2830" />
    <path
       d="M131.4400 157.8930 A2.5002 2.5002 0.0 0 0 134.6442 156.3988"
       id="path2832" />
    <path
       d="M206.0019 89.4889 L220.0973 84.3586 "
       id="path2834" />
    <path
       d="M13.3237 17.5299 A2.5001 2.5001 0.0 0 0 10.1194 19.0241"
       id="path2836" />
    <path
       d="M258.8407 78.2385 A2.5001 2.5001 0.0 0 0 262.0449 79.7327"
       id="path2838" />
    <path
       d="M56.1108 72.4777 A2.5000 2.5000 0.0 0 0 59.3151 70.9836"
       id="path2840" />
    <path
       d="M294.0307 46.2752 L284.1122 19.0241 "
       id="path2842" />
    <path
       d="M115.8539 137.8537 A2.5001 2.5001 0.0 0 0 114.3597 134.6494"
       id="path2844" />
    <path
       d="M89.7238 92.6932 A2.4999 2.4999 0.0 0 0 88.2296 89.4889"
       id="path2846" />
    <path
       d="M38.2739 7.4559 L52.3693 12.5861 "
       id="path2848" />
    <path
       d="M221.5915 81.1543 L219.8814 76.4559 "
       id="path2850" />
    <path
       d="M182.1399 148.1903 L178.3777 137.8537 "
       id="path2852" />
    <path
       d="M15.7904 54.6098 L1.6950 49.4795 "
       id="path2854" />
    <path
       d="M32.1866 79.7327 A2.4999 2.4999 0.0 0 0 35.3909 78.2385"
       id="path2856" />
  </g>
  <g
     style="fill:#000000; fill-opacity:1.0000;  stroke:#000000; stroke-width:0.0000; stroke-opacity:1;  stroke-linecap:round; stroke-linejoin:round;"
     id="g2862">
    <circle
       cx="234.9165"
       cy="70.9835"
       r="0.0500"
       id="circle2860" />
  </g>
  <g
     style="fill:#000000; fill-opacity:0.0;  stroke:#000000; stroke-width:0.1000; stroke-opacity:1;  stroke-linecap:round; stroke-linejoin:round;"
     id="g2868">
    <path
       d="M179.8719 134.6494 A2.5001 2.5001 0.0 0 0 178.3777 137.8537"
       id="path2864" />
    <path
       d="M112.0916 148.1903 A2.5000 2.5000 0.0 0 0 113.5858 151.3946"
       id="path2866" />
  </g>
  <g
     style="fill:#000000; fill-opacity:1.0000;  stroke:#000000; stroke-width:0.0000; stroke-opacity:1;  stroke-linecap:round; stroke-linejoin:round;"
     id="g2872">
    <circle
       cx="195.4615"
       cy="126.3148"
       r="0.0500"
       id="circle2870" />
  </g>
  <g
     style="fill:#000000; fill-opacity:1.0000;  stroke:#000000; stroke-width:0.1000; stroke-opacity:1;  stroke-linecap:round; stroke-linejoin:round;"
     id="g2874" />
  <g
     style="fill:#000000; fill-opacity:0.0;  stroke:#000000; stroke-width:0.1000; stroke-opacity:1;  stroke-linecap:round; stroke-linejoin:round;"
     id="g2886">
    <path
       d="M88.2296 89.4889 L74.1342 84.3586 "
       id="path2876" />
    <path
       d="M32.1866 79.7327 L14.3325 73.2343 "
       id="path2878" />
    <path
       d="M175.3134 31.4871 A2.4999 2.4999 0.0 0 0 176.8076 28.2828"
       id="path2880" />
    <path
       d="M74.3502 76.4559 A2.5003 2.5003 0.0 0 0 72.8560 73.2516"
       id="path2882" />
    <path
       d="M221.3756 73.2516 L231.7122 69.4894 "
       id="path2884" />
  </g>
  <g
     style="fill:#000000; fill-opacity:1.0000;  stroke:#000000; stroke-width:0.0000; stroke-opacity:1;  stroke-linecap:round; stroke-linejoin:round;"
     id="g2890">
    <circle
       cx="79.4977"
       cy="3.8370"
       r="0.0500"
       id="circle2888" />
  </g>
  <g
     style="fill:#000000; fill-opacity:0.0;  stroke:#000000; stroke-width:0.1000; stroke-opacity:1;  stroke-linecap:round; stroke-linejoin:round;"
     id="g2904">
    <path
       d="M234.9165 70.9835 A2.5000 2.5000 0.0 0 0 238.1207 72.4777"
       id="path2892" />
    <path
       d="M214.7339 3.8370 A2.5003 2.5003 0.0 0 0 217.9381 5.3312"
       id="path2894" />
    <path
       d="M27.4191 22.6602 A2.5001 2.5001 0.0 0 0 30.6233 21.1660"
       id="path2896" />
    <path
       d="M238.6580 11.0920 A2.5002 2.5002 0.0 0 0 241.8623 12.5861"
       id="path2898" />
    <path
       d="M238.6580 11.0920 L235.2378 1.6950 "
       id="path2900" />
    <path
       d="M128.4276 34.9483 A2.5002 2.5002 0.0 0 0 131.0363 34.3808"
       id="path2902" />
  </g>
  <g
     style="fill:#000000; fill-opacity:1.0000;  stroke:#000000; stroke-width:0.0000; stroke-opacity:1;  stroke-linecap:round; stroke-linejoin:round;"
     id="g2910">
    <circle
       cx="176.8076"
       cy="28.2828"
       r="0.0500"
       id="circle2906" />
    <circle
       cx="59.3151"
       cy="70.9836"
       r="0.0500"
       id="circle2908" />
  </g>
  <g
     style="fill:#000000; fill-opacity:0.0;  stroke:#000000; stroke-width:0.1000; stroke-opacity:1;  stroke-linecap:round; stroke-linejoin:round;"
     id="g3096">
    <path
       d="M196.9556 123.1106 A2.5002 2.5002 0.0 0 0 195.4615 126.3148"
       id="path2912" />
    <path
       d="M284.1122 19.0241 A2.5000 2.5000 0.0 0 0 280.9079 17.5299"
       id="path2914" />
    <path
       d="M162.9391 33.9524 L163.3169 34.3272 "
       id="path2916" />
    <path
       d="M62.5194 69.4893 A2.4998 2.4998 0.0 0 0 59.3151 70.9836"
       id="path2918" />
    <path
       d="M263.6082 21.1660 L259.1619 8.9500 "
       id="path2920" />
    <g
       id="g2922" />
    <g
       id="g2924" />
    <g
       id="g2926" />
    <g
       id="g2928" />
    <g
       id="g2930" />
    <g
       id="g2932" />
    <g
       id="g2934" />
    <g
       id="g2936" />
    <g
       id="g2938" />
    <g
       id="g2940" />
    <g
       id="g2942" />
    <g
       id="g2944" />
    <g
       id="g2946" />
    <g
       id="g2948" />
    <g
       id="g2950" />
    <g
       id="g2952" />
    <g
       id="g2954" />
    <g
       id="g2956" />
    <g
       id="g2958" />
    <g
       id="g2960" />
    <g
       id="g2962" />
    <g
       id="g2964" />
    <g
       id="g2966" />
    <g
       id="g2968" />
    <g
       id="g2970" />
    <g
       id="g2972" />
    <g
       id="g2974" />
    <g
       id="g2976" />
    <g
       id="g2978" />
    <g
       id="g2980" />
    <g
       id="g2982" />
    <g
       id="g2984" />
    <g
       id="g2986" />
    <g
       id="g2988" />
    <g
       id="g2990" />
    <g
       id="g2992" />
    <g
       id="g2994" />
    <g
       id="g2996" />
    <g
       id="g2998" />
    <g
       id="g3000" />
    <g
       id="g3002" />
    <g
       id="g3004" />
    <g
       id="g3006" />
    <g
       id="g3008" />
    <g
       id="g3010" />
    <g
       id="g3012" />
    <g
       id="g3014" />
    <g
       id="g3016" />
    <g
       id="g3018" />
    <g
       id="g3020" />
    <g
       id="g3022" />
    <g
       id="g3024" />
    <g
       id="g3026" />
    <g
       id="g3028" />
    <g
       id="g3030" />
    <g
       id="g3032" />
    <g
       id="g3034" />
    <g
       id="g3036" />
    <g
       id="g3038" />
    <g
       id="g3040" />
    <g
       id="g3042" />
    <g
       id="g3044" />
    <g
       id="g3046" />
    <g
       id="g3048" />
    <g
       id="g3050" />
    <g
       id="g3052" />
    <g
       id="g3054" />
    <g
       id="g3056" />
    <g
       id="g3058" />
    <g
       id="g3060" />
    <g
       id="g3062" />
    <g
       id="g3064" />
    <g
       id="g3066" />
    <g
       id="g3068" />
    <g
       id="g3070" />
    <g
       id="g3072" />
    <g
       id="g3074" />
    <g
       id="g3076" />
    <g
       id="g3078" />
    <g
       id="g3080" />
    <g
       id="g3082" />
    <g
       id="g3084" />
    <g
       id="g3086" />
    <g
       id="g3088" />
    <g
       id="g3090" />
    <g
       id="g3092" />
    <g
       id="g3094" />
  </g>
  <path
     style="fill:#000000;fill-opacity:0.97278;stroke:#393939;stroke-width:1.55082;stroke-linecap:round;stroke-linejoin:round"
     d="m 463.49807,583.98819 c -19.60461,-7.1794 -36.01125,-13.64665 -37.09379,-14.6218 -3.6708,-3.30667 -3.47323,-5.03059 2.46455,-21.50543 10.28402,-28.53376 10.43654,-29.02524 9.89803,-31.89572 -1.04374,-5.56364 -2.30744,-6.23127 -32.43816,-17.13732 -34.06496,-12.33007 -33.28865,-11.81032 -32.41311,-21.70109 l 0.56585,-6.39237 -2.74594,-2.88689 c -2.40845,-2.53208 -5.87269,-4.01413 -28.1858,-12.0583 -13.99193,-5.04426 -26.98312,-9.83936 -28.86932,-10.65575 -3.36513,-1.45653 -6.00791,-4.89184 -6.00791,-7.80961 0,-0.73648 7.01648,-20.65645 15.59217,-44.2666 9.57671,-26.36609 15.59217,-44.08561 15.59217,-45.92928 0,-3.72999 -1.72216,-7.17954 -4.23835,-8.48956 -1.05405,-0.54877 -14.45,-5.58602 -29.76877,-11.1939 -28.69014,-10.50283 -30.18639,-11.26868 -31.07255,-15.90431 -0.20307,-1.06227 1.43686,-7.14827 3.65319,-13.55758 4.15797,-12.02419 4.38669,-14.33067 1.81091,-18.2618 -0.62416,-0.95259 -2.14521,-2.1991 -3.3801,-2.77002 -5.0918,-2.35405 -42.33806,-15.62775 -43.85176,-15.62775 -3.20927,0 -7.28575,2.65303 -8.88092,5.77984 -2.03357,3.98611 -5.3059,6.52977 -8.40033,6.52977 -1.34889,0 -15.18137,-4.62647 -30.73883,-10.28104 -30.9587,-11.25235 -32.00383,-11.45446 -36.35466,-7.03058 -1.42876,1.45276 -4.27892,8.20036 -8.96626,21.2271 -7.11973,19.78669 -8.67953,22.58792 -13.12072,23.56337 -1.71944,0.37765 -10.93312,-2.64238 -37.234004,-12.20443 -19.222047,-6.98845 -35.704312,-13.11041 -36.627255,-13.60435 -1.932033,-1.034 -4.156989,-4.94384 -4.156989,-7.30495 0,-0.88725 4.062171,-12.72057 9.027047,-26.29626 4.964875,-13.57569 9.027046,-25.43576 9.027046,-26.3557 0,-3.09991 -2.315845,-7.24672 -4.749992,-8.50547 -1.329552,-0.68753 -14.05404,-5.48003 -28.276641,-10.64998 -14.222601,-5.16996 -26.9402927,-9.95894 -28.2615366,-10.64218 -2.5553297,-1.32142 -4.36307586,-4.37367 -4.36307586,-7.36673 0,-2.70764 38.14470946,-107.058047 39.80516646,-108.892831 0.783928,-0.866232 2.648109,-1.978521 4.142622,-2.471756 2.496769,-0.824008 5.017924,-0.0606 31.064918,9.406474 18.60711,6.762962 29.478024,10.303263 31.637434,10.303263 6.13547,0 7.20029,-1.776105 16.48188,-27.491459 4.56147,-12.637865 8.8696,-24.194391 9.57363,-25.681168 1.3448,-2.839911 4.71688,-5.092854 7.6227,-5.092854 0.94688,0 14.46298,4.616104 30.03577,10.258007 15.57279,5.641904 29.07052,10.258008 29.99495,10.258008 3.42268,0 7.16183,-2.554605 8.8201,-6.025936 0.89632,-1.876287 4.42535,-11.166484 7.8423,-20.644883 6.84564,-18.9893411 8.09051,-20.9263343 13.44906,-20.9263343 1.86373,0 13.63367,3.8529149 30.08285,9.8476873 18.282,6.662725 28.12318,9.847686 30.42826,9.847686 4.04288,0 6.88282,-1.959343 9.44335,-6.51519 1.99605,-3.551503 4.57247,-5.2530785 7.92716,-5.2354405 2.04666,0.010759 65.13186,22.4903875 71.33586,25.4196475 3.16407,1.493939 5.55852,6.064014 4.80626,9.173312 -0.29104,1.202965 -1.98501,6.185766 -3.76438,11.072891 -4.24731,11.665397 -4.14796,16.743558 0.38566,19.714102 0.94965,0.622238 14.18713,5.663181 29.41661,11.202095 18.63349,6.77694 28.33094,10.711723 29.64971,12.030493 2.43944,2.439436 2.96505,5.023296 1.93634,9.518786 -0.96554,4.21943 0.60218,8.7799 3.72061,10.82318 3.1012,2.03199 39.83806,15.22388 42.39554,15.22388 1.24629,0 3.52078,-0.91096 5.05442,-2.02435 1.53364,-1.11341 3.69542,-2.68288 4.80395,-3.48773 1.88664,-1.36979 5.56742,-1.46336 57.56561,-1.46336 h 55.55011 l 3.32358,2.6709 c 4.21736,3.38916 7.17317,4.5097 10.16339,3.85294 4.64964,-1.02123 38.01166,-13.54159 40.02344,-15.0203 2.97997,-2.19037 4.1524,-6.34247 3.13624,-11.10691 -0.95583,-4.48156 0.1179,-8.114572 2.94588,-9.96753 0.94992,-0.622414 13.54139,-5.423712 27.98104,-10.66955 30.84738,-11.206665 30.84045,-11.203634 32.64994,-14.266869 2.15613,-3.650032 1.71251,-7.13844 -2.29282,-18.029607 -2.03108,-5.522868 -3.69288,-10.775066 -3.69288,-11.67155 0,-2.256893 2.18731,-6.271277 3.90654,-7.169681 5.00219,-2.613963 70.83213,-25.8273827 73.10629,-25.7792554 3.07182,0.065011 6.80152,3.0820424 8.30894,6.7212714 1.20839,2.917305 4.85649,4.983825 8.79815,4.983825 2.02255,0 13.05262,-3.595855 30.20712,-9.847686 15.81449,-5.7634499 28.22495,-9.8401192 29.92343,-9.8294397 3.09185,0.01944 5.83976,1.7512093 7.29254,4.5958212 0.48927,0.9580047 3.69231,9.4179875 7.11783,18.7999615 3.4256,9.381974 6.78588,18.136416 7.46742,19.454316 1.24655,2.410591 5.40244,4.728807 8.47738,4.728807 0.9105,0 14.35579,-4.616104 29.87845,-10.258008 15.52258,-5.641903 29.04247,-10.258007 30.04407,-10.258007 2.62728,0 6.29127,2.394191 7.42884,4.854312 0.53949,1.166623 4.81323,12.645848 9.49711,25.509389 9.50557,26.105061 10.58184,27.90178 16.71427,27.90178 2.0754,0 13.3783,-3.677357 31.6531,-10.298146 26.0445,-9.435775 28.6511,-10.223476 31.1267,-9.406473 1.4859,0.490419 3.285,1.536139 3.9978,2.323822 1.734,1.916077 39.9344,106.840537 39.9344,109.687287 0,1.4312 -0.9563,3.17364 -2.667,4.85927 -2.1845,2.15244 -7.3448,4.31592 -28.5173,11.95597 -14.2176,5.1304 -27.2274,10.00776 -28.9107,10.83859 -3.2948,1.62624 -5.5562,5.06155 -5.5562,8.44043 0,1.15699 4.0949,13.44756 9.0998,27.31238 8.5065,23.56497 9.0413,25.40448 8.2007,28.21026 -0.4946,1.65083 -1.8231,3.60675 -2.952,4.3465 -1.129,0.73976 -17.8304,7.09109 -37.1142,14.11409 -33.43308,12.176 -35.20525,12.72601 -38.15619,11.84188 -1.7021,-0.50995 -3.65785,-1.78664 -4.34612,-2.83707 -0.68827,-1.05044 -4.33011,-10.3597 -8.09299,-20.68724 -4.63818,-12.72966 -7.52265,-19.47193 -8.95614,-20.93394 -4.26619,-4.35101 -5.20656,-4.1671 -36.08866,7.0574 -15.55745,5.65457 -29.47667,10.28104 -30.93158,10.28104 -2.7091,0 -4.63375,-1.62018 -10.12991,-8.52743 -4.06717,-5.11145 -5.21303,-4.96664 -29.38459,3.71376 -14.27291,5.12561 -22.17289,8.3909 -23.71561,9.80226 -4.03599,3.69241 -3.98027,6.78186 0.33646,18.64263 2.08689,5.73395 3.79292,11.61972 3.79128,13.07949 -0.008,5.56184 -2.01845,6.65628 -32.82858,17.85539 -20.32575,7.38816 -28.80309,10.84427 -30.05272,12.25214 -4.02295,4.53239 -4.0828,4.29803 13.23878,51.84181 12.10063,33.21346 15.94197,44.65422 15.56673,46.36272 -1.01943,4.64142 -3.52786,5.91468 -32.18717,16.33798 -15.22948,5.53891 -28.48653,10.59268 -29.46011,11.23059 -2.69094,1.76317 -3.59495,4.96209 -3.37086,11.92792 0.18682,5.80717 0.033,6.50342 -1.84781,8.36283 -1.41525,1.39914 -10.55154,5.1084 -29.45502,11.95849 -15.07187,5.46162 -28.10905,10.30787 -28.97149,10.76944 -2.16996,1.16133 -4.75606,5.63045 -4.75975,8.22549 -0.002,1.18628 3.52258,11.85767 7.83169,23.71421 5.67712,15.62059 7.70013,22.17031 7.34589,23.78314 -1.03119,4.69499 -3.66267,5.95575 -40.21018,19.26493 -33.52124,12.20713 -35.44176,12.80468 -38.36827,11.9379 -1.6944,-0.50186 -3.67932,-1.82604 -4.41095,-2.94265 -0.73162,-1.1166 -5.07969,-12.26462 -9.66237,-24.77336 -7.67325,-20.94469 -8.55082,-22.89054 -11.09742,-24.6067 -2.73137,-1.84067 -3.08562,-1.86352 -28.89147,-1.86352 h -26.1262 l -2.51198,2.25676 c -2.06717,1.85714 -3.95273,6.21526 -10.64793,24.61086 -4.47476,12.29475 -8.54995,23.12769 -9.05597,24.07321 -0.90106,1.68363 -5.44866,4.09287 -7.53187,3.99027 -0.57869,-0.0285 -16.87087,-5.8448 -36.20485,-12.92509 z"
     id="path3106"
     transform="scale(0.26458332)" />
</svg>
